G04 #@! TF.FileFunction,Copper,L2,Bot,Signal*
%FSLAX46Y46*%
G04 Gerber Fmt 4.6, Leading zero omitted, Abs format (unit mm)*
G04 Created by KiCad (PCBNEW 4.0.2+dfsg1-stable) date Mon 24 Oct 2016 13:43:27 CEST*
%MOMM*%
G01*
G04 APERTURE LIST*
%ADD10C,0.100000*%
%ADD11C,0.150000*%
%ADD12C,1.300000*%
%ADD13R,1.727200X1.727200*%
%ADD14O,1.727200X1.727200*%
%ADD15R,1.800000X1.800000*%
%ADD16C,1.800000*%
%ADD17R,2.032000X1.727200*%
%ADD18O,2.032000X1.727200*%
%ADD19R,1.727200X2.032000*%
%ADD20O,1.727200X2.032000*%
%ADD21O,1.998980X1.998980*%
%ADD22R,1.998980X1.998980*%
%ADD23C,2.400000*%
%ADD24R,2.400000X2.400000*%
%ADD25C,0.600000*%
%ADD26C,1.000000*%
%ADD27C,0.250000*%
%ADD28C,0.500000*%
%ADD29C,0.254000*%
G04 APERTURE END LIST*
D10*
D11*
X72644000Y48196500D02*
X72644000Y54610000D01*
X72644000Y36068000D02*
X72644000Y0D01*
X54800500Y36068000D02*
X72644000Y36068000D01*
X54800500Y48196500D02*
X54800500Y36068000D01*
X72644000Y48196500D02*
X54800500Y48196500D01*
X72644000Y0D02*
X0Y0D01*
X0Y54610000D02*
X72644000Y54610000D01*
X0Y0D02*
X0Y54610000D01*
D12*
X2500000Y42775000D03*
X8800000Y42775000D03*
D13*
X69088000Y14986000D03*
D14*
X66548000Y14986000D03*
X69088000Y17526000D03*
X66548000Y17526000D03*
X69088000Y20066000D03*
X66548000Y20066000D03*
X69088000Y22606000D03*
X66548000Y22606000D03*
D15*
X58420000Y52705000D03*
D16*
X58420000Y50165000D03*
X55880000Y52705000D03*
X55880000Y50165000D03*
X53340000Y52705000D03*
X53340000Y50165000D03*
X50800000Y52705000D03*
X50800000Y50165000D03*
X48260000Y52705000D03*
X48260000Y50165000D03*
X45720000Y52705000D03*
X45720000Y50165000D03*
X43180000Y52705000D03*
X43180000Y50165000D03*
X40640000Y52705000D03*
X40640000Y50165000D03*
X38100000Y52705000D03*
X38100000Y50165000D03*
X35560000Y52705000D03*
X35560000Y50165000D03*
X33020000Y52705000D03*
X33020000Y50165000D03*
X30480000Y52705000D03*
X30480000Y50165000D03*
X27940000Y52705000D03*
X27940000Y50165000D03*
X25400000Y52705000D03*
X25400000Y50165000D03*
X22860000Y52705000D03*
X22860000Y50165000D03*
X20320000Y52705000D03*
X20320000Y50165000D03*
X17780000Y52705000D03*
X17780000Y50165000D03*
X15240000Y52705000D03*
X15240000Y50165000D03*
X12700000Y52705000D03*
X12700000Y50165000D03*
X10160000Y52705000D03*
X10160000Y50165000D03*
X7620000Y52705000D03*
X7620000Y50165000D03*
X5080000Y52705000D03*
X5080000Y50165000D03*
X2540000Y52705000D03*
X2540000Y50165000D03*
D15*
X58420000Y4445000D03*
D16*
X58420000Y1905000D03*
X55880000Y4445000D03*
X55880000Y1905000D03*
X53340000Y4445000D03*
X53340000Y1905000D03*
X50800000Y4445000D03*
X50800000Y1905000D03*
X48260000Y4445000D03*
X48260000Y1905000D03*
X45720000Y4445000D03*
X45720000Y1905000D03*
X43180000Y4445000D03*
X43180000Y1905000D03*
X40640000Y4445000D03*
X40640000Y1905000D03*
X38100000Y4445000D03*
X38100000Y1905000D03*
X35560000Y4445000D03*
X35560000Y1905000D03*
X33020000Y4445000D03*
X33020000Y1905000D03*
X30480000Y4445000D03*
X30480000Y1905000D03*
X27940000Y4445000D03*
X27940000Y1905000D03*
X25400000Y4445000D03*
X25400000Y1905000D03*
X22860000Y4445000D03*
X22860000Y1905000D03*
X20320000Y4445000D03*
X20320000Y1905000D03*
X17780000Y4445000D03*
X17780000Y1905000D03*
X15240000Y4445000D03*
X15240000Y1905000D03*
X12700000Y4445000D03*
X12700000Y1905000D03*
X10160000Y4445000D03*
X10160000Y1905000D03*
X7620000Y4445000D03*
X7620000Y1905000D03*
X5080000Y4445000D03*
X5080000Y1905000D03*
X2540000Y4445000D03*
X2540000Y1905000D03*
D17*
X17780000Y32385000D03*
D18*
X17780000Y29845000D03*
X17780000Y27305000D03*
X17780000Y24765000D03*
X17780000Y22225000D03*
X17780000Y19685000D03*
X17780000Y17145000D03*
X17780000Y14605000D03*
X17780000Y12065000D03*
X17780000Y9525000D03*
D19*
X35560000Y9525000D03*
D20*
X38100000Y9525000D03*
X40640000Y9525000D03*
X43180000Y9525000D03*
X45720000Y9525000D03*
X48260000Y9525000D03*
X50800000Y9525000D03*
X53340000Y9525000D03*
X55880000Y9525000D03*
X58420000Y9525000D03*
D17*
X46863000Y44831000D03*
D18*
X46863000Y42291000D03*
X46863000Y39751000D03*
D21*
X66548000Y52578000D03*
D22*
X66548000Y50038000D03*
D12*
X2500000Y28075000D03*
X8800000Y28075000D03*
X2500000Y13375000D03*
X8800000Y13375000D03*
D23*
X67818000Y33726000D03*
D24*
X67818000Y30226000D03*
D25*
X22860000Y28575000D03*
X40640000Y28575000D03*
X46355000Y28575000D03*
X59690000Y24765000D03*
D26*
X50546000Y40068500D03*
X33629600Y48285400D03*
X44386500Y48577500D03*
X60325000Y30988000D03*
X56261000Y24638000D03*
X31369000Y24257000D03*
D25*
X62865000Y7620000D03*
X22479000Y25527000D03*
X29210000Y24384000D03*
D26*
X53784500Y44958000D03*
D25*
X50355500Y48387000D03*
X50800000Y43307000D03*
X51689000Y38417500D03*
X55245000Y29845000D03*
X32385000Y29210000D03*
D26*
X65278000Y32512000D03*
X50292000Y38481000D03*
D25*
X64846200Y14884400D03*
X62712600Y14757400D03*
X63119000Y21082000D03*
X61976000Y13589000D03*
X62458600Y19481800D03*
X33147000Y18224500D03*
X27178000Y19812000D03*
X21145500Y19367500D03*
X23812500Y12636500D03*
X31813500Y20764500D03*
X41529000Y17526000D03*
X39179500Y11938000D03*
X33591500Y11874500D03*
X36449000Y11938000D03*
X41529000Y11874500D03*
X44069000Y11938000D03*
X46863000Y11938000D03*
X56134000Y32258000D03*
X43180000Y32004000D03*
X31750000Y32004000D03*
X21336000Y33020000D03*
X56743600Y14655800D03*
X12598400Y31292800D03*
X12877800Y40055800D03*
X60261500Y26352500D03*
X60325000Y28956000D03*
X23812500Y10223500D03*
X43624500Y16065500D03*
D27*
X40640000Y28575000D02*
X22860000Y28575000D01*
X46355000Y28575000D02*
X40640000Y28575000D01*
X55880000Y28575000D02*
X46355000Y28575000D01*
X59690000Y24765000D02*
X55880000Y28575000D01*
D28*
X48888650Y41840150D02*
X48888650Y41725850D01*
X48888650Y41725850D02*
X50546000Y40068500D01*
X67818000Y30226000D02*
X67818000Y25400000D01*
X69088000Y24130000D02*
X69088000Y22606000D01*
X67818000Y25400000D02*
X69088000Y24130000D01*
X67818000Y30226000D02*
X66675000Y30226000D01*
X66675000Y30226000D02*
X65913000Y30988000D01*
X65913000Y30988000D02*
X60325000Y30988000D01*
X6832600Y48412400D02*
X5080000Y50165000D01*
X33502600Y48412400D02*
X6832600Y48412400D01*
X33629600Y48285400D02*
X33502600Y48412400D01*
X60325000Y30988000D02*
X60325000Y31750000D01*
X48437800Y42291000D02*
X46926500Y42291000D01*
X48920400Y41808400D02*
X48888650Y41840150D01*
X48888650Y41840150D02*
X48437800Y42291000D01*
X48920400Y37820600D02*
X48920400Y41808400D01*
X53124100Y33616900D02*
X48920400Y37820600D01*
X58458100Y33616900D02*
X53124100Y33616900D01*
X60325000Y31750000D02*
X58458100Y33616900D01*
X58420000Y50165000D02*
X58356500Y50165000D01*
X58356500Y50165000D02*
X56896000Y48704500D01*
X45593000Y47371000D02*
X44386500Y48577500D01*
X53340000Y47371000D02*
X45593000Y47371000D01*
X54673500Y48704500D02*
X53340000Y47371000D01*
X56896000Y48704500D02*
X54673500Y48704500D01*
X47752000Y42291000D02*
X46926500Y42291000D01*
X66357500Y49974500D02*
X58610500Y49974500D01*
X58610500Y49974500D02*
X58420000Y50165000D01*
X58420000Y50165000D02*
X58420000Y52705000D01*
X60579000Y31242000D02*
X60325000Y30988000D01*
X31750000Y24638000D02*
X56261000Y24638000D01*
X31369000Y24257000D02*
X31750000Y24638000D01*
D27*
X58420000Y4445000D02*
X58420000Y1905000D01*
D28*
X59690000Y4445000D02*
X58420000Y4445000D01*
X62865000Y7620000D02*
X59690000Y4445000D01*
D27*
X28067000Y25527000D02*
X22479000Y25527000D01*
X29210000Y24384000D02*
X28067000Y25527000D01*
D28*
X53657500Y44831000D02*
X46863000Y44831000D01*
X53784500Y44958000D02*
X53657500Y44831000D01*
D27*
X49530000Y49212500D02*
X50355500Y48387000D01*
X49530000Y51308000D02*
X49530000Y49212500D01*
X49530000Y51308000D02*
X50800000Y52578000D01*
X51689000Y38417500D02*
X51689000Y42418000D01*
X51689000Y42418000D02*
X50800000Y43307000D01*
X50800000Y52705000D02*
X50800000Y52578000D01*
X33020000Y29845000D02*
X55245000Y29845000D01*
X32385000Y29210000D02*
X33020000Y29845000D01*
D28*
X62992000Y34798000D02*
X53594000Y34798000D01*
X65278000Y32512000D02*
X62992000Y34798000D01*
X50292000Y38100000D02*
X50292000Y38481000D01*
X53594000Y34798000D02*
X50292000Y38100000D01*
D27*
X62712600Y14757400D02*
X62814200Y14655800D01*
X64846200Y14884400D02*
X64617600Y14655800D01*
X64617600Y14655800D02*
X62814200Y14655800D01*
X63119000Y21082000D02*
X65024000Y21082000D01*
X65024000Y21082000D02*
X66548000Y22606000D01*
X65405000Y13843000D02*
X66548000Y14986000D01*
X62230000Y13843000D02*
X65405000Y13843000D01*
X61976000Y13589000D02*
X62230000Y13843000D01*
X66548000Y20066000D02*
X63042800Y20066000D01*
X63042800Y20066000D02*
X62458600Y19481800D01*
X67792600Y14147800D02*
X67792600Y16230600D01*
X59715400Y6070600D02*
X67792600Y14147800D01*
X14706600Y6070600D02*
X59715400Y6070600D01*
X13970000Y5334000D02*
X14706600Y6070600D01*
X13970000Y3352800D02*
X13970000Y5334000D01*
X12700000Y2082800D02*
X13970000Y3352800D01*
X67792600Y16230600D02*
X69088000Y17526000D01*
X12700000Y1905000D02*
X12700000Y2082800D01*
X63119000Y18669000D02*
X63246000Y18796000D01*
X12700000Y4953000D02*
X14267602Y6520602D01*
X59529004Y6520602D02*
X14267602Y6520602D01*
X61087000Y8078598D02*
X59529004Y6520602D01*
X61087000Y16611600D02*
X61087000Y8078598D01*
X63119000Y18669000D02*
X61087000Y16611600D01*
X67691000Y18796000D02*
X68961000Y20066000D01*
X63246000Y18796000D02*
X67691000Y18796000D01*
X68961000Y20066000D02*
X69088000Y20066000D01*
X12700000Y4953000D02*
X12700000Y4445000D01*
X31813500Y19558000D02*
X33147000Y18224500D01*
X27178000Y19812000D02*
X30861000Y19812000D01*
X26733500Y19367500D02*
X27178000Y19812000D01*
X21145500Y15303500D02*
X21145500Y19367500D01*
X23812500Y12636500D02*
X21145500Y15303500D01*
X21145500Y19367500D02*
X26733500Y19367500D01*
X30861000Y19812000D02*
X31813500Y20764500D01*
X31813500Y20764500D02*
X31813500Y19558000D01*
X40830500Y18224500D02*
X33147000Y18224500D01*
X41529000Y17526000D02*
X40830500Y18224500D01*
X39179500Y11938000D02*
X39179500Y11912600D01*
X33553400Y11912600D02*
X33528000Y11912600D01*
X33591500Y11874500D02*
X33553400Y11912600D01*
X36449000Y11938000D02*
X36449000Y11912600D01*
X41567100Y11912600D02*
X41719500Y11912600D01*
X41529000Y11874500D02*
X41567100Y11912600D01*
X44069000Y11938000D02*
X44069000Y11912600D01*
X46888400Y11912600D02*
X46926500Y11912600D01*
X46863000Y11938000D02*
X46888400Y11912600D01*
X56134000Y32258000D02*
X57023000Y32258000D01*
X57023000Y32258000D02*
X60325000Y28956000D01*
X43180000Y32004000D02*
X55880000Y32004000D01*
X55880000Y32004000D02*
X56134000Y32258000D01*
X31750000Y32004000D02*
X43180000Y32004000D01*
X22352000Y32004000D02*
X31750000Y32004000D01*
X21336000Y33020000D02*
X22352000Y32004000D01*
X54000400Y11912600D02*
X46926500Y11912600D01*
X46926500Y11912600D02*
X44069000Y11912600D01*
X44069000Y11912600D02*
X41719500Y11912600D01*
X41719500Y11912600D02*
X39179500Y11912600D01*
X39179500Y11912600D02*
X36449000Y11912600D01*
X36449000Y11912600D02*
X33528000Y11912600D01*
X56743600Y14655800D02*
X54000400Y11912600D01*
X12598400Y39776400D02*
X12598400Y31292800D01*
X12877800Y40055800D02*
X12598400Y39776400D01*
X60261500Y26352500D02*
X60325000Y26416000D01*
X60325000Y26416000D02*
X60325000Y28956000D01*
X30607000Y10223500D02*
X23812500Y10223500D01*
X33464500Y13081000D02*
X30607000Y10223500D01*
X40640000Y13081000D02*
X33464500Y13081000D01*
X43624500Y16065500D02*
X40640000Y13081000D01*
D29*
G36*
X6206808Y47786613D02*
X6206810Y47786610D01*
X6493925Y47594767D01*
X6550116Y47583590D01*
X6832600Y47527399D01*
X6832605Y47527400D01*
X18732500Y47527400D01*
X18732500Y39497000D01*
X18742506Y39447590D01*
X18770947Y39405965D01*
X18813341Y39378685D01*
X18859500Y39370000D01*
X40195500Y39370000D01*
X40195500Y36576000D01*
X40205506Y36526590D01*
X40233947Y36484965D01*
X40276341Y36457685D01*
X40322500Y36449000D01*
X49040420Y36449000D01*
X52498308Y32991113D01*
X52498310Y32991110D01*
X52690154Y32862925D01*
X52785426Y32799266D01*
X53124100Y32731899D01*
X53124105Y32731900D01*
X58091520Y32731900D01*
X59312978Y31510443D01*
X59190197Y31214756D01*
X59189803Y30763225D01*
X59362233Y30345914D01*
X59681235Y30026355D01*
X60098244Y29853197D01*
X60549775Y29852803D01*
X60967086Y30025233D01*
X61044989Y30103000D01*
X62103000Y30103000D01*
X62103000Y20346541D01*
X61929657Y20274917D01*
X61666408Y20012127D01*
X61523762Y19668599D01*
X61523438Y19296633D01*
X61665483Y18952857D01*
X61928273Y18689608D01*
X62029607Y18647530D01*
X60546271Y17145653D01*
X60465892Y17023725D01*
X60384852Y16902439D01*
X60384383Y16900081D01*
X60383059Y16898073D01*
X60355475Y16754750D01*
X60327000Y16611600D01*
X60327000Y8393400D01*
X59680600Y7747000D01*
X2667000Y7747000D01*
X2667000Y12089853D01*
X2754481Y12089777D01*
X3226943Y12284995D01*
X3588735Y12646155D01*
X3784777Y13118276D01*
X3784778Y13120519D01*
X7514777Y13120519D01*
X7709995Y12648057D01*
X8071155Y12286265D01*
X8543276Y12090223D01*
X9054481Y12089777D01*
X9526943Y12284995D01*
X9888735Y12646155D01*
X10084777Y13118276D01*
X10085223Y13629481D01*
X9890005Y14101943D01*
X9528845Y14463735D01*
X9056724Y14659777D01*
X8545519Y14660223D01*
X8073057Y14465005D01*
X7711265Y14103845D01*
X7515223Y13631724D01*
X7514777Y13120519D01*
X3784778Y13120519D01*
X3785223Y13629481D01*
X3590005Y14101943D01*
X3228845Y14463735D01*
X2756724Y14659777D01*
X2667000Y14659855D01*
X2667000Y26789853D01*
X2754481Y26789777D01*
X3226943Y26984995D01*
X3588735Y27346155D01*
X3784777Y27818276D01*
X3784778Y27820519D01*
X7514777Y27820519D01*
X7709995Y27348057D01*
X8071155Y26986265D01*
X8543276Y26790223D01*
X9054481Y26789777D01*
X9526943Y26984995D01*
X9888735Y27346155D01*
X10084777Y27818276D01*
X10085223Y28329481D01*
X9890005Y28801943D01*
X9528845Y29163735D01*
X9056724Y29359777D01*
X8545519Y29360223D01*
X8073057Y29165005D01*
X7711265Y28803845D01*
X7515223Y28331724D01*
X7514777Y27820519D01*
X3784778Y27820519D01*
X3785223Y28329481D01*
X3590005Y28801943D01*
X3228845Y29163735D01*
X2756724Y29359777D01*
X2667000Y29359855D01*
X2667000Y29845000D01*
X16096655Y29845000D01*
X16210729Y29271511D01*
X16535585Y28785330D01*
X16850366Y28575000D01*
X16535585Y28364670D01*
X16210729Y27878489D01*
X16096655Y27305000D01*
X16210729Y26731511D01*
X16535585Y26245330D01*
X16850366Y26035000D01*
X16535585Y25824670D01*
X16210729Y25338489D01*
X16096655Y24765000D01*
X16210729Y24191511D01*
X16535585Y23705330D01*
X16850366Y23495000D01*
X16535585Y23284670D01*
X16210729Y22798489D01*
X16096655Y22225000D01*
X16210729Y21651511D01*
X16535585Y21165330D01*
X16850366Y20955000D01*
X16535585Y20744670D01*
X16210729Y20258489D01*
X16096655Y19685000D01*
X16210729Y19111511D01*
X16535585Y18625330D01*
X16850366Y18415000D01*
X16535585Y18204670D01*
X16210729Y17718489D01*
X16096655Y17145000D01*
X16210729Y16571511D01*
X16535585Y16085330D01*
X16850366Y15875000D01*
X16535585Y15664670D01*
X16210729Y15178489D01*
X16096655Y14605000D01*
X16210729Y14031511D01*
X16535585Y13545330D01*
X16850366Y13335000D01*
X16535585Y13124670D01*
X16210729Y12638489D01*
X16096655Y12065000D01*
X16210729Y11491511D01*
X16535585Y11005330D01*
X16850366Y10795000D01*
X16535585Y10584670D01*
X16210729Y10098489D01*
X16096655Y9525000D01*
X16210729Y8951511D01*
X16535585Y8465330D01*
X17021766Y8140474D01*
X17595255Y8026400D01*
X17964745Y8026400D01*
X18538234Y8140474D01*
X19024415Y8465330D01*
X19349271Y8951511D01*
X19463345Y9525000D01*
X19361237Y10038333D01*
X22877338Y10038333D01*
X23019383Y9694557D01*
X23282173Y9431308D01*
X23625701Y9288662D01*
X23997667Y9288338D01*
X24341443Y9430383D01*
X24374618Y9463500D01*
X30607000Y9463500D01*
X30897839Y9521352D01*
X31144401Y9686099D01*
X31999302Y10541000D01*
X34048960Y10541000D01*
X34048960Y8509000D01*
X34093238Y8273683D01*
X34232310Y8057559D01*
X34444510Y7912569D01*
X34696400Y7861560D01*
X36423600Y7861560D01*
X36658917Y7905838D01*
X36875041Y8044910D01*
X37020031Y8257110D01*
X37028400Y8298439D01*
X37040330Y8280585D01*
X37526511Y7955729D01*
X38100000Y7841655D01*
X38673489Y7955729D01*
X39159670Y8280585D01*
X39370000Y8595366D01*
X39580330Y8280585D01*
X40066511Y7955729D01*
X40640000Y7841655D01*
X41213489Y7955729D01*
X41699670Y8280585D01*
X41910000Y8595366D01*
X42120330Y8280585D01*
X42606511Y7955729D01*
X43180000Y7841655D01*
X43753489Y7955729D01*
X44239670Y8280585D01*
X44450000Y8595366D01*
X44660330Y8280585D01*
X45146511Y7955729D01*
X45720000Y7841655D01*
X46293489Y7955729D01*
X46779670Y8280585D01*
X46990000Y8595366D01*
X47200330Y8280585D01*
X47686511Y7955729D01*
X48260000Y7841655D01*
X48833489Y7955729D01*
X49319670Y8280585D01*
X49530000Y8595366D01*
X49740330Y8280585D01*
X50226511Y7955729D01*
X50800000Y7841655D01*
X51373489Y7955729D01*
X51859670Y8280585D01*
X52070000Y8595366D01*
X52280330Y8280585D01*
X52766511Y7955729D01*
X53340000Y7841655D01*
X53913489Y7955729D01*
X54399670Y8280585D01*
X54610000Y8595366D01*
X54820330Y8280585D01*
X55306511Y7955729D01*
X55880000Y7841655D01*
X56453489Y7955729D01*
X56939670Y8280585D01*
X57150000Y8595366D01*
X57360330Y8280585D01*
X57846511Y7955729D01*
X58420000Y7841655D01*
X58993489Y7955729D01*
X59479670Y8280585D01*
X59804526Y8766766D01*
X59918600Y9340255D01*
X59918600Y9709745D01*
X59804526Y10283234D01*
X59479670Y10769415D01*
X58993489Y11094271D01*
X58420000Y11208345D01*
X57846511Y11094271D01*
X57360330Y10769415D01*
X57150000Y10454634D01*
X56939670Y10769415D01*
X56453489Y11094271D01*
X55880000Y11208345D01*
X55306511Y11094271D01*
X54820330Y10769415D01*
X54610000Y10454634D01*
X54399670Y10769415D01*
X53913489Y11094271D01*
X53340000Y11208345D01*
X52766511Y11094271D01*
X52280330Y10769415D01*
X52070000Y10454634D01*
X51859670Y10769415D01*
X51373489Y11094271D01*
X50800000Y11208345D01*
X50226511Y11094271D01*
X49740330Y10769415D01*
X49530000Y10454634D01*
X49319670Y10769415D01*
X48833489Y11094271D01*
X48260000Y11208345D01*
X47686511Y11094271D01*
X47200330Y10769415D01*
X46990000Y10454634D01*
X46779670Y10769415D01*
X46293489Y11094271D01*
X45720000Y11208345D01*
X45146511Y11094271D01*
X44660330Y10769415D01*
X44450000Y10454634D01*
X44239670Y10769415D01*
X43753489Y11094271D01*
X43180000Y11208345D01*
X42606511Y11094271D01*
X42120330Y10769415D01*
X41910000Y10454634D01*
X41699670Y10769415D01*
X41213489Y11094271D01*
X40640000Y11208345D01*
X40066511Y11094271D01*
X39580330Y10769415D01*
X39370000Y10454634D01*
X39159670Y10769415D01*
X38673489Y11094271D01*
X38100000Y11208345D01*
X37526511Y11094271D01*
X37040330Y10769415D01*
X37030757Y10755087D01*
X37026762Y10776317D01*
X36887690Y10992441D01*
X36675490Y11137431D01*
X36423600Y11188440D01*
X34696400Y11188440D01*
X34461083Y11144162D01*
X34244959Y11005090D01*
X34099969Y10792890D01*
X34048960Y10541000D01*
X31999302Y10541000D01*
X33779302Y12321000D01*
X40640000Y12321000D01*
X40930839Y12378852D01*
X41177401Y12543599D01*
X43764180Y15130378D01*
X43809667Y15130338D01*
X44153443Y15272383D01*
X44416692Y15535173D01*
X44559338Y15878701D01*
X44559662Y16250667D01*
X44417617Y16594443D01*
X44154827Y16857692D01*
X43811299Y17000338D01*
X43439333Y17000662D01*
X43095557Y16858617D01*
X42832308Y16595827D01*
X42689662Y16252299D01*
X42689621Y16205423D01*
X40325198Y13841000D01*
X33464500Y13841000D01*
X33173660Y13783148D01*
X32927099Y13618401D01*
X30292198Y10983500D01*
X24374963Y10983500D01*
X24342827Y11015692D01*
X23999299Y11158338D01*
X23627333Y11158662D01*
X23283557Y11016617D01*
X23020308Y10753827D01*
X22877662Y10410299D01*
X22877338Y10038333D01*
X19361237Y10038333D01*
X19349271Y10098489D01*
X19024415Y10584670D01*
X18709634Y10795000D01*
X19024415Y11005330D01*
X19349271Y11491511D01*
X19463345Y12065000D01*
X19349271Y12638489D01*
X19024415Y13124670D01*
X18709634Y13335000D01*
X19024415Y13545330D01*
X19349271Y14031511D01*
X19463345Y14605000D01*
X19349271Y15178489D01*
X19024415Y15664670D01*
X18709634Y15875000D01*
X19024415Y16085330D01*
X19349271Y16571511D01*
X19463345Y17145000D01*
X19349271Y17718489D01*
X19024415Y18204670D01*
X18709634Y18415000D01*
X19024415Y18625330D01*
X19349271Y19111511D01*
X19463345Y19685000D01*
X19349271Y20258489D01*
X19024415Y20744670D01*
X18709634Y20955000D01*
X19024415Y21165330D01*
X19349271Y21651511D01*
X19463345Y22225000D01*
X19349271Y22798489D01*
X19024415Y23284670D01*
X18709634Y23495000D01*
X19024415Y23705330D01*
X19349271Y24191511D01*
X19463345Y24765000D01*
X19349271Y25338489D01*
X19347037Y25341833D01*
X21543838Y25341833D01*
X21685883Y24998057D01*
X21948673Y24734808D01*
X22292201Y24592162D01*
X22664167Y24591838D01*
X23007943Y24733883D01*
X23041118Y24767000D01*
X27752198Y24767000D01*
X28274878Y24244320D01*
X28274838Y24198833D01*
X28416883Y23855057D01*
X28679673Y23591808D01*
X29023201Y23449162D01*
X29395167Y23448838D01*
X29738943Y23590883D01*
X30002192Y23853673D01*
X30076333Y24032225D01*
X30233803Y24032225D01*
X30406233Y23614914D01*
X30725235Y23295355D01*
X31142244Y23122197D01*
X31593775Y23121803D01*
X32011086Y23294233D01*
X32330645Y23613235D01*
X32388681Y23753000D01*
X55540724Y23753000D01*
X55617235Y23676355D01*
X56034244Y23503197D01*
X56485775Y23502803D01*
X56903086Y23675233D01*
X57222645Y23994235D01*
X57395803Y24411244D01*
X57396197Y24862775D01*
X57223767Y25280086D01*
X56904765Y25599645D01*
X56487756Y25772803D01*
X56036225Y25773197D01*
X55618914Y25600767D01*
X55541011Y25523000D01*
X31750000Y25523000D01*
X31411325Y25455633D01*
X31316161Y25392047D01*
X31144225Y25392197D01*
X30726914Y25219767D01*
X30407355Y24900765D01*
X30234197Y24483756D01*
X30233803Y24032225D01*
X30076333Y24032225D01*
X30144838Y24197201D01*
X30145162Y24569167D01*
X30003117Y24912943D01*
X29740327Y25176192D01*
X29396799Y25318838D01*
X29349923Y25318879D01*
X28604401Y26064401D01*
X28357839Y26229148D01*
X28067000Y26287000D01*
X23041463Y26287000D01*
X23009327Y26319192D01*
X22665799Y26461838D01*
X22293833Y26462162D01*
X21950057Y26320117D01*
X21686808Y26057327D01*
X21544162Y25713799D01*
X21543838Y25341833D01*
X19347037Y25341833D01*
X19024415Y25824670D01*
X18709634Y26035000D01*
X19024415Y26245330D01*
X19349271Y26731511D01*
X19463345Y27305000D01*
X19349271Y27878489D01*
X19024415Y28364670D01*
X18986756Y28389833D01*
X21924838Y28389833D01*
X22066883Y28046057D01*
X22329673Y27782808D01*
X22673201Y27640162D01*
X23045167Y27639838D01*
X23388943Y27781883D01*
X23422118Y27815000D01*
X40077537Y27815000D01*
X40109673Y27782808D01*
X40453201Y27640162D01*
X40825167Y27639838D01*
X41168943Y27781883D01*
X41202118Y27815000D01*
X45792537Y27815000D01*
X45824673Y27782808D01*
X46168201Y27640162D01*
X46540167Y27639838D01*
X46883943Y27781883D01*
X46917118Y27815000D01*
X55565198Y27815000D01*
X58754878Y24625320D01*
X58754838Y24579833D01*
X58896883Y24236057D01*
X59159673Y23972808D01*
X59503201Y23830162D01*
X59875167Y23829838D01*
X60218943Y23971883D01*
X60482192Y24234673D01*
X60624838Y24578201D01*
X60625162Y24950167D01*
X60483117Y25293943D01*
X60220327Y25557192D01*
X59876799Y25699838D01*
X59829923Y25699879D01*
X56417401Y29112401D01*
X56170839Y29277148D01*
X56028053Y29305550D01*
X56037192Y29314673D01*
X56179838Y29658201D01*
X56180162Y30030167D01*
X56038117Y30373943D01*
X55775327Y30637192D01*
X55431799Y30779838D01*
X55059833Y30780162D01*
X54716057Y30638117D01*
X54682882Y30605000D01*
X33020000Y30605000D01*
X32729161Y30547148D01*
X32482599Y30382401D01*
X32245320Y30145122D01*
X32199833Y30145162D01*
X31856057Y30003117D01*
X31592808Y29740327D01*
X31450162Y29396799D01*
X31450108Y29335000D01*
X23422463Y29335000D01*
X23390327Y29367192D01*
X23046799Y29509838D01*
X22674833Y29510162D01*
X22331057Y29368117D01*
X22067808Y29105327D01*
X21925162Y28761799D01*
X21924838Y28389833D01*
X18986756Y28389833D01*
X18709634Y28575000D01*
X19024415Y28785330D01*
X19349271Y29271511D01*
X19463345Y29845000D01*
X19349271Y30418489D01*
X19024415Y30904670D01*
X19010087Y30914243D01*
X19031317Y30918238D01*
X19247441Y31057310D01*
X19392431Y31269510D01*
X19443440Y31521400D01*
X19443440Y33248600D01*
X19399162Y33483917D01*
X19260090Y33700041D01*
X19047890Y33845031D01*
X18796000Y33896040D01*
X16764000Y33896040D01*
X16528683Y33851762D01*
X16312559Y33712690D01*
X16167569Y33500490D01*
X16116560Y33248600D01*
X16116560Y31521400D01*
X16160838Y31286083D01*
X16299910Y31069959D01*
X16512110Y30924969D01*
X16553439Y30916600D01*
X16535585Y30904670D01*
X16210729Y30418489D01*
X16096655Y29845000D01*
X2667000Y29845000D01*
X2667000Y41489853D01*
X2754481Y41489777D01*
X3226943Y41684995D01*
X3588735Y42046155D01*
X3784777Y42518276D01*
X3784778Y42520519D01*
X7514777Y42520519D01*
X7709995Y42048057D01*
X8071155Y41686265D01*
X8543276Y41490223D01*
X9054481Y41489777D01*
X9526943Y41684995D01*
X9888735Y42046155D01*
X10084777Y42518276D01*
X10085223Y43029481D01*
X9890005Y43501943D01*
X9528845Y43863735D01*
X9056724Y44059777D01*
X8545519Y44060223D01*
X8073057Y43865005D01*
X7711265Y43503845D01*
X7515223Y43031724D01*
X7514777Y42520519D01*
X3784778Y42520519D01*
X3785223Y43029481D01*
X3590005Y43501943D01*
X3228845Y43863735D01*
X2756724Y44059777D01*
X2667000Y44059855D01*
X2667000Y48387000D01*
X5606421Y48387000D01*
X6206808Y47786613D01*
X6206808Y47786613D01*
G37*
X6206808Y47786613D02*
X6206810Y47786610D01*
X6493925Y47594767D01*
X6550116Y47583590D01*
X6832600Y47527399D01*
X6832605Y47527400D01*
X18732500Y47527400D01*
X18732500Y39497000D01*
X18742506Y39447590D01*
X18770947Y39405965D01*
X18813341Y39378685D01*
X18859500Y39370000D01*
X40195500Y39370000D01*
X40195500Y36576000D01*
X40205506Y36526590D01*
X40233947Y36484965D01*
X40276341Y36457685D01*
X40322500Y36449000D01*
X49040420Y36449000D01*
X52498308Y32991113D01*
X52498310Y32991110D01*
X52690154Y32862925D01*
X52785426Y32799266D01*
X53124100Y32731899D01*
X53124105Y32731900D01*
X58091520Y32731900D01*
X59312978Y31510443D01*
X59190197Y31214756D01*
X59189803Y30763225D01*
X59362233Y30345914D01*
X59681235Y30026355D01*
X60098244Y29853197D01*
X60549775Y29852803D01*
X60967086Y30025233D01*
X61044989Y30103000D01*
X62103000Y30103000D01*
X62103000Y20346541D01*
X61929657Y20274917D01*
X61666408Y20012127D01*
X61523762Y19668599D01*
X61523438Y19296633D01*
X61665483Y18952857D01*
X61928273Y18689608D01*
X62029607Y18647530D01*
X60546271Y17145653D01*
X60465892Y17023725D01*
X60384852Y16902439D01*
X60384383Y16900081D01*
X60383059Y16898073D01*
X60355475Y16754750D01*
X60327000Y16611600D01*
X60327000Y8393400D01*
X59680600Y7747000D01*
X2667000Y7747000D01*
X2667000Y12089853D01*
X2754481Y12089777D01*
X3226943Y12284995D01*
X3588735Y12646155D01*
X3784777Y13118276D01*
X3784778Y13120519D01*
X7514777Y13120519D01*
X7709995Y12648057D01*
X8071155Y12286265D01*
X8543276Y12090223D01*
X9054481Y12089777D01*
X9526943Y12284995D01*
X9888735Y12646155D01*
X10084777Y13118276D01*
X10085223Y13629481D01*
X9890005Y14101943D01*
X9528845Y14463735D01*
X9056724Y14659777D01*
X8545519Y14660223D01*
X8073057Y14465005D01*
X7711265Y14103845D01*
X7515223Y13631724D01*
X7514777Y13120519D01*
X3784778Y13120519D01*
X3785223Y13629481D01*
X3590005Y14101943D01*
X3228845Y14463735D01*
X2756724Y14659777D01*
X2667000Y14659855D01*
X2667000Y26789853D01*
X2754481Y26789777D01*
X3226943Y26984995D01*
X3588735Y27346155D01*
X3784777Y27818276D01*
X3784778Y27820519D01*
X7514777Y27820519D01*
X7709995Y27348057D01*
X8071155Y26986265D01*
X8543276Y26790223D01*
X9054481Y26789777D01*
X9526943Y26984995D01*
X9888735Y27346155D01*
X10084777Y27818276D01*
X10085223Y28329481D01*
X9890005Y28801943D01*
X9528845Y29163735D01*
X9056724Y29359777D01*
X8545519Y29360223D01*
X8073057Y29165005D01*
X7711265Y28803845D01*
X7515223Y28331724D01*
X7514777Y27820519D01*
X3784778Y27820519D01*
X3785223Y28329481D01*
X3590005Y28801943D01*
X3228845Y29163735D01*
X2756724Y29359777D01*
X2667000Y29359855D01*
X2667000Y29845000D01*
X16096655Y29845000D01*
X16210729Y29271511D01*
X16535585Y28785330D01*
X16850366Y28575000D01*
X16535585Y28364670D01*
X16210729Y27878489D01*
X16096655Y27305000D01*
X16210729Y26731511D01*
X16535585Y26245330D01*
X16850366Y26035000D01*
X16535585Y25824670D01*
X16210729Y25338489D01*
X16096655Y24765000D01*
X16210729Y24191511D01*
X16535585Y23705330D01*
X16850366Y23495000D01*
X16535585Y23284670D01*
X16210729Y22798489D01*
X16096655Y22225000D01*
X16210729Y21651511D01*
X16535585Y21165330D01*
X16850366Y20955000D01*
X16535585Y20744670D01*
X16210729Y20258489D01*
X16096655Y19685000D01*
X16210729Y19111511D01*
X16535585Y18625330D01*
X16850366Y18415000D01*
X16535585Y18204670D01*
X16210729Y17718489D01*
X16096655Y17145000D01*
X16210729Y16571511D01*
X16535585Y16085330D01*
X16850366Y15875000D01*
X16535585Y15664670D01*
X16210729Y15178489D01*
X16096655Y14605000D01*
X16210729Y14031511D01*
X16535585Y13545330D01*
X16850366Y13335000D01*
X16535585Y13124670D01*
X16210729Y12638489D01*
X16096655Y12065000D01*
X16210729Y11491511D01*
X16535585Y11005330D01*
X16850366Y10795000D01*
X16535585Y10584670D01*
X16210729Y10098489D01*
X16096655Y9525000D01*
X16210729Y8951511D01*
X16535585Y8465330D01*
X17021766Y8140474D01*
X17595255Y8026400D01*
X17964745Y8026400D01*
X18538234Y8140474D01*
X19024415Y8465330D01*
X19349271Y8951511D01*
X19463345Y9525000D01*
X19361237Y10038333D01*
X22877338Y10038333D01*
X23019383Y9694557D01*
X23282173Y9431308D01*
X23625701Y9288662D01*
X23997667Y9288338D01*
X24341443Y9430383D01*
X24374618Y9463500D01*
X30607000Y9463500D01*
X30897839Y9521352D01*
X31144401Y9686099D01*
X31999302Y10541000D01*
X34048960Y10541000D01*
X34048960Y8509000D01*
X34093238Y8273683D01*
X34232310Y8057559D01*
X34444510Y7912569D01*
X34696400Y7861560D01*
X36423600Y7861560D01*
X36658917Y7905838D01*
X36875041Y8044910D01*
X37020031Y8257110D01*
X37028400Y8298439D01*
X37040330Y8280585D01*
X37526511Y7955729D01*
X38100000Y7841655D01*
X38673489Y7955729D01*
X39159670Y8280585D01*
X39370000Y8595366D01*
X39580330Y8280585D01*
X40066511Y7955729D01*
X40640000Y7841655D01*
X41213489Y7955729D01*
X41699670Y8280585D01*
X41910000Y8595366D01*
X42120330Y8280585D01*
X42606511Y7955729D01*
X43180000Y7841655D01*
X43753489Y7955729D01*
X44239670Y8280585D01*
X44450000Y8595366D01*
X44660330Y8280585D01*
X45146511Y7955729D01*
X45720000Y7841655D01*
X46293489Y7955729D01*
X46779670Y8280585D01*
X46990000Y8595366D01*
X47200330Y8280585D01*
X47686511Y7955729D01*
X48260000Y7841655D01*
X48833489Y7955729D01*
X49319670Y8280585D01*
X49530000Y8595366D01*
X49740330Y8280585D01*
X50226511Y7955729D01*
X50800000Y7841655D01*
X51373489Y7955729D01*
X51859670Y8280585D01*
X52070000Y8595366D01*
X52280330Y8280585D01*
X52766511Y7955729D01*
X53340000Y7841655D01*
X53913489Y7955729D01*
X54399670Y8280585D01*
X54610000Y8595366D01*
X54820330Y8280585D01*
X55306511Y7955729D01*
X55880000Y7841655D01*
X56453489Y7955729D01*
X56939670Y8280585D01*
X57150000Y8595366D01*
X57360330Y8280585D01*
X57846511Y7955729D01*
X58420000Y7841655D01*
X58993489Y7955729D01*
X59479670Y8280585D01*
X59804526Y8766766D01*
X59918600Y9340255D01*
X59918600Y9709745D01*
X59804526Y10283234D01*
X59479670Y10769415D01*
X58993489Y11094271D01*
X58420000Y11208345D01*
X57846511Y11094271D01*
X57360330Y10769415D01*
X57150000Y10454634D01*
X56939670Y10769415D01*
X56453489Y11094271D01*
X55880000Y11208345D01*
X55306511Y11094271D01*
X54820330Y10769415D01*
X54610000Y10454634D01*
X54399670Y10769415D01*
X53913489Y11094271D01*
X53340000Y11208345D01*
X52766511Y11094271D01*
X52280330Y10769415D01*
X52070000Y10454634D01*
X51859670Y10769415D01*
X51373489Y11094271D01*
X50800000Y11208345D01*
X50226511Y11094271D01*
X49740330Y10769415D01*
X49530000Y10454634D01*
X49319670Y10769415D01*
X48833489Y11094271D01*
X48260000Y11208345D01*
X47686511Y11094271D01*
X47200330Y10769415D01*
X46990000Y10454634D01*
X46779670Y10769415D01*
X46293489Y11094271D01*
X45720000Y11208345D01*
X45146511Y11094271D01*
X44660330Y10769415D01*
X44450000Y10454634D01*
X44239670Y10769415D01*
X43753489Y11094271D01*
X43180000Y11208345D01*
X42606511Y11094271D01*
X42120330Y10769415D01*
X41910000Y10454634D01*
X41699670Y10769415D01*
X41213489Y11094271D01*
X40640000Y11208345D01*
X40066511Y11094271D01*
X39580330Y10769415D01*
X39370000Y10454634D01*
X39159670Y10769415D01*
X38673489Y11094271D01*
X38100000Y11208345D01*
X37526511Y11094271D01*
X37040330Y10769415D01*
X37030757Y10755087D01*
X37026762Y10776317D01*
X36887690Y10992441D01*
X36675490Y11137431D01*
X36423600Y11188440D01*
X34696400Y11188440D01*
X34461083Y11144162D01*
X34244959Y11005090D01*
X34099969Y10792890D01*
X34048960Y10541000D01*
X31999302Y10541000D01*
X33779302Y12321000D01*
X40640000Y12321000D01*
X40930839Y12378852D01*
X41177401Y12543599D01*
X43764180Y15130378D01*
X43809667Y15130338D01*
X44153443Y15272383D01*
X44416692Y15535173D01*
X44559338Y15878701D01*
X44559662Y16250667D01*
X44417617Y16594443D01*
X44154827Y16857692D01*
X43811299Y17000338D01*
X43439333Y17000662D01*
X43095557Y16858617D01*
X42832308Y16595827D01*
X42689662Y16252299D01*
X42689621Y16205423D01*
X40325198Y13841000D01*
X33464500Y13841000D01*
X33173660Y13783148D01*
X32927099Y13618401D01*
X30292198Y10983500D01*
X24374963Y10983500D01*
X24342827Y11015692D01*
X23999299Y11158338D01*
X23627333Y11158662D01*
X23283557Y11016617D01*
X23020308Y10753827D01*
X22877662Y10410299D01*
X22877338Y10038333D01*
X19361237Y10038333D01*
X19349271Y10098489D01*
X19024415Y10584670D01*
X18709634Y10795000D01*
X19024415Y11005330D01*
X19349271Y11491511D01*
X19463345Y12065000D01*
X19349271Y12638489D01*
X19024415Y13124670D01*
X18709634Y13335000D01*
X19024415Y13545330D01*
X19349271Y14031511D01*
X19463345Y14605000D01*
X19349271Y15178489D01*
X19024415Y15664670D01*
X18709634Y15875000D01*
X19024415Y16085330D01*
X19349271Y16571511D01*
X19463345Y17145000D01*
X19349271Y17718489D01*
X19024415Y18204670D01*
X18709634Y18415000D01*
X19024415Y18625330D01*
X19349271Y19111511D01*
X19463345Y19685000D01*
X19349271Y20258489D01*
X19024415Y20744670D01*
X18709634Y20955000D01*
X19024415Y21165330D01*
X19349271Y21651511D01*
X19463345Y22225000D01*
X19349271Y22798489D01*
X19024415Y23284670D01*
X18709634Y23495000D01*
X19024415Y23705330D01*
X19349271Y24191511D01*
X19463345Y24765000D01*
X19349271Y25338489D01*
X19347037Y25341833D01*
X21543838Y25341833D01*
X21685883Y24998057D01*
X21948673Y24734808D01*
X22292201Y24592162D01*
X22664167Y24591838D01*
X23007943Y24733883D01*
X23041118Y24767000D01*
X27752198Y24767000D01*
X28274878Y24244320D01*
X28274838Y24198833D01*
X28416883Y23855057D01*
X28679673Y23591808D01*
X29023201Y23449162D01*
X29395167Y23448838D01*
X29738943Y23590883D01*
X30002192Y23853673D01*
X30076333Y24032225D01*
X30233803Y24032225D01*
X30406233Y23614914D01*
X30725235Y23295355D01*
X31142244Y23122197D01*
X31593775Y23121803D01*
X32011086Y23294233D01*
X32330645Y23613235D01*
X32388681Y23753000D01*
X55540724Y23753000D01*
X55617235Y23676355D01*
X56034244Y23503197D01*
X56485775Y23502803D01*
X56903086Y23675233D01*
X57222645Y23994235D01*
X57395803Y24411244D01*
X57396197Y24862775D01*
X57223767Y25280086D01*
X56904765Y25599645D01*
X56487756Y25772803D01*
X56036225Y25773197D01*
X55618914Y25600767D01*
X55541011Y25523000D01*
X31750000Y25523000D01*
X31411325Y25455633D01*
X31316161Y25392047D01*
X31144225Y25392197D01*
X30726914Y25219767D01*
X30407355Y24900765D01*
X30234197Y24483756D01*
X30233803Y24032225D01*
X30076333Y24032225D01*
X30144838Y24197201D01*
X30145162Y24569167D01*
X30003117Y24912943D01*
X29740327Y25176192D01*
X29396799Y25318838D01*
X29349923Y25318879D01*
X28604401Y26064401D01*
X28357839Y26229148D01*
X28067000Y26287000D01*
X23041463Y26287000D01*
X23009327Y26319192D01*
X22665799Y26461838D01*
X22293833Y26462162D01*
X21950057Y26320117D01*
X21686808Y26057327D01*
X21544162Y25713799D01*
X21543838Y25341833D01*
X19347037Y25341833D01*
X19024415Y25824670D01*
X18709634Y26035000D01*
X19024415Y26245330D01*
X19349271Y26731511D01*
X19463345Y27305000D01*
X19349271Y27878489D01*
X19024415Y28364670D01*
X18986756Y28389833D01*
X21924838Y28389833D01*
X22066883Y28046057D01*
X22329673Y27782808D01*
X22673201Y27640162D01*
X23045167Y27639838D01*
X23388943Y27781883D01*
X23422118Y27815000D01*
X40077537Y27815000D01*
X40109673Y27782808D01*
X40453201Y27640162D01*
X40825167Y27639838D01*
X41168943Y27781883D01*
X41202118Y27815000D01*
X45792537Y27815000D01*
X45824673Y27782808D01*
X46168201Y27640162D01*
X46540167Y27639838D01*
X46883943Y27781883D01*
X46917118Y27815000D01*
X55565198Y27815000D01*
X58754878Y24625320D01*
X58754838Y24579833D01*
X58896883Y24236057D01*
X59159673Y23972808D01*
X59503201Y23830162D01*
X59875167Y23829838D01*
X60218943Y23971883D01*
X60482192Y24234673D01*
X60624838Y24578201D01*
X60625162Y24950167D01*
X60483117Y25293943D01*
X60220327Y25557192D01*
X59876799Y25699838D01*
X59829923Y25699879D01*
X56417401Y29112401D01*
X56170839Y29277148D01*
X56028053Y29305550D01*
X56037192Y29314673D01*
X56179838Y29658201D01*
X56180162Y30030167D01*
X56038117Y30373943D01*
X55775327Y30637192D01*
X55431799Y30779838D01*
X55059833Y30780162D01*
X54716057Y30638117D01*
X54682882Y30605000D01*
X33020000Y30605000D01*
X32729161Y30547148D01*
X32482599Y30382401D01*
X32245320Y30145122D01*
X32199833Y30145162D01*
X31856057Y30003117D01*
X31592808Y29740327D01*
X31450162Y29396799D01*
X31450108Y29335000D01*
X23422463Y29335000D01*
X23390327Y29367192D01*
X23046799Y29509838D01*
X22674833Y29510162D01*
X22331057Y29368117D01*
X22067808Y29105327D01*
X21925162Y28761799D01*
X21924838Y28389833D01*
X18986756Y28389833D01*
X18709634Y28575000D01*
X19024415Y28785330D01*
X19349271Y29271511D01*
X19463345Y29845000D01*
X19349271Y30418489D01*
X19024415Y30904670D01*
X19010087Y30914243D01*
X19031317Y30918238D01*
X19247441Y31057310D01*
X19392431Y31269510D01*
X19443440Y31521400D01*
X19443440Y33248600D01*
X19399162Y33483917D01*
X19260090Y33700041D01*
X19047890Y33845031D01*
X18796000Y33896040D01*
X16764000Y33896040D01*
X16528683Y33851762D01*
X16312559Y33712690D01*
X16167569Y33500490D01*
X16116560Y33248600D01*
X16116560Y31521400D01*
X16160838Y31286083D01*
X16299910Y31069959D01*
X16512110Y30924969D01*
X16553439Y30916600D01*
X16535585Y30904670D01*
X16210729Y30418489D01*
X16096655Y29845000D01*
X2667000Y29845000D01*
X2667000Y41489853D01*
X2754481Y41489777D01*
X3226943Y41684995D01*
X3588735Y42046155D01*
X3784777Y42518276D01*
X3784778Y42520519D01*
X7514777Y42520519D01*
X7709995Y42048057D01*
X8071155Y41686265D01*
X8543276Y41490223D01*
X9054481Y41489777D01*
X9526943Y41684995D01*
X9888735Y42046155D01*
X10084777Y42518276D01*
X10085223Y43029481D01*
X9890005Y43501943D01*
X9528845Y43863735D01*
X9056724Y44059777D01*
X8545519Y44060223D01*
X8073057Y43865005D01*
X7711265Y43503845D01*
X7515223Y43031724D01*
X7514777Y42520519D01*
X3784778Y42520519D01*
X3785223Y43029481D01*
X3590005Y43501943D01*
X3228845Y43863735D01*
X2756724Y44059777D01*
X2667000Y44059855D01*
X2667000Y48387000D01*
X5606421Y48387000D01*
X6206808Y47786613D01*
G36*
X71934000Y710000D02*
X59281866Y710000D01*
X59320554Y824841D01*
X58420000Y1725395D01*
X57519446Y824841D01*
X57558134Y710000D01*
X56855626Y710000D01*
X57180551Y1034357D01*
X57189203Y1055194D01*
X57339841Y1004446D01*
X58240395Y1905000D01*
X58226253Y1919142D01*
X58405858Y2098747D01*
X58420000Y2084605D01*
X58434143Y2098747D01*
X58613748Y1919142D01*
X58599605Y1905000D01*
X59500159Y1004446D01*
X59756643Y1090852D01*
X59966458Y1664336D01*
X59940839Y2274460D01*
X59756643Y2719148D01*
X59500161Y2805553D01*
X59614718Y2920110D01*
X59572541Y2962287D01*
X59679698Y3006673D01*
X59858327Y3185301D01*
X59955000Y3418690D01*
X59955000Y4159250D01*
X59796250Y4318000D01*
X58547000Y4318000D01*
X58547000Y4298000D01*
X58293000Y4298000D01*
X58293000Y4318000D01*
X58273000Y4318000D01*
X58273000Y4572000D01*
X58293000Y4572000D01*
X58293000Y4592000D01*
X58547000Y4592000D01*
X58547000Y4572000D01*
X59796250Y4572000D01*
X59955000Y4730750D01*
X59955000Y5358260D01*
X60006239Y5368452D01*
X60252801Y5533199D01*
X60942602Y6223000D01*
X62865000Y6223000D01*
X62914410Y6233006D01*
X62956035Y6261447D01*
X62983315Y6303841D01*
X62992000Y6350000D01*
X62992000Y8272398D01*
X68199587Y13479985D01*
X68224400Y13474960D01*
X69951600Y13474960D01*
X70186917Y13519238D01*
X70403041Y13658310D01*
X70548031Y13870510D01*
X70599040Y14122400D01*
X70599040Y15849600D01*
X70554762Y16084917D01*
X70415690Y16301041D01*
X70203490Y16446031D01*
X70159655Y16454908D01*
X70472526Y16923152D01*
X70586600Y17496641D01*
X70586600Y17555359D01*
X70472526Y18128848D01*
X70147670Y18615029D01*
X69876828Y18796000D01*
X70147670Y18976971D01*
X70472526Y19463152D01*
X70586600Y20036641D01*
X70586600Y20095359D01*
X70472526Y20668848D01*
X70147670Y21155029D01*
X69876839Y21335992D01*
X70294821Y21717510D01*
X70542968Y22246973D01*
X70422469Y22479000D01*
X69215000Y22479000D01*
X69215000Y22459000D01*
X68961000Y22459000D01*
X68961000Y22479000D01*
X68941000Y22479000D01*
X68941000Y22733000D01*
X68961000Y22733000D01*
X68961000Y23939817D01*
X69215000Y23939817D01*
X69215000Y22733000D01*
X70422469Y22733000D01*
X70542968Y22965027D01*
X70294821Y23494490D01*
X69862947Y23888688D01*
X69447026Y24060958D01*
X69215000Y23939817D01*
X68961000Y23939817D01*
X68728974Y24060958D01*
X68313053Y23888688D01*
X67881179Y23494490D01*
X67823664Y23371772D01*
X67607670Y23695029D01*
X67121489Y24019885D01*
X66548000Y24133959D01*
X65974511Y24019885D01*
X65488330Y23695029D01*
X65163474Y23208848D01*
X65049400Y22635359D01*
X65049400Y22576641D01*
X65114842Y22247644D01*
X64709198Y21842000D01*
X63681463Y21842000D01*
X63649327Y21874192D01*
X63305799Y22016838D01*
X62992000Y22017111D01*
X62992000Y29940250D01*
X65983000Y29940250D01*
X65983000Y28899691D01*
X66079673Y28666302D01*
X66258301Y28487673D01*
X66491690Y28391000D01*
X67532250Y28391000D01*
X67691000Y28549750D01*
X67691000Y30099000D01*
X67945000Y30099000D01*
X67945000Y28549750D01*
X68103750Y28391000D01*
X69144310Y28391000D01*
X69377699Y28487673D01*
X69556327Y28666302D01*
X69653000Y28899691D01*
X69653000Y29940250D01*
X69494250Y30099000D01*
X67945000Y30099000D01*
X67691000Y30099000D01*
X66141750Y30099000D01*
X65983000Y29940250D01*
X62992000Y29940250D01*
X62992000Y33546420D01*
X64142897Y32395523D01*
X64142803Y32287225D01*
X64315233Y31869914D01*
X64634235Y31550355D01*
X65051244Y31377197D01*
X65502775Y31376803D01*
X65920086Y31549233D01*
X66025182Y31654146D01*
X65983000Y31552309D01*
X65983000Y30511750D01*
X66141750Y30353000D01*
X67691000Y30353000D01*
X67691000Y30373000D01*
X67945000Y30373000D01*
X67945000Y30353000D01*
X69494250Y30353000D01*
X69653000Y30511750D01*
X69653000Y31552309D01*
X69556327Y31785698D01*
X69377699Y31964327D01*
X69144310Y32061000D01*
X68593605Y32061000D01*
X68856086Y32169455D01*
X69372730Y32685199D01*
X69652681Y33359395D01*
X69653318Y34089403D01*
X69374545Y34764086D01*
X68858801Y35280730D01*
X68672714Y35358000D01*
X71934000Y35358000D01*
X71934000Y710000D01*
X71934000Y710000D01*
G37*
X71934000Y710000D02*
X59281866Y710000D01*
X59320554Y824841D01*
X58420000Y1725395D01*
X57519446Y824841D01*
X57558134Y710000D01*
X56855626Y710000D01*
X57180551Y1034357D01*
X57189203Y1055194D01*
X57339841Y1004446D01*
X58240395Y1905000D01*
X58226253Y1919142D01*
X58405858Y2098747D01*
X58420000Y2084605D01*
X58434143Y2098747D01*
X58613748Y1919142D01*
X58599605Y1905000D01*
X59500159Y1004446D01*
X59756643Y1090852D01*
X59966458Y1664336D01*
X59940839Y2274460D01*
X59756643Y2719148D01*
X59500161Y2805553D01*
X59614718Y2920110D01*
X59572541Y2962287D01*
X59679698Y3006673D01*
X59858327Y3185301D01*
X59955000Y3418690D01*
X59955000Y4159250D01*
X59796250Y4318000D01*
X58547000Y4318000D01*
X58547000Y4298000D01*
X58293000Y4298000D01*
X58293000Y4318000D01*
X58273000Y4318000D01*
X58273000Y4572000D01*
X58293000Y4572000D01*
X58293000Y4592000D01*
X58547000Y4592000D01*
X58547000Y4572000D01*
X59796250Y4572000D01*
X59955000Y4730750D01*
X59955000Y5358260D01*
X60006239Y5368452D01*
X60252801Y5533199D01*
X60942602Y6223000D01*
X62865000Y6223000D01*
X62914410Y6233006D01*
X62956035Y6261447D01*
X62983315Y6303841D01*
X62992000Y6350000D01*
X62992000Y8272398D01*
X68199587Y13479985D01*
X68224400Y13474960D01*
X69951600Y13474960D01*
X70186917Y13519238D01*
X70403041Y13658310D01*
X70548031Y13870510D01*
X70599040Y14122400D01*
X70599040Y15849600D01*
X70554762Y16084917D01*
X70415690Y16301041D01*
X70203490Y16446031D01*
X70159655Y16454908D01*
X70472526Y16923152D01*
X70586600Y17496641D01*
X70586600Y17555359D01*
X70472526Y18128848D01*
X70147670Y18615029D01*
X69876828Y18796000D01*
X70147670Y18976971D01*
X70472526Y19463152D01*
X70586600Y20036641D01*
X70586600Y20095359D01*
X70472526Y20668848D01*
X70147670Y21155029D01*
X69876839Y21335992D01*
X70294821Y21717510D01*
X70542968Y22246973D01*
X70422469Y22479000D01*
X69215000Y22479000D01*
X69215000Y22459000D01*
X68961000Y22459000D01*
X68961000Y22479000D01*
X68941000Y22479000D01*
X68941000Y22733000D01*
X68961000Y22733000D01*
X68961000Y23939817D01*
X69215000Y23939817D01*
X69215000Y22733000D01*
X70422469Y22733000D01*
X70542968Y22965027D01*
X70294821Y23494490D01*
X69862947Y23888688D01*
X69447026Y24060958D01*
X69215000Y23939817D01*
X68961000Y23939817D01*
X68728974Y24060958D01*
X68313053Y23888688D01*
X67881179Y23494490D01*
X67823664Y23371772D01*
X67607670Y23695029D01*
X67121489Y24019885D01*
X66548000Y24133959D01*
X65974511Y24019885D01*
X65488330Y23695029D01*
X65163474Y23208848D01*
X65049400Y22635359D01*
X65049400Y22576641D01*
X65114842Y22247644D01*
X64709198Y21842000D01*
X63681463Y21842000D01*
X63649327Y21874192D01*
X63305799Y22016838D01*
X62992000Y22017111D01*
X62992000Y29940250D01*
X65983000Y29940250D01*
X65983000Y28899691D01*
X66079673Y28666302D01*
X66258301Y28487673D01*
X66491690Y28391000D01*
X67532250Y28391000D01*
X67691000Y28549750D01*
X67691000Y30099000D01*
X67945000Y30099000D01*
X67945000Y28549750D01*
X68103750Y28391000D01*
X69144310Y28391000D01*
X69377699Y28487673D01*
X69556327Y28666302D01*
X69653000Y28899691D01*
X69653000Y29940250D01*
X69494250Y30099000D01*
X67945000Y30099000D01*
X67691000Y30099000D01*
X66141750Y30099000D01*
X65983000Y29940250D01*
X62992000Y29940250D01*
X62992000Y33546420D01*
X64142897Y32395523D01*
X64142803Y32287225D01*
X64315233Y31869914D01*
X64634235Y31550355D01*
X65051244Y31377197D01*
X65502775Y31376803D01*
X65920086Y31549233D01*
X66025182Y31654146D01*
X65983000Y31552309D01*
X65983000Y30511750D01*
X66141750Y30353000D01*
X67691000Y30353000D01*
X67691000Y30373000D01*
X67945000Y30373000D01*
X67945000Y30353000D01*
X69494250Y30353000D01*
X69653000Y30511750D01*
X69653000Y31552309D01*
X69556327Y31785698D01*
X69377699Y31964327D01*
X69144310Y32061000D01*
X68593605Y32061000D01*
X68856086Y32169455D01*
X69372730Y32685199D01*
X69652681Y33359395D01*
X69653318Y34089403D01*
X69374545Y34764086D01*
X68858801Y35280730D01*
X68672714Y35358000D01*
X71934000Y35358000D01*
X71934000Y710000D01*
G36*
X1639446Y53785159D02*
X2540000Y52884605D01*
X3440554Y53785159D01*
X3401866Y53900000D01*
X4218134Y53900000D01*
X4179446Y53785159D01*
X5080000Y52884605D01*
X5980554Y53785159D01*
X5941866Y53900000D01*
X6644374Y53900000D01*
X6319449Y53575643D01*
X6310797Y53554806D01*
X6160159Y53605554D01*
X5259605Y52705000D01*
X6160159Y51804446D01*
X6310327Y51855035D01*
X6317932Y51836629D01*
X6719182Y51434677D01*
X6319449Y51035643D01*
X6310797Y51014806D01*
X6160159Y51065554D01*
X5259605Y50165000D01*
X5273748Y50150857D01*
X5094143Y49971252D01*
X5080000Y49985395D01*
X5065858Y49971252D01*
X4886253Y50150857D01*
X4900395Y50165000D01*
X3999841Y51065554D01*
X3810000Y51001599D01*
X3620159Y51065554D01*
X2719605Y50165000D01*
X2733748Y50150857D01*
X2554143Y49971252D01*
X2540000Y49985395D01*
X2084605Y49530000D01*
X1725395Y49530000D01*
X2360395Y50165000D01*
X1459841Y51065554D01*
X1203357Y50979148D01*
X993542Y50405664D01*
X1019161Y49795540D01*
X1203357Y49350852D01*
X1459841Y49264446D01*
X1524000Y49328605D01*
X1524000Y43616383D01*
X1411265Y43503845D01*
X1215223Y43031724D01*
X1214777Y42520519D01*
X1409995Y42048057D01*
X1524000Y41933853D01*
X1524000Y28916383D01*
X1411265Y28803845D01*
X1215223Y28331724D01*
X1214777Y27820519D01*
X1409995Y27348057D01*
X1524000Y27233853D01*
X1524000Y14216383D01*
X1411265Y14103845D01*
X1215223Y13631724D01*
X1214777Y13120519D01*
X1409995Y12648057D01*
X1524000Y12533853D01*
X1524000Y6350000D01*
X1534006Y6300590D01*
X1562447Y6258965D01*
X1604841Y6231685D01*
X1651000Y6223000D01*
X12895198Y6223000D01*
X12652240Y5980042D01*
X12396009Y5980265D01*
X11831629Y5747068D01*
X11429677Y5345818D01*
X11030643Y5745551D01*
X10466670Y5979733D01*
X9856009Y5980265D01*
X9291629Y5747068D01*
X8889677Y5345818D01*
X8490643Y5745551D01*
X7926670Y5979733D01*
X7316009Y5980265D01*
X6751629Y5747068D01*
X6349677Y5345818D01*
X5950643Y5745551D01*
X5386670Y5979733D01*
X4776009Y5980265D01*
X4211629Y5747068D01*
X3809677Y5345818D01*
X3410643Y5745551D01*
X2846670Y5979733D01*
X2236009Y5980265D01*
X1671629Y5747068D01*
X1239449Y5315643D01*
X1005267Y4751670D01*
X1004735Y4141009D01*
X1237932Y3576629D01*
X1639182Y3174677D01*
X1239449Y2775643D01*
X1005267Y2211670D01*
X1004735Y1601009D01*
X1237932Y1036629D01*
X1563990Y710000D01*
X710000Y710000D01*
X710000Y51624841D01*
X1639446Y51624841D01*
X1703401Y51435000D01*
X1639446Y51245159D01*
X2540000Y50344605D01*
X3440554Y51245159D01*
X3376599Y51435000D01*
X3440554Y51624841D01*
X4179446Y51624841D01*
X4243401Y51435000D01*
X4179446Y51245159D01*
X5080000Y50344605D01*
X5980554Y51245159D01*
X5916599Y51435000D01*
X5980554Y51624841D01*
X5080000Y52525395D01*
X4179446Y51624841D01*
X3440554Y51624841D01*
X2540000Y52525395D01*
X1639446Y51624841D01*
X710000Y51624841D01*
X710000Y52945664D01*
X993542Y52945664D01*
X1019161Y52335540D01*
X1203357Y51890852D01*
X1459841Y51804446D01*
X2360395Y52705000D01*
X2719605Y52705000D01*
X3620159Y51804446D01*
X3810000Y51868401D01*
X3999841Y51804446D01*
X4900395Y52705000D01*
X3999841Y53605554D01*
X3810000Y53541599D01*
X3620159Y53605554D01*
X2719605Y52705000D01*
X2360395Y52705000D01*
X1459841Y53605554D01*
X1203357Y53519148D01*
X993542Y52945664D01*
X710000Y52945664D01*
X710000Y53900000D01*
X1678134Y53900000D01*
X1639446Y53785159D01*
X1639446Y53785159D01*
G37*
X1639446Y53785159D02*
X2540000Y52884605D01*
X3440554Y53785159D01*
X3401866Y53900000D01*
X4218134Y53900000D01*
X4179446Y53785159D01*
X5080000Y52884605D01*
X5980554Y53785159D01*
X5941866Y53900000D01*
X6644374Y53900000D01*
X6319449Y53575643D01*
X6310797Y53554806D01*
X6160159Y53605554D01*
X5259605Y52705000D01*
X6160159Y51804446D01*
X6310327Y51855035D01*
X6317932Y51836629D01*
X6719182Y51434677D01*
X6319449Y51035643D01*
X6310797Y51014806D01*
X6160159Y51065554D01*
X5259605Y50165000D01*
X5273748Y50150857D01*
X5094143Y49971252D01*
X5080000Y49985395D01*
X5065858Y49971252D01*
X4886253Y50150857D01*
X4900395Y50165000D01*
X3999841Y51065554D01*
X3810000Y51001599D01*
X3620159Y51065554D01*
X2719605Y50165000D01*
X2733748Y50150857D01*
X2554143Y49971252D01*
X2540000Y49985395D01*
X2084605Y49530000D01*
X1725395Y49530000D01*
X2360395Y50165000D01*
X1459841Y51065554D01*
X1203357Y50979148D01*
X993542Y50405664D01*
X1019161Y49795540D01*
X1203357Y49350852D01*
X1459841Y49264446D01*
X1524000Y49328605D01*
X1524000Y43616383D01*
X1411265Y43503845D01*
X1215223Y43031724D01*
X1214777Y42520519D01*
X1409995Y42048057D01*
X1524000Y41933853D01*
X1524000Y28916383D01*
X1411265Y28803845D01*
X1215223Y28331724D01*
X1214777Y27820519D01*
X1409995Y27348057D01*
X1524000Y27233853D01*
X1524000Y14216383D01*
X1411265Y14103845D01*
X1215223Y13631724D01*
X1214777Y13120519D01*
X1409995Y12648057D01*
X1524000Y12533853D01*
X1524000Y6350000D01*
X1534006Y6300590D01*
X1562447Y6258965D01*
X1604841Y6231685D01*
X1651000Y6223000D01*
X12895198Y6223000D01*
X12652240Y5980042D01*
X12396009Y5980265D01*
X11831629Y5747068D01*
X11429677Y5345818D01*
X11030643Y5745551D01*
X10466670Y5979733D01*
X9856009Y5980265D01*
X9291629Y5747068D01*
X8889677Y5345818D01*
X8490643Y5745551D01*
X7926670Y5979733D01*
X7316009Y5980265D01*
X6751629Y5747068D01*
X6349677Y5345818D01*
X5950643Y5745551D01*
X5386670Y5979733D01*
X4776009Y5980265D01*
X4211629Y5747068D01*
X3809677Y5345818D01*
X3410643Y5745551D01*
X2846670Y5979733D01*
X2236009Y5980265D01*
X1671629Y5747068D01*
X1239449Y5315643D01*
X1005267Y4751670D01*
X1004735Y4141009D01*
X1237932Y3576629D01*
X1639182Y3174677D01*
X1239449Y2775643D01*
X1005267Y2211670D01*
X1004735Y1601009D01*
X1237932Y1036629D01*
X1563990Y710000D01*
X710000Y710000D01*
X710000Y51624841D01*
X1639446Y51624841D01*
X1703401Y51435000D01*
X1639446Y51245159D01*
X2540000Y50344605D01*
X3440554Y51245159D01*
X3376599Y51435000D01*
X3440554Y51624841D01*
X4179446Y51624841D01*
X4243401Y51435000D01*
X4179446Y51245159D01*
X5080000Y50344605D01*
X5980554Y51245159D01*
X5916599Y51435000D01*
X5980554Y51624841D01*
X5080000Y52525395D01*
X4179446Y51624841D01*
X3440554Y51624841D01*
X2540000Y52525395D01*
X1639446Y51624841D01*
X710000Y51624841D01*
X710000Y52945664D01*
X993542Y52945664D01*
X1019161Y52335540D01*
X1203357Y51890852D01*
X1459841Y51804446D01*
X2360395Y52705000D01*
X2719605Y52705000D01*
X3620159Y51804446D01*
X3810000Y51868401D01*
X3999841Y51804446D01*
X4900395Y52705000D01*
X3999841Y53605554D01*
X3810000Y53541599D01*
X3620159Y53605554D01*
X2719605Y52705000D01*
X2360395Y52705000D01*
X1459841Y53605554D01*
X1203357Y53519148D01*
X993542Y52945664D01*
X710000Y52945664D01*
X710000Y53900000D01*
X1678134Y53900000D01*
X1639446Y53785159D01*
G36*
X54967379Y48906500D02*
X54800500Y48906500D01*
X54528795Y48852454D01*
X54298454Y48698546D01*
X54144546Y48468205D01*
X54090500Y48196500D01*
X54090500Y46059898D01*
X54011256Y46092803D01*
X53559725Y46093197D01*
X53142414Y45920767D01*
X52937289Y45716000D01*
X48522413Y45716000D01*
X48482162Y45929917D01*
X48343090Y46146041D01*
X48130890Y46291031D01*
X47879000Y46342040D01*
X45847000Y46342040D01*
X45611683Y46297762D01*
X45395559Y46158690D01*
X45250569Y45946490D01*
X45199560Y45694600D01*
X45199560Y43967400D01*
X45243838Y43732083D01*
X45382910Y43515959D01*
X45595110Y43370969D01*
X45689927Y43351768D01*
X45512268Y43193036D01*
X45258291Y42665791D01*
X45255642Y42650026D01*
X45376783Y42418000D01*
X46736000Y42418000D01*
X46736000Y42438000D01*
X46990000Y42438000D01*
X46990000Y42418000D01*
X48349217Y42418000D01*
X48470358Y42650026D01*
X48467709Y42665791D01*
X48213732Y43193036D01*
X48038155Y43349907D01*
X48114317Y43364238D01*
X48330441Y43503310D01*
X48475431Y43715510D01*
X48522106Y43946000D01*
X50116671Y43946000D01*
X50007808Y43837327D01*
X49865162Y43493799D01*
X49864838Y43121833D01*
X50006883Y42778057D01*
X50269673Y42514808D01*
X50613201Y42372162D01*
X50660077Y42372121D01*
X50929000Y42103198D01*
X50929000Y39445454D01*
X50518756Y39615803D01*
X50067225Y39616197D01*
X49649914Y39443767D01*
X49330355Y39124765D01*
X49157197Y38707756D01*
X49156803Y38256225D01*
X49329233Y37838914D01*
X49611370Y37556284D01*
X49636045Y37519355D01*
X49666210Y37474210D01*
X49929420Y37211000D01*
X41211500Y37211000D01*
X41211500Y39751000D01*
X45179655Y39751000D01*
X45293729Y39177511D01*
X45618585Y38691330D01*
X46104766Y38366474D01*
X46678255Y38252400D01*
X47047745Y38252400D01*
X47621234Y38366474D01*
X48107415Y38691330D01*
X48432271Y39177511D01*
X48546345Y39751000D01*
X48432271Y40324489D01*
X48107415Y40810670D01*
X47797931Y41017461D01*
X48213732Y41388964D01*
X48467709Y41916209D01*
X48470358Y41931974D01*
X48349217Y42164000D01*
X46990000Y42164000D01*
X46990000Y42144000D01*
X46736000Y42144000D01*
X46736000Y42164000D01*
X45376783Y42164000D01*
X45255642Y41931974D01*
X45258291Y41916209D01*
X45512268Y41388964D01*
X45928069Y41017461D01*
X45618585Y40810670D01*
X45293729Y40324489D01*
X45179655Y39751000D01*
X41211500Y39751000D01*
X41211500Y40132000D01*
X41201494Y40181410D01*
X41173053Y40223035D01*
X41130659Y40250315D01*
X41084500Y40259000D01*
X20002500Y40259000D01*
X20002500Y48634764D01*
X20013330Y48630267D01*
X20623991Y48629735D01*
X21188371Y48862932D01*
X21590323Y49264182D01*
X21989357Y48864449D01*
X22553330Y48630267D01*
X23163991Y48629735D01*
X23728371Y48862932D01*
X24130323Y49264182D01*
X24529357Y48864449D01*
X25093330Y48630267D01*
X25703991Y48629735D01*
X26268371Y48862932D01*
X26670323Y49264182D01*
X27069357Y48864449D01*
X27633330Y48630267D01*
X28243991Y48629735D01*
X28808371Y48862932D01*
X29210323Y49264182D01*
X29609357Y48864449D01*
X30173330Y48630267D01*
X30783991Y48629735D01*
X31348371Y48862932D01*
X31750323Y49264182D01*
X32149357Y48864449D01*
X32713330Y48630267D01*
X33323991Y48629735D01*
X33888371Y48862932D01*
X34290323Y49264182D01*
X34689357Y48864449D01*
X35253330Y48630267D01*
X35863991Y48629735D01*
X36428371Y48862932D01*
X36830323Y49264182D01*
X37229357Y48864449D01*
X37793330Y48630267D01*
X38403991Y48629735D01*
X38968371Y48862932D01*
X39370323Y49264182D01*
X39769357Y48864449D01*
X40333330Y48630267D01*
X40943991Y48629735D01*
X41508371Y48862932D01*
X41910323Y49264182D01*
X42309357Y48864449D01*
X42873330Y48630267D01*
X43483991Y48629735D01*
X44048371Y48862932D01*
X44450323Y49264182D01*
X44849357Y48864449D01*
X45413330Y48630267D01*
X46023991Y48629735D01*
X46588371Y48862932D01*
X46990323Y49264182D01*
X47389357Y48864449D01*
X47953330Y48630267D01*
X48563991Y48629735D01*
X48923622Y48778331D01*
X48992599Y48675099D01*
X49420378Y48247320D01*
X49420338Y48201833D01*
X49562383Y47858057D01*
X49825173Y47594808D01*
X50168701Y47452162D01*
X50540667Y47451838D01*
X50884443Y47593883D01*
X51147692Y47856673D01*
X51290338Y48200201D01*
X51290662Y48572167D01*
X51243122Y48687223D01*
X51668371Y48862932D01*
X52070323Y49264182D01*
X52469357Y48864449D01*
X53033330Y48630267D01*
X53643991Y48629735D01*
X54208371Y48862932D01*
X54610323Y49264182D01*
X54967379Y48906500D01*
X54967379Y48906500D01*
G37*
X54967379Y48906500D02*
X54800500Y48906500D01*
X54528795Y48852454D01*
X54298454Y48698546D01*
X54144546Y48468205D01*
X54090500Y48196500D01*
X54090500Y46059898D01*
X54011256Y46092803D01*
X53559725Y46093197D01*
X53142414Y45920767D01*
X52937289Y45716000D01*
X48522413Y45716000D01*
X48482162Y45929917D01*
X48343090Y46146041D01*
X48130890Y46291031D01*
X47879000Y46342040D01*
X45847000Y46342040D01*
X45611683Y46297762D01*
X45395559Y46158690D01*
X45250569Y45946490D01*
X45199560Y45694600D01*
X45199560Y43967400D01*
X45243838Y43732083D01*
X45382910Y43515959D01*
X45595110Y43370969D01*
X45689927Y43351768D01*
X45512268Y43193036D01*
X45258291Y42665791D01*
X45255642Y42650026D01*
X45376783Y42418000D01*
X46736000Y42418000D01*
X46736000Y42438000D01*
X46990000Y42438000D01*
X46990000Y42418000D01*
X48349217Y42418000D01*
X48470358Y42650026D01*
X48467709Y42665791D01*
X48213732Y43193036D01*
X48038155Y43349907D01*
X48114317Y43364238D01*
X48330441Y43503310D01*
X48475431Y43715510D01*
X48522106Y43946000D01*
X50116671Y43946000D01*
X50007808Y43837327D01*
X49865162Y43493799D01*
X49864838Y43121833D01*
X50006883Y42778057D01*
X50269673Y42514808D01*
X50613201Y42372162D01*
X50660077Y42372121D01*
X50929000Y42103198D01*
X50929000Y39445454D01*
X50518756Y39615803D01*
X50067225Y39616197D01*
X49649914Y39443767D01*
X49330355Y39124765D01*
X49157197Y38707756D01*
X49156803Y38256225D01*
X49329233Y37838914D01*
X49611370Y37556284D01*
X49636045Y37519355D01*
X49666210Y37474210D01*
X49929420Y37211000D01*
X41211500Y37211000D01*
X41211500Y39751000D01*
X45179655Y39751000D01*
X45293729Y39177511D01*
X45618585Y38691330D01*
X46104766Y38366474D01*
X46678255Y38252400D01*
X47047745Y38252400D01*
X47621234Y38366474D01*
X48107415Y38691330D01*
X48432271Y39177511D01*
X48546345Y39751000D01*
X48432271Y40324489D01*
X48107415Y40810670D01*
X47797931Y41017461D01*
X48213732Y41388964D01*
X48467709Y41916209D01*
X48470358Y41931974D01*
X48349217Y42164000D01*
X46990000Y42164000D01*
X46990000Y42144000D01*
X46736000Y42144000D01*
X46736000Y42164000D01*
X45376783Y42164000D01*
X45255642Y41931974D01*
X45258291Y41916209D01*
X45512268Y41388964D01*
X45928069Y41017461D01*
X45618585Y40810670D01*
X45293729Y40324489D01*
X45179655Y39751000D01*
X41211500Y39751000D01*
X41211500Y40132000D01*
X41201494Y40181410D01*
X41173053Y40223035D01*
X41130659Y40250315D01*
X41084500Y40259000D01*
X20002500Y40259000D01*
X20002500Y48634764D01*
X20013330Y48630267D01*
X20623991Y48629735D01*
X21188371Y48862932D01*
X21590323Y49264182D01*
X21989357Y48864449D01*
X22553330Y48630267D01*
X23163991Y48629735D01*
X23728371Y48862932D01*
X24130323Y49264182D01*
X24529357Y48864449D01*
X25093330Y48630267D01*
X25703991Y48629735D01*
X26268371Y48862932D01*
X26670323Y49264182D01*
X27069357Y48864449D01*
X27633330Y48630267D01*
X28243991Y48629735D01*
X28808371Y48862932D01*
X29210323Y49264182D01*
X29609357Y48864449D01*
X30173330Y48630267D01*
X30783991Y48629735D01*
X31348371Y48862932D01*
X31750323Y49264182D01*
X32149357Y48864449D01*
X32713330Y48630267D01*
X33323991Y48629735D01*
X33888371Y48862932D01*
X34290323Y49264182D01*
X34689357Y48864449D01*
X35253330Y48630267D01*
X35863991Y48629735D01*
X36428371Y48862932D01*
X36830323Y49264182D01*
X37229357Y48864449D01*
X37793330Y48630267D01*
X38403991Y48629735D01*
X38968371Y48862932D01*
X39370323Y49264182D01*
X39769357Y48864449D01*
X40333330Y48630267D01*
X40943991Y48629735D01*
X41508371Y48862932D01*
X41910323Y49264182D01*
X42309357Y48864449D01*
X42873330Y48630267D01*
X43483991Y48629735D01*
X44048371Y48862932D01*
X44450323Y49264182D01*
X44849357Y48864449D01*
X45413330Y48630267D01*
X46023991Y48629735D01*
X46588371Y48862932D01*
X46990323Y49264182D01*
X47389357Y48864449D01*
X47953330Y48630267D01*
X48563991Y48629735D01*
X48923622Y48778331D01*
X48992599Y48675099D01*
X49420378Y48247320D01*
X49420338Y48201833D01*
X49562383Y47858057D01*
X49825173Y47594808D01*
X50168701Y47452162D01*
X50540667Y47451838D01*
X50884443Y47593883D01*
X51147692Y47856673D01*
X51290338Y48200201D01*
X51290662Y48572167D01*
X51243122Y48687223D01*
X51668371Y48862932D01*
X52070323Y49264182D01*
X52469357Y48864449D01*
X53033330Y48630267D01*
X53643991Y48629735D01*
X54208371Y48862932D01*
X54610323Y49264182D01*
X54967379Y48906500D01*
G36*
X65392241Y53765781D02*
X65037928Y53235514D01*
X64913510Y52610022D01*
X64913510Y52545978D01*
X65037928Y51920486D01*
X65251013Y51601582D01*
X65188811Y51575817D01*
X65010183Y51397188D01*
X64913510Y51163799D01*
X64913510Y50323750D01*
X65072260Y50165000D01*
X66421000Y50165000D01*
X66421000Y50185000D01*
X66675000Y50185000D01*
X66675000Y50165000D01*
X68023740Y50165000D01*
X68182490Y50323750D01*
X68182490Y51163799D01*
X68085817Y51397188D01*
X67907189Y51575817D01*
X67844987Y51601582D01*
X68058072Y51920486D01*
X68182490Y52545978D01*
X68182490Y52610022D01*
X68058072Y53235514D01*
X67703759Y53765781D01*
X67502886Y53900000D01*
X71934000Y53900000D01*
X71934000Y48906500D01*
X68180129Y48906500D01*
X68182490Y48912201D01*
X68182490Y49752250D01*
X68023740Y49911000D01*
X66675000Y49911000D01*
X66675000Y49891000D01*
X66421000Y49891000D01*
X66421000Y49911000D01*
X65072260Y49911000D01*
X64913510Y49752250D01*
X64913510Y48912201D01*
X64915871Y48906500D01*
X59260473Y48906500D01*
X59320554Y49084841D01*
X58420000Y49985395D01*
X57519446Y49084841D01*
X57579527Y48906500D01*
X56792015Y48906500D01*
X57180551Y49294357D01*
X57189203Y49315194D01*
X57339841Y49264446D01*
X58240395Y50165000D01*
X58226253Y50179142D01*
X58405858Y50358747D01*
X58420000Y50344605D01*
X58434143Y50358747D01*
X58613748Y50179142D01*
X58599605Y50165000D01*
X59500159Y49264446D01*
X59756643Y49350852D01*
X59966458Y49924336D01*
X59940839Y50534460D01*
X59756643Y50979148D01*
X59500161Y51065553D01*
X59614718Y51180110D01*
X59572541Y51222287D01*
X59679698Y51266673D01*
X59858327Y51445301D01*
X59955000Y51678690D01*
X59955000Y52419250D01*
X59796250Y52578000D01*
X58547000Y52578000D01*
X58547000Y52558000D01*
X58293000Y52558000D01*
X58293000Y52578000D01*
X58273000Y52578000D01*
X58273000Y52832000D01*
X58293000Y52832000D01*
X58293000Y52852000D01*
X58547000Y52852000D01*
X58547000Y52832000D01*
X59796250Y52832000D01*
X59955000Y52990750D01*
X59955000Y53731310D01*
X59885126Y53900000D01*
X65593114Y53900000D01*
X65392241Y53765781D01*
X65392241Y53765781D01*
G37*
X65392241Y53765781D02*
X65037928Y53235514D01*
X64913510Y52610022D01*
X64913510Y52545978D01*
X65037928Y51920486D01*
X65251013Y51601582D01*
X65188811Y51575817D01*
X65010183Y51397188D01*
X64913510Y51163799D01*
X64913510Y50323750D01*
X65072260Y50165000D01*
X66421000Y50165000D01*
X66421000Y50185000D01*
X66675000Y50185000D01*
X66675000Y50165000D01*
X68023740Y50165000D01*
X68182490Y50323750D01*
X68182490Y51163799D01*
X68085817Y51397188D01*
X67907189Y51575817D01*
X67844987Y51601582D01*
X68058072Y51920486D01*
X68182490Y52545978D01*
X68182490Y52610022D01*
X68058072Y53235514D01*
X67703759Y53765781D01*
X67502886Y53900000D01*
X71934000Y53900000D01*
X71934000Y48906500D01*
X68180129Y48906500D01*
X68182490Y48912201D01*
X68182490Y49752250D01*
X68023740Y49911000D01*
X66675000Y49911000D01*
X66675000Y49891000D01*
X66421000Y49891000D01*
X66421000Y49911000D01*
X65072260Y49911000D01*
X64913510Y49752250D01*
X64913510Y48912201D01*
X64915871Y48906500D01*
X59260473Y48906500D01*
X59320554Y49084841D01*
X58420000Y49985395D01*
X57519446Y49084841D01*
X57579527Y48906500D01*
X56792015Y48906500D01*
X57180551Y49294357D01*
X57189203Y49315194D01*
X57339841Y49264446D01*
X58240395Y50165000D01*
X58226253Y50179142D01*
X58405858Y50358747D01*
X58420000Y50344605D01*
X58434143Y50358747D01*
X58613748Y50179142D01*
X58599605Y50165000D01*
X59500159Y49264446D01*
X59756643Y49350852D01*
X59966458Y49924336D01*
X59940839Y50534460D01*
X59756643Y50979148D01*
X59500161Y51065553D01*
X59614718Y51180110D01*
X59572541Y51222287D01*
X59679698Y51266673D01*
X59858327Y51445301D01*
X59955000Y51678690D01*
X59955000Y52419250D01*
X59796250Y52578000D01*
X58547000Y52578000D01*
X58547000Y52558000D01*
X58293000Y52558000D01*
X58293000Y52578000D01*
X58273000Y52578000D01*
X58273000Y52832000D01*
X58293000Y52832000D01*
X58293000Y52852000D01*
X58547000Y52852000D01*
X58547000Y52832000D01*
X59796250Y52832000D01*
X59955000Y52990750D01*
X59955000Y53731310D01*
X59885126Y53900000D01*
X65593114Y53900000D01*
X65392241Y53765781D01*
M02*
