G04 #@! TF.FileFunction,Copper,L1,Top,Signal*
%FSLAX46Y46*%
G04 Gerber Fmt 4.6, Leading zero omitted, Abs format (unit mm)*
G04 Created by KiCad (PCBNEW 4.0.2+dfsg1-stable) date Mon 24 Oct 2016 13:43:27 CEST*
%MOMM*%
G01*
G04 APERTURE LIST*
%ADD10C,0.100000*%
%ADD11C,0.150000*%
%ADD12R,2.000000X2.000000*%
%ADD13C,1.300000*%
%ADD14R,1.727200X1.727200*%
%ADD15O,1.727200X1.727200*%
%ADD16R,1.800000X1.800000*%
%ADD17C,1.800000*%
%ADD18R,1.200000X0.750000*%
%ADD19R,1.524000X2.032000*%
%ADD20R,2.032000X1.727200*%
%ADD21O,2.032000X1.727200*%
%ADD22R,1.727200X2.032000*%
%ADD23O,1.727200X2.032000*%
%ADD24R,0.900000X1.200000*%
%ADD25R,1.200000X0.900000*%
%ADD26R,2.000000X1.600000*%
%ADD27R,1.600000X2.000000*%
%ADD28R,1.500000X0.600000*%
%ADD29R,1.778000X2.794000*%
%ADD30R,2.794000X1.778000*%
%ADD31O,1.998980X1.998980*%
%ADD32R,1.998980X1.998980*%
%ADD33C,2.400000*%
%ADD34R,2.400000X2.400000*%
%ADD35C,0.600000*%
%ADD36C,1.000000*%
%ADD37C,0.250000*%
%ADD38C,0.500000*%
%ADD39C,0.254000*%
G04 APERTURE END LIST*
D10*
D11*
X72644000Y48196500D02*
X72644000Y54610000D01*
X72644000Y36068000D02*
X72644000Y0D01*
X54800500Y36068000D02*
X72644000Y36068000D01*
X54800500Y48196500D02*
X54800500Y36068000D01*
X72644000Y48196500D02*
X54800500Y48196500D01*
X72644000Y0D02*
X0Y0D01*
X0Y54610000D02*
X72644000Y54610000D01*
X0Y0D02*
X0Y54610000D01*
D12*
X10250000Y38775000D03*
X13450000Y42775000D03*
X10250000Y46775000D03*
X3500000Y38275000D03*
X3500000Y47275000D03*
D13*
X2500000Y42775000D03*
X8800000Y42775000D03*
D14*
X69088000Y14986000D03*
D15*
X66548000Y14986000D03*
X69088000Y17526000D03*
X66548000Y17526000D03*
X69088000Y20066000D03*
X66548000Y20066000D03*
X69088000Y22606000D03*
X66548000Y22606000D03*
D16*
X58420000Y52705000D03*
D17*
X58420000Y50165000D03*
X55880000Y52705000D03*
X55880000Y50165000D03*
X53340000Y52705000D03*
X53340000Y50165000D03*
X50800000Y52705000D03*
X50800000Y50165000D03*
X48260000Y52705000D03*
X48260000Y50165000D03*
X45720000Y52705000D03*
X45720000Y50165000D03*
X43180000Y52705000D03*
X43180000Y50165000D03*
X40640000Y52705000D03*
X40640000Y50165000D03*
X38100000Y52705000D03*
X38100000Y50165000D03*
X35560000Y52705000D03*
X35560000Y50165000D03*
X33020000Y52705000D03*
X33020000Y50165000D03*
X30480000Y52705000D03*
X30480000Y50165000D03*
X27940000Y52705000D03*
X27940000Y50165000D03*
X25400000Y52705000D03*
X25400000Y50165000D03*
X22860000Y52705000D03*
X22860000Y50165000D03*
X20320000Y52705000D03*
X20320000Y50165000D03*
X17780000Y52705000D03*
X17780000Y50165000D03*
X15240000Y52705000D03*
X15240000Y50165000D03*
X12700000Y52705000D03*
X12700000Y50165000D03*
X10160000Y52705000D03*
X10160000Y50165000D03*
X7620000Y52705000D03*
X7620000Y50165000D03*
X5080000Y52705000D03*
X5080000Y50165000D03*
X2540000Y52705000D03*
X2540000Y50165000D03*
D16*
X58420000Y4445000D03*
D17*
X58420000Y1905000D03*
X55880000Y4445000D03*
X55880000Y1905000D03*
X53340000Y4445000D03*
X53340000Y1905000D03*
X50800000Y4445000D03*
X50800000Y1905000D03*
X48260000Y4445000D03*
X48260000Y1905000D03*
X45720000Y4445000D03*
X45720000Y1905000D03*
X43180000Y4445000D03*
X43180000Y1905000D03*
X40640000Y4445000D03*
X40640000Y1905000D03*
X38100000Y4445000D03*
X38100000Y1905000D03*
X35560000Y4445000D03*
X35560000Y1905000D03*
X33020000Y4445000D03*
X33020000Y1905000D03*
X30480000Y4445000D03*
X30480000Y1905000D03*
X27940000Y4445000D03*
X27940000Y1905000D03*
X25400000Y4445000D03*
X25400000Y1905000D03*
X22860000Y4445000D03*
X22860000Y1905000D03*
X20320000Y4445000D03*
X20320000Y1905000D03*
X17780000Y4445000D03*
X17780000Y1905000D03*
X15240000Y4445000D03*
X15240000Y1905000D03*
X12700000Y4445000D03*
X12700000Y1905000D03*
X10160000Y4445000D03*
X10160000Y1905000D03*
X7620000Y4445000D03*
X7620000Y1905000D03*
X5080000Y4445000D03*
X5080000Y1905000D03*
X2540000Y4445000D03*
X2540000Y1905000D03*
D18*
X37150000Y28575000D03*
X39050000Y28575000D03*
X37150000Y30480000D03*
X39050000Y30480000D03*
X37150000Y24765000D03*
X39050000Y24765000D03*
X37150000Y34290000D03*
X39050000Y34290000D03*
X32700000Y22860000D03*
X30800000Y22860000D03*
D19*
X37084000Y22225000D03*
X40386000Y22225000D03*
X32575500Y36830000D03*
X29273500Y36830000D03*
D18*
X26350000Y30480000D03*
X24450000Y30480000D03*
X26350000Y28575000D03*
X24450000Y28575000D03*
X26350000Y34290000D03*
X24450000Y34290000D03*
X26350000Y24765000D03*
X24450000Y24765000D03*
D19*
X26416000Y36830000D03*
X23114000Y36830000D03*
X26416000Y22225000D03*
X23114000Y22225000D03*
D18*
X47945000Y30480000D03*
X49845000Y30480000D03*
X49845000Y28575000D03*
X47945000Y28575000D03*
X49845000Y34290000D03*
X47945000Y34290000D03*
X49845000Y24765000D03*
X47945000Y24765000D03*
D19*
X38862000Y36830000D03*
X35560000Y36830000D03*
X49911000Y22225000D03*
X46609000Y22225000D03*
D20*
X17780000Y32385000D03*
D21*
X17780000Y29845000D03*
X17780000Y27305000D03*
X17780000Y24765000D03*
X17780000Y22225000D03*
X17780000Y19685000D03*
X17780000Y17145000D03*
X17780000Y14605000D03*
X17780000Y12065000D03*
X17780000Y9525000D03*
D22*
X35560000Y9525000D03*
D23*
X38100000Y9525000D03*
X40640000Y9525000D03*
X43180000Y9525000D03*
X45720000Y9525000D03*
X48260000Y9525000D03*
X50800000Y9525000D03*
X53340000Y9525000D03*
X55880000Y9525000D03*
X58420000Y9525000D03*
D24*
X25400000Y47074000D03*
X25400000Y44874000D03*
X61595000Y23030000D03*
X61595000Y25230000D03*
X61595000Y27475000D03*
X61595000Y29675000D03*
D25*
X37508000Y17145000D03*
X39708000Y17145000D03*
D24*
X42545000Y22182000D03*
X42545000Y19982000D03*
D25*
X37000000Y26670000D03*
X39200000Y26670000D03*
X37000000Y32385000D03*
X39200000Y32385000D03*
D24*
X29718000Y19642000D03*
X29718000Y17442000D03*
X24638000Y19642000D03*
X24638000Y17442000D03*
D25*
X26500000Y32385000D03*
X24300000Y32385000D03*
X26500000Y26670000D03*
X24300000Y26670000D03*
D24*
X62103000Y2329000D03*
X62103000Y4529000D03*
X44577000Y22182000D03*
X44577000Y19982000D03*
D25*
X47922000Y19685000D03*
X50122000Y19685000D03*
X49995000Y32385000D03*
X47795000Y32385000D03*
X49995000Y26670000D03*
X47795000Y26670000D03*
D26*
X28351500Y45974000D03*
X33751500Y45974000D03*
D27*
X65913000Y2634000D03*
X65913000Y8034000D03*
D28*
X34450000Y25400000D03*
X34450000Y26670000D03*
X34450000Y27940000D03*
X34450000Y29210000D03*
X34450000Y30480000D03*
X34450000Y31750000D03*
X34450000Y33020000D03*
X29050000Y33020000D03*
X29050000Y31750000D03*
X29050000Y30480000D03*
X29050000Y29210000D03*
X29050000Y27940000D03*
X29050000Y26670000D03*
X29050000Y25400000D03*
X53180000Y33655000D03*
X53180000Y32385000D03*
X53180000Y31115000D03*
X53180000Y29845000D03*
X53180000Y28575000D03*
X53180000Y27305000D03*
X53180000Y26035000D03*
X58580000Y26035000D03*
X58580000Y27305000D03*
X58580000Y28575000D03*
X58580000Y29845000D03*
X58580000Y31115000D03*
X58580000Y32385000D03*
X58580000Y33655000D03*
D20*
X46863000Y44831000D03*
D21*
X46863000Y42291000D03*
X46863000Y39751000D03*
D18*
X54930000Y23495000D03*
X56830000Y23495000D03*
D29*
X43434000Y45847000D03*
X39878000Y45847000D03*
D30*
X43307000Y38862000D03*
X43307000Y42418000D03*
D31*
X66548000Y52578000D03*
D32*
X66548000Y50038000D03*
D18*
X48702000Y47879000D03*
X46802000Y47879000D03*
X40066000Y42037000D03*
X38166000Y42037000D03*
D12*
X10250000Y24075000D03*
X13450000Y28075000D03*
X10250000Y32075000D03*
X3500000Y23575000D03*
X3500000Y32575000D03*
D13*
X2500000Y28075000D03*
X8800000Y28075000D03*
D12*
X10250000Y9375000D03*
X13450000Y13375000D03*
X10250000Y17375000D03*
X3500000Y8875000D03*
X3500000Y17875000D03*
D13*
X2500000Y13375000D03*
X8800000Y13375000D03*
D25*
X18689500Y35750500D03*
X16489500Y35750500D03*
D24*
X42481500Y14435000D03*
X42481500Y12235000D03*
D25*
X16489500Y37846000D03*
X18689500Y37846000D03*
D24*
X39941500Y14435000D03*
X39941500Y12235000D03*
D25*
X37508000Y19621500D03*
X39708000Y19621500D03*
D24*
X37465000Y14435000D03*
X37465000Y12235000D03*
X22161500Y17292500D03*
X22161500Y15092500D03*
X14325000Y33535800D03*
X14325000Y31335800D03*
X14351000Y38016000D03*
X14351000Y40216000D03*
X20701000Y24214000D03*
X20701000Y22014000D03*
X34798000Y14435000D03*
X34798000Y12235000D03*
D25*
X43667500Y17145000D03*
X45867500Y17145000D03*
D24*
X45148500Y14435000D03*
X45148500Y12235000D03*
X17335500Y42883000D03*
X17335500Y40683000D03*
X47815500Y14435000D03*
X47815500Y12235000D03*
X14351000Y22903000D03*
X14351000Y25103000D03*
X22161500Y10203000D03*
X22161500Y12403000D03*
D25*
X16657500Y45212000D03*
X14457500Y45212000D03*
D24*
X58420000Y12489000D03*
X58420000Y14689000D03*
D25*
X59225000Y20955000D03*
X61425000Y20955000D03*
D33*
X67818000Y33726000D03*
D34*
X67818000Y30226000D03*
D25*
X11727000Y35433000D03*
X13927000Y35433000D03*
X7028000Y35433000D03*
X9228000Y35433000D03*
D24*
X14351000Y18689500D03*
X14351000Y16489500D03*
D25*
X9695000Y20764500D03*
X11895000Y20764500D03*
X14457500Y47307500D03*
X16657500Y47307500D03*
D24*
X14287500Y8425000D03*
X14287500Y10625000D03*
D35*
X22860000Y28575000D03*
X40640000Y28575000D03*
X46355000Y28575000D03*
X59690000Y24765000D03*
D36*
X50546000Y40068500D03*
X33629600Y48285400D03*
X44386500Y48577500D03*
X60325000Y30988000D03*
X56261000Y24638000D03*
X31369000Y24257000D03*
D35*
X62865000Y7620000D03*
X22479000Y25527000D03*
X29210000Y24384000D03*
D36*
X53784500Y44958000D03*
D35*
X50355500Y48387000D03*
X50800000Y43307000D03*
X51689000Y38417500D03*
X55245000Y29845000D03*
X32385000Y29210000D03*
D36*
X65278000Y32512000D03*
X50292000Y38481000D03*
D35*
X64846200Y14884400D03*
X62712600Y14757400D03*
X63119000Y21082000D03*
X61976000Y13589000D03*
X62458600Y19481800D03*
X33147000Y18224500D03*
X27178000Y19812000D03*
X21145500Y19367500D03*
X23812500Y12636500D03*
X31813500Y20764500D03*
X41529000Y17526000D03*
X39179500Y11938000D03*
X33591500Y11874500D03*
X36449000Y11938000D03*
X41529000Y11874500D03*
X44069000Y11938000D03*
X46863000Y11938000D03*
X56134000Y32258000D03*
X43180000Y32004000D03*
X31750000Y32004000D03*
X21336000Y33020000D03*
X56743600Y14655800D03*
X12598400Y31292800D03*
X12877800Y40055800D03*
X60261500Y26352500D03*
X60325000Y28956000D03*
X23812500Y10223500D03*
X43624500Y16065500D03*
D37*
X37150000Y28575000D02*
X36195000Y28575000D01*
X35560000Y27940000D02*
X34450000Y27940000D01*
X36195000Y28575000D02*
X35560000Y27940000D01*
X37000000Y26670000D02*
X37000000Y28425000D01*
X37000000Y28425000D02*
X37150000Y28575000D01*
X22860000Y28575000D02*
X24450000Y28575000D01*
X40640000Y28575000D02*
X39050000Y28575000D01*
X58580000Y26035000D02*
X58580000Y25875000D01*
X58580000Y25875000D02*
X59690000Y24765000D01*
X46355000Y28575000D02*
X47945000Y28575000D01*
X58580000Y26035000D02*
X58580000Y27305000D01*
X47945000Y28575000D02*
X47945000Y28895000D01*
X47945000Y28895000D02*
X49530000Y30480000D01*
X49530000Y30480000D02*
X49845000Y30480000D01*
X39050000Y28575000D02*
X39050000Y30480000D01*
X24450000Y30480000D02*
X24450000Y28575000D01*
X37150000Y30480000D02*
X37150000Y32235000D01*
X37150000Y32235000D02*
X37000000Y32385000D01*
X37150000Y30480000D02*
X34450000Y30480000D01*
X34450000Y25400000D02*
X34450000Y26670000D01*
X37150000Y24765000D02*
X35085000Y24765000D01*
X35085000Y24765000D02*
X34450000Y25400000D01*
X37084000Y22225000D02*
X37084000Y24699000D01*
X37084000Y24699000D02*
X37150000Y24765000D01*
X39050000Y24765000D02*
X39050000Y21841500D01*
X38544500Y18181500D02*
X37508000Y17145000D01*
X38544500Y21336000D02*
X38544500Y18181500D01*
X39050000Y21841500D02*
X38544500Y21336000D01*
X37254000Y17399000D02*
X37338000Y17315000D01*
X39050000Y24765000D02*
X39050000Y26520000D01*
X39050000Y26520000D02*
X39200000Y26670000D01*
X34450000Y33020000D02*
X34450000Y33164800D01*
X34450000Y33164800D02*
X32575500Y35039300D01*
X32575500Y35039300D02*
X32575500Y36830000D01*
X34450000Y33020000D02*
X34925000Y33020000D01*
X34925000Y33020000D02*
X36195000Y34290000D01*
X36195000Y34290000D02*
X37150000Y34290000D01*
X34450000Y31750000D02*
X34450000Y33020000D01*
X39200000Y32385000D02*
X39497000Y32385000D01*
X39497000Y32385000D02*
X41338500Y30543500D01*
X42545000Y22860000D02*
X42545000Y22182000D01*
X41338500Y24066500D02*
X42545000Y22860000D01*
X41338500Y30543500D02*
X41338500Y24066500D01*
X39050000Y34290000D02*
X39050000Y32535000D01*
X39050000Y32535000D02*
X39200000Y32385000D01*
X61595000Y23030000D02*
X61595000Y21125000D01*
X61595000Y21125000D02*
X61425000Y20955000D01*
D38*
X33751500Y45974000D02*
X33751500Y48163500D01*
X33751500Y48163500D02*
X33629600Y48285400D01*
X44259500Y48450500D02*
X44259500Y47879000D01*
X44386500Y48577500D02*
X44259500Y48450500D01*
X40259000Y45847000D02*
X40259000Y46799500D01*
X40259000Y46799500D02*
X41338500Y47879000D01*
X41338500Y47879000D02*
X44259500Y47879000D01*
X44259500Y47879000D02*
X46929000Y47879000D01*
X33751500Y45974000D02*
X40132000Y45974000D01*
X40132000Y45974000D02*
X40259000Y45847000D01*
X38166000Y41973500D02*
X38166000Y43754000D01*
X38166000Y43754000D02*
X40259000Y45847000D01*
X40259000Y45847000D02*
X40259000Y45529500D01*
X40259000Y45529500D02*
X43370500Y42418000D01*
X46926500Y42291000D02*
X43497500Y42291000D01*
X43497500Y42291000D02*
X43370500Y42418000D01*
D37*
X2540000Y52705000D02*
X5080000Y52705000D01*
X2540000Y52705000D02*
X2540000Y50165000D01*
X5080000Y50165000D02*
X2540000Y50165000D01*
X5080000Y52705000D02*
X5080000Y50165000D01*
D38*
X60071000Y29845000D02*
X58580000Y29845000D01*
X60325000Y30988000D02*
X60198000Y30861000D01*
X60198000Y30861000D02*
X60198000Y29972000D01*
X60198000Y29972000D02*
X60071000Y29845000D01*
X30800000Y22860000D02*
X30800000Y23688000D01*
X56830000Y24069000D02*
X56830000Y23495000D01*
X56261000Y24638000D02*
X56830000Y24069000D01*
X30800000Y23688000D02*
X31369000Y24257000D01*
X29050000Y29210000D02*
X29845000Y29210000D01*
X30800000Y28255000D02*
X30800000Y22860000D01*
X29845000Y29210000D02*
X30800000Y28255000D01*
D37*
X62865000Y7620000D02*
X62865000Y7620000D01*
X58420000Y4445000D02*
X58420000Y5080000D01*
D38*
X57785000Y29845000D02*
X58580000Y29845000D01*
X56830000Y23495000D02*
X56830000Y28890000D01*
X56830000Y28890000D02*
X57785000Y29845000D01*
D37*
X10250000Y17375000D02*
X13036500Y17375000D01*
X13036500Y17375000D02*
X14351000Y18689500D01*
X11145400Y18270400D02*
X10250000Y17375000D01*
X7028000Y35433000D02*
X7028000Y35553000D01*
X7028000Y35553000D02*
X10250000Y38775000D01*
X11037000Y38016000D02*
X10254000Y38799000D01*
X10445000Y38608000D02*
X10254000Y38799000D01*
X26350000Y30480000D02*
X29050000Y30480000D01*
X26350000Y30480000D02*
X26350000Y32235000D01*
X26350000Y32235000D02*
X26500000Y32385000D01*
X26500000Y26670000D02*
X26500000Y28425000D01*
X26500000Y28425000D02*
X26350000Y28575000D01*
X26350000Y28575000D02*
X27305000Y28575000D01*
X27940000Y27940000D02*
X29050000Y27940000D01*
X27305000Y28575000D02*
X27940000Y27940000D01*
X29050000Y31750000D02*
X29050000Y33020000D01*
X26350000Y34290000D02*
X27780000Y34290000D01*
X27780000Y34290000D02*
X29050000Y33020000D01*
X26416000Y36830000D02*
X26416000Y34356000D01*
X26416000Y34356000D02*
X26350000Y34290000D01*
X29718000Y19642000D02*
X29718000Y22606000D01*
X22225000Y30310000D02*
X24300000Y32385000D01*
X22225000Y25781000D02*
X22225000Y30310000D01*
X22479000Y25527000D02*
X22225000Y25781000D01*
X29210000Y23114000D02*
X29210000Y24384000D01*
X29718000Y22606000D02*
X29210000Y23114000D01*
X24450000Y34290000D02*
X24450000Y32535000D01*
X24450000Y32535000D02*
X24300000Y32385000D01*
X26416000Y22225000D02*
X26416000Y24699000D01*
X26416000Y24699000D02*
X26350000Y24765000D01*
X29050000Y25400000D02*
X29050000Y26670000D01*
X26350000Y24765000D02*
X28415000Y24765000D01*
X28415000Y24765000D02*
X29050000Y25400000D01*
X24638000Y19642000D02*
X24638000Y24577000D01*
X24638000Y24577000D02*
X24450000Y24765000D01*
X24300000Y26670000D02*
X24300000Y24915000D01*
X24300000Y24915000D02*
X24450000Y24765000D01*
X11727000Y35433000D02*
X11727000Y33552000D01*
X11727000Y33552000D02*
X10250000Y32075000D01*
X9695000Y20764500D02*
X9695000Y23520000D01*
X9695000Y23520000D02*
X10250000Y24075000D01*
X53180000Y31115000D02*
X52705000Y31115000D01*
X52705000Y31115000D02*
X51435000Y32385000D01*
X51435000Y32385000D02*
X49995000Y32385000D01*
X47945000Y30480000D02*
X48090000Y30480000D01*
X48090000Y30480000D02*
X49995000Y32385000D01*
X49845000Y28575000D02*
X53180000Y28575000D01*
X49995000Y26670000D02*
X49995000Y28425000D01*
X49995000Y28425000D02*
X49845000Y28575000D01*
X49845000Y34290000D02*
X49845000Y34864000D01*
X40386000Y35306000D02*
X38862000Y36830000D01*
X49403000Y35306000D02*
X40386000Y35306000D01*
X49845000Y34864000D02*
X49403000Y35306000D01*
X53180000Y33655000D02*
X50480000Y33655000D01*
X50480000Y33655000D02*
X49845000Y34290000D01*
X53180000Y32385000D02*
X53180000Y33655000D01*
X47795000Y32385000D02*
X47371000Y32385000D01*
X47371000Y32385000D02*
X45593000Y30607000D01*
X44577000Y23241000D02*
X44577000Y22182000D01*
X45593000Y24257000D02*
X44577000Y23241000D01*
X45593000Y30607000D02*
X45593000Y24257000D01*
X47795000Y32385000D02*
X47795000Y34140000D01*
X47795000Y34140000D02*
X47945000Y34290000D01*
X53180000Y26035000D02*
X53180000Y27305000D01*
X49845000Y24765000D02*
X51910000Y24765000D01*
X51910000Y24765000D02*
X53180000Y26035000D01*
X49911000Y22225000D02*
X49911000Y24699000D01*
X49911000Y24699000D02*
X49845000Y24765000D01*
X47922000Y19685000D02*
X47922000Y21252000D01*
X48387000Y24323000D02*
X47945000Y24765000D01*
X48387000Y21717000D02*
X48387000Y24323000D01*
X47922000Y21252000D02*
X48387000Y21717000D01*
X47945000Y24765000D02*
X47945000Y26520000D01*
X47945000Y26520000D02*
X47795000Y26670000D01*
X48260000Y24450000D02*
X47945000Y24765000D01*
X10250000Y46775000D02*
X13925000Y46775000D01*
X13925000Y46775000D02*
X14457500Y47307500D01*
X11037000Y47582000D02*
X10254000Y46799000D01*
X14287500Y8425000D02*
X11200000Y8425000D01*
X11200000Y8425000D02*
X10250000Y9375000D01*
X24638000Y17442000D02*
X27833500Y17442000D01*
X33104000Y16129000D02*
X34798000Y14435000D01*
X29146500Y16129000D02*
X33104000Y16129000D01*
X27833500Y17442000D02*
X29146500Y16129000D01*
X35560000Y9525000D02*
X35560000Y10985500D01*
X35750500Y13482500D02*
X34798000Y14435000D01*
X35750500Y11176000D02*
X35750500Y13482500D01*
X35560000Y10985500D02*
X35750500Y11176000D01*
X37465000Y14435000D02*
X37444500Y14435000D01*
X37444500Y14435000D02*
X35179000Y16700500D01*
X30459500Y16700500D02*
X29718000Y17442000D01*
X35179000Y16700500D02*
X30459500Y16700500D01*
X38100000Y9525000D02*
X38100000Y10604500D01*
X38417500Y13482500D02*
X37465000Y14435000D01*
X38417500Y10922000D02*
X38417500Y13482500D01*
X38100000Y10604500D02*
X38417500Y10922000D01*
X39941500Y14435000D02*
X39941500Y16911500D01*
X39941500Y16911500D02*
X39708000Y17145000D01*
X40640000Y9525000D02*
X40640000Y10858500D01*
X40894000Y13482500D02*
X39941500Y14435000D01*
X40894000Y11112500D02*
X40894000Y13482500D01*
X40640000Y10858500D02*
X40894000Y11112500D01*
X42481500Y14435000D02*
X42481500Y19918500D01*
X42481500Y19918500D02*
X42545000Y19982000D01*
X43180000Y9525000D02*
X43180000Y10985500D01*
X43434000Y13482500D02*
X42481500Y14435000D01*
X43434000Y11239500D02*
X43434000Y13482500D01*
X43180000Y10985500D02*
X43434000Y11239500D01*
X45148500Y14435000D02*
X45148500Y15430500D01*
X44767500Y15811500D02*
X44767500Y19791500D01*
X45148500Y15430500D02*
X44767500Y15811500D01*
X44767500Y19791500D02*
X44577000Y19982000D01*
X45720000Y9525000D02*
X45720000Y10604500D01*
X46101000Y13482500D02*
X45148500Y14435000D01*
X46101000Y10985500D02*
X46101000Y13482500D01*
X45720000Y10604500D02*
X46101000Y10985500D01*
X47815500Y14435000D02*
X47815500Y17378500D01*
X47815500Y17378500D02*
X50122000Y19685000D01*
X48260000Y9525000D02*
X48260000Y10350500D01*
X48260000Y10350500D02*
X48831500Y10922000D01*
X48831500Y10922000D02*
X48831500Y13419000D01*
X48831500Y13419000D02*
X47815500Y14435000D01*
D38*
X54229000Y44958000D02*
X53784500Y44958000D01*
X46863000Y44831000D02*
X46863000Y45085000D01*
X46863000Y45085000D02*
X48702000Y46924000D01*
X48702000Y46924000D02*
X48702000Y47879000D01*
X46863000Y44831000D02*
X44450000Y44831000D01*
X44450000Y44831000D02*
X43434000Y45847000D01*
X67818000Y33726000D02*
X65080000Y33726000D01*
X54991000Y35369500D02*
X54229000Y36131500D01*
X63436500Y35369500D02*
X54991000Y35369500D01*
X65024000Y33782000D02*
X63436500Y35369500D01*
X54229000Y36131500D02*
X54229000Y39751000D01*
X65080000Y33726000D02*
X65024000Y33782000D01*
X54229000Y39751000D02*
X54229000Y44958000D01*
X54229000Y44958000D02*
X54229000Y48133000D01*
X54737000Y48641000D02*
X54229000Y48133000D01*
X61341000Y48641000D02*
X54737000Y48641000D01*
X65214500Y52514500D02*
X61341000Y48641000D01*
X66357500Y52514500D02*
X65214500Y52514500D01*
D37*
X25400000Y47074000D02*
X25400000Y47752000D01*
X24130000Y51435000D02*
X25400000Y52705000D01*
X24130000Y49022000D02*
X24130000Y51435000D01*
X25400000Y47752000D02*
X24130000Y49022000D01*
X25400000Y44874000D02*
X27251500Y44874000D01*
X27251500Y44874000D02*
X28351500Y45974000D01*
X50800000Y43307000D02*
X50800000Y47942500D01*
X50800000Y47942500D02*
X50355500Y48387000D01*
X54483000Y30480000D02*
X54483000Y34161602D01*
X54483000Y34161602D02*
X52387500Y36257102D01*
X53848000Y29845000D02*
X54483000Y30480000D01*
X51847051Y36797551D02*
X52387500Y36257102D01*
X50863500Y43370500D02*
X50800000Y43307000D01*
X51689000Y38417500D02*
X51847051Y38259449D01*
X51847051Y38259449D02*
X51847051Y36797551D01*
X53180000Y29845000D02*
X53848000Y29845000D01*
X59225000Y20955000D02*
X57470000Y20955000D01*
X57470000Y20955000D02*
X54930000Y23495000D01*
X34450000Y29210000D02*
X32385000Y29210000D01*
X55245000Y29845000D02*
X53180000Y29845000D01*
X54930000Y23495000D02*
X54930000Y28890000D01*
X54930000Y28890000D02*
X53975000Y29845000D01*
X53975000Y29845000D02*
X53180000Y29845000D01*
X32700000Y22860000D02*
X32700000Y28255000D01*
X33655000Y29210000D02*
X34450000Y29210000D01*
X32700000Y28255000D02*
X33655000Y29210000D01*
X61595000Y25230000D02*
X61595000Y27475000D01*
X58580000Y28575000D02*
X59690000Y28575000D01*
X60790000Y27475000D02*
X61595000Y27475000D01*
X59690000Y28575000D02*
X60790000Y27475000D01*
X62103000Y2329000D02*
X61425000Y2329000D01*
X52197000Y5842000D02*
X50800000Y4445000D01*
X59690000Y5842000D02*
X52197000Y5842000D01*
X60198000Y5334000D02*
X59690000Y5842000D01*
X60198000Y3556000D02*
X60198000Y5334000D01*
X61425000Y2329000D02*
X60198000Y3556000D01*
X62103000Y2329000D02*
X65608000Y2329000D01*
X65608000Y2329000D02*
X65913000Y2634000D01*
X55880000Y50165000D02*
X55306404Y50165000D01*
X55306404Y50165000D02*
X52832000Y47690596D01*
X52832000Y47690596D02*
X52832000Y36449000D01*
X52832000Y36449000D02*
X54673500Y34607500D01*
X54673500Y34607500D02*
X61023500Y34607500D01*
X61023500Y34607500D02*
X64008000Y31623000D01*
X64008000Y31623000D02*
X64008000Y9939000D01*
X65913000Y8034000D02*
X64008000Y9939000D01*
D38*
X46863000Y39751000D02*
X48514000Y39751000D01*
X52070000Y48895000D02*
X53340000Y50165000D01*
X52070000Y43307000D02*
X52070000Y48895000D01*
X48514000Y39751000D02*
X52070000Y43307000D01*
X46863000Y39751000D02*
X44196000Y39751000D01*
X44196000Y39751000D02*
X43307000Y38862000D01*
X53340000Y50165000D02*
X53340000Y49911000D01*
X53340000Y52705000D02*
X53340000Y50165000D01*
X65278000Y29083000D02*
X65278000Y32512000D01*
X66421000Y27940000D02*
X65278000Y29083000D01*
X66929000Y27940000D02*
X66421000Y27940000D01*
X70739000Y24130000D02*
X66929000Y27940000D01*
X70739000Y16510000D02*
X70739000Y24130000D01*
X69215000Y14986000D02*
X70739000Y16510000D01*
X49022000Y39751000D02*
X46863000Y39751000D01*
X50292000Y38481000D02*
X49022000Y39751000D01*
X69088000Y14986000D02*
X69215000Y14986000D01*
D37*
X46863000Y39751000D02*
X46355000Y39751000D01*
D38*
X40066000Y41973500D02*
X40259000Y41973500D01*
X40259000Y41973500D02*
X43370500Y38862000D01*
D37*
X64846200Y14884400D02*
X64846200Y15824200D01*
X64846200Y15824200D02*
X66548000Y17526000D01*
X62712600Y14757400D02*
X62712600Y14757400D01*
X62712600Y14757400D02*
X62712600Y8686800D01*
X49530000Y3175000D02*
X48260000Y1905000D01*
X49530000Y5461000D02*
X49530000Y3175000D01*
X50400798Y6331798D02*
X49530000Y5461000D01*
X60357598Y6331798D02*
X50400798Y6331798D01*
X62712600Y8686800D02*
X60357598Y6331798D01*
X63169800Y16967200D02*
X63119000Y21082000D01*
X61188600Y14986000D02*
X63169800Y16967200D01*
X61188600Y8813800D02*
X61188600Y14986000D01*
X59690000Y7315200D02*
X61188600Y8813800D01*
X49174400Y7315200D02*
X59690000Y7315200D01*
X47015400Y5156200D02*
X49174400Y7315200D01*
X47015400Y3378200D02*
X47015400Y5156200D01*
X45720000Y2082800D02*
X47015400Y3378200D01*
X45720000Y1905000D02*
X45720000Y2082800D01*
X62230000Y13335000D02*
X61976000Y13589000D01*
X62204600Y8966200D02*
X62230000Y13335000D01*
X60066902Y6807200D02*
X62204600Y8966200D01*
X49733200Y6807200D02*
X60066902Y6807200D01*
X48260000Y5334000D02*
X49733200Y6807200D01*
X48260000Y4445000D02*
X48260000Y5334000D01*
X48895000Y7975600D02*
X45720000Y4800600D01*
X48895000Y7975600D02*
X59258200Y7975600D01*
X59258200Y7975600D02*
X60477400Y9194800D01*
X60477400Y9194800D02*
X60477400Y15240000D01*
X60477400Y15240000D02*
X62433200Y17195800D01*
X62433200Y17195800D02*
X62458600Y19481800D01*
X45720000Y4445000D02*
X45720000Y4800600D01*
X41529000Y11874500D02*
X41529000Y17526000D01*
X23876000Y12573000D02*
X23876000Y11874500D01*
X23876000Y12573000D02*
X23812500Y12636500D01*
X39941500Y12235000D02*
X39476500Y12235000D01*
X39476500Y12235000D02*
X39179500Y11938000D01*
X33591500Y11874500D02*
X23876000Y11874500D01*
X23876000Y11874500D02*
X22690000Y11874500D01*
X22690000Y11874500D02*
X22161500Y12403000D01*
X12700000Y13375000D02*
X21947500Y13375000D01*
X21947500Y13375000D02*
X22161500Y13589000D01*
X22161500Y15092500D02*
X22161500Y13589000D01*
X22161500Y13589000D02*
X22161500Y12403000D01*
X12700000Y42775000D02*
X12700000Y43454500D01*
X12700000Y43454500D02*
X14457500Y45212000D01*
X34798000Y12235000D02*
X33952000Y12235000D01*
X33952000Y12235000D02*
X33591500Y11874500D01*
X37465000Y12235000D02*
X36746000Y12235000D01*
X36746000Y12235000D02*
X36449000Y11938000D01*
X42481500Y12235000D02*
X41889500Y12235000D01*
X41889500Y12235000D02*
X41529000Y11874500D01*
X45148500Y12235000D02*
X44366000Y12235000D01*
X44366000Y12235000D02*
X44069000Y11938000D01*
X47815500Y12235000D02*
X47160000Y12235000D01*
X47160000Y12235000D02*
X46863000Y11938000D01*
X56134000Y32258000D02*
X56388000Y32258000D01*
X43180000Y32004000D02*
X44196000Y32004000D01*
X12700000Y28075000D02*
X15629000Y28075000D01*
X31750000Y32004000D02*
X33020000Y32004000D01*
X20066000Y34290000D02*
X21336000Y33020000D01*
X16764000Y34290000D02*
X20066000Y34290000D01*
X16002000Y33528000D02*
X16764000Y34290000D01*
X16002000Y28448000D02*
X16002000Y33528000D01*
X15629000Y28075000D02*
X16002000Y28448000D01*
X58420000Y14689000D02*
X56776800Y14689000D01*
X56776800Y14689000D02*
X56743600Y14655800D01*
X12790800Y13284200D02*
X12700000Y13375000D01*
X14351000Y40216000D02*
X13038000Y40216000D01*
X12641400Y31335800D02*
X14325000Y31335800D01*
X12598400Y31292800D02*
X12641400Y31335800D01*
X13038000Y40216000D02*
X12877800Y40055800D01*
X14325000Y31335800D02*
X14325000Y29700000D01*
X14325000Y29700000D02*
X12700000Y28075000D01*
X14325000Y25128400D02*
X14325000Y26450000D01*
X14325000Y26450000D02*
X12700000Y28075000D01*
X58420000Y14689000D02*
X59075500Y14689000D01*
X59075500Y14689000D02*
X60325000Y15938500D01*
X60325000Y15938500D02*
X60325000Y26289000D01*
X60325000Y26289000D02*
X60261500Y26352500D01*
X61044000Y29675000D02*
X61595000Y29675000D01*
X60325000Y28956000D02*
X61044000Y29675000D01*
X14351000Y40216000D02*
X14351000Y41152000D01*
X14351000Y41152000D02*
X12704000Y42799000D01*
X61425000Y29845000D02*
X61595000Y29675000D01*
X13927000Y35433000D02*
X13927000Y33933800D01*
X13927000Y33933800D02*
X14325000Y33535800D01*
X16489500Y35750500D02*
X16489500Y35700300D01*
X16489500Y35700300D02*
X14325000Y33535800D01*
X58420000Y9525000D02*
X58420000Y12489000D01*
X40386000Y22225000D02*
X40386000Y20299500D01*
X40386000Y20299500D02*
X39708000Y19621500D01*
X18689500Y37846000D02*
X21018500Y37846000D01*
X27749500Y38354000D02*
X29273500Y36830000D01*
X21526500Y38354000D02*
X27749500Y38354000D01*
X21018500Y37846000D02*
X21526500Y38354000D01*
X18689500Y35750500D02*
X22034500Y35750500D01*
X22034500Y35750500D02*
X23114000Y36830000D01*
X23114000Y22225000D02*
X20912000Y22225000D01*
X20912000Y22225000D02*
X20701000Y22014000D01*
X23114000Y22225000D02*
X23114000Y22352000D01*
X23114000Y22225000D02*
X22733000Y22225000D01*
X35560000Y36830000D02*
X35560000Y37528500D01*
X35560000Y37528500D02*
X34163000Y38925500D01*
X34163000Y38925500D02*
X19093000Y38925500D01*
X19093000Y38925500D02*
X17335500Y40683000D01*
X45867500Y17145000D02*
X45867500Y21483500D01*
X45867500Y21483500D02*
X46609000Y22225000D01*
X46609000Y22225000D02*
X46609000Y22098000D01*
X14351000Y38016000D02*
X13187500Y38016000D01*
X10561500Y36766500D02*
X9228000Y35433000D01*
X11938000Y36766500D02*
X10561500Y36766500D01*
X13187500Y38016000D02*
X11938000Y36766500D01*
X16489500Y37846000D02*
X14521000Y37846000D01*
X14521000Y37846000D02*
X14351000Y38016000D01*
X14790600Y38455600D02*
X14351000Y38016000D01*
X22161500Y17292500D02*
X21801000Y17292500D01*
X21801000Y17292500D02*
X20383500Y15875000D01*
X14965500Y15875000D02*
X14351000Y16489500D01*
X20383500Y15875000D02*
X14965500Y15875000D01*
X37508000Y19621500D02*
X32194500Y19621500D01*
X23411000Y18542000D02*
X22161500Y17292500D01*
X31115000Y18542000D02*
X23411000Y18542000D01*
X32194500Y19621500D02*
X31115000Y18542000D01*
X37508000Y19621500D02*
X37508000Y19601000D01*
X37338000Y19515000D02*
X37676000Y19515000D01*
X14351000Y22903000D02*
X14033500Y22903000D01*
X14033500Y22903000D02*
X11895000Y20764500D01*
X20701000Y24214000D02*
X20277000Y24214000D01*
X20277000Y24214000D02*
X19558000Y23495000D01*
X19558000Y23495000D02*
X14943000Y23495000D01*
X14943000Y23495000D02*
X14351000Y22903000D01*
X43667500Y17145000D02*
X43667500Y16108500D01*
X23792000Y10203000D02*
X22161500Y10203000D01*
X23812500Y10223500D02*
X23792000Y10203000D01*
X43667500Y16108500D02*
X43624500Y16065500D01*
X14287500Y10625000D02*
X16213000Y10625000D01*
X21569500Y10795000D02*
X22161500Y10203000D01*
X16383000Y10795000D02*
X21569500Y10795000D01*
X16213000Y10625000D02*
X16383000Y10795000D01*
X16657500Y45212000D02*
X16657500Y43561000D01*
X16657500Y43561000D02*
X17335500Y42883000D01*
X16657500Y47307500D02*
X16657500Y45212000D01*
D39*
G36*
X23540560Y16842000D02*
X23584838Y16606683D01*
X23723910Y16390559D01*
X23936110Y16245569D01*
X24188000Y16194560D01*
X25088000Y16194560D01*
X25323317Y16238838D01*
X25539441Y16377910D01*
X25684431Y16590110D01*
X25703039Y16682000D01*
X27518698Y16682000D01*
X28609099Y15591599D01*
X28855660Y15426852D01*
X28862910Y15425410D01*
X29146500Y15369000D01*
X32789198Y15369000D01*
X33700560Y14457638D01*
X33700560Y13835000D01*
X33744838Y13599683D01*
X33883910Y13383559D01*
X33952006Y13337031D01*
X33809673Y13194698D01*
X33713000Y12961309D01*
X33713000Y12520750D01*
X33871750Y12362000D01*
X34671000Y12362000D01*
X34671000Y12382000D01*
X34925000Y12382000D01*
X34925000Y12362000D01*
X34945000Y12362000D01*
X34945000Y12108000D01*
X34925000Y12108000D01*
X34925000Y12088000D01*
X34671000Y12088000D01*
X34671000Y12108000D01*
X33871750Y12108000D01*
X33713000Y11949250D01*
X33713000Y11508691D01*
X33809673Y11275302D01*
X33988301Y11096673D01*
X34221690Y11000000D01*
X34241481Y11000000D01*
X34099969Y10792890D01*
X34048960Y10541000D01*
X34048960Y8509000D01*
X34093238Y8273683D01*
X34232310Y8057559D01*
X34444510Y7912569D01*
X34696400Y7861560D01*
X36423600Y7861560D01*
X36658917Y7905838D01*
X36875041Y8044910D01*
X37020031Y8257110D01*
X37028400Y8298439D01*
X37040330Y8280585D01*
X37526511Y7955729D01*
X38100000Y7841655D01*
X38673489Y7955729D01*
X39159670Y8280585D01*
X39370000Y8595366D01*
X39580330Y8280585D01*
X40066511Y7955729D01*
X40640000Y7841655D01*
X41213489Y7955729D01*
X41699670Y8280585D01*
X41910000Y8595366D01*
X42120330Y8280585D01*
X42606511Y7955729D01*
X43180000Y7841655D01*
X43753489Y7955729D01*
X44239670Y8280585D01*
X44450000Y8595366D01*
X44660330Y8280585D01*
X45146511Y7955729D01*
X45720000Y7841655D01*
X46293489Y7955729D01*
X46779670Y8280585D01*
X46990000Y8595366D01*
X47200330Y8280585D01*
X47686511Y7955729D01*
X47781444Y7936846D01*
X47591598Y7747000D01*
X15369145Y7747000D01*
X15384940Y7825000D01*
X15384940Y9025000D01*
X15340662Y9260317D01*
X15201590Y9476441D01*
X15131789Y9524134D01*
X15188941Y9560910D01*
X15333931Y9773110D01*
X15352539Y9865000D01*
X16164285Y9865000D01*
X16096655Y9525000D01*
X16210729Y8951511D01*
X16535585Y8465330D01*
X17021766Y8140474D01*
X17595255Y8026400D01*
X17964745Y8026400D01*
X18538234Y8140474D01*
X19024415Y8465330D01*
X19349271Y8951511D01*
X19463345Y9525000D01*
X19361900Y10035000D01*
X21064060Y10035000D01*
X21064060Y9603000D01*
X21108338Y9367683D01*
X21247410Y9151559D01*
X21459610Y9006569D01*
X21711500Y8955560D01*
X22611500Y8955560D01*
X22846817Y8999838D01*
X23062941Y9138910D01*
X23207931Y9351110D01*
X23226539Y9443000D01*
X23270501Y9443000D01*
X23282173Y9431308D01*
X23625701Y9288662D01*
X23997667Y9288338D01*
X24341443Y9430383D01*
X24604692Y9693173D01*
X24747338Y10036701D01*
X24747662Y10408667D01*
X24605617Y10752443D01*
X24342827Y11015692D01*
X23999299Y11158338D01*
X23627333Y11158662D01*
X23283557Y11016617D01*
X23229846Y10963000D01*
X23228834Y10963000D01*
X23214662Y11038317D01*
X23075590Y11254441D01*
X23007494Y11300969D01*
X23149827Y11443302D01*
X23246500Y11676691D01*
X23246500Y12117250D01*
X23087750Y12276000D01*
X22288500Y12276000D01*
X22288500Y12256000D01*
X22034500Y12256000D01*
X22034500Y12276000D01*
X21235250Y12276000D01*
X21076500Y12117250D01*
X21076500Y11676691D01*
X21126906Y11555000D01*
X19361900Y11555000D01*
X19463345Y12065000D01*
X19349271Y12638489D01*
X19024415Y13124670D01*
X19017473Y13129309D01*
X21076500Y13129309D01*
X21076500Y12688750D01*
X21235250Y12530000D01*
X22034500Y12530000D01*
X22034500Y13479250D01*
X22288500Y13479250D01*
X22288500Y12530000D01*
X23087750Y12530000D01*
X23246500Y12688750D01*
X23246500Y13129309D01*
X23149827Y13362698D01*
X22971199Y13541327D01*
X22737810Y13638000D01*
X22447250Y13638000D01*
X22288500Y13479250D01*
X22034500Y13479250D01*
X21875750Y13638000D01*
X21585190Y13638000D01*
X21351801Y13541327D01*
X21173173Y13362698D01*
X21076500Y13129309D01*
X19017473Y13129309D01*
X18709634Y13335000D01*
X19024415Y13545330D01*
X19349271Y14031511D01*
X19463345Y14605000D01*
X19423215Y14806750D01*
X21076500Y14806750D01*
X21076500Y14366191D01*
X21173173Y14132802D01*
X21351801Y13954173D01*
X21585190Y13857500D01*
X21875750Y13857500D01*
X22034500Y14016250D01*
X22034500Y14965500D01*
X22288500Y14965500D01*
X22288500Y14016250D01*
X22447250Y13857500D01*
X22737810Y13857500D01*
X22971199Y13954173D01*
X23149827Y14132802D01*
X23246500Y14366191D01*
X23246500Y14806750D01*
X23087750Y14965500D01*
X22288500Y14965500D01*
X22034500Y14965500D01*
X21235250Y14965500D01*
X21076500Y14806750D01*
X19423215Y14806750D01*
X19361900Y15115000D01*
X20383500Y15115000D01*
X20674339Y15172852D01*
X20920901Y15337599D01*
X21076500Y15493198D01*
X21076500Y15378250D01*
X21235250Y15219500D01*
X22034500Y15219500D01*
X22034500Y15239500D01*
X22288500Y15239500D01*
X22288500Y15219500D01*
X23087750Y15219500D01*
X23246500Y15378250D01*
X23246500Y15818809D01*
X23149827Y16052198D01*
X23008590Y16193436D01*
X23062941Y16228410D01*
X23207931Y16440610D01*
X23258940Y16692500D01*
X23258940Y17315138D01*
X23540560Y17596758D01*
X23540560Y16842000D01*
X23540560Y16842000D01*
G37*
X23540560Y16842000D02*
X23584838Y16606683D01*
X23723910Y16390559D01*
X23936110Y16245569D01*
X24188000Y16194560D01*
X25088000Y16194560D01*
X25323317Y16238838D01*
X25539441Y16377910D01*
X25684431Y16590110D01*
X25703039Y16682000D01*
X27518698Y16682000D01*
X28609099Y15591599D01*
X28855660Y15426852D01*
X28862910Y15425410D01*
X29146500Y15369000D01*
X32789198Y15369000D01*
X33700560Y14457638D01*
X33700560Y13835000D01*
X33744838Y13599683D01*
X33883910Y13383559D01*
X33952006Y13337031D01*
X33809673Y13194698D01*
X33713000Y12961309D01*
X33713000Y12520750D01*
X33871750Y12362000D01*
X34671000Y12362000D01*
X34671000Y12382000D01*
X34925000Y12382000D01*
X34925000Y12362000D01*
X34945000Y12362000D01*
X34945000Y12108000D01*
X34925000Y12108000D01*
X34925000Y12088000D01*
X34671000Y12088000D01*
X34671000Y12108000D01*
X33871750Y12108000D01*
X33713000Y11949250D01*
X33713000Y11508691D01*
X33809673Y11275302D01*
X33988301Y11096673D01*
X34221690Y11000000D01*
X34241481Y11000000D01*
X34099969Y10792890D01*
X34048960Y10541000D01*
X34048960Y8509000D01*
X34093238Y8273683D01*
X34232310Y8057559D01*
X34444510Y7912569D01*
X34696400Y7861560D01*
X36423600Y7861560D01*
X36658917Y7905838D01*
X36875041Y8044910D01*
X37020031Y8257110D01*
X37028400Y8298439D01*
X37040330Y8280585D01*
X37526511Y7955729D01*
X38100000Y7841655D01*
X38673489Y7955729D01*
X39159670Y8280585D01*
X39370000Y8595366D01*
X39580330Y8280585D01*
X40066511Y7955729D01*
X40640000Y7841655D01*
X41213489Y7955729D01*
X41699670Y8280585D01*
X41910000Y8595366D01*
X42120330Y8280585D01*
X42606511Y7955729D01*
X43180000Y7841655D01*
X43753489Y7955729D01*
X44239670Y8280585D01*
X44450000Y8595366D01*
X44660330Y8280585D01*
X45146511Y7955729D01*
X45720000Y7841655D01*
X46293489Y7955729D01*
X46779670Y8280585D01*
X46990000Y8595366D01*
X47200330Y8280585D01*
X47686511Y7955729D01*
X47781444Y7936846D01*
X47591598Y7747000D01*
X15369145Y7747000D01*
X15384940Y7825000D01*
X15384940Y9025000D01*
X15340662Y9260317D01*
X15201590Y9476441D01*
X15131789Y9524134D01*
X15188941Y9560910D01*
X15333931Y9773110D01*
X15352539Y9865000D01*
X16164285Y9865000D01*
X16096655Y9525000D01*
X16210729Y8951511D01*
X16535585Y8465330D01*
X17021766Y8140474D01*
X17595255Y8026400D01*
X17964745Y8026400D01*
X18538234Y8140474D01*
X19024415Y8465330D01*
X19349271Y8951511D01*
X19463345Y9525000D01*
X19361900Y10035000D01*
X21064060Y10035000D01*
X21064060Y9603000D01*
X21108338Y9367683D01*
X21247410Y9151559D01*
X21459610Y9006569D01*
X21711500Y8955560D01*
X22611500Y8955560D01*
X22846817Y8999838D01*
X23062941Y9138910D01*
X23207931Y9351110D01*
X23226539Y9443000D01*
X23270501Y9443000D01*
X23282173Y9431308D01*
X23625701Y9288662D01*
X23997667Y9288338D01*
X24341443Y9430383D01*
X24604692Y9693173D01*
X24747338Y10036701D01*
X24747662Y10408667D01*
X24605617Y10752443D01*
X24342827Y11015692D01*
X23999299Y11158338D01*
X23627333Y11158662D01*
X23283557Y11016617D01*
X23229846Y10963000D01*
X23228834Y10963000D01*
X23214662Y11038317D01*
X23075590Y11254441D01*
X23007494Y11300969D01*
X23149827Y11443302D01*
X23246500Y11676691D01*
X23246500Y12117250D01*
X23087750Y12276000D01*
X22288500Y12276000D01*
X22288500Y12256000D01*
X22034500Y12256000D01*
X22034500Y12276000D01*
X21235250Y12276000D01*
X21076500Y12117250D01*
X21076500Y11676691D01*
X21126906Y11555000D01*
X19361900Y11555000D01*
X19463345Y12065000D01*
X19349271Y12638489D01*
X19024415Y13124670D01*
X19017473Y13129309D01*
X21076500Y13129309D01*
X21076500Y12688750D01*
X21235250Y12530000D01*
X22034500Y12530000D01*
X22034500Y13479250D01*
X22288500Y13479250D01*
X22288500Y12530000D01*
X23087750Y12530000D01*
X23246500Y12688750D01*
X23246500Y13129309D01*
X23149827Y13362698D01*
X22971199Y13541327D01*
X22737810Y13638000D01*
X22447250Y13638000D01*
X22288500Y13479250D01*
X22034500Y13479250D01*
X21875750Y13638000D01*
X21585190Y13638000D01*
X21351801Y13541327D01*
X21173173Y13362698D01*
X21076500Y13129309D01*
X19017473Y13129309D01*
X18709634Y13335000D01*
X19024415Y13545330D01*
X19349271Y14031511D01*
X19463345Y14605000D01*
X19423215Y14806750D01*
X21076500Y14806750D01*
X21076500Y14366191D01*
X21173173Y14132802D01*
X21351801Y13954173D01*
X21585190Y13857500D01*
X21875750Y13857500D01*
X22034500Y14016250D01*
X22034500Y14965500D01*
X22288500Y14965500D01*
X22288500Y14016250D01*
X22447250Y13857500D01*
X22737810Y13857500D01*
X22971199Y13954173D01*
X23149827Y14132802D01*
X23246500Y14366191D01*
X23246500Y14806750D01*
X23087750Y14965500D01*
X22288500Y14965500D01*
X22034500Y14965500D01*
X21235250Y14965500D01*
X21076500Y14806750D01*
X19423215Y14806750D01*
X19361900Y15115000D01*
X20383500Y15115000D01*
X20674339Y15172852D01*
X20920901Y15337599D01*
X21076500Y15493198D01*
X21076500Y15378250D01*
X21235250Y15219500D01*
X22034500Y15219500D01*
X22034500Y15239500D01*
X22288500Y15239500D01*
X22288500Y15219500D01*
X23087750Y15219500D01*
X23246500Y15378250D01*
X23246500Y15818809D01*
X23149827Y16052198D01*
X23008590Y16193436D01*
X23062941Y16228410D01*
X23207931Y16440610D01*
X23258940Y16692500D01*
X23258940Y17315138D01*
X23540560Y17596758D01*
X23540560Y16842000D01*
G36*
X9014683Y48378162D02*
X8798559Y48239090D01*
X8653569Y48026890D01*
X8602560Y47775000D01*
X8602560Y45775000D01*
X8646838Y45539683D01*
X8785910Y45323559D01*
X8998110Y45178569D01*
X9250000Y45127560D01*
X11250000Y45127560D01*
X11485317Y45171838D01*
X11701441Y45310910D01*
X11846431Y45523110D01*
X11897440Y45775000D01*
X11897440Y46015000D01*
X13316398Y46015000D01*
X13222500Y45788310D01*
X13222500Y45497750D01*
X13381250Y45339000D01*
X14330500Y45339000D01*
X14330500Y45359000D01*
X14584500Y45359000D01*
X14584500Y45339000D01*
X14604500Y45339000D01*
X14604500Y45085000D01*
X14584500Y45085000D01*
X14584500Y45065000D01*
X14330500Y45065000D01*
X14330500Y45085000D01*
X13381250Y45085000D01*
X13222500Y44926250D01*
X13222500Y44635690D01*
X13319173Y44402301D01*
X13322998Y44398476D01*
X13322998Y44251252D01*
X13164250Y44410000D01*
X12323691Y44410000D01*
X12090302Y44313327D01*
X11911673Y44134699D01*
X11815000Y43901310D01*
X11815000Y43060750D01*
X11973750Y42902000D01*
X13323000Y42902000D01*
X13323000Y42922000D01*
X13577000Y42922000D01*
X13577000Y42902000D01*
X14926250Y42902000D01*
X15085000Y43060750D01*
X15085000Y43901310D01*
X14991516Y44127000D01*
X15183809Y44127000D01*
X15417198Y44223673D01*
X15558436Y44364910D01*
X15593410Y44310559D01*
X15805610Y44165569D01*
X15897500Y44146961D01*
X15897500Y43561000D01*
X15955352Y43270161D01*
X16120099Y43023599D01*
X16238060Y42905638D01*
X16238060Y42283000D01*
X16282338Y42047683D01*
X16421410Y41831559D01*
X16491211Y41783866D01*
X16434059Y41747090D01*
X16289069Y41534890D01*
X16238060Y41283000D01*
X16238060Y40083000D01*
X16282338Y39847683D01*
X16421410Y39631559D01*
X16633610Y39486569D01*
X16885500Y39435560D01*
X17508138Y39435560D01*
X18014391Y38929307D01*
X17854183Y38899162D01*
X17638059Y38760090D01*
X17590366Y38690289D01*
X17553590Y38747441D01*
X17341390Y38892431D01*
X17089500Y38943440D01*
X15889500Y38943440D01*
X15654183Y38899162D01*
X15469925Y38780595D01*
X15328001Y38993001D01*
X15301669Y39010595D01*
X15265090Y39067441D01*
X15196994Y39113969D01*
X15339327Y39256302D01*
X15436000Y39489691D01*
X15436000Y39930250D01*
X15277250Y40089000D01*
X14478000Y40089000D01*
X14478000Y40069000D01*
X14224000Y40069000D01*
X14224000Y40089000D01*
X13424750Y40089000D01*
X13266000Y39930250D01*
X13266000Y39489691D01*
X13362673Y39256302D01*
X13503910Y39115064D01*
X13449559Y39080090D01*
X13304569Y38867890D01*
X13285961Y38776000D01*
X13187500Y38776000D01*
X12896661Y38718148D01*
X12650099Y38553401D01*
X11897440Y37800742D01*
X11897440Y39775000D01*
X11853162Y40010317D01*
X11714090Y40226441D01*
X11501890Y40371431D01*
X11250000Y40422440D01*
X9250000Y40422440D01*
X9014683Y40378162D01*
X8798559Y40239090D01*
X8653569Y40026890D01*
X8602560Y39775000D01*
X8602560Y38202362D01*
X6930638Y36530440D01*
X6428000Y36530440D01*
X6192683Y36486162D01*
X5976559Y36347090D01*
X5831569Y36134890D01*
X5780560Y35883000D01*
X5780560Y34983000D01*
X5824838Y34747683D01*
X5963910Y34531559D01*
X6176110Y34386569D01*
X6428000Y34335560D01*
X7628000Y34335560D01*
X7863317Y34379838D01*
X8079441Y34518910D01*
X8127134Y34588711D01*
X8163910Y34531559D01*
X8376110Y34386569D01*
X8628000Y34335560D01*
X9828000Y34335560D01*
X10063317Y34379838D01*
X10279441Y34518910D01*
X10424431Y34731110D01*
X10475440Y34983000D01*
X10475440Y35605638D01*
X10479560Y35609758D01*
X10479560Y34983000D01*
X10523838Y34747683D01*
X10662910Y34531559D01*
X10875110Y34386569D01*
X10967000Y34367961D01*
X10967000Y33866802D01*
X10822638Y33722440D01*
X9250000Y33722440D01*
X9014683Y33678162D01*
X8798559Y33539090D01*
X8653569Y33326890D01*
X8602560Y33075000D01*
X8602560Y31075000D01*
X8646838Y30839683D01*
X8785910Y30623559D01*
X8998110Y30478569D01*
X9250000Y30427560D01*
X11250000Y30427560D01*
X11485317Y30471838D01*
X11701441Y30610910D01*
X11846431Y30823110D01*
X11892387Y31050050D01*
X13240000Y31050050D01*
X13240000Y30609491D01*
X13336673Y30376102D01*
X13515301Y30197473D01*
X13748690Y30100800D01*
X14039250Y30100800D01*
X14198000Y30259550D01*
X14198000Y31208800D01*
X14452000Y31208800D01*
X14452000Y30259550D01*
X14610750Y30100800D01*
X14901310Y30100800D01*
X15134699Y30197473D01*
X15313327Y30376102D01*
X15410000Y30609491D01*
X15410000Y31050050D01*
X15251250Y31208800D01*
X14452000Y31208800D01*
X14198000Y31208800D01*
X13398750Y31208800D01*
X13240000Y31050050D01*
X11892387Y31050050D01*
X11897440Y31075000D01*
X11897440Y32647638D01*
X12264401Y33014599D01*
X12429148Y33261160D01*
X12449636Y33364161D01*
X12487000Y33552000D01*
X12487000Y34365666D01*
X12562317Y34379838D01*
X12778441Y34518910D01*
X12826134Y34588711D01*
X12862910Y34531559D01*
X13075110Y34386569D01*
X13167000Y34367961D01*
X13167000Y33933800D01*
X13224852Y33642961D01*
X13227560Y33638908D01*
X13227560Y32935800D01*
X13271838Y32700483D01*
X13410910Y32484359D01*
X13479006Y32437831D01*
X13336673Y32295498D01*
X13240000Y32062109D01*
X13240000Y31621550D01*
X13398750Y31462800D01*
X14198000Y31462800D01*
X14198000Y31482800D01*
X14452000Y31482800D01*
X14452000Y31462800D01*
X15251250Y31462800D01*
X15410000Y31621550D01*
X15410000Y32062109D01*
X15313327Y32295498D01*
X15172090Y32436736D01*
X15226441Y32471710D01*
X15371431Y32683910D01*
X15422440Y32935800D01*
X15422440Y33558438D01*
X16517062Y34653060D01*
X17089500Y34653060D01*
X17324817Y34697338D01*
X17540941Y34836410D01*
X17588634Y34906211D01*
X17625410Y34849059D01*
X17837610Y34704069D01*
X18089500Y34653060D01*
X19289500Y34653060D01*
X19524817Y34697338D01*
X19740941Y34836410D01*
X19846226Y34990500D01*
X22034500Y34990500D01*
X22325339Y35048352D01*
X22502250Y35166560D01*
X23456789Y35166560D01*
X23398559Y35129090D01*
X23253569Y34916890D01*
X23202560Y34665000D01*
X23202560Y33915000D01*
X23246838Y33679683D01*
X23385910Y33463559D01*
X23443258Y33424375D01*
X23248559Y33299090D01*
X23103569Y33086890D01*
X23052560Y32835000D01*
X23052560Y32212362D01*
X21687599Y30847401D01*
X21522852Y30600839D01*
X21465000Y30310000D01*
X21465000Y25781000D01*
X21522852Y25490161D01*
X21543940Y25458601D01*
X21543838Y25341833D01*
X21559790Y25303226D01*
X21402890Y25410431D01*
X21151000Y25461440D01*
X20251000Y25461440D01*
X20015683Y25417162D01*
X19799559Y25278090D01*
X19654569Y25065890D01*
X19603560Y24814000D01*
X19603560Y24615362D01*
X19391374Y24403176D01*
X19463345Y24765000D01*
X19349271Y25338489D01*
X19024415Y25824670D01*
X18709634Y26035000D01*
X19024415Y26245330D01*
X19349271Y26731511D01*
X19463345Y27305000D01*
X19349271Y27878489D01*
X19024415Y28364670D01*
X18709634Y28575000D01*
X19024415Y28785330D01*
X19349271Y29271511D01*
X19463345Y29845000D01*
X19349271Y30418489D01*
X19024415Y30904670D01*
X19010087Y30914243D01*
X19031317Y30918238D01*
X19247441Y31057310D01*
X19392431Y31269510D01*
X19443440Y31521400D01*
X19443440Y33248600D01*
X19399162Y33483917D01*
X19260090Y33700041D01*
X19047890Y33845031D01*
X18796000Y33896040D01*
X16764000Y33896040D01*
X16528683Y33851762D01*
X16312559Y33712690D01*
X16167569Y33500490D01*
X16116560Y33248600D01*
X16116560Y31521400D01*
X16160838Y31286083D01*
X16299910Y31069959D01*
X16512110Y30924969D01*
X16553439Y30916600D01*
X16535585Y30904670D01*
X16210729Y30418489D01*
X16096655Y29845000D01*
X16210729Y29271511D01*
X16535585Y28785330D01*
X16850366Y28575000D01*
X16535585Y28364670D01*
X16210729Y27878489D01*
X16096655Y27305000D01*
X16210729Y26731511D01*
X16535585Y26245330D01*
X16850366Y26035000D01*
X16535585Y25824670D01*
X16210729Y25338489D01*
X16096655Y24765000D01*
X16198100Y24255000D01*
X15385594Y24255000D01*
X15436000Y24376691D01*
X15436000Y24817250D01*
X15277250Y24976000D01*
X14478000Y24976000D01*
X14478000Y24956000D01*
X14224000Y24956000D01*
X14224000Y24976000D01*
X13424750Y24976000D01*
X13266000Y24817250D01*
X13266000Y24376691D01*
X13362673Y24143302D01*
X13503910Y24002064D01*
X13449559Y23967090D01*
X13304569Y23754890D01*
X13253560Y23503000D01*
X13253560Y23197862D01*
X11917638Y21861940D01*
X11295000Y21861940D01*
X11059683Y21817662D01*
X10843559Y21678590D01*
X10795866Y21608789D01*
X10759090Y21665941D01*
X10546890Y21810931D01*
X10455000Y21829539D01*
X10455000Y22427560D01*
X11250000Y22427560D01*
X11485317Y22471838D01*
X11701441Y22610910D01*
X11846431Y22823110D01*
X11897440Y23075000D01*
X11897440Y25075000D01*
X11853162Y25310317D01*
X11714090Y25526441D01*
X11501890Y25671431D01*
X11250000Y25722440D01*
X9250000Y25722440D01*
X9014683Y25678162D01*
X8798559Y25539090D01*
X8653569Y25326890D01*
X8602560Y25075000D01*
X8602560Y23075000D01*
X8646838Y22839683D01*
X8785910Y22623559D01*
X8935000Y22521690D01*
X8935000Y21831834D01*
X8859683Y21817662D01*
X8643559Y21678590D01*
X8498569Y21466390D01*
X8447560Y21214500D01*
X8447560Y20314500D01*
X8491838Y20079183D01*
X8630910Y19863059D01*
X8843110Y19718069D01*
X9095000Y19667060D01*
X10295000Y19667060D01*
X10530317Y19711338D01*
X10746441Y19850410D01*
X10794134Y19920211D01*
X10830910Y19863059D01*
X11043110Y19718069D01*
X11295000Y19667060D01*
X12495000Y19667060D01*
X12730317Y19711338D01*
X12946441Y19850410D01*
X13091431Y20062610D01*
X13142440Y20314500D01*
X13142440Y20937138D01*
X13867621Y21662319D01*
X13901000Y21655560D01*
X14801000Y21655560D01*
X15036317Y21699838D01*
X15252441Y21838910D01*
X15397431Y22051110D01*
X15448440Y22303000D01*
X15448440Y22735000D01*
X16198100Y22735000D01*
X16096655Y22225000D01*
X16210729Y21651511D01*
X16535585Y21165330D01*
X16850366Y20955000D01*
X16535585Y20744670D01*
X16210729Y20258489D01*
X16096655Y19685000D01*
X16210729Y19111511D01*
X16535585Y18625330D01*
X16850366Y18415000D01*
X16535585Y18204670D01*
X16210729Y17718489D01*
X16096655Y17145000D01*
X16198100Y16635000D01*
X15448440Y16635000D01*
X15448440Y17089500D01*
X15404162Y17324817D01*
X15265090Y17540941D01*
X15195289Y17588634D01*
X15252441Y17625410D01*
X15397431Y17837610D01*
X15448440Y18089500D01*
X15448440Y19289500D01*
X15404162Y19524817D01*
X15265090Y19740941D01*
X15052890Y19885931D01*
X14801000Y19936940D01*
X13901000Y19936940D01*
X13665683Y19892662D01*
X13449559Y19753590D01*
X13304569Y19541390D01*
X13253560Y19289500D01*
X13253560Y18666862D01*
X12721698Y18135000D01*
X11897440Y18135000D01*
X11897440Y18230383D01*
X11905400Y18270400D01*
X11897440Y18310417D01*
X11897440Y18375000D01*
X11853162Y18610317D01*
X11714090Y18826441D01*
X11501890Y18971431D01*
X11250000Y19022440D01*
X11185417Y19022440D01*
X11145400Y19030400D01*
X11105383Y19022440D01*
X9250000Y19022440D01*
X9014683Y18978162D01*
X8798559Y18839090D01*
X8653569Y18626890D01*
X8602560Y18375000D01*
X8602560Y16375000D01*
X8646838Y16139683D01*
X8785910Y15923559D01*
X8998110Y15778569D01*
X9250000Y15727560D01*
X11250000Y15727560D01*
X11485317Y15771838D01*
X11701441Y15910910D01*
X11846431Y16123110D01*
X11897440Y16375000D01*
X11897440Y16615000D01*
X13036500Y16615000D01*
X13253560Y16658176D01*
X13253560Y15889500D01*
X13297838Y15654183D01*
X13436910Y15438059D01*
X13649110Y15293069D01*
X13901000Y15242060D01*
X14571083Y15242060D01*
X14674660Y15172852D01*
X14965500Y15115000D01*
X16198100Y15115000D01*
X16096655Y14605000D01*
X16210729Y14031511D01*
X16535585Y13545330D01*
X16850366Y13335000D01*
X16535585Y13124670D01*
X16210729Y12638489D01*
X16096655Y12065000D01*
X16205138Y11519621D01*
X16092160Y11497148D01*
X15924319Y11385000D01*
X15354834Y11385000D01*
X15340662Y11460317D01*
X15201590Y11676441D01*
X14989390Y11821431D01*
X14827283Y11854258D01*
X14988327Y12015301D01*
X15085000Y12248690D01*
X15085000Y13089250D01*
X14926250Y13248000D01*
X13577000Y13248000D01*
X13577000Y11898750D01*
X13640397Y11835353D01*
X13602183Y11828162D01*
X13386059Y11689090D01*
X13241069Y11476890D01*
X13190060Y11225000D01*
X13190060Y10025000D01*
X13234338Y9789683D01*
X13373410Y9573559D01*
X13443211Y9525866D01*
X13386059Y9489090D01*
X13241069Y9276890D01*
X13222461Y9185000D01*
X11897440Y9185000D01*
X11897440Y10375000D01*
X11853162Y10610317D01*
X11714090Y10826441D01*
X11501890Y10971431D01*
X11250000Y11022440D01*
X9250000Y11022440D01*
X9014683Y10978162D01*
X8798559Y10839090D01*
X8653569Y10626890D01*
X8602560Y10375000D01*
X8602560Y8375000D01*
X8646838Y8139683D01*
X8785910Y7923559D01*
X8998110Y7778569D01*
X9154002Y7747000D01*
X5121519Y7747000D01*
X5147440Y7875000D01*
X5147440Y9875000D01*
X5103162Y10110317D01*
X4964090Y10326441D01*
X4751890Y10471431D01*
X4500000Y10522440D01*
X2667000Y10522440D01*
X2667000Y12089853D01*
X2754481Y12089777D01*
X3226943Y12284995D01*
X3588735Y12646155D01*
X3784777Y13118276D01*
X3784778Y13120519D01*
X7514777Y13120519D01*
X7709995Y12648057D01*
X8071155Y12286265D01*
X8543276Y12090223D01*
X9054481Y12089777D01*
X9526943Y12284995D01*
X9888735Y12646155D01*
X10072724Y13089250D01*
X11815000Y13089250D01*
X11815000Y12248690D01*
X11911673Y12015301D01*
X12090302Y11836673D01*
X12323691Y11740000D01*
X13164250Y11740000D01*
X13323000Y11898750D01*
X13323000Y13248000D01*
X11973750Y13248000D01*
X11815000Y13089250D01*
X10072724Y13089250D01*
X10084777Y13118276D01*
X10085223Y13629481D01*
X9890005Y14101943D01*
X9528845Y14463735D01*
X9438355Y14501310D01*
X11815000Y14501310D01*
X11815000Y13660750D01*
X11973750Y13502000D01*
X13323000Y13502000D01*
X13323000Y14851250D01*
X13577000Y14851250D01*
X13577000Y13502000D01*
X14926250Y13502000D01*
X15085000Y13660750D01*
X15085000Y14501310D01*
X14988327Y14734699D01*
X14809698Y14913327D01*
X14576309Y15010000D01*
X13735750Y15010000D01*
X13577000Y14851250D01*
X13323000Y14851250D01*
X13164250Y15010000D01*
X12323691Y15010000D01*
X12090302Y14913327D01*
X11911673Y14734699D01*
X11815000Y14501310D01*
X9438355Y14501310D01*
X9056724Y14659777D01*
X8545519Y14660223D01*
X8073057Y14465005D01*
X7711265Y14103845D01*
X7515223Y13631724D01*
X7514777Y13120519D01*
X3784778Y13120519D01*
X3785223Y13629481D01*
X3590005Y14101943D01*
X3228845Y14463735D01*
X2756724Y14659777D01*
X2667000Y14659855D01*
X2667000Y16227560D01*
X4500000Y16227560D01*
X4735317Y16271838D01*
X4951441Y16410910D01*
X5096431Y16623110D01*
X5147440Y16875000D01*
X5147440Y18875000D01*
X5103162Y19110317D01*
X4964090Y19326441D01*
X4751890Y19471431D01*
X4500000Y19522440D01*
X2667000Y19522440D01*
X2667000Y21927560D01*
X4500000Y21927560D01*
X4735317Y21971838D01*
X4951441Y22110910D01*
X5096431Y22323110D01*
X5147440Y22575000D01*
X5147440Y24575000D01*
X5103162Y24810317D01*
X4964090Y25026441D01*
X4751890Y25171431D01*
X4500000Y25222440D01*
X2667000Y25222440D01*
X2667000Y25829309D01*
X13266000Y25829309D01*
X13266000Y25388750D01*
X13424750Y25230000D01*
X14224000Y25230000D01*
X14224000Y26179250D01*
X14478000Y26179250D01*
X14478000Y25230000D01*
X15277250Y25230000D01*
X15436000Y25388750D01*
X15436000Y25829309D01*
X15339327Y26062698D01*
X15160699Y26241327D01*
X14927310Y26338000D01*
X14636750Y26338000D01*
X14478000Y26179250D01*
X14224000Y26179250D01*
X14065250Y26338000D01*
X13774690Y26338000D01*
X13541301Y26241327D01*
X13362673Y26062698D01*
X13266000Y25829309D01*
X2667000Y25829309D01*
X2667000Y26789853D01*
X2754481Y26789777D01*
X3226943Y26984995D01*
X3588735Y27346155D01*
X3784777Y27818276D01*
X3784778Y27820519D01*
X7514777Y27820519D01*
X7709995Y27348057D01*
X8071155Y26986265D01*
X8543276Y26790223D01*
X9054481Y26789777D01*
X9526943Y26984995D01*
X9888735Y27346155D01*
X10072724Y27789250D01*
X11815000Y27789250D01*
X11815000Y26948690D01*
X11911673Y26715301D01*
X12090302Y26536673D01*
X12323691Y26440000D01*
X13164250Y26440000D01*
X13323000Y26598750D01*
X13323000Y27948000D01*
X13577000Y27948000D01*
X13577000Y26598750D01*
X13735750Y26440000D01*
X14576309Y26440000D01*
X14809698Y26536673D01*
X14988327Y26715301D01*
X15085000Y26948690D01*
X15085000Y27789250D01*
X14926250Y27948000D01*
X13577000Y27948000D01*
X13323000Y27948000D01*
X11973750Y27948000D01*
X11815000Y27789250D01*
X10072724Y27789250D01*
X10084777Y27818276D01*
X10085223Y28329481D01*
X9890005Y28801943D01*
X9528845Y29163735D01*
X9438355Y29201310D01*
X11815000Y29201310D01*
X11815000Y28360750D01*
X11973750Y28202000D01*
X13323000Y28202000D01*
X13323000Y29551250D01*
X13577000Y29551250D01*
X13577000Y28202000D01*
X14926250Y28202000D01*
X15085000Y28360750D01*
X15085000Y29201310D01*
X14988327Y29434699D01*
X14809698Y29613327D01*
X14576309Y29710000D01*
X13735750Y29710000D01*
X13577000Y29551250D01*
X13323000Y29551250D01*
X13164250Y29710000D01*
X12323691Y29710000D01*
X12090302Y29613327D01*
X11911673Y29434699D01*
X11815000Y29201310D01*
X9438355Y29201310D01*
X9056724Y29359777D01*
X8545519Y29360223D01*
X8073057Y29165005D01*
X7711265Y28803845D01*
X7515223Y28331724D01*
X7514777Y27820519D01*
X3784778Y27820519D01*
X3785223Y28329481D01*
X3590005Y28801943D01*
X3228845Y29163735D01*
X2756724Y29359777D01*
X2667000Y29359855D01*
X2667000Y30927560D01*
X4500000Y30927560D01*
X4735317Y30971838D01*
X4951441Y31110910D01*
X5096431Y31323110D01*
X5147440Y31575000D01*
X5147440Y33575000D01*
X5103162Y33810317D01*
X4964090Y34026441D01*
X4751890Y34171431D01*
X4500000Y34222440D01*
X2667000Y34222440D01*
X2667000Y36627560D01*
X4500000Y36627560D01*
X4735317Y36671838D01*
X4951441Y36810910D01*
X5096431Y37023110D01*
X5147440Y37275000D01*
X5147440Y39275000D01*
X5103162Y39510317D01*
X4964090Y39726441D01*
X4751890Y39871431D01*
X4500000Y39922440D01*
X2667000Y39922440D01*
X2667000Y41489853D01*
X2754481Y41489777D01*
X3226943Y41684995D01*
X3588735Y42046155D01*
X3784777Y42518276D01*
X3784778Y42520519D01*
X7514777Y42520519D01*
X7709995Y42048057D01*
X8071155Y41686265D01*
X8543276Y41490223D01*
X9054481Y41489777D01*
X9526943Y41684995D01*
X9888735Y42046155D01*
X10072724Y42489250D01*
X11815000Y42489250D01*
X11815000Y41648690D01*
X11911673Y41415301D01*
X12090302Y41236673D01*
X12323691Y41140000D01*
X13164250Y41140000D01*
X13322998Y41298748D01*
X13322998Y41140000D01*
X13347886Y41140000D01*
X13266000Y40942309D01*
X13266000Y40501750D01*
X13424750Y40343000D01*
X14224000Y40343000D01*
X14224000Y40363000D01*
X14478000Y40363000D01*
X14478000Y40343000D01*
X15277250Y40343000D01*
X15436000Y40501750D01*
X15436000Y40942309D01*
X15339327Y41175698D01*
X15160699Y41354327D01*
X14992013Y41424199D01*
X15085000Y41648690D01*
X15085000Y42489250D01*
X14926250Y42648000D01*
X13577000Y42648000D01*
X13577000Y42628000D01*
X13323000Y42628000D01*
X13323000Y42648000D01*
X11973750Y42648000D01*
X11815000Y42489250D01*
X10072724Y42489250D01*
X10084777Y42518276D01*
X10085223Y43029481D01*
X9890005Y43501943D01*
X9528845Y43863735D01*
X9056724Y44059777D01*
X8545519Y44060223D01*
X8073057Y43865005D01*
X7711265Y43503845D01*
X7515223Y43031724D01*
X7514777Y42520519D01*
X3784778Y42520519D01*
X3785223Y43029481D01*
X3590005Y43501943D01*
X3228845Y43863735D01*
X2756724Y44059777D01*
X2667000Y44059855D01*
X2667000Y45627560D01*
X4500000Y45627560D01*
X4735317Y45671838D01*
X4951441Y45810910D01*
X5096431Y46023110D01*
X5147440Y46275000D01*
X5147440Y48275000D01*
X5126366Y48387000D01*
X9061653Y48387000D01*
X9014683Y48378162D01*
X9014683Y48378162D01*
G37*
X9014683Y48378162D02*
X8798559Y48239090D01*
X8653569Y48026890D01*
X8602560Y47775000D01*
X8602560Y45775000D01*
X8646838Y45539683D01*
X8785910Y45323559D01*
X8998110Y45178569D01*
X9250000Y45127560D01*
X11250000Y45127560D01*
X11485317Y45171838D01*
X11701441Y45310910D01*
X11846431Y45523110D01*
X11897440Y45775000D01*
X11897440Y46015000D01*
X13316398Y46015000D01*
X13222500Y45788310D01*
X13222500Y45497750D01*
X13381250Y45339000D01*
X14330500Y45339000D01*
X14330500Y45359000D01*
X14584500Y45359000D01*
X14584500Y45339000D01*
X14604500Y45339000D01*
X14604500Y45085000D01*
X14584500Y45085000D01*
X14584500Y45065000D01*
X14330500Y45065000D01*
X14330500Y45085000D01*
X13381250Y45085000D01*
X13222500Y44926250D01*
X13222500Y44635690D01*
X13319173Y44402301D01*
X13322998Y44398476D01*
X13322998Y44251252D01*
X13164250Y44410000D01*
X12323691Y44410000D01*
X12090302Y44313327D01*
X11911673Y44134699D01*
X11815000Y43901310D01*
X11815000Y43060750D01*
X11973750Y42902000D01*
X13323000Y42902000D01*
X13323000Y42922000D01*
X13577000Y42922000D01*
X13577000Y42902000D01*
X14926250Y42902000D01*
X15085000Y43060750D01*
X15085000Y43901310D01*
X14991516Y44127000D01*
X15183809Y44127000D01*
X15417198Y44223673D01*
X15558436Y44364910D01*
X15593410Y44310559D01*
X15805610Y44165569D01*
X15897500Y44146961D01*
X15897500Y43561000D01*
X15955352Y43270161D01*
X16120099Y43023599D01*
X16238060Y42905638D01*
X16238060Y42283000D01*
X16282338Y42047683D01*
X16421410Y41831559D01*
X16491211Y41783866D01*
X16434059Y41747090D01*
X16289069Y41534890D01*
X16238060Y41283000D01*
X16238060Y40083000D01*
X16282338Y39847683D01*
X16421410Y39631559D01*
X16633610Y39486569D01*
X16885500Y39435560D01*
X17508138Y39435560D01*
X18014391Y38929307D01*
X17854183Y38899162D01*
X17638059Y38760090D01*
X17590366Y38690289D01*
X17553590Y38747441D01*
X17341390Y38892431D01*
X17089500Y38943440D01*
X15889500Y38943440D01*
X15654183Y38899162D01*
X15469925Y38780595D01*
X15328001Y38993001D01*
X15301669Y39010595D01*
X15265090Y39067441D01*
X15196994Y39113969D01*
X15339327Y39256302D01*
X15436000Y39489691D01*
X15436000Y39930250D01*
X15277250Y40089000D01*
X14478000Y40089000D01*
X14478000Y40069000D01*
X14224000Y40069000D01*
X14224000Y40089000D01*
X13424750Y40089000D01*
X13266000Y39930250D01*
X13266000Y39489691D01*
X13362673Y39256302D01*
X13503910Y39115064D01*
X13449559Y39080090D01*
X13304569Y38867890D01*
X13285961Y38776000D01*
X13187500Y38776000D01*
X12896661Y38718148D01*
X12650099Y38553401D01*
X11897440Y37800742D01*
X11897440Y39775000D01*
X11853162Y40010317D01*
X11714090Y40226441D01*
X11501890Y40371431D01*
X11250000Y40422440D01*
X9250000Y40422440D01*
X9014683Y40378162D01*
X8798559Y40239090D01*
X8653569Y40026890D01*
X8602560Y39775000D01*
X8602560Y38202362D01*
X6930638Y36530440D01*
X6428000Y36530440D01*
X6192683Y36486162D01*
X5976559Y36347090D01*
X5831569Y36134890D01*
X5780560Y35883000D01*
X5780560Y34983000D01*
X5824838Y34747683D01*
X5963910Y34531559D01*
X6176110Y34386569D01*
X6428000Y34335560D01*
X7628000Y34335560D01*
X7863317Y34379838D01*
X8079441Y34518910D01*
X8127134Y34588711D01*
X8163910Y34531559D01*
X8376110Y34386569D01*
X8628000Y34335560D01*
X9828000Y34335560D01*
X10063317Y34379838D01*
X10279441Y34518910D01*
X10424431Y34731110D01*
X10475440Y34983000D01*
X10475440Y35605638D01*
X10479560Y35609758D01*
X10479560Y34983000D01*
X10523838Y34747683D01*
X10662910Y34531559D01*
X10875110Y34386569D01*
X10967000Y34367961D01*
X10967000Y33866802D01*
X10822638Y33722440D01*
X9250000Y33722440D01*
X9014683Y33678162D01*
X8798559Y33539090D01*
X8653569Y33326890D01*
X8602560Y33075000D01*
X8602560Y31075000D01*
X8646838Y30839683D01*
X8785910Y30623559D01*
X8998110Y30478569D01*
X9250000Y30427560D01*
X11250000Y30427560D01*
X11485317Y30471838D01*
X11701441Y30610910D01*
X11846431Y30823110D01*
X11892387Y31050050D01*
X13240000Y31050050D01*
X13240000Y30609491D01*
X13336673Y30376102D01*
X13515301Y30197473D01*
X13748690Y30100800D01*
X14039250Y30100800D01*
X14198000Y30259550D01*
X14198000Y31208800D01*
X14452000Y31208800D01*
X14452000Y30259550D01*
X14610750Y30100800D01*
X14901310Y30100800D01*
X15134699Y30197473D01*
X15313327Y30376102D01*
X15410000Y30609491D01*
X15410000Y31050050D01*
X15251250Y31208800D01*
X14452000Y31208800D01*
X14198000Y31208800D01*
X13398750Y31208800D01*
X13240000Y31050050D01*
X11892387Y31050050D01*
X11897440Y31075000D01*
X11897440Y32647638D01*
X12264401Y33014599D01*
X12429148Y33261160D01*
X12449636Y33364161D01*
X12487000Y33552000D01*
X12487000Y34365666D01*
X12562317Y34379838D01*
X12778441Y34518910D01*
X12826134Y34588711D01*
X12862910Y34531559D01*
X13075110Y34386569D01*
X13167000Y34367961D01*
X13167000Y33933800D01*
X13224852Y33642961D01*
X13227560Y33638908D01*
X13227560Y32935800D01*
X13271838Y32700483D01*
X13410910Y32484359D01*
X13479006Y32437831D01*
X13336673Y32295498D01*
X13240000Y32062109D01*
X13240000Y31621550D01*
X13398750Y31462800D01*
X14198000Y31462800D01*
X14198000Y31482800D01*
X14452000Y31482800D01*
X14452000Y31462800D01*
X15251250Y31462800D01*
X15410000Y31621550D01*
X15410000Y32062109D01*
X15313327Y32295498D01*
X15172090Y32436736D01*
X15226441Y32471710D01*
X15371431Y32683910D01*
X15422440Y32935800D01*
X15422440Y33558438D01*
X16517062Y34653060D01*
X17089500Y34653060D01*
X17324817Y34697338D01*
X17540941Y34836410D01*
X17588634Y34906211D01*
X17625410Y34849059D01*
X17837610Y34704069D01*
X18089500Y34653060D01*
X19289500Y34653060D01*
X19524817Y34697338D01*
X19740941Y34836410D01*
X19846226Y34990500D01*
X22034500Y34990500D01*
X22325339Y35048352D01*
X22502250Y35166560D01*
X23456789Y35166560D01*
X23398559Y35129090D01*
X23253569Y34916890D01*
X23202560Y34665000D01*
X23202560Y33915000D01*
X23246838Y33679683D01*
X23385910Y33463559D01*
X23443258Y33424375D01*
X23248559Y33299090D01*
X23103569Y33086890D01*
X23052560Y32835000D01*
X23052560Y32212362D01*
X21687599Y30847401D01*
X21522852Y30600839D01*
X21465000Y30310000D01*
X21465000Y25781000D01*
X21522852Y25490161D01*
X21543940Y25458601D01*
X21543838Y25341833D01*
X21559790Y25303226D01*
X21402890Y25410431D01*
X21151000Y25461440D01*
X20251000Y25461440D01*
X20015683Y25417162D01*
X19799559Y25278090D01*
X19654569Y25065890D01*
X19603560Y24814000D01*
X19603560Y24615362D01*
X19391374Y24403176D01*
X19463345Y24765000D01*
X19349271Y25338489D01*
X19024415Y25824670D01*
X18709634Y26035000D01*
X19024415Y26245330D01*
X19349271Y26731511D01*
X19463345Y27305000D01*
X19349271Y27878489D01*
X19024415Y28364670D01*
X18709634Y28575000D01*
X19024415Y28785330D01*
X19349271Y29271511D01*
X19463345Y29845000D01*
X19349271Y30418489D01*
X19024415Y30904670D01*
X19010087Y30914243D01*
X19031317Y30918238D01*
X19247441Y31057310D01*
X19392431Y31269510D01*
X19443440Y31521400D01*
X19443440Y33248600D01*
X19399162Y33483917D01*
X19260090Y33700041D01*
X19047890Y33845031D01*
X18796000Y33896040D01*
X16764000Y33896040D01*
X16528683Y33851762D01*
X16312559Y33712690D01*
X16167569Y33500490D01*
X16116560Y33248600D01*
X16116560Y31521400D01*
X16160838Y31286083D01*
X16299910Y31069959D01*
X16512110Y30924969D01*
X16553439Y30916600D01*
X16535585Y30904670D01*
X16210729Y30418489D01*
X16096655Y29845000D01*
X16210729Y29271511D01*
X16535585Y28785330D01*
X16850366Y28575000D01*
X16535585Y28364670D01*
X16210729Y27878489D01*
X16096655Y27305000D01*
X16210729Y26731511D01*
X16535585Y26245330D01*
X16850366Y26035000D01*
X16535585Y25824670D01*
X16210729Y25338489D01*
X16096655Y24765000D01*
X16198100Y24255000D01*
X15385594Y24255000D01*
X15436000Y24376691D01*
X15436000Y24817250D01*
X15277250Y24976000D01*
X14478000Y24976000D01*
X14478000Y24956000D01*
X14224000Y24956000D01*
X14224000Y24976000D01*
X13424750Y24976000D01*
X13266000Y24817250D01*
X13266000Y24376691D01*
X13362673Y24143302D01*
X13503910Y24002064D01*
X13449559Y23967090D01*
X13304569Y23754890D01*
X13253560Y23503000D01*
X13253560Y23197862D01*
X11917638Y21861940D01*
X11295000Y21861940D01*
X11059683Y21817662D01*
X10843559Y21678590D01*
X10795866Y21608789D01*
X10759090Y21665941D01*
X10546890Y21810931D01*
X10455000Y21829539D01*
X10455000Y22427560D01*
X11250000Y22427560D01*
X11485317Y22471838D01*
X11701441Y22610910D01*
X11846431Y22823110D01*
X11897440Y23075000D01*
X11897440Y25075000D01*
X11853162Y25310317D01*
X11714090Y25526441D01*
X11501890Y25671431D01*
X11250000Y25722440D01*
X9250000Y25722440D01*
X9014683Y25678162D01*
X8798559Y25539090D01*
X8653569Y25326890D01*
X8602560Y25075000D01*
X8602560Y23075000D01*
X8646838Y22839683D01*
X8785910Y22623559D01*
X8935000Y22521690D01*
X8935000Y21831834D01*
X8859683Y21817662D01*
X8643559Y21678590D01*
X8498569Y21466390D01*
X8447560Y21214500D01*
X8447560Y20314500D01*
X8491838Y20079183D01*
X8630910Y19863059D01*
X8843110Y19718069D01*
X9095000Y19667060D01*
X10295000Y19667060D01*
X10530317Y19711338D01*
X10746441Y19850410D01*
X10794134Y19920211D01*
X10830910Y19863059D01*
X11043110Y19718069D01*
X11295000Y19667060D01*
X12495000Y19667060D01*
X12730317Y19711338D01*
X12946441Y19850410D01*
X13091431Y20062610D01*
X13142440Y20314500D01*
X13142440Y20937138D01*
X13867621Y21662319D01*
X13901000Y21655560D01*
X14801000Y21655560D01*
X15036317Y21699838D01*
X15252441Y21838910D01*
X15397431Y22051110D01*
X15448440Y22303000D01*
X15448440Y22735000D01*
X16198100Y22735000D01*
X16096655Y22225000D01*
X16210729Y21651511D01*
X16535585Y21165330D01*
X16850366Y20955000D01*
X16535585Y20744670D01*
X16210729Y20258489D01*
X16096655Y19685000D01*
X16210729Y19111511D01*
X16535585Y18625330D01*
X16850366Y18415000D01*
X16535585Y18204670D01*
X16210729Y17718489D01*
X16096655Y17145000D01*
X16198100Y16635000D01*
X15448440Y16635000D01*
X15448440Y17089500D01*
X15404162Y17324817D01*
X15265090Y17540941D01*
X15195289Y17588634D01*
X15252441Y17625410D01*
X15397431Y17837610D01*
X15448440Y18089500D01*
X15448440Y19289500D01*
X15404162Y19524817D01*
X15265090Y19740941D01*
X15052890Y19885931D01*
X14801000Y19936940D01*
X13901000Y19936940D01*
X13665683Y19892662D01*
X13449559Y19753590D01*
X13304569Y19541390D01*
X13253560Y19289500D01*
X13253560Y18666862D01*
X12721698Y18135000D01*
X11897440Y18135000D01*
X11897440Y18230383D01*
X11905400Y18270400D01*
X11897440Y18310417D01*
X11897440Y18375000D01*
X11853162Y18610317D01*
X11714090Y18826441D01*
X11501890Y18971431D01*
X11250000Y19022440D01*
X11185417Y19022440D01*
X11145400Y19030400D01*
X11105383Y19022440D01*
X9250000Y19022440D01*
X9014683Y18978162D01*
X8798559Y18839090D01*
X8653569Y18626890D01*
X8602560Y18375000D01*
X8602560Y16375000D01*
X8646838Y16139683D01*
X8785910Y15923559D01*
X8998110Y15778569D01*
X9250000Y15727560D01*
X11250000Y15727560D01*
X11485317Y15771838D01*
X11701441Y15910910D01*
X11846431Y16123110D01*
X11897440Y16375000D01*
X11897440Y16615000D01*
X13036500Y16615000D01*
X13253560Y16658176D01*
X13253560Y15889500D01*
X13297838Y15654183D01*
X13436910Y15438059D01*
X13649110Y15293069D01*
X13901000Y15242060D01*
X14571083Y15242060D01*
X14674660Y15172852D01*
X14965500Y15115000D01*
X16198100Y15115000D01*
X16096655Y14605000D01*
X16210729Y14031511D01*
X16535585Y13545330D01*
X16850366Y13335000D01*
X16535585Y13124670D01*
X16210729Y12638489D01*
X16096655Y12065000D01*
X16205138Y11519621D01*
X16092160Y11497148D01*
X15924319Y11385000D01*
X15354834Y11385000D01*
X15340662Y11460317D01*
X15201590Y11676441D01*
X14989390Y11821431D01*
X14827283Y11854258D01*
X14988327Y12015301D01*
X15085000Y12248690D01*
X15085000Y13089250D01*
X14926250Y13248000D01*
X13577000Y13248000D01*
X13577000Y11898750D01*
X13640397Y11835353D01*
X13602183Y11828162D01*
X13386059Y11689090D01*
X13241069Y11476890D01*
X13190060Y11225000D01*
X13190060Y10025000D01*
X13234338Y9789683D01*
X13373410Y9573559D01*
X13443211Y9525866D01*
X13386059Y9489090D01*
X13241069Y9276890D01*
X13222461Y9185000D01*
X11897440Y9185000D01*
X11897440Y10375000D01*
X11853162Y10610317D01*
X11714090Y10826441D01*
X11501890Y10971431D01*
X11250000Y11022440D01*
X9250000Y11022440D01*
X9014683Y10978162D01*
X8798559Y10839090D01*
X8653569Y10626890D01*
X8602560Y10375000D01*
X8602560Y8375000D01*
X8646838Y8139683D01*
X8785910Y7923559D01*
X8998110Y7778569D01*
X9154002Y7747000D01*
X5121519Y7747000D01*
X5147440Y7875000D01*
X5147440Y9875000D01*
X5103162Y10110317D01*
X4964090Y10326441D01*
X4751890Y10471431D01*
X4500000Y10522440D01*
X2667000Y10522440D01*
X2667000Y12089853D01*
X2754481Y12089777D01*
X3226943Y12284995D01*
X3588735Y12646155D01*
X3784777Y13118276D01*
X3784778Y13120519D01*
X7514777Y13120519D01*
X7709995Y12648057D01*
X8071155Y12286265D01*
X8543276Y12090223D01*
X9054481Y12089777D01*
X9526943Y12284995D01*
X9888735Y12646155D01*
X10072724Y13089250D01*
X11815000Y13089250D01*
X11815000Y12248690D01*
X11911673Y12015301D01*
X12090302Y11836673D01*
X12323691Y11740000D01*
X13164250Y11740000D01*
X13323000Y11898750D01*
X13323000Y13248000D01*
X11973750Y13248000D01*
X11815000Y13089250D01*
X10072724Y13089250D01*
X10084777Y13118276D01*
X10085223Y13629481D01*
X9890005Y14101943D01*
X9528845Y14463735D01*
X9438355Y14501310D01*
X11815000Y14501310D01*
X11815000Y13660750D01*
X11973750Y13502000D01*
X13323000Y13502000D01*
X13323000Y14851250D01*
X13577000Y14851250D01*
X13577000Y13502000D01*
X14926250Y13502000D01*
X15085000Y13660750D01*
X15085000Y14501310D01*
X14988327Y14734699D01*
X14809698Y14913327D01*
X14576309Y15010000D01*
X13735750Y15010000D01*
X13577000Y14851250D01*
X13323000Y14851250D01*
X13164250Y15010000D01*
X12323691Y15010000D01*
X12090302Y14913327D01*
X11911673Y14734699D01*
X11815000Y14501310D01*
X9438355Y14501310D01*
X9056724Y14659777D01*
X8545519Y14660223D01*
X8073057Y14465005D01*
X7711265Y14103845D01*
X7515223Y13631724D01*
X7514777Y13120519D01*
X3784778Y13120519D01*
X3785223Y13629481D01*
X3590005Y14101943D01*
X3228845Y14463735D01*
X2756724Y14659777D01*
X2667000Y14659855D01*
X2667000Y16227560D01*
X4500000Y16227560D01*
X4735317Y16271838D01*
X4951441Y16410910D01*
X5096431Y16623110D01*
X5147440Y16875000D01*
X5147440Y18875000D01*
X5103162Y19110317D01*
X4964090Y19326441D01*
X4751890Y19471431D01*
X4500000Y19522440D01*
X2667000Y19522440D01*
X2667000Y21927560D01*
X4500000Y21927560D01*
X4735317Y21971838D01*
X4951441Y22110910D01*
X5096431Y22323110D01*
X5147440Y22575000D01*
X5147440Y24575000D01*
X5103162Y24810317D01*
X4964090Y25026441D01*
X4751890Y25171431D01*
X4500000Y25222440D01*
X2667000Y25222440D01*
X2667000Y25829309D01*
X13266000Y25829309D01*
X13266000Y25388750D01*
X13424750Y25230000D01*
X14224000Y25230000D01*
X14224000Y26179250D01*
X14478000Y26179250D01*
X14478000Y25230000D01*
X15277250Y25230000D01*
X15436000Y25388750D01*
X15436000Y25829309D01*
X15339327Y26062698D01*
X15160699Y26241327D01*
X14927310Y26338000D01*
X14636750Y26338000D01*
X14478000Y26179250D01*
X14224000Y26179250D01*
X14065250Y26338000D01*
X13774690Y26338000D01*
X13541301Y26241327D01*
X13362673Y26062698D01*
X13266000Y25829309D01*
X2667000Y25829309D01*
X2667000Y26789853D01*
X2754481Y26789777D01*
X3226943Y26984995D01*
X3588735Y27346155D01*
X3784777Y27818276D01*
X3784778Y27820519D01*
X7514777Y27820519D01*
X7709995Y27348057D01*
X8071155Y26986265D01*
X8543276Y26790223D01*
X9054481Y26789777D01*
X9526943Y26984995D01*
X9888735Y27346155D01*
X10072724Y27789250D01*
X11815000Y27789250D01*
X11815000Y26948690D01*
X11911673Y26715301D01*
X12090302Y26536673D01*
X12323691Y26440000D01*
X13164250Y26440000D01*
X13323000Y26598750D01*
X13323000Y27948000D01*
X13577000Y27948000D01*
X13577000Y26598750D01*
X13735750Y26440000D01*
X14576309Y26440000D01*
X14809698Y26536673D01*
X14988327Y26715301D01*
X15085000Y26948690D01*
X15085000Y27789250D01*
X14926250Y27948000D01*
X13577000Y27948000D01*
X13323000Y27948000D01*
X11973750Y27948000D01*
X11815000Y27789250D01*
X10072724Y27789250D01*
X10084777Y27818276D01*
X10085223Y28329481D01*
X9890005Y28801943D01*
X9528845Y29163735D01*
X9438355Y29201310D01*
X11815000Y29201310D01*
X11815000Y28360750D01*
X11973750Y28202000D01*
X13323000Y28202000D01*
X13323000Y29551250D01*
X13577000Y29551250D01*
X13577000Y28202000D01*
X14926250Y28202000D01*
X15085000Y28360750D01*
X15085000Y29201310D01*
X14988327Y29434699D01*
X14809698Y29613327D01*
X14576309Y29710000D01*
X13735750Y29710000D01*
X13577000Y29551250D01*
X13323000Y29551250D01*
X13164250Y29710000D01*
X12323691Y29710000D01*
X12090302Y29613327D01*
X11911673Y29434699D01*
X11815000Y29201310D01*
X9438355Y29201310D01*
X9056724Y29359777D01*
X8545519Y29360223D01*
X8073057Y29165005D01*
X7711265Y28803845D01*
X7515223Y28331724D01*
X7514777Y27820519D01*
X3784778Y27820519D01*
X3785223Y28329481D01*
X3590005Y28801943D01*
X3228845Y29163735D01*
X2756724Y29359777D01*
X2667000Y29359855D01*
X2667000Y30927560D01*
X4500000Y30927560D01*
X4735317Y30971838D01*
X4951441Y31110910D01*
X5096431Y31323110D01*
X5147440Y31575000D01*
X5147440Y33575000D01*
X5103162Y33810317D01*
X4964090Y34026441D01*
X4751890Y34171431D01*
X4500000Y34222440D01*
X2667000Y34222440D01*
X2667000Y36627560D01*
X4500000Y36627560D01*
X4735317Y36671838D01*
X4951441Y36810910D01*
X5096431Y37023110D01*
X5147440Y37275000D01*
X5147440Y39275000D01*
X5103162Y39510317D01*
X4964090Y39726441D01*
X4751890Y39871431D01*
X4500000Y39922440D01*
X2667000Y39922440D01*
X2667000Y41489853D01*
X2754481Y41489777D01*
X3226943Y41684995D01*
X3588735Y42046155D01*
X3784777Y42518276D01*
X3784778Y42520519D01*
X7514777Y42520519D01*
X7709995Y42048057D01*
X8071155Y41686265D01*
X8543276Y41490223D01*
X9054481Y41489777D01*
X9526943Y41684995D01*
X9888735Y42046155D01*
X10072724Y42489250D01*
X11815000Y42489250D01*
X11815000Y41648690D01*
X11911673Y41415301D01*
X12090302Y41236673D01*
X12323691Y41140000D01*
X13164250Y41140000D01*
X13322998Y41298748D01*
X13322998Y41140000D01*
X13347886Y41140000D01*
X13266000Y40942309D01*
X13266000Y40501750D01*
X13424750Y40343000D01*
X14224000Y40343000D01*
X14224000Y40363000D01*
X14478000Y40363000D01*
X14478000Y40343000D01*
X15277250Y40343000D01*
X15436000Y40501750D01*
X15436000Y40942309D01*
X15339327Y41175698D01*
X15160699Y41354327D01*
X14992013Y41424199D01*
X15085000Y41648690D01*
X15085000Y42489250D01*
X14926250Y42648000D01*
X13577000Y42648000D01*
X13577000Y42628000D01*
X13323000Y42628000D01*
X13323000Y42648000D01*
X11973750Y42648000D01*
X11815000Y42489250D01*
X10072724Y42489250D01*
X10084777Y42518276D01*
X10085223Y43029481D01*
X9890005Y43501943D01*
X9528845Y43863735D01*
X9056724Y44059777D01*
X8545519Y44060223D01*
X8073057Y43865005D01*
X7711265Y43503845D01*
X7515223Y43031724D01*
X7514777Y42520519D01*
X3784778Y42520519D01*
X3785223Y43029481D01*
X3590005Y43501943D01*
X3228845Y43863735D01*
X2756724Y44059777D01*
X2667000Y44059855D01*
X2667000Y45627560D01*
X4500000Y45627560D01*
X4735317Y45671838D01*
X4951441Y45810910D01*
X5096431Y46023110D01*
X5147440Y46275000D01*
X5147440Y48275000D01*
X5126366Y48387000D01*
X9061653Y48387000D01*
X9014683Y48378162D01*
G36*
X54170000Y24487334D02*
X54094683Y24473162D01*
X53878559Y24334090D01*
X53733569Y24121890D01*
X53682560Y23870000D01*
X53682560Y23120000D01*
X53726838Y22884683D01*
X53865910Y22668559D01*
X54078110Y22523569D01*
X54330000Y22472560D01*
X54877638Y22472560D01*
X56932599Y20417599D01*
X57179160Y20252852D01*
X57227414Y20243254D01*
X57470000Y20195000D01*
X58069895Y20195000D01*
X58160910Y20053559D01*
X58373110Y19908569D01*
X58625000Y19857560D01*
X59825000Y19857560D01*
X60060317Y19901838D01*
X60276441Y20040910D01*
X60324134Y20110711D01*
X60360910Y20053559D01*
X60573110Y19908569D01*
X60825000Y19857560D01*
X61602226Y19857560D01*
X61523762Y19668599D01*
X61523438Y19296633D01*
X61665483Y18952857D01*
X61692377Y18925916D01*
X61676690Y17514092D01*
X59939999Y15777401D01*
X59775252Y15530839D01*
X59717400Y15240000D01*
X59717400Y10413627D01*
X59479670Y10769415D01*
X59180000Y10969648D01*
X59180000Y11333895D01*
X59321441Y11424910D01*
X59466431Y11637110D01*
X59517440Y11889000D01*
X59517440Y13089000D01*
X59473162Y13324317D01*
X59334090Y13540441D01*
X59265994Y13586969D01*
X59408327Y13729302D01*
X59505000Y13962691D01*
X59505000Y14403250D01*
X59346250Y14562000D01*
X58547000Y14562000D01*
X58547000Y14542000D01*
X58293000Y14542000D01*
X58293000Y14562000D01*
X57493750Y14562000D01*
X57335000Y14403250D01*
X57335000Y13962691D01*
X57431673Y13729302D01*
X57572910Y13588064D01*
X57518559Y13553090D01*
X57373569Y13340890D01*
X57322560Y13089000D01*
X57322560Y11889000D01*
X57366838Y11653683D01*
X57505910Y11437559D01*
X57660000Y11332274D01*
X57660000Y10969648D01*
X57360330Y10769415D01*
X57150000Y10454634D01*
X56939670Y10769415D01*
X56453489Y11094271D01*
X55880000Y11208345D01*
X55306511Y11094271D01*
X54820330Y10769415D01*
X54610000Y10454634D01*
X54399670Y10769415D01*
X53913489Y11094271D01*
X53340000Y11208345D01*
X52766511Y11094271D01*
X52280330Y10769415D01*
X52070000Y10454634D01*
X51859670Y10769415D01*
X51373489Y11094271D01*
X50800000Y11208345D01*
X50226511Y11094271D01*
X49740330Y10769415D01*
X49530000Y10454634D01*
X49472848Y10540168D01*
X49533648Y10631161D01*
X49591500Y10922000D01*
X49591500Y13419000D01*
X49533648Y13709839D01*
X49368901Y13956401D01*
X48912940Y14412362D01*
X48912940Y15035000D01*
X48868662Y15270317D01*
X48775363Y15415309D01*
X57335000Y15415309D01*
X57335000Y14974750D01*
X57493750Y14816000D01*
X58293000Y14816000D01*
X58293000Y15765250D01*
X58547000Y15765250D01*
X58547000Y14816000D01*
X59346250Y14816000D01*
X59505000Y14974750D01*
X59505000Y15415309D01*
X59408327Y15648698D01*
X59229699Y15827327D01*
X58996310Y15924000D01*
X58705750Y15924000D01*
X58547000Y15765250D01*
X58293000Y15765250D01*
X58134250Y15924000D01*
X57843690Y15924000D01*
X57610301Y15827327D01*
X57431673Y15648698D01*
X57335000Y15415309D01*
X48775363Y15415309D01*
X48729590Y15486441D01*
X48575500Y15591726D01*
X48575500Y17063698D01*
X50099362Y18587560D01*
X50722000Y18587560D01*
X50957317Y18631838D01*
X51173441Y18770910D01*
X51318431Y18983110D01*
X51369440Y19235000D01*
X51369440Y20135000D01*
X51325162Y20370317D01*
X51186090Y20586441D01*
X51036749Y20688482D01*
X51124441Y20744910D01*
X51269431Y20957110D01*
X51320440Y21209000D01*
X51320440Y23241000D01*
X51276162Y23476317D01*
X51137090Y23692441D01*
X50924890Y23837431D01*
X50798664Y23862992D01*
X50896441Y23925910D01*
X50950481Y24005000D01*
X51910000Y24005000D01*
X52200839Y24062852D01*
X52447401Y24227599D01*
X53307362Y25087560D01*
X53930000Y25087560D01*
X54165317Y25131838D01*
X54170000Y25134851D01*
X54170000Y24487334D01*
X54170000Y24487334D01*
G37*
X54170000Y24487334D02*
X54094683Y24473162D01*
X53878559Y24334090D01*
X53733569Y24121890D01*
X53682560Y23870000D01*
X53682560Y23120000D01*
X53726838Y22884683D01*
X53865910Y22668559D01*
X54078110Y22523569D01*
X54330000Y22472560D01*
X54877638Y22472560D01*
X56932599Y20417599D01*
X57179160Y20252852D01*
X57227414Y20243254D01*
X57470000Y20195000D01*
X58069895Y20195000D01*
X58160910Y20053559D01*
X58373110Y19908569D01*
X58625000Y19857560D01*
X59825000Y19857560D01*
X60060317Y19901838D01*
X60276441Y20040910D01*
X60324134Y20110711D01*
X60360910Y20053559D01*
X60573110Y19908569D01*
X60825000Y19857560D01*
X61602226Y19857560D01*
X61523762Y19668599D01*
X61523438Y19296633D01*
X61665483Y18952857D01*
X61692377Y18925916D01*
X61676690Y17514092D01*
X59939999Y15777401D01*
X59775252Y15530839D01*
X59717400Y15240000D01*
X59717400Y10413627D01*
X59479670Y10769415D01*
X59180000Y10969648D01*
X59180000Y11333895D01*
X59321441Y11424910D01*
X59466431Y11637110D01*
X59517440Y11889000D01*
X59517440Y13089000D01*
X59473162Y13324317D01*
X59334090Y13540441D01*
X59265994Y13586969D01*
X59408327Y13729302D01*
X59505000Y13962691D01*
X59505000Y14403250D01*
X59346250Y14562000D01*
X58547000Y14562000D01*
X58547000Y14542000D01*
X58293000Y14542000D01*
X58293000Y14562000D01*
X57493750Y14562000D01*
X57335000Y14403250D01*
X57335000Y13962691D01*
X57431673Y13729302D01*
X57572910Y13588064D01*
X57518559Y13553090D01*
X57373569Y13340890D01*
X57322560Y13089000D01*
X57322560Y11889000D01*
X57366838Y11653683D01*
X57505910Y11437559D01*
X57660000Y11332274D01*
X57660000Y10969648D01*
X57360330Y10769415D01*
X57150000Y10454634D01*
X56939670Y10769415D01*
X56453489Y11094271D01*
X55880000Y11208345D01*
X55306511Y11094271D01*
X54820330Y10769415D01*
X54610000Y10454634D01*
X54399670Y10769415D01*
X53913489Y11094271D01*
X53340000Y11208345D01*
X52766511Y11094271D01*
X52280330Y10769415D01*
X52070000Y10454634D01*
X51859670Y10769415D01*
X51373489Y11094271D01*
X50800000Y11208345D01*
X50226511Y11094271D01*
X49740330Y10769415D01*
X49530000Y10454634D01*
X49472848Y10540168D01*
X49533648Y10631161D01*
X49591500Y10922000D01*
X49591500Y13419000D01*
X49533648Y13709839D01*
X49368901Y13956401D01*
X48912940Y14412362D01*
X48912940Y15035000D01*
X48868662Y15270317D01*
X48775363Y15415309D01*
X57335000Y15415309D01*
X57335000Y14974750D01*
X57493750Y14816000D01*
X58293000Y14816000D01*
X58293000Y15765250D01*
X58547000Y15765250D01*
X58547000Y14816000D01*
X59346250Y14816000D01*
X59505000Y14974750D01*
X59505000Y15415309D01*
X59408327Y15648698D01*
X59229699Y15827327D01*
X58996310Y15924000D01*
X58705750Y15924000D01*
X58547000Y15765250D01*
X58293000Y15765250D01*
X58134250Y15924000D01*
X57843690Y15924000D01*
X57610301Y15827327D01*
X57431673Y15648698D01*
X57335000Y15415309D01*
X48775363Y15415309D01*
X48729590Y15486441D01*
X48575500Y15591726D01*
X48575500Y17063698D01*
X50099362Y18587560D01*
X50722000Y18587560D01*
X50957317Y18631838D01*
X51173441Y18770910D01*
X51318431Y18983110D01*
X51369440Y19235000D01*
X51369440Y20135000D01*
X51325162Y20370317D01*
X51186090Y20586441D01*
X51036749Y20688482D01*
X51124441Y20744910D01*
X51269431Y20957110D01*
X51320440Y21209000D01*
X51320440Y23241000D01*
X51276162Y23476317D01*
X51137090Y23692441D01*
X50924890Y23837431D01*
X50798664Y23862992D01*
X50896441Y23925910D01*
X50950481Y24005000D01*
X51910000Y24005000D01*
X52200839Y24062852D01*
X52447401Y24227599D01*
X53307362Y25087560D01*
X53930000Y25087560D01*
X54165317Y25131838D01*
X54170000Y25134851D01*
X54170000Y24487334D01*
G36*
X37592000Y12362000D02*
X37612000Y12362000D01*
X37612000Y12108000D01*
X37592000Y12108000D01*
X37592000Y12088000D01*
X37338000Y12088000D01*
X37338000Y12108000D01*
X37318000Y12108000D01*
X37318000Y12362000D01*
X37338000Y12362000D01*
X37338000Y12382000D01*
X37592000Y12382000D01*
X37592000Y12362000D01*
X37592000Y12362000D01*
G37*
X37592000Y12362000D02*
X37612000Y12362000D01*
X37612000Y12108000D01*
X37592000Y12108000D01*
X37592000Y12088000D01*
X37338000Y12088000D01*
X37338000Y12108000D01*
X37318000Y12108000D01*
X37318000Y12362000D01*
X37338000Y12362000D01*
X37338000Y12382000D01*
X37592000Y12382000D01*
X37592000Y12362000D01*
G36*
X47942500Y12362000D02*
X47962500Y12362000D01*
X47962500Y12108000D01*
X47942500Y12108000D01*
X47942500Y12088000D01*
X47688500Y12088000D01*
X47688500Y12108000D01*
X47668500Y12108000D01*
X47668500Y12362000D01*
X47688500Y12362000D01*
X47688500Y12382000D01*
X47942500Y12382000D01*
X47942500Y12362000D01*
X47942500Y12362000D01*
G37*
X47942500Y12362000D02*
X47962500Y12362000D01*
X47962500Y12108000D01*
X47942500Y12108000D01*
X47942500Y12088000D01*
X47688500Y12088000D01*
X47688500Y12108000D01*
X47668500Y12108000D01*
X47668500Y12362000D01*
X47688500Y12362000D01*
X47688500Y12382000D01*
X47942500Y12382000D01*
X47942500Y12362000D01*
G36*
X45275500Y12362000D02*
X45295500Y12362000D01*
X45295500Y12108000D01*
X45275500Y12108000D01*
X45275500Y12088000D01*
X45021500Y12088000D01*
X45021500Y12108000D01*
X45001500Y12108000D01*
X45001500Y12362000D01*
X45021500Y12362000D01*
X45021500Y12382000D01*
X45275500Y12382000D01*
X45275500Y12362000D01*
X45275500Y12362000D01*
G37*
X45275500Y12362000D02*
X45295500Y12362000D01*
X45295500Y12108000D01*
X45275500Y12108000D01*
X45275500Y12088000D01*
X45021500Y12088000D01*
X45021500Y12108000D01*
X45001500Y12108000D01*
X45001500Y12362000D01*
X45021500Y12362000D01*
X45021500Y12382000D01*
X45275500Y12382000D01*
X45275500Y12362000D01*
G36*
X42608500Y12362000D02*
X42628500Y12362000D01*
X42628500Y12108000D01*
X42608500Y12108000D01*
X42608500Y12088000D01*
X42354500Y12088000D01*
X42354500Y12108000D01*
X42334500Y12108000D01*
X42334500Y12362000D01*
X42354500Y12362000D01*
X42354500Y12382000D01*
X42608500Y12382000D01*
X42608500Y12362000D01*
X42608500Y12362000D01*
G37*
X42608500Y12362000D02*
X42628500Y12362000D01*
X42628500Y12108000D01*
X42608500Y12108000D01*
X42608500Y12088000D01*
X42354500Y12088000D01*
X42354500Y12108000D01*
X42334500Y12108000D01*
X42334500Y12362000D01*
X42354500Y12362000D01*
X42354500Y12382000D01*
X42608500Y12382000D01*
X42608500Y12362000D01*
G36*
X40068500Y12362000D02*
X40088500Y12362000D01*
X40088500Y12108000D01*
X40068500Y12108000D01*
X40068500Y12088000D01*
X39814500Y12088000D01*
X39814500Y12108000D01*
X39794500Y12108000D01*
X39794500Y12362000D01*
X39814500Y12362000D01*
X39814500Y12382000D01*
X40068500Y12382000D01*
X40068500Y12362000D01*
X40068500Y12362000D01*
G37*
X40068500Y12362000D02*
X40088500Y12362000D01*
X40088500Y12108000D01*
X40068500Y12108000D01*
X40068500Y12088000D01*
X39814500Y12088000D01*
X39814500Y12108000D01*
X39794500Y12108000D01*
X39794500Y12362000D01*
X39814500Y12362000D01*
X39814500Y12382000D01*
X40068500Y12382000D01*
X40068500Y12362000D01*
G36*
X41447560Y20582000D02*
X41447560Y19382000D01*
X41491838Y19146683D01*
X41630910Y18930559D01*
X41721500Y18868662D01*
X41721500Y15590105D01*
X41580059Y15499090D01*
X41435069Y15286890D01*
X41384060Y15035000D01*
X41384060Y14067242D01*
X41038940Y14412362D01*
X41038940Y15035000D01*
X40994662Y15270317D01*
X40855590Y15486441D01*
X40701500Y15591726D01*
X40701500Y16193626D01*
X40759441Y16230910D01*
X40904431Y16443110D01*
X40955440Y16695000D01*
X40955440Y17595000D01*
X40911162Y17830317D01*
X40772090Y18046441D01*
X40559890Y18191431D01*
X40308000Y18242440D01*
X39304500Y18242440D01*
X39304500Y18524060D01*
X40308000Y18524060D01*
X40543317Y18568338D01*
X40759441Y18707410D01*
X40904431Y18919610D01*
X40955440Y19171500D01*
X40955440Y19810049D01*
X41088148Y20008661D01*
X41146000Y20299500D01*
X41146000Y20561560D01*
X41148000Y20561560D01*
X41383317Y20605838D01*
X41462736Y20656943D01*
X41447560Y20582000D01*
X41447560Y20582000D01*
G37*
X41447560Y20582000D02*
X41447560Y19382000D01*
X41491838Y19146683D01*
X41630910Y18930559D01*
X41721500Y18868662D01*
X41721500Y15590105D01*
X41580059Y15499090D01*
X41435069Y15286890D01*
X41384060Y15035000D01*
X41384060Y14067242D01*
X41038940Y14412362D01*
X41038940Y15035000D01*
X40994662Y15270317D01*
X40855590Y15486441D01*
X40701500Y15591726D01*
X40701500Y16193626D01*
X40759441Y16230910D01*
X40904431Y16443110D01*
X40955440Y16695000D01*
X40955440Y17595000D01*
X40911162Y17830317D01*
X40772090Y18046441D01*
X40559890Y18191431D01*
X40308000Y18242440D01*
X39304500Y18242440D01*
X39304500Y18524060D01*
X40308000Y18524060D01*
X40543317Y18568338D01*
X40759441Y18707410D01*
X40904431Y18919610D01*
X40955440Y19171500D01*
X40955440Y19810049D01*
X41088148Y20008661D01*
X41146000Y20299500D01*
X41146000Y20561560D01*
X41148000Y20561560D01*
X41383317Y20605838D01*
X41462736Y20656943D01*
X41447560Y20582000D01*
G36*
X19603560Y22614000D02*
X19603560Y21414000D01*
X19647838Y21178683D01*
X19786910Y20962559D01*
X19999110Y20817569D01*
X20251000Y20766560D01*
X21151000Y20766560D01*
X21386317Y20810838D01*
X21602441Y20949910D01*
X21720735Y21123039D01*
X21748838Y20973683D01*
X21887910Y20757559D01*
X22100110Y20612569D01*
X22352000Y20561560D01*
X23637806Y20561560D01*
X23591569Y20493890D01*
X23540560Y20242000D01*
X23540560Y19302000D01*
X23411000Y19302000D01*
X23120161Y19244148D01*
X22873599Y19079401D01*
X22334138Y18539940D01*
X21711500Y18539940D01*
X21476183Y18495662D01*
X21260059Y18356590D01*
X21115069Y18144390D01*
X21064060Y17892500D01*
X21064060Y17630362D01*
X20068698Y16635000D01*
X19361900Y16635000D01*
X19463345Y17145000D01*
X19349271Y17718489D01*
X19024415Y18204670D01*
X18709634Y18415000D01*
X19024415Y18625330D01*
X19349271Y19111511D01*
X19463345Y19685000D01*
X19349271Y20258489D01*
X19024415Y20744670D01*
X18709634Y20955000D01*
X19024415Y21165330D01*
X19349271Y21651511D01*
X19463345Y22225000D01*
X19361900Y22735000D01*
X19558000Y22735000D01*
X19631004Y22749521D01*
X19603560Y22614000D01*
X19603560Y22614000D01*
G37*
X19603560Y22614000D02*
X19603560Y21414000D01*
X19647838Y21178683D01*
X19786910Y20962559D01*
X19999110Y20817569D01*
X20251000Y20766560D01*
X21151000Y20766560D01*
X21386317Y20810838D01*
X21602441Y20949910D01*
X21720735Y21123039D01*
X21748838Y20973683D01*
X21887910Y20757559D01*
X22100110Y20612569D01*
X22352000Y20561560D01*
X23637806Y20561560D01*
X23591569Y20493890D01*
X23540560Y20242000D01*
X23540560Y19302000D01*
X23411000Y19302000D01*
X23120161Y19244148D01*
X22873599Y19079401D01*
X22334138Y18539940D01*
X21711500Y18539940D01*
X21476183Y18495662D01*
X21260059Y18356590D01*
X21115069Y18144390D01*
X21064060Y17892500D01*
X21064060Y17630362D01*
X20068698Y16635000D01*
X19361900Y16635000D01*
X19463345Y17145000D01*
X19349271Y17718489D01*
X19024415Y18204670D01*
X18709634Y18415000D01*
X19024415Y18625330D01*
X19349271Y19111511D01*
X19463345Y19685000D01*
X19349271Y20258489D01*
X19024415Y20744670D01*
X18709634Y20955000D01*
X19024415Y21165330D01*
X19349271Y21651511D01*
X19463345Y22225000D01*
X19361900Y22735000D01*
X19558000Y22735000D01*
X19631004Y22749521D01*
X19603560Y22614000D01*
G36*
X36443910Y18720059D02*
X36656110Y18575069D01*
X36908000Y18524060D01*
X37784500Y18524060D01*
X37784500Y18496302D01*
X37530638Y18242440D01*
X36908000Y18242440D01*
X36672683Y18198162D01*
X36456559Y18059090D01*
X36311569Y17846890D01*
X36260560Y17595000D01*
X36260560Y16695000D01*
X36260852Y16693450D01*
X35716401Y17237901D01*
X35469839Y17402648D01*
X35179000Y17460500D01*
X30815440Y17460500D01*
X30815440Y17782000D01*
X31115000Y17782000D01*
X31405839Y17839852D01*
X31652401Y18004599D01*
X32509302Y18861500D01*
X36352895Y18861500D01*
X36443910Y18720059D01*
X36443910Y18720059D01*
G37*
X36443910Y18720059D02*
X36656110Y18575069D01*
X36908000Y18524060D01*
X37784500Y18524060D01*
X37784500Y18496302D01*
X37530638Y18242440D01*
X36908000Y18242440D01*
X36672683Y18198162D01*
X36456559Y18059090D01*
X36311569Y17846890D01*
X36260560Y17595000D01*
X36260560Y16695000D01*
X36260852Y16693450D01*
X35716401Y17237901D01*
X35469839Y17402648D01*
X35179000Y17460500D01*
X30815440Y17460500D01*
X30815440Y17782000D01*
X31115000Y17782000D01*
X31405839Y17839852D01*
X31652401Y18004599D01*
X32509302Y18861500D01*
X36352895Y18861500D01*
X36443910Y18720059D01*
G36*
X28416883Y23855057D02*
X28450000Y23821882D01*
X28450000Y23114000D01*
X28507852Y22823161D01*
X28672599Y22576599D01*
X28958000Y22291198D01*
X28958000Y20797105D01*
X28816559Y20706090D01*
X28671569Y20493890D01*
X28620560Y20242000D01*
X28620560Y19302000D01*
X25735440Y19302000D01*
X25735440Y20242000D01*
X25691162Y20477317D01*
X25634399Y20565529D01*
X25654000Y20561560D01*
X27178000Y20561560D01*
X27413317Y20605838D01*
X27629441Y20744910D01*
X27774431Y20957110D01*
X27825440Y21209000D01*
X27825440Y23241000D01*
X27781162Y23476317D01*
X27642090Y23692441D01*
X27429890Y23837431D01*
X27303664Y23862992D01*
X27401441Y23925910D01*
X27455481Y24005000D01*
X28354928Y24005000D01*
X28416883Y23855057D01*
X28416883Y23855057D01*
G37*
X28416883Y23855057D02*
X28450000Y23821882D01*
X28450000Y23114000D01*
X28507852Y22823161D01*
X28672599Y22576599D01*
X28958000Y22291198D01*
X28958000Y20797105D01*
X28816559Y20706090D01*
X28671569Y20493890D01*
X28620560Y20242000D01*
X28620560Y19302000D01*
X25735440Y19302000D01*
X25735440Y20242000D01*
X25691162Y20477317D01*
X25634399Y20565529D01*
X25654000Y20561560D01*
X27178000Y20561560D01*
X27413317Y20605838D01*
X27629441Y20744910D01*
X27774431Y20957110D01*
X27825440Y21209000D01*
X27825440Y23241000D01*
X27781162Y23476317D01*
X27642090Y23692441D01*
X27429890Y23837431D01*
X27303664Y23862992D01*
X27401441Y23925910D01*
X27455481Y24005000D01*
X28354928Y24005000D01*
X28416883Y23855057D01*
G36*
X33700000Y24452560D02*
X34322638Y24452560D01*
X34547599Y24227599D01*
X34794161Y24062852D01*
X35085000Y24005000D01*
X36043156Y24005000D01*
X36085910Y23938559D01*
X36194401Y23864431D01*
X36086683Y23844162D01*
X35870559Y23705090D01*
X35725569Y23492890D01*
X35674560Y23241000D01*
X35674560Y21209000D01*
X35718838Y20973683D01*
X35857910Y20757559D01*
X36070110Y20612569D01*
X36322000Y20561560D01*
X36496918Y20561560D01*
X36456559Y20535590D01*
X36351274Y20381500D01*
X32194500Y20381500D01*
X31903661Y20323648D01*
X31657099Y20158901D01*
X30815440Y19317242D01*
X30815440Y20242000D01*
X30771162Y20477317D01*
X30632090Y20693441D01*
X30478000Y20798726D01*
X30478000Y21837560D01*
X31400000Y21837560D01*
X31635317Y21881838D01*
X31749978Y21955620D01*
X31848110Y21888569D01*
X32100000Y21837560D01*
X33300000Y21837560D01*
X33535317Y21881838D01*
X33751441Y22020910D01*
X33896431Y22233110D01*
X33947440Y22485000D01*
X33947440Y23235000D01*
X33903162Y23470317D01*
X33764090Y23686441D01*
X33551890Y23831431D01*
X33460000Y23850039D01*
X33460000Y24501161D01*
X33700000Y24452560D01*
X33700000Y24452560D01*
G37*
X33700000Y24452560D02*
X34322638Y24452560D01*
X34547599Y24227599D01*
X34794161Y24062852D01*
X35085000Y24005000D01*
X36043156Y24005000D01*
X36085910Y23938559D01*
X36194401Y23864431D01*
X36086683Y23844162D01*
X35870559Y23705090D01*
X35725569Y23492890D01*
X35674560Y23241000D01*
X35674560Y21209000D01*
X35718838Y20973683D01*
X35857910Y20757559D01*
X36070110Y20612569D01*
X36322000Y20561560D01*
X36496918Y20561560D01*
X36456559Y20535590D01*
X36351274Y20381500D01*
X32194500Y20381500D01*
X31903661Y20323648D01*
X31657099Y20158901D01*
X30815440Y19317242D01*
X30815440Y20242000D01*
X30771162Y20477317D01*
X30632090Y20693441D01*
X30478000Y20798726D01*
X30478000Y21837560D01*
X31400000Y21837560D01*
X31635317Y21881838D01*
X31749978Y21955620D01*
X31848110Y21888569D01*
X32100000Y21837560D01*
X33300000Y21837560D01*
X33535317Y21881838D01*
X33751441Y22020910D01*
X33896431Y22233110D01*
X33947440Y22485000D01*
X33947440Y23235000D01*
X33903162Y23470317D01*
X33764090Y23686441D01*
X33551890Y23831431D01*
X33460000Y23850039D01*
X33460000Y24501161D01*
X33700000Y24452560D01*
G36*
X40386000Y34546000D02*
X46697560Y34546000D01*
X46697560Y33915000D01*
X46741838Y33679683D01*
X46880910Y33463559D01*
X46938258Y33424375D01*
X46743559Y33299090D01*
X46598569Y33086890D01*
X46547560Y32835000D01*
X46547560Y32636362D01*
X45055599Y31144401D01*
X44890852Y30897839D01*
X44833000Y30607000D01*
X44833000Y24571802D01*
X44039599Y23778401D01*
X43874852Y23531839D01*
X43838923Y23351212D01*
X43675559Y23246090D01*
X43559887Y23076798D01*
X43459090Y23233441D01*
X43246890Y23378431D01*
X43064420Y23415382D01*
X42098500Y24381302D01*
X42098500Y30543500D01*
X42040648Y30834339D01*
X42040648Y30834340D01*
X41875901Y31080901D01*
X40447440Y32509362D01*
X40447440Y32835000D01*
X40403162Y33070317D01*
X40264090Y33286441D01*
X40061241Y33425042D01*
X40101441Y33450910D01*
X40246431Y33663110D01*
X40297440Y33915000D01*
X40297440Y34563616D01*
X40386000Y34546000D01*
X40386000Y34546000D01*
G37*
X40386000Y34546000D02*
X46697560Y34546000D01*
X46697560Y33915000D01*
X46741838Y33679683D01*
X46880910Y33463559D01*
X46938258Y33424375D01*
X46743559Y33299090D01*
X46598569Y33086890D01*
X46547560Y32835000D01*
X46547560Y32636362D01*
X45055599Y31144401D01*
X44890852Y30897839D01*
X44833000Y30607000D01*
X44833000Y24571802D01*
X44039599Y23778401D01*
X43874852Y23531839D01*
X43838923Y23351212D01*
X43675559Y23246090D01*
X43559887Y23076798D01*
X43459090Y23233441D01*
X43246890Y23378431D01*
X43064420Y23415382D01*
X42098500Y24381302D01*
X42098500Y30543500D01*
X42040648Y30834339D01*
X42040648Y30834340D01*
X41875901Y31080901D01*
X40447440Y32509362D01*
X40447440Y32835000D01*
X40403162Y33070317D01*
X40264090Y33286441D01*
X40061241Y33425042D01*
X40101441Y33450910D01*
X40246431Y33663110D01*
X40297440Y33915000D01*
X40297440Y34563616D01*
X40386000Y34546000D01*
G36*
X31217069Y38097890D02*
X31166060Y37846000D01*
X31166060Y35814000D01*
X31210338Y35578683D01*
X31349410Y35362559D01*
X31561610Y35217569D01*
X31813500Y35166560D01*
X31815500Y35166560D01*
X31815500Y35039300D01*
X31873352Y34748461D01*
X32038099Y34501899D01*
X33080757Y33459241D01*
X33052560Y33320000D01*
X33052560Y32720000D01*
X33096838Y32484683D01*
X33160678Y32385472D01*
X33103569Y32301890D01*
X33052560Y32050000D01*
X33052560Y31450000D01*
X33096838Y31214683D01*
X33160678Y31115472D01*
X33103569Y31031890D01*
X33052560Y30780000D01*
X33052560Y30180000D01*
X33092074Y29970000D01*
X32947463Y29970000D01*
X32915327Y30002192D01*
X32571799Y30144838D01*
X32199833Y30145162D01*
X31856057Y30003117D01*
X31592808Y29740327D01*
X31450162Y29396799D01*
X31449838Y29024833D01*
X31591883Y28681057D01*
X31854673Y28417808D01*
X31963404Y28372659D01*
X31940000Y28255000D01*
X31940000Y25248860D01*
X31685000Y25354745D01*
X31685000Y28254995D01*
X31685001Y28255000D01*
X31617633Y28593674D01*
X31617633Y28593675D01*
X31425790Y28880790D01*
X31425787Y28880792D01*
X30470790Y29835790D01*
X30420065Y29869683D01*
X30376431Y29898839D01*
X30396431Y29928110D01*
X30447440Y30180000D01*
X30447440Y30780000D01*
X30403162Y31015317D01*
X30339322Y31114528D01*
X30396431Y31198110D01*
X30447440Y31450000D01*
X30447440Y32050000D01*
X30403162Y32285317D01*
X30339322Y32384528D01*
X30396431Y32468110D01*
X30447440Y32720000D01*
X30447440Y33320000D01*
X30403162Y33555317D01*
X30264090Y33771441D01*
X30051890Y33916431D01*
X29800000Y33967440D01*
X29177362Y33967440D01*
X28317401Y34827401D01*
X28070839Y34992148D01*
X27780000Y35050000D01*
X27456844Y35050000D01*
X27414090Y35116441D01*
X27305599Y35190569D01*
X27413317Y35210838D01*
X27629441Y35349910D01*
X27774431Y35562110D01*
X27825440Y35814000D01*
X27825440Y37203258D01*
X27864060Y37164638D01*
X27864060Y35814000D01*
X27908338Y35578683D01*
X28047410Y35362559D01*
X28259610Y35217569D01*
X28511500Y35166560D01*
X30035500Y35166560D01*
X30270817Y35210838D01*
X30486941Y35349910D01*
X30631931Y35562110D01*
X30682940Y35814000D01*
X30682940Y37846000D01*
X30638662Y38081317D01*
X30584492Y38165500D01*
X31263265Y38165500D01*
X31217069Y38097890D01*
X31217069Y38097890D01*
G37*
X31217069Y38097890D02*
X31166060Y37846000D01*
X31166060Y35814000D01*
X31210338Y35578683D01*
X31349410Y35362559D01*
X31561610Y35217569D01*
X31813500Y35166560D01*
X31815500Y35166560D01*
X31815500Y35039300D01*
X31873352Y34748461D01*
X32038099Y34501899D01*
X33080757Y33459241D01*
X33052560Y33320000D01*
X33052560Y32720000D01*
X33096838Y32484683D01*
X33160678Y32385472D01*
X33103569Y32301890D01*
X33052560Y32050000D01*
X33052560Y31450000D01*
X33096838Y31214683D01*
X33160678Y31115472D01*
X33103569Y31031890D01*
X33052560Y30780000D01*
X33052560Y30180000D01*
X33092074Y29970000D01*
X32947463Y29970000D01*
X32915327Y30002192D01*
X32571799Y30144838D01*
X32199833Y30145162D01*
X31856057Y30003117D01*
X31592808Y29740327D01*
X31450162Y29396799D01*
X31449838Y29024833D01*
X31591883Y28681057D01*
X31854673Y28417808D01*
X31963404Y28372659D01*
X31940000Y28255000D01*
X31940000Y25248860D01*
X31685000Y25354745D01*
X31685000Y28254995D01*
X31685001Y28255000D01*
X31617633Y28593674D01*
X31617633Y28593675D01*
X31425790Y28880790D01*
X31425787Y28880792D01*
X30470790Y29835790D01*
X30420065Y29869683D01*
X30376431Y29898839D01*
X30396431Y29928110D01*
X30447440Y30180000D01*
X30447440Y30780000D01*
X30403162Y31015317D01*
X30339322Y31114528D01*
X30396431Y31198110D01*
X30447440Y31450000D01*
X30447440Y32050000D01*
X30403162Y32285317D01*
X30339322Y32384528D01*
X30396431Y32468110D01*
X30447440Y32720000D01*
X30447440Y33320000D01*
X30403162Y33555317D01*
X30264090Y33771441D01*
X30051890Y33916431D01*
X29800000Y33967440D01*
X29177362Y33967440D01*
X28317401Y34827401D01*
X28070839Y34992148D01*
X27780000Y35050000D01*
X27456844Y35050000D01*
X27414090Y35116441D01*
X27305599Y35190569D01*
X27413317Y35210838D01*
X27629441Y35349910D01*
X27774431Y35562110D01*
X27825440Y35814000D01*
X27825440Y37203258D01*
X27864060Y37164638D01*
X27864060Y35814000D01*
X27908338Y35578683D01*
X28047410Y35362559D01*
X28259610Y35217569D01*
X28511500Y35166560D01*
X30035500Y35166560D01*
X30270817Y35210838D01*
X30486941Y35349910D01*
X30631931Y35562110D01*
X30682940Y35814000D01*
X30682940Y37846000D01*
X30638662Y38081317D01*
X30584492Y38165500D01*
X31263265Y38165500D01*
X31217069Y38097890D01*
G36*
X60252599Y26937599D02*
X60499161Y26772852D01*
X60517466Y26769211D01*
X60541838Y26639683D01*
X60680910Y26423559D01*
X60784628Y26352691D01*
X60693559Y26294090D01*
X60548569Y26081890D01*
X60497560Y25830000D01*
X60497560Y25258988D01*
X60483117Y25293943D01*
X60220327Y25557192D01*
X59963066Y25664017D01*
X59977440Y25735000D01*
X59977440Y26335000D01*
X59933162Y26570317D01*
X59869322Y26669528D01*
X59926431Y26753110D01*
X59977440Y27005000D01*
X59977440Y27212758D01*
X60252599Y26937599D01*
X60252599Y26937599D01*
G37*
X60252599Y26937599D02*
X60499161Y26772852D01*
X60517466Y26769211D01*
X60541838Y26639683D01*
X60680910Y26423559D01*
X60784628Y26352691D01*
X60693559Y26294090D01*
X60548569Y26081890D01*
X60497560Y25830000D01*
X60497560Y25258988D01*
X60483117Y25293943D01*
X60220327Y25557192D01*
X59963066Y25664017D01*
X59977440Y25735000D01*
X59977440Y26335000D01*
X59933162Y26570317D01*
X59869322Y26669528D01*
X59926431Y26753110D01*
X59977440Y27005000D01*
X59977440Y27212758D01*
X60252599Y26937599D01*
G36*
X57182560Y33355000D02*
X57226838Y33119683D01*
X57290678Y33020472D01*
X57233569Y32936890D01*
X57182560Y32685000D01*
X57182560Y32085000D01*
X57226838Y31849683D01*
X57290678Y31750472D01*
X57233569Y31666890D01*
X57182560Y31415000D01*
X57182560Y30815000D01*
X57226838Y30579683D01*
X57255506Y30535132D01*
X57159210Y30470790D01*
X57159208Y30470787D01*
X56204210Y29515790D01*
X56012367Y29228675D01*
X56002852Y29180839D01*
X55944999Y28890000D01*
X55945000Y28889995D01*
X55945000Y25735503D01*
X55690000Y25630139D01*
X55690000Y28890000D01*
X55666620Y29007538D01*
X55773943Y29051883D01*
X56037192Y29314673D01*
X56179838Y29658201D01*
X56180162Y30030167D01*
X56038117Y30373943D01*
X55775327Y30637192D01*
X55431799Y30779838D01*
X55243000Y30780002D01*
X55243000Y33847500D01*
X57182560Y33847500D01*
X57182560Y33355000D01*
X57182560Y33355000D01*
G37*
X57182560Y33355000D02*
X57226838Y33119683D01*
X57290678Y33020472D01*
X57233569Y32936890D01*
X57182560Y32685000D01*
X57182560Y32085000D01*
X57226838Y31849683D01*
X57290678Y31750472D01*
X57233569Y31666890D01*
X57182560Y31415000D01*
X57182560Y30815000D01*
X57226838Y30579683D01*
X57255506Y30535132D01*
X57159210Y30470790D01*
X57159208Y30470787D01*
X56204210Y29515790D01*
X56012367Y29228675D01*
X56002852Y29180839D01*
X55944999Y28890000D01*
X55945000Y28889995D01*
X55945000Y25735503D01*
X55690000Y25630139D01*
X55690000Y28890000D01*
X55666620Y29007538D01*
X55773943Y29051883D01*
X56037192Y29314673D01*
X56179838Y29658201D01*
X56180162Y30030167D01*
X56038117Y30373943D01*
X55775327Y30637192D01*
X55431799Y30779838D01*
X55243000Y30780002D01*
X55243000Y33847500D01*
X57182560Y33847500D01*
X57182560Y33355000D01*
G36*
X62103000Y32453198D02*
X62103000Y30910000D01*
X61880750Y30910000D01*
X61722000Y30751250D01*
X61722000Y29802000D01*
X61742000Y29802000D01*
X61742000Y29548000D01*
X61722000Y29548000D01*
X61722000Y29528000D01*
X61468000Y29528000D01*
X61468000Y29548000D01*
X61448000Y29548000D01*
X61448000Y29802000D01*
X61468000Y29802000D01*
X61468000Y30751250D01*
X61459276Y30759974D01*
X61459803Y30761244D01*
X61460197Y31212775D01*
X61287767Y31630086D01*
X60968765Y31949645D01*
X60551756Y32122803D01*
X60100225Y32123197D01*
X59974669Y32071318D01*
X59977440Y32085000D01*
X59977440Y32685000D01*
X59933162Y32920317D01*
X59869322Y33019528D01*
X59926431Y33103110D01*
X59977440Y33355000D01*
X59977440Y33847500D01*
X60708698Y33847500D01*
X62103000Y32453198D01*
X62103000Y32453198D01*
G37*
X62103000Y32453198D02*
X62103000Y30910000D01*
X61880750Y30910000D01*
X61722000Y30751250D01*
X61722000Y29802000D01*
X61742000Y29802000D01*
X61742000Y29548000D01*
X61722000Y29548000D01*
X61722000Y29528000D01*
X61468000Y29528000D01*
X61468000Y29548000D01*
X61448000Y29548000D01*
X61448000Y29802000D01*
X61468000Y29802000D01*
X61468000Y30751250D01*
X61459276Y30759974D01*
X61459803Y30761244D01*
X61460197Y31212775D01*
X61287767Y31630086D01*
X60968765Y31949645D01*
X60551756Y32122803D01*
X60100225Y32123197D01*
X59974669Y32071318D01*
X59977440Y32085000D01*
X59977440Y32685000D01*
X59933162Y32920317D01*
X59869322Y33019528D01*
X59926431Y33103110D01*
X59977440Y33355000D01*
X59977440Y33847500D01*
X60708698Y33847500D01*
X62103000Y32453198D01*
G36*
X1639446Y53785159D02*
X2540000Y52884605D01*
X3440554Y53785159D01*
X3401866Y53900000D01*
X4218134Y53900000D01*
X4179446Y53785159D01*
X5080000Y52884605D01*
X5980554Y53785159D01*
X5941866Y53900000D01*
X6644374Y53900000D01*
X6319449Y53575643D01*
X6310797Y53554806D01*
X6160159Y53605554D01*
X5259605Y52705000D01*
X6160159Y51804446D01*
X6310327Y51855035D01*
X6317932Y51836629D01*
X6719182Y51434677D01*
X6319449Y51035643D01*
X6310797Y51014806D01*
X6160159Y51065554D01*
X5259605Y50165000D01*
X5273748Y50150857D01*
X5094143Y49971252D01*
X5080000Y49985395D01*
X5065858Y49971252D01*
X4886253Y50150857D01*
X4900395Y50165000D01*
X3999841Y51065554D01*
X3810000Y51001599D01*
X3620159Y51065554D01*
X2719605Y50165000D01*
X2733748Y50150857D01*
X2554143Y49971252D01*
X2540000Y49985395D01*
X2084605Y49530000D01*
X1725395Y49530000D01*
X2360395Y50165000D01*
X1459841Y51065554D01*
X1203357Y50979148D01*
X993542Y50405664D01*
X1019161Y49795540D01*
X1203357Y49350852D01*
X1459841Y49264446D01*
X1524000Y49328605D01*
X1524000Y43616383D01*
X1411265Y43503845D01*
X1215223Y43031724D01*
X1214777Y42520519D01*
X1409995Y42048057D01*
X1524000Y41933853D01*
X1524000Y28916383D01*
X1411265Y28803845D01*
X1215223Y28331724D01*
X1214777Y27820519D01*
X1409995Y27348057D01*
X1524000Y27233853D01*
X1524000Y14216383D01*
X1411265Y14103845D01*
X1215223Y13631724D01*
X1214777Y13120519D01*
X1409995Y12648057D01*
X1524000Y12533853D01*
X1524000Y6350000D01*
X1534006Y6300590D01*
X1562447Y6258965D01*
X1604841Y6231685D01*
X1651000Y6223000D01*
X46067598Y6223000D01*
X45824507Y5979909D01*
X45416009Y5980265D01*
X44851629Y5747068D01*
X44449677Y5345818D01*
X44050643Y5745551D01*
X43486670Y5979733D01*
X42876009Y5980265D01*
X42311629Y5747068D01*
X41909677Y5345818D01*
X41510643Y5745551D01*
X40946670Y5979733D01*
X40336009Y5980265D01*
X39771629Y5747068D01*
X39369677Y5345818D01*
X38970643Y5745551D01*
X38406670Y5979733D01*
X37796009Y5980265D01*
X37231629Y5747068D01*
X36829677Y5345818D01*
X36430643Y5745551D01*
X35866670Y5979733D01*
X35256009Y5980265D01*
X34691629Y5747068D01*
X34289677Y5345818D01*
X33890643Y5745551D01*
X33326670Y5979733D01*
X32716009Y5980265D01*
X32151629Y5747068D01*
X31749677Y5345818D01*
X31350643Y5745551D01*
X30786670Y5979733D01*
X30176009Y5980265D01*
X29611629Y5747068D01*
X29209677Y5345818D01*
X28810643Y5745551D01*
X28246670Y5979733D01*
X27636009Y5980265D01*
X27071629Y5747068D01*
X26669677Y5345818D01*
X26270643Y5745551D01*
X25706670Y5979733D01*
X25096009Y5980265D01*
X24531629Y5747068D01*
X24129677Y5345818D01*
X23730643Y5745551D01*
X23166670Y5979733D01*
X22556009Y5980265D01*
X21991629Y5747068D01*
X21589677Y5345818D01*
X21190643Y5745551D01*
X20626670Y5979733D01*
X20016009Y5980265D01*
X19451629Y5747068D01*
X19049677Y5345818D01*
X18650643Y5745551D01*
X18086670Y5979733D01*
X17476009Y5980265D01*
X16911629Y5747068D01*
X16509677Y5345818D01*
X16110643Y5745551D01*
X15546670Y5979733D01*
X14936009Y5980265D01*
X14371629Y5747068D01*
X13969677Y5345818D01*
X13570643Y5745551D01*
X13006670Y5979733D01*
X12396009Y5980265D01*
X11831629Y5747068D01*
X11429677Y5345818D01*
X11030643Y5745551D01*
X10466670Y5979733D01*
X9856009Y5980265D01*
X9291629Y5747068D01*
X8889677Y5345818D01*
X8490643Y5745551D01*
X7926670Y5979733D01*
X7316009Y5980265D01*
X6751629Y5747068D01*
X6349677Y5345818D01*
X5950643Y5745551D01*
X5386670Y5979733D01*
X4776009Y5980265D01*
X4211629Y5747068D01*
X3809677Y5345818D01*
X3410643Y5745551D01*
X2846670Y5979733D01*
X2236009Y5980265D01*
X1671629Y5747068D01*
X1239449Y5315643D01*
X1005267Y4751670D01*
X1004735Y4141009D01*
X1237932Y3576629D01*
X1639182Y3174677D01*
X1239449Y2775643D01*
X1005267Y2211670D01*
X1004735Y1601009D01*
X1237932Y1036629D01*
X1563990Y710000D01*
X710000Y710000D01*
X710000Y51624841D01*
X1639446Y51624841D01*
X1703401Y51435000D01*
X1639446Y51245159D01*
X2540000Y50344605D01*
X3440554Y51245159D01*
X3376599Y51435000D01*
X3440554Y51624841D01*
X4179446Y51624841D01*
X4243401Y51435000D01*
X4179446Y51245159D01*
X5080000Y50344605D01*
X5980554Y51245159D01*
X5916599Y51435000D01*
X5980554Y51624841D01*
X5080000Y52525395D01*
X4179446Y51624841D01*
X3440554Y51624841D01*
X2540000Y52525395D01*
X1639446Y51624841D01*
X710000Y51624841D01*
X710000Y52945664D01*
X993542Y52945664D01*
X1019161Y52335540D01*
X1203357Y51890852D01*
X1459841Y51804446D01*
X2360395Y52705000D01*
X2719605Y52705000D01*
X3620159Y51804446D01*
X3810000Y51868401D01*
X3999841Y51804446D01*
X4900395Y52705000D01*
X3999841Y53605554D01*
X3810000Y53541599D01*
X3620159Y53605554D01*
X2719605Y52705000D01*
X2360395Y52705000D01*
X1459841Y53605554D01*
X1203357Y53519148D01*
X993542Y52945664D01*
X710000Y52945664D01*
X710000Y53900000D01*
X1678134Y53900000D01*
X1639446Y53785159D01*
X1639446Y53785159D01*
G37*
X1639446Y53785159D02*
X2540000Y52884605D01*
X3440554Y53785159D01*
X3401866Y53900000D01*
X4218134Y53900000D01*
X4179446Y53785159D01*
X5080000Y52884605D01*
X5980554Y53785159D01*
X5941866Y53900000D01*
X6644374Y53900000D01*
X6319449Y53575643D01*
X6310797Y53554806D01*
X6160159Y53605554D01*
X5259605Y52705000D01*
X6160159Y51804446D01*
X6310327Y51855035D01*
X6317932Y51836629D01*
X6719182Y51434677D01*
X6319449Y51035643D01*
X6310797Y51014806D01*
X6160159Y51065554D01*
X5259605Y50165000D01*
X5273748Y50150857D01*
X5094143Y49971252D01*
X5080000Y49985395D01*
X5065858Y49971252D01*
X4886253Y50150857D01*
X4900395Y50165000D01*
X3999841Y51065554D01*
X3810000Y51001599D01*
X3620159Y51065554D01*
X2719605Y50165000D01*
X2733748Y50150857D01*
X2554143Y49971252D01*
X2540000Y49985395D01*
X2084605Y49530000D01*
X1725395Y49530000D01*
X2360395Y50165000D01*
X1459841Y51065554D01*
X1203357Y50979148D01*
X993542Y50405664D01*
X1019161Y49795540D01*
X1203357Y49350852D01*
X1459841Y49264446D01*
X1524000Y49328605D01*
X1524000Y43616383D01*
X1411265Y43503845D01*
X1215223Y43031724D01*
X1214777Y42520519D01*
X1409995Y42048057D01*
X1524000Y41933853D01*
X1524000Y28916383D01*
X1411265Y28803845D01*
X1215223Y28331724D01*
X1214777Y27820519D01*
X1409995Y27348057D01*
X1524000Y27233853D01*
X1524000Y14216383D01*
X1411265Y14103845D01*
X1215223Y13631724D01*
X1214777Y13120519D01*
X1409995Y12648057D01*
X1524000Y12533853D01*
X1524000Y6350000D01*
X1534006Y6300590D01*
X1562447Y6258965D01*
X1604841Y6231685D01*
X1651000Y6223000D01*
X46067598Y6223000D01*
X45824507Y5979909D01*
X45416009Y5980265D01*
X44851629Y5747068D01*
X44449677Y5345818D01*
X44050643Y5745551D01*
X43486670Y5979733D01*
X42876009Y5980265D01*
X42311629Y5747068D01*
X41909677Y5345818D01*
X41510643Y5745551D01*
X40946670Y5979733D01*
X40336009Y5980265D01*
X39771629Y5747068D01*
X39369677Y5345818D01*
X38970643Y5745551D01*
X38406670Y5979733D01*
X37796009Y5980265D01*
X37231629Y5747068D01*
X36829677Y5345818D01*
X36430643Y5745551D01*
X35866670Y5979733D01*
X35256009Y5980265D01*
X34691629Y5747068D01*
X34289677Y5345818D01*
X33890643Y5745551D01*
X33326670Y5979733D01*
X32716009Y5980265D01*
X32151629Y5747068D01*
X31749677Y5345818D01*
X31350643Y5745551D01*
X30786670Y5979733D01*
X30176009Y5980265D01*
X29611629Y5747068D01*
X29209677Y5345818D01*
X28810643Y5745551D01*
X28246670Y5979733D01*
X27636009Y5980265D01*
X27071629Y5747068D01*
X26669677Y5345818D01*
X26270643Y5745551D01*
X25706670Y5979733D01*
X25096009Y5980265D01*
X24531629Y5747068D01*
X24129677Y5345818D01*
X23730643Y5745551D01*
X23166670Y5979733D01*
X22556009Y5980265D01*
X21991629Y5747068D01*
X21589677Y5345818D01*
X21190643Y5745551D01*
X20626670Y5979733D01*
X20016009Y5980265D01*
X19451629Y5747068D01*
X19049677Y5345818D01*
X18650643Y5745551D01*
X18086670Y5979733D01*
X17476009Y5980265D01*
X16911629Y5747068D01*
X16509677Y5345818D01*
X16110643Y5745551D01*
X15546670Y5979733D01*
X14936009Y5980265D01*
X14371629Y5747068D01*
X13969677Y5345818D01*
X13570643Y5745551D01*
X13006670Y5979733D01*
X12396009Y5980265D01*
X11831629Y5747068D01*
X11429677Y5345818D01*
X11030643Y5745551D01*
X10466670Y5979733D01*
X9856009Y5980265D01*
X9291629Y5747068D01*
X8889677Y5345818D01*
X8490643Y5745551D01*
X7926670Y5979733D01*
X7316009Y5980265D01*
X6751629Y5747068D01*
X6349677Y5345818D01*
X5950643Y5745551D01*
X5386670Y5979733D01*
X4776009Y5980265D01*
X4211629Y5747068D01*
X3809677Y5345818D01*
X3410643Y5745551D01*
X2846670Y5979733D01*
X2236009Y5980265D01*
X1671629Y5747068D01*
X1239449Y5315643D01*
X1005267Y4751670D01*
X1004735Y4141009D01*
X1237932Y3576629D01*
X1639182Y3174677D01*
X1239449Y2775643D01*
X1005267Y2211670D01*
X1004735Y1601009D01*
X1237932Y1036629D01*
X1563990Y710000D01*
X710000Y710000D01*
X710000Y51624841D01*
X1639446Y51624841D01*
X1703401Y51435000D01*
X1639446Y51245159D01*
X2540000Y50344605D01*
X3440554Y51245159D01*
X3376599Y51435000D01*
X3440554Y51624841D01*
X4179446Y51624841D01*
X4243401Y51435000D01*
X4179446Y51245159D01*
X5080000Y50344605D01*
X5980554Y51245159D01*
X5916599Y51435000D01*
X5980554Y51624841D01*
X5080000Y52525395D01*
X4179446Y51624841D01*
X3440554Y51624841D01*
X2540000Y52525395D01*
X1639446Y51624841D01*
X710000Y51624841D01*
X710000Y52945664D01*
X993542Y52945664D01*
X1019161Y52335540D01*
X1203357Y51890852D01*
X1459841Y51804446D01*
X2360395Y52705000D01*
X2719605Y52705000D01*
X3620159Y51804446D01*
X3810000Y51868401D01*
X3999841Y51804446D01*
X4900395Y52705000D01*
X3999841Y53605554D01*
X3810000Y53541599D01*
X3620159Y53605554D01*
X2719605Y52705000D01*
X2360395Y52705000D01*
X1459841Y53605554D01*
X1203357Y53519148D01*
X993542Y52945664D01*
X710000Y52945664D01*
X710000Y53900000D01*
X1678134Y53900000D01*
X1639446Y53785159D01*
G36*
X71934000Y710000D02*
X59281866Y710000D01*
X59320554Y824841D01*
X58420000Y1725395D01*
X57519446Y824841D01*
X57558134Y710000D01*
X56855626Y710000D01*
X57180551Y1034357D01*
X57189203Y1055194D01*
X57339841Y1004446D01*
X58240395Y1905000D01*
X58226253Y1919142D01*
X58405858Y2098747D01*
X58420000Y2084605D01*
X58434143Y2098747D01*
X58613748Y1919142D01*
X58599605Y1905000D01*
X59500159Y1004446D01*
X59756643Y1090852D01*
X59966458Y1664336D01*
X59940839Y2274460D01*
X59756643Y2719148D01*
X59500161Y2805553D01*
X59614718Y2920110D01*
X59572541Y2962287D01*
X59674626Y3004572D01*
X60887599Y1791599D01*
X61009051Y1710448D01*
X61049838Y1493683D01*
X61188910Y1277559D01*
X61401110Y1132569D01*
X61653000Y1081560D01*
X62553000Y1081560D01*
X62788317Y1125838D01*
X63004441Y1264910D01*
X63149431Y1477110D01*
X63168039Y1569000D01*
X64477791Y1569000D01*
X64509838Y1398683D01*
X64648910Y1182559D01*
X64861110Y1037569D01*
X65113000Y986560D01*
X66713000Y986560D01*
X66948317Y1030838D01*
X67164441Y1169910D01*
X67309431Y1382110D01*
X67360440Y1634000D01*
X67360440Y3634000D01*
X67316162Y3869317D01*
X67177090Y4085441D01*
X66964890Y4230431D01*
X66713000Y4281440D01*
X65113000Y4281440D01*
X64877683Y4237162D01*
X64661559Y4098090D01*
X64516569Y3885890D01*
X64465560Y3634000D01*
X64465560Y3089000D01*
X63170334Y3089000D01*
X63156162Y3164317D01*
X63017090Y3380441D01*
X62948994Y3426969D01*
X63091327Y3569302D01*
X63188000Y3802691D01*
X63188000Y4243250D01*
X63029250Y4402000D01*
X62230000Y4402000D01*
X62230000Y4382000D01*
X61976000Y4382000D01*
X61976000Y4402000D01*
X61176750Y4402000D01*
X61018000Y4243250D01*
X61018000Y3810802D01*
X60958000Y3870802D01*
X60958000Y5255309D01*
X61018000Y5255309D01*
X61018000Y4814750D01*
X61176750Y4656000D01*
X61976000Y4656000D01*
X61976000Y5605250D01*
X62230000Y5605250D01*
X62230000Y4656000D01*
X63029250Y4656000D01*
X63188000Y4814750D01*
X63188000Y5255309D01*
X63091327Y5488698D01*
X62912699Y5667327D01*
X62679310Y5764000D01*
X62388750Y5764000D01*
X62230000Y5605250D01*
X61976000Y5605250D01*
X61817250Y5764000D01*
X61526690Y5764000D01*
X61293301Y5667327D01*
X61114673Y5488698D01*
X61018000Y5255309D01*
X60958000Y5255309D01*
X60958000Y5334000D01*
X60900148Y5624839D01*
X60820233Y5744440D01*
X60894999Y5794397D01*
X61323602Y6223000D01*
X62865000Y6223000D01*
X62914410Y6233006D01*
X62956035Y6261447D01*
X62983315Y6303841D01*
X62992000Y6350000D01*
X62992000Y7891398D01*
X63250001Y8149399D01*
X63414748Y8395961D01*
X63472600Y8686800D01*
X63472600Y9399598D01*
X64465560Y8406638D01*
X64465560Y7034000D01*
X64509838Y6798683D01*
X64648910Y6582559D01*
X64861110Y6437569D01*
X65113000Y6386560D01*
X66713000Y6386560D01*
X66948317Y6430838D01*
X67164441Y6569910D01*
X67309431Y6782110D01*
X67360440Y7034000D01*
X67360440Y9034000D01*
X67316162Y9269317D01*
X67177090Y9485441D01*
X66964890Y9630431D01*
X66713000Y9681440D01*
X65340362Y9681440D01*
X64768000Y10253802D01*
X64768000Y13949467D01*
X65031367Y13949238D01*
X65362097Y14085892D01*
X65488330Y13896971D01*
X65974511Y13572115D01*
X66548000Y13458041D01*
X67121489Y13572115D01*
X67607670Y13896971D01*
X67616805Y13910642D01*
X67621238Y13887083D01*
X67760310Y13670959D01*
X67972510Y13525969D01*
X68224400Y13474960D01*
X69951600Y13474960D01*
X70186917Y13519238D01*
X70403041Y13658310D01*
X70548031Y13870510D01*
X70599040Y14122400D01*
X70599040Y15118460D01*
X71364787Y15884208D01*
X71364790Y15884210D01*
X71556633Y16171325D01*
X71624000Y16510000D01*
X71624000Y24129995D01*
X71624001Y24130000D01*
X71567810Y24412484D01*
X71556633Y24468675D01*
X71364790Y24755790D01*
X71364787Y24755792D01*
X67630915Y28489665D01*
X67691000Y28549750D01*
X67691000Y30099000D01*
X67945000Y30099000D01*
X67945000Y28549750D01*
X68103750Y28391000D01*
X69144310Y28391000D01*
X69377699Y28487673D01*
X69556327Y28666302D01*
X69653000Y28899691D01*
X69653000Y29940250D01*
X69494250Y30099000D01*
X67945000Y30099000D01*
X67691000Y30099000D01*
X67671000Y30099000D01*
X67671000Y30353000D01*
X67691000Y30353000D01*
X67691000Y30373000D01*
X67945000Y30373000D01*
X67945000Y30353000D01*
X69494250Y30353000D01*
X69653000Y30511750D01*
X69653000Y31552309D01*
X69556327Y31785698D01*
X69377699Y31964327D01*
X69144310Y32061000D01*
X68593605Y32061000D01*
X68856086Y32169455D01*
X69372730Y32685199D01*
X69652681Y33359395D01*
X69653318Y34089403D01*
X69374545Y34764086D01*
X68858801Y35280730D01*
X68672714Y35358000D01*
X71934000Y35358000D01*
X71934000Y710000D01*
X71934000Y710000D01*
G37*
X71934000Y710000D02*
X59281866Y710000D01*
X59320554Y824841D01*
X58420000Y1725395D01*
X57519446Y824841D01*
X57558134Y710000D01*
X56855626Y710000D01*
X57180551Y1034357D01*
X57189203Y1055194D01*
X57339841Y1004446D01*
X58240395Y1905000D01*
X58226253Y1919142D01*
X58405858Y2098747D01*
X58420000Y2084605D01*
X58434143Y2098747D01*
X58613748Y1919142D01*
X58599605Y1905000D01*
X59500159Y1004446D01*
X59756643Y1090852D01*
X59966458Y1664336D01*
X59940839Y2274460D01*
X59756643Y2719148D01*
X59500161Y2805553D01*
X59614718Y2920110D01*
X59572541Y2962287D01*
X59674626Y3004572D01*
X60887599Y1791599D01*
X61009051Y1710448D01*
X61049838Y1493683D01*
X61188910Y1277559D01*
X61401110Y1132569D01*
X61653000Y1081560D01*
X62553000Y1081560D01*
X62788317Y1125838D01*
X63004441Y1264910D01*
X63149431Y1477110D01*
X63168039Y1569000D01*
X64477791Y1569000D01*
X64509838Y1398683D01*
X64648910Y1182559D01*
X64861110Y1037569D01*
X65113000Y986560D01*
X66713000Y986560D01*
X66948317Y1030838D01*
X67164441Y1169910D01*
X67309431Y1382110D01*
X67360440Y1634000D01*
X67360440Y3634000D01*
X67316162Y3869317D01*
X67177090Y4085441D01*
X66964890Y4230431D01*
X66713000Y4281440D01*
X65113000Y4281440D01*
X64877683Y4237162D01*
X64661559Y4098090D01*
X64516569Y3885890D01*
X64465560Y3634000D01*
X64465560Y3089000D01*
X63170334Y3089000D01*
X63156162Y3164317D01*
X63017090Y3380441D01*
X62948994Y3426969D01*
X63091327Y3569302D01*
X63188000Y3802691D01*
X63188000Y4243250D01*
X63029250Y4402000D01*
X62230000Y4402000D01*
X62230000Y4382000D01*
X61976000Y4382000D01*
X61976000Y4402000D01*
X61176750Y4402000D01*
X61018000Y4243250D01*
X61018000Y3810802D01*
X60958000Y3870802D01*
X60958000Y5255309D01*
X61018000Y5255309D01*
X61018000Y4814750D01*
X61176750Y4656000D01*
X61976000Y4656000D01*
X61976000Y5605250D01*
X62230000Y5605250D01*
X62230000Y4656000D01*
X63029250Y4656000D01*
X63188000Y4814750D01*
X63188000Y5255309D01*
X63091327Y5488698D01*
X62912699Y5667327D01*
X62679310Y5764000D01*
X62388750Y5764000D01*
X62230000Y5605250D01*
X61976000Y5605250D01*
X61817250Y5764000D01*
X61526690Y5764000D01*
X61293301Y5667327D01*
X61114673Y5488698D01*
X61018000Y5255309D01*
X60958000Y5255309D01*
X60958000Y5334000D01*
X60900148Y5624839D01*
X60820233Y5744440D01*
X60894999Y5794397D01*
X61323602Y6223000D01*
X62865000Y6223000D01*
X62914410Y6233006D01*
X62956035Y6261447D01*
X62983315Y6303841D01*
X62992000Y6350000D01*
X62992000Y7891398D01*
X63250001Y8149399D01*
X63414748Y8395961D01*
X63472600Y8686800D01*
X63472600Y9399598D01*
X64465560Y8406638D01*
X64465560Y7034000D01*
X64509838Y6798683D01*
X64648910Y6582559D01*
X64861110Y6437569D01*
X65113000Y6386560D01*
X66713000Y6386560D01*
X66948317Y6430838D01*
X67164441Y6569910D01*
X67309431Y6782110D01*
X67360440Y7034000D01*
X67360440Y9034000D01*
X67316162Y9269317D01*
X67177090Y9485441D01*
X66964890Y9630431D01*
X66713000Y9681440D01*
X65340362Y9681440D01*
X64768000Y10253802D01*
X64768000Y13949467D01*
X65031367Y13949238D01*
X65362097Y14085892D01*
X65488330Y13896971D01*
X65974511Y13572115D01*
X66548000Y13458041D01*
X67121489Y13572115D01*
X67607670Y13896971D01*
X67616805Y13910642D01*
X67621238Y13887083D01*
X67760310Y13670959D01*
X67972510Y13525969D01*
X68224400Y13474960D01*
X69951600Y13474960D01*
X70186917Y13519238D01*
X70403041Y13658310D01*
X70548031Y13870510D01*
X70599040Y14122400D01*
X70599040Y15118460D01*
X71364787Y15884208D01*
X71364790Y15884210D01*
X71556633Y16171325D01*
X71624000Y16510000D01*
X71624000Y24129995D01*
X71624001Y24130000D01*
X71567810Y24412484D01*
X71556633Y24468675D01*
X71364790Y24755790D01*
X71364787Y24755792D01*
X67630915Y28489665D01*
X67691000Y28549750D01*
X67691000Y30099000D01*
X67945000Y30099000D01*
X67945000Y28549750D01*
X68103750Y28391000D01*
X69144310Y28391000D01*
X69377699Y28487673D01*
X69556327Y28666302D01*
X69653000Y28899691D01*
X69653000Y29940250D01*
X69494250Y30099000D01*
X67945000Y30099000D01*
X67691000Y30099000D01*
X67671000Y30099000D01*
X67671000Y30353000D01*
X67691000Y30353000D01*
X67691000Y30373000D01*
X67945000Y30373000D01*
X67945000Y30353000D01*
X69494250Y30353000D01*
X69653000Y30511750D01*
X69653000Y31552309D01*
X69556327Y31785698D01*
X69377699Y31964327D01*
X69144310Y32061000D01*
X68593605Y32061000D01*
X68856086Y32169455D01*
X69372730Y32685199D01*
X69652681Y33359395D01*
X69653318Y34089403D01*
X69374545Y34764086D01*
X68858801Y35280730D01*
X68672714Y35358000D01*
X71934000Y35358000D01*
X71934000Y710000D01*
G36*
X58547000Y4572000D02*
X58567000Y4572000D01*
X58567000Y4318000D01*
X58547000Y4318000D01*
X58547000Y4298000D01*
X58293000Y4298000D01*
X58293000Y4318000D01*
X58273000Y4318000D01*
X58273000Y4572000D01*
X58293000Y4572000D01*
X58293000Y4592000D01*
X58547000Y4592000D01*
X58547000Y4572000D01*
X58547000Y4572000D01*
G37*
X58547000Y4572000D02*
X58567000Y4572000D01*
X58567000Y4318000D01*
X58547000Y4318000D01*
X58547000Y4298000D01*
X58293000Y4298000D01*
X58293000Y4318000D01*
X58273000Y4318000D01*
X58273000Y4572000D01*
X58293000Y4572000D01*
X58293000Y4592000D01*
X58547000Y4592000D01*
X58547000Y4572000D01*
G36*
X65795208Y27314213D02*
X65795210Y27314210D01*
X66047529Y27145617D01*
X66082325Y27122367D01*
X66421000Y27054999D01*
X66421005Y27055000D01*
X66562420Y27055000D01*
X69633839Y23983582D01*
X69447026Y24060958D01*
X69215000Y23939817D01*
X69215000Y22733000D01*
X69235000Y22733000D01*
X69235000Y22479000D01*
X69215000Y22479000D01*
X69215000Y22459000D01*
X68961000Y22459000D01*
X68961000Y22479000D01*
X68941000Y22479000D01*
X68941000Y22733000D01*
X68961000Y22733000D01*
X68961000Y23939817D01*
X68728974Y24060958D01*
X68313053Y23888688D01*
X67881179Y23494490D01*
X67823664Y23371772D01*
X67607670Y23695029D01*
X67121489Y24019885D01*
X66548000Y24133959D01*
X65974511Y24019885D01*
X65488330Y23695029D01*
X65163474Y23208848D01*
X65049400Y22635359D01*
X65049400Y22576641D01*
X65163474Y22003152D01*
X65488330Y21516971D01*
X65759172Y21336000D01*
X65488330Y21155029D01*
X65163474Y20668848D01*
X65049400Y20095359D01*
X65049400Y20036641D01*
X65163474Y19463152D01*
X65488330Y18976971D01*
X65759172Y18796000D01*
X65488330Y18615029D01*
X65163474Y18128848D01*
X65049400Y17555359D01*
X65049400Y17496641D01*
X65114842Y17167644D01*
X64768000Y16820802D01*
X64768000Y28341420D01*
X65795208Y27314213D01*
X65795208Y27314213D01*
G37*
X65795208Y27314213D02*
X65795210Y27314210D01*
X66047529Y27145617D01*
X66082325Y27122367D01*
X66421000Y27054999D01*
X66421005Y27055000D01*
X66562420Y27055000D01*
X69633839Y23983582D01*
X69447026Y24060958D01*
X69215000Y23939817D01*
X69215000Y22733000D01*
X69235000Y22733000D01*
X69235000Y22479000D01*
X69215000Y22479000D01*
X69215000Y22459000D01*
X68961000Y22459000D01*
X68961000Y22479000D01*
X68941000Y22479000D01*
X68941000Y22733000D01*
X68961000Y22733000D01*
X68961000Y23939817D01*
X68728974Y24060958D01*
X68313053Y23888688D01*
X67881179Y23494490D01*
X67823664Y23371772D01*
X67607670Y23695029D01*
X67121489Y24019885D01*
X66548000Y24133959D01*
X65974511Y24019885D01*
X65488330Y23695029D01*
X65163474Y23208848D01*
X65049400Y22635359D01*
X65049400Y22576641D01*
X65163474Y22003152D01*
X65488330Y21516971D01*
X65759172Y21336000D01*
X65488330Y21155029D01*
X65163474Y20668848D01*
X65049400Y20095359D01*
X65049400Y20036641D01*
X65163474Y19463152D01*
X65488330Y18976971D01*
X65759172Y18796000D01*
X65488330Y18615029D01*
X65163474Y18128848D01*
X65049400Y17555359D01*
X65049400Y17496641D01*
X65114842Y17167644D01*
X64768000Y16820802D01*
X64768000Y28341420D01*
X65795208Y27314213D01*
G36*
X52072000Y39270868D02*
X51875799Y39352338D01*
X51503833Y39352662D01*
X51165248Y39212762D01*
X50935765Y39442645D01*
X50518756Y39615803D01*
X50408680Y39615899D01*
X50019580Y40005000D01*
X52072000Y42057421D01*
X52072000Y39270868D01*
X52072000Y39270868D01*
G37*
X52072000Y39270868D02*
X51875799Y39352338D01*
X51503833Y39352662D01*
X51165248Y39212762D01*
X50935765Y39442645D01*
X50518756Y39615803D01*
X50408680Y39615899D01*
X50019580Y40005000D01*
X52072000Y42057421D01*
X52072000Y39270868D01*
G36*
X47364849Y48889000D02*
X47087750Y48889000D01*
X46929000Y48730250D01*
X46929000Y48006000D01*
X46949000Y48006000D01*
X46949000Y47752000D01*
X46929000Y47752000D01*
X46929000Y47027750D01*
X47087750Y46869000D01*
X47395421Y46869000D01*
X46868460Y46342040D01*
X45847000Y46342040D01*
X45611683Y46297762D01*
X45395559Y46158690D01*
X45250569Y45946490D01*
X45203894Y45716000D01*
X44970440Y45716000D01*
X44970440Y47244000D01*
X44926162Y47479317D01*
X44852849Y47593250D01*
X45567000Y47593250D01*
X45567000Y47377690D01*
X45663673Y47144301D01*
X45842302Y46965673D01*
X46075691Y46869000D01*
X46516250Y46869000D01*
X46675000Y47027750D01*
X46675000Y47752000D01*
X45725750Y47752000D01*
X45567000Y47593250D01*
X44852849Y47593250D01*
X44787090Y47695441D01*
X44574890Y47840431D01*
X44323000Y47891440D01*
X42545000Y47891440D01*
X42309683Y47847162D01*
X42093559Y47708090D01*
X41948569Y47495890D01*
X41897560Y47244000D01*
X41897560Y44450000D01*
X41941838Y44214683D01*
X42080910Y43998559D01*
X42163687Y43942000D01*
X41783690Y43942000D01*
X41550301Y43845327D01*
X41371673Y43666698D01*
X41275000Y43433309D01*
X41275000Y42703750D01*
X41433748Y42545002D01*
X41288414Y42545002D01*
X41269162Y42647317D01*
X41130090Y42863441D01*
X40917890Y43008431D01*
X40666000Y43059440D01*
X39466000Y43059440D01*
X39230683Y43015162D01*
X39127354Y42948671D01*
X39125698Y42950327D01*
X38892309Y43047000D01*
X38451750Y43047000D01*
X38293000Y42888250D01*
X38293000Y42164000D01*
X38313000Y42164000D01*
X38313000Y41910000D01*
X38293000Y41910000D01*
X38293000Y41185750D01*
X38451750Y41027000D01*
X38892309Y41027000D01*
X39125698Y41123673D01*
X39127068Y41125043D01*
X39214110Y41065569D01*
X39466000Y41014560D01*
X39966360Y41014560D01*
X40721921Y40259000D01*
X20002500Y40259000D01*
X20002500Y41751250D01*
X36931000Y41751250D01*
X36931000Y41535690D01*
X37027673Y41302301D01*
X37206302Y41123673D01*
X37439691Y41027000D01*
X37880250Y41027000D01*
X38039000Y41185750D01*
X38039000Y41910000D01*
X37089750Y41910000D01*
X36931000Y41751250D01*
X20002500Y41751250D01*
X20002500Y42538310D01*
X36931000Y42538310D01*
X36931000Y42322750D01*
X37089750Y42164000D01*
X38039000Y42164000D01*
X38039000Y42888250D01*
X37880250Y43047000D01*
X37439691Y43047000D01*
X37206302Y42950327D01*
X37027673Y42771699D01*
X36931000Y42538310D01*
X20002500Y42538310D01*
X20002500Y48634764D01*
X20013330Y48630267D01*
X20623991Y48629735D01*
X21188371Y48862932D01*
X21590323Y49264182D01*
X21989357Y48864449D01*
X22553330Y48630267D01*
X23163991Y48629735D01*
X23426455Y48738183D01*
X23427852Y48731161D01*
X23592599Y48484599D01*
X24319508Y47757690D01*
X24302560Y47674000D01*
X24302560Y46474000D01*
X24346838Y46238683D01*
X24485910Y46022559D01*
X24555711Y45974866D01*
X24498559Y45938090D01*
X24353569Y45725890D01*
X24302560Y45474000D01*
X24302560Y44274000D01*
X24346838Y44038683D01*
X24485910Y43822559D01*
X24698110Y43677569D01*
X24950000Y43626560D01*
X25850000Y43626560D01*
X26085317Y43670838D01*
X26301441Y43809910D01*
X26446431Y44022110D01*
X26465039Y44114000D01*
X27251500Y44114000D01*
X27542339Y44171852D01*
X27788901Y44336599D01*
X27978862Y44526560D01*
X29351500Y44526560D01*
X29586817Y44570838D01*
X29802941Y44709910D01*
X29947931Y44922110D01*
X29998940Y45174000D01*
X29998940Y45688250D01*
X32116500Y45688250D01*
X32116500Y45047690D01*
X32213173Y44814301D01*
X32391802Y44635673D01*
X32625191Y44539000D01*
X33465750Y44539000D01*
X33624500Y44697750D01*
X33624500Y45847000D01*
X33878500Y45847000D01*
X33878500Y44697750D01*
X34037250Y44539000D01*
X34877809Y44539000D01*
X35111198Y44635673D01*
X35289827Y44814301D01*
X35386500Y45047690D01*
X35386500Y45561250D01*
X38354000Y45561250D01*
X38354000Y44323690D01*
X38450673Y44090301D01*
X38629302Y43911673D01*
X38862691Y43815000D01*
X39592250Y43815000D01*
X39751000Y43973750D01*
X39751000Y45720000D01*
X40005000Y45720000D01*
X40005000Y43973750D01*
X40163750Y43815000D01*
X40893309Y43815000D01*
X41126698Y43911673D01*
X41305327Y44090301D01*
X41402000Y44323690D01*
X41402000Y45561250D01*
X41243250Y45720000D01*
X40005000Y45720000D01*
X39751000Y45720000D01*
X38512750Y45720000D01*
X38354000Y45561250D01*
X35386500Y45561250D01*
X35386500Y45688250D01*
X35227750Y45847000D01*
X33878500Y45847000D01*
X33624500Y45847000D01*
X32275250Y45847000D01*
X32116500Y45688250D01*
X29998940Y45688250D01*
X29998940Y46774000D01*
X29975174Y46900310D01*
X32116500Y46900310D01*
X32116500Y46259750D01*
X32275250Y46101000D01*
X33624500Y46101000D01*
X33624500Y47250250D01*
X33878500Y47250250D01*
X33878500Y46101000D01*
X35227750Y46101000D01*
X35386500Y46259750D01*
X35386500Y46900310D01*
X35289827Y47133699D01*
X35111198Y47312327D01*
X34971215Y47370310D01*
X38354000Y47370310D01*
X38354000Y46132750D01*
X38512750Y45974000D01*
X39751000Y45974000D01*
X39751000Y47720250D01*
X40005000Y47720250D01*
X40005000Y45974000D01*
X41243250Y45974000D01*
X41402000Y46132750D01*
X41402000Y47370310D01*
X41305327Y47603699D01*
X41126698Y47782327D01*
X40893309Y47879000D01*
X40163750Y47879000D01*
X40005000Y47720250D01*
X39751000Y47720250D01*
X39592250Y47879000D01*
X38862691Y47879000D01*
X38629302Y47782327D01*
X38450673Y47603699D01*
X38354000Y47370310D01*
X34971215Y47370310D01*
X34877809Y47409000D01*
X34037250Y47409000D01*
X33878500Y47250250D01*
X33624500Y47250250D01*
X33465750Y47409000D01*
X32625191Y47409000D01*
X32391802Y47312327D01*
X32213173Y47133699D01*
X32116500Y46900310D01*
X29975174Y46900310D01*
X29954662Y47009317D01*
X29815590Y47225441D01*
X29603390Y47370431D01*
X29351500Y47421440D01*
X27351500Y47421440D01*
X27116183Y47377162D01*
X26900059Y47238090D01*
X26755069Y47025890D01*
X26704060Y46774000D01*
X26704060Y45634000D01*
X26467334Y45634000D01*
X26453162Y45709317D01*
X26314090Y45925441D01*
X26244289Y45973134D01*
X26301441Y46009910D01*
X26446431Y46222110D01*
X26497440Y46474000D01*
X26497440Y47674000D01*
X26453162Y47909317D01*
X26314090Y48125441D01*
X26101890Y48270431D01*
X25919420Y48307382D01*
X25596974Y48629828D01*
X25703991Y48629735D01*
X26268371Y48862932D01*
X26670323Y49264182D01*
X27069357Y48864449D01*
X27633330Y48630267D01*
X28243991Y48629735D01*
X28808371Y48862932D01*
X29210323Y49264182D01*
X29609357Y48864449D01*
X30173330Y48630267D01*
X30783991Y48629735D01*
X31348371Y48862932D01*
X31750323Y49264182D01*
X32149357Y48864449D01*
X32713330Y48630267D01*
X33323991Y48629735D01*
X33888371Y48862932D01*
X34290323Y49264182D01*
X34689357Y48864449D01*
X35253330Y48630267D01*
X35863991Y48629735D01*
X36428371Y48862932D01*
X36830323Y49264182D01*
X37229357Y48864449D01*
X37793330Y48630267D01*
X38403991Y48629735D01*
X38968371Y48862932D01*
X39370323Y49264182D01*
X39769357Y48864449D01*
X40333330Y48630267D01*
X40943991Y48629735D01*
X41508371Y48862932D01*
X41910323Y49264182D01*
X42309357Y48864449D01*
X42873330Y48630267D01*
X43483991Y48629735D01*
X44048371Y48862932D01*
X44450323Y49264182D01*
X44849357Y48864449D01*
X45413330Y48630267D01*
X45680009Y48630035D01*
X45663673Y48613699D01*
X45567000Y48380310D01*
X45567000Y48164750D01*
X45725750Y48006000D01*
X46675000Y48006000D01*
X46675000Y48730250D01*
X46555783Y48849467D01*
X46588371Y48862932D01*
X46990323Y49264182D01*
X47364849Y48889000D01*
X47364849Y48889000D01*
G37*
X47364849Y48889000D02*
X47087750Y48889000D01*
X46929000Y48730250D01*
X46929000Y48006000D01*
X46949000Y48006000D01*
X46949000Y47752000D01*
X46929000Y47752000D01*
X46929000Y47027750D01*
X47087750Y46869000D01*
X47395421Y46869000D01*
X46868460Y46342040D01*
X45847000Y46342040D01*
X45611683Y46297762D01*
X45395559Y46158690D01*
X45250569Y45946490D01*
X45203894Y45716000D01*
X44970440Y45716000D01*
X44970440Y47244000D01*
X44926162Y47479317D01*
X44852849Y47593250D01*
X45567000Y47593250D01*
X45567000Y47377690D01*
X45663673Y47144301D01*
X45842302Y46965673D01*
X46075691Y46869000D01*
X46516250Y46869000D01*
X46675000Y47027750D01*
X46675000Y47752000D01*
X45725750Y47752000D01*
X45567000Y47593250D01*
X44852849Y47593250D01*
X44787090Y47695441D01*
X44574890Y47840431D01*
X44323000Y47891440D01*
X42545000Y47891440D01*
X42309683Y47847162D01*
X42093559Y47708090D01*
X41948569Y47495890D01*
X41897560Y47244000D01*
X41897560Y44450000D01*
X41941838Y44214683D01*
X42080910Y43998559D01*
X42163687Y43942000D01*
X41783690Y43942000D01*
X41550301Y43845327D01*
X41371673Y43666698D01*
X41275000Y43433309D01*
X41275000Y42703750D01*
X41433748Y42545002D01*
X41288414Y42545002D01*
X41269162Y42647317D01*
X41130090Y42863441D01*
X40917890Y43008431D01*
X40666000Y43059440D01*
X39466000Y43059440D01*
X39230683Y43015162D01*
X39127354Y42948671D01*
X39125698Y42950327D01*
X38892309Y43047000D01*
X38451750Y43047000D01*
X38293000Y42888250D01*
X38293000Y42164000D01*
X38313000Y42164000D01*
X38313000Y41910000D01*
X38293000Y41910000D01*
X38293000Y41185750D01*
X38451750Y41027000D01*
X38892309Y41027000D01*
X39125698Y41123673D01*
X39127068Y41125043D01*
X39214110Y41065569D01*
X39466000Y41014560D01*
X39966360Y41014560D01*
X40721921Y40259000D01*
X20002500Y40259000D01*
X20002500Y41751250D01*
X36931000Y41751250D01*
X36931000Y41535690D01*
X37027673Y41302301D01*
X37206302Y41123673D01*
X37439691Y41027000D01*
X37880250Y41027000D01*
X38039000Y41185750D01*
X38039000Y41910000D01*
X37089750Y41910000D01*
X36931000Y41751250D01*
X20002500Y41751250D01*
X20002500Y42538310D01*
X36931000Y42538310D01*
X36931000Y42322750D01*
X37089750Y42164000D01*
X38039000Y42164000D01*
X38039000Y42888250D01*
X37880250Y43047000D01*
X37439691Y43047000D01*
X37206302Y42950327D01*
X37027673Y42771699D01*
X36931000Y42538310D01*
X20002500Y42538310D01*
X20002500Y48634764D01*
X20013330Y48630267D01*
X20623991Y48629735D01*
X21188371Y48862932D01*
X21590323Y49264182D01*
X21989357Y48864449D01*
X22553330Y48630267D01*
X23163991Y48629735D01*
X23426455Y48738183D01*
X23427852Y48731161D01*
X23592599Y48484599D01*
X24319508Y47757690D01*
X24302560Y47674000D01*
X24302560Y46474000D01*
X24346838Y46238683D01*
X24485910Y46022559D01*
X24555711Y45974866D01*
X24498559Y45938090D01*
X24353569Y45725890D01*
X24302560Y45474000D01*
X24302560Y44274000D01*
X24346838Y44038683D01*
X24485910Y43822559D01*
X24698110Y43677569D01*
X24950000Y43626560D01*
X25850000Y43626560D01*
X26085317Y43670838D01*
X26301441Y43809910D01*
X26446431Y44022110D01*
X26465039Y44114000D01*
X27251500Y44114000D01*
X27542339Y44171852D01*
X27788901Y44336599D01*
X27978862Y44526560D01*
X29351500Y44526560D01*
X29586817Y44570838D01*
X29802941Y44709910D01*
X29947931Y44922110D01*
X29998940Y45174000D01*
X29998940Y45688250D01*
X32116500Y45688250D01*
X32116500Y45047690D01*
X32213173Y44814301D01*
X32391802Y44635673D01*
X32625191Y44539000D01*
X33465750Y44539000D01*
X33624500Y44697750D01*
X33624500Y45847000D01*
X33878500Y45847000D01*
X33878500Y44697750D01*
X34037250Y44539000D01*
X34877809Y44539000D01*
X35111198Y44635673D01*
X35289827Y44814301D01*
X35386500Y45047690D01*
X35386500Y45561250D01*
X38354000Y45561250D01*
X38354000Y44323690D01*
X38450673Y44090301D01*
X38629302Y43911673D01*
X38862691Y43815000D01*
X39592250Y43815000D01*
X39751000Y43973750D01*
X39751000Y45720000D01*
X40005000Y45720000D01*
X40005000Y43973750D01*
X40163750Y43815000D01*
X40893309Y43815000D01*
X41126698Y43911673D01*
X41305327Y44090301D01*
X41402000Y44323690D01*
X41402000Y45561250D01*
X41243250Y45720000D01*
X40005000Y45720000D01*
X39751000Y45720000D01*
X38512750Y45720000D01*
X38354000Y45561250D01*
X35386500Y45561250D01*
X35386500Y45688250D01*
X35227750Y45847000D01*
X33878500Y45847000D01*
X33624500Y45847000D01*
X32275250Y45847000D01*
X32116500Y45688250D01*
X29998940Y45688250D01*
X29998940Y46774000D01*
X29975174Y46900310D01*
X32116500Y46900310D01*
X32116500Y46259750D01*
X32275250Y46101000D01*
X33624500Y46101000D01*
X33624500Y47250250D01*
X33878500Y47250250D01*
X33878500Y46101000D01*
X35227750Y46101000D01*
X35386500Y46259750D01*
X35386500Y46900310D01*
X35289827Y47133699D01*
X35111198Y47312327D01*
X34971215Y47370310D01*
X38354000Y47370310D01*
X38354000Y46132750D01*
X38512750Y45974000D01*
X39751000Y45974000D01*
X39751000Y47720250D01*
X40005000Y47720250D01*
X40005000Y45974000D01*
X41243250Y45974000D01*
X41402000Y46132750D01*
X41402000Y47370310D01*
X41305327Y47603699D01*
X41126698Y47782327D01*
X40893309Y47879000D01*
X40163750Y47879000D01*
X40005000Y47720250D01*
X39751000Y47720250D01*
X39592250Y47879000D01*
X38862691Y47879000D01*
X38629302Y47782327D01*
X38450673Y47603699D01*
X38354000Y47370310D01*
X34971215Y47370310D01*
X34877809Y47409000D01*
X34037250Y47409000D01*
X33878500Y47250250D01*
X33624500Y47250250D01*
X33465750Y47409000D01*
X32625191Y47409000D01*
X32391802Y47312327D01*
X32213173Y47133699D01*
X32116500Y46900310D01*
X29975174Y46900310D01*
X29954662Y47009317D01*
X29815590Y47225441D01*
X29603390Y47370431D01*
X29351500Y47421440D01*
X27351500Y47421440D01*
X27116183Y47377162D01*
X26900059Y47238090D01*
X26755069Y47025890D01*
X26704060Y46774000D01*
X26704060Y45634000D01*
X26467334Y45634000D01*
X26453162Y45709317D01*
X26314090Y45925441D01*
X26244289Y45973134D01*
X26301441Y46009910D01*
X26446431Y46222110D01*
X26497440Y46474000D01*
X26497440Y47674000D01*
X26453162Y47909317D01*
X26314090Y48125441D01*
X26101890Y48270431D01*
X25919420Y48307382D01*
X25596974Y48629828D01*
X25703991Y48629735D01*
X26268371Y48862932D01*
X26670323Y49264182D01*
X27069357Y48864449D01*
X27633330Y48630267D01*
X28243991Y48629735D01*
X28808371Y48862932D01*
X29210323Y49264182D01*
X29609357Y48864449D01*
X30173330Y48630267D01*
X30783991Y48629735D01*
X31348371Y48862932D01*
X31750323Y49264182D01*
X32149357Y48864449D01*
X32713330Y48630267D01*
X33323991Y48629735D01*
X33888371Y48862932D01*
X34290323Y49264182D01*
X34689357Y48864449D01*
X35253330Y48630267D01*
X35863991Y48629735D01*
X36428371Y48862932D01*
X36830323Y49264182D01*
X37229357Y48864449D01*
X37793330Y48630267D01*
X38403991Y48629735D01*
X38968371Y48862932D01*
X39370323Y49264182D01*
X39769357Y48864449D01*
X40333330Y48630267D01*
X40943991Y48629735D01*
X41508371Y48862932D01*
X41910323Y49264182D01*
X42309357Y48864449D01*
X42873330Y48630267D01*
X43483991Y48629735D01*
X44048371Y48862932D01*
X44450323Y49264182D01*
X44849357Y48864449D01*
X45413330Y48630267D01*
X45680009Y48630035D01*
X45663673Y48613699D01*
X45567000Y48380310D01*
X45567000Y48164750D01*
X45725750Y48006000D01*
X46675000Y48006000D01*
X46675000Y48730250D01*
X46555783Y48849467D01*
X46588371Y48862932D01*
X46990323Y49264182D01*
X47364849Y48889000D01*
G36*
X50040000Y47505604D02*
X50040000Y43869463D01*
X50007808Y43837327D01*
X49865162Y43493799D01*
X49864838Y43121833D01*
X50006883Y42778057D01*
X50148057Y42636636D01*
X48193402Y40681982D01*
X48107415Y40810670D01*
X47797931Y41017461D01*
X48213732Y41388964D01*
X48467709Y41916209D01*
X48470358Y41931974D01*
X48349217Y42164000D01*
X46990000Y42164000D01*
X46990000Y42144000D01*
X46736000Y42144000D01*
X46736000Y42164000D01*
X45376783Y42164000D01*
X45339000Y42091633D01*
X45339000Y42132250D01*
X45180250Y42291000D01*
X43434000Y42291000D01*
X43434000Y41052750D01*
X43592750Y40894000D01*
X44830310Y40894000D01*
X45063699Y40990673D01*
X45242327Y41169302D01*
X45339000Y41402691D01*
X45339000Y41748661D01*
X45512268Y41388964D01*
X45928069Y41017461D01*
X45618585Y40810670D01*
X45501874Y40636000D01*
X44196005Y40636000D01*
X44196000Y40636001D01*
X43938315Y40584743D01*
X43857325Y40568633D01*
X43602612Y40398440D01*
X43085639Y40398440D01*
X42590079Y40894000D01*
X43021250Y40894000D01*
X43180000Y41052750D01*
X43180000Y42291000D01*
X43160000Y42291000D01*
X43160000Y42545000D01*
X43180000Y42545000D01*
X43180000Y42565000D01*
X43434000Y42565000D01*
X43434000Y42545000D01*
X45180250Y42545000D01*
X45265807Y42630557D01*
X45376783Y42418000D01*
X46736000Y42418000D01*
X46736000Y42438000D01*
X46990000Y42438000D01*
X46990000Y42418000D01*
X48349217Y42418000D01*
X48470358Y42650026D01*
X48467709Y42665791D01*
X48213732Y43193036D01*
X48038155Y43349907D01*
X48114317Y43364238D01*
X48330441Y43503310D01*
X48475431Y43715510D01*
X48526440Y43967400D01*
X48526440Y45496861D01*
X49327787Y46298208D01*
X49327790Y46298210D01*
X49519633Y46585325D01*
X49530810Y46641516D01*
X49587001Y46924000D01*
X49587000Y46924005D01*
X49587000Y46932808D01*
X49753441Y47039910D01*
X49898431Y47252110D01*
X49949440Y47504000D01*
X49949440Y47543208D01*
X50040000Y47505604D01*
X50040000Y47505604D01*
G37*
X50040000Y47505604D02*
X50040000Y43869463D01*
X50007808Y43837327D01*
X49865162Y43493799D01*
X49864838Y43121833D01*
X50006883Y42778057D01*
X50148057Y42636636D01*
X48193402Y40681982D01*
X48107415Y40810670D01*
X47797931Y41017461D01*
X48213732Y41388964D01*
X48467709Y41916209D01*
X48470358Y41931974D01*
X48349217Y42164000D01*
X46990000Y42164000D01*
X46990000Y42144000D01*
X46736000Y42144000D01*
X46736000Y42164000D01*
X45376783Y42164000D01*
X45339000Y42091633D01*
X45339000Y42132250D01*
X45180250Y42291000D01*
X43434000Y42291000D01*
X43434000Y41052750D01*
X43592750Y40894000D01*
X44830310Y40894000D01*
X45063699Y40990673D01*
X45242327Y41169302D01*
X45339000Y41402691D01*
X45339000Y41748661D01*
X45512268Y41388964D01*
X45928069Y41017461D01*
X45618585Y40810670D01*
X45501874Y40636000D01*
X44196005Y40636000D01*
X44196000Y40636001D01*
X43938315Y40584743D01*
X43857325Y40568633D01*
X43602612Y40398440D01*
X43085639Y40398440D01*
X42590079Y40894000D01*
X43021250Y40894000D01*
X43180000Y41052750D01*
X43180000Y42291000D01*
X43160000Y42291000D01*
X43160000Y42545000D01*
X43180000Y42545000D01*
X43180000Y42565000D01*
X43434000Y42565000D01*
X43434000Y42545000D01*
X45180250Y42545000D01*
X45265807Y42630557D01*
X45376783Y42418000D01*
X46736000Y42418000D01*
X46736000Y42438000D01*
X46990000Y42438000D01*
X46990000Y42418000D01*
X48349217Y42418000D01*
X48470358Y42650026D01*
X48467709Y42665791D01*
X48213732Y43193036D01*
X48038155Y43349907D01*
X48114317Y43364238D01*
X48330441Y43503310D01*
X48475431Y43715510D01*
X48526440Y43967400D01*
X48526440Y45496861D01*
X49327787Y46298208D01*
X49327790Y46298210D01*
X49519633Y46585325D01*
X49530810Y46641516D01*
X49587001Y46924000D01*
X49587000Y46924005D01*
X49587000Y46932808D01*
X49753441Y47039910D01*
X49898431Y47252110D01*
X49949440Y47504000D01*
X49949440Y47543208D01*
X50040000Y47505604D01*
G36*
X71934000Y48906500D02*
X68180129Y48906500D01*
X68182490Y48912201D01*
X68182490Y49752250D01*
X68023740Y49911000D01*
X66675000Y49911000D01*
X66675000Y49891000D01*
X66421000Y49891000D01*
X66421000Y49911000D01*
X65072260Y49911000D01*
X64913510Y49752250D01*
X64913510Y48912201D01*
X64915871Y48906500D01*
X62858080Y48906500D01*
X64913510Y50961931D01*
X64913510Y50323750D01*
X65072260Y50165000D01*
X66421000Y50165000D01*
X66421000Y50185000D01*
X66675000Y50185000D01*
X66675000Y50165000D01*
X68023740Y50165000D01*
X68182490Y50323750D01*
X68182490Y51163799D01*
X68085817Y51397188D01*
X67907189Y51575817D01*
X67844987Y51601582D01*
X68058072Y51920486D01*
X68182490Y52545978D01*
X68182490Y52610022D01*
X68058072Y53235514D01*
X67703759Y53765781D01*
X67502886Y53900000D01*
X71934000Y53900000D01*
X71934000Y48906500D01*
X71934000Y48906500D01*
G37*
X71934000Y48906500D02*
X68180129Y48906500D01*
X68182490Y48912201D01*
X68182490Y49752250D01*
X68023740Y49911000D01*
X66675000Y49911000D01*
X66675000Y49891000D01*
X66421000Y49891000D01*
X66421000Y49911000D01*
X65072260Y49911000D01*
X64913510Y49752250D01*
X64913510Y48912201D01*
X64915871Y48906500D01*
X62858080Y48906500D01*
X64913510Y50961931D01*
X64913510Y50323750D01*
X65072260Y50165000D01*
X66421000Y50165000D01*
X66421000Y50185000D01*
X66675000Y50185000D01*
X66675000Y50165000D01*
X68023740Y50165000D01*
X68182490Y50323750D01*
X68182490Y51163799D01*
X68085817Y51397188D01*
X67907189Y51575817D01*
X67844987Y51601582D01*
X68058072Y51920486D01*
X68182490Y52545978D01*
X68182490Y52610022D01*
X68058072Y53235514D01*
X67703759Y53765781D01*
X67502886Y53900000D01*
X71934000Y53900000D01*
X71934000Y48906500D01*
G36*
X65392241Y53765781D02*
X65137231Y53384131D01*
X64875825Y53332133D01*
X64588710Y53140290D01*
X64588708Y53140287D01*
X60974420Y49526000D01*
X59820723Y49526000D01*
X59966458Y49924336D01*
X59940839Y50534460D01*
X59756643Y50979148D01*
X59500161Y51065553D01*
X59614718Y51180110D01*
X59572541Y51222287D01*
X59679698Y51266673D01*
X59858327Y51445301D01*
X59955000Y51678690D01*
X59955000Y52419250D01*
X59796250Y52578000D01*
X58547000Y52578000D01*
X58547000Y52558000D01*
X58293000Y52558000D01*
X58293000Y52578000D01*
X58273000Y52578000D01*
X58273000Y52832000D01*
X58293000Y52832000D01*
X58293000Y52852000D01*
X58547000Y52852000D01*
X58547000Y52832000D01*
X59796250Y52832000D01*
X59955000Y52990750D01*
X59955000Y53731310D01*
X59885126Y53900000D01*
X65593114Y53900000D01*
X65392241Y53765781D01*
X65392241Y53765781D01*
G37*
X65392241Y53765781D02*
X65137231Y53384131D01*
X64875825Y53332133D01*
X64588710Y53140290D01*
X64588708Y53140287D01*
X60974420Y49526000D01*
X59820723Y49526000D01*
X59966458Y49924336D01*
X59940839Y50534460D01*
X59756643Y50979148D01*
X59500161Y51065553D01*
X59614718Y51180110D01*
X59572541Y51222287D01*
X59679698Y51266673D01*
X59858327Y51445301D01*
X59955000Y51678690D01*
X59955000Y52419250D01*
X59796250Y52578000D01*
X58547000Y52578000D01*
X58547000Y52558000D01*
X58293000Y52558000D01*
X58293000Y52578000D01*
X58273000Y52578000D01*
X58273000Y52832000D01*
X58293000Y52832000D01*
X58293000Y52852000D01*
X58547000Y52852000D01*
X58547000Y52832000D01*
X59796250Y52832000D01*
X59955000Y52990750D01*
X59955000Y53731310D01*
X59885126Y53900000D01*
X65593114Y53900000D01*
X65392241Y53765781D01*
G36*
X58613748Y50179142D02*
X58599605Y50165000D01*
X58613748Y50150857D01*
X58434143Y49971252D01*
X58420000Y49985395D01*
X58405858Y49971252D01*
X58226253Y50150857D01*
X58240395Y50165000D01*
X58226253Y50179142D01*
X58405858Y50358747D01*
X58420000Y50344605D01*
X58434143Y50358747D01*
X58613748Y50179142D01*
X58613748Y50179142D01*
G37*
X58613748Y50179142D02*
X58599605Y50165000D01*
X58613748Y50150857D01*
X58434143Y49971252D01*
X58420000Y49985395D01*
X58405858Y49971252D01*
X58226253Y50150857D01*
X58240395Y50165000D01*
X58226253Y50179142D01*
X58405858Y50358747D01*
X58420000Y50344605D01*
X58434143Y50358747D01*
X58613748Y50179142D01*
M02*
