G04 #@! TF.FileFunction,Paste,Top*
%FSLAX46Y46*%
G04 Gerber Fmt 4.6, Leading zero omitted, Abs format (unit mm)*
G04 Created by KiCad (PCBNEW 4.0.2+dfsg1-stable) date Mon 24 Oct 2016 13:43:27 CEST*
%MOMM*%
G01*
G04 APERTURE LIST*
%ADD10C,0.100000*%
%ADD11C,0.150000*%
%ADD12R,2.000000X2.000000*%
%ADD13R,1.200000X0.750000*%
%ADD14R,1.524000X2.032000*%
%ADD15R,0.900000X1.200000*%
%ADD16R,1.200000X0.900000*%
%ADD17R,2.000000X1.600000*%
%ADD18R,1.600000X2.000000*%
%ADD19R,1.500000X0.600000*%
%ADD20R,1.778000X2.794000*%
%ADD21R,2.794000X1.778000*%
G04 APERTURE END LIST*
D10*
D11*
X72644000Y48196500D02*
X72644000Y54610000D01*
X72644000Y36068000D02*
X72644000Y0D01*
X54800500Y36068000D02*
X72644000Y36068000D01*
X54800500Y48196500D02*
X54800500Y36068000D01*
X72644000Y48196500D02*
X54800500Y48196500D01*
X72644000Y0D02*
X0Y0D01*
X0Y54610000D02*
X72644000Y54610000D01*
X0Y0D02*
X0Y54610000D01*
D12*
X10250000Y38775000D03*
X13450000Y42775000D03*
X10250000Y46775000D03*
X3500000Y38275000D03*
X3500000Y47275000D03*
D13*
X37150000Y28575000D03*
X39050000Y28575000D03*
X37150000Y30480000D03*
X39050000Y30480000D03*
X37150000Y24765000D03*
X39050000Y24765000D03*
X37150000Y34290000D03*
X39050000Y34290000D03*
X32700000Y22860000D03*
X30800000Y22860000D03*
D14*
X37084000Y22225000D03*
X40386000Y22225000D03*
X32575500Y36830000D03*
X29273500Y36830000D03*
D13*
X26350000Y30480000D03*
X24450000Y30480000D03*
X26350000Y28575000D03*
X24450000Y28575000D03*
X26350000Y34290000D03*
X24450000Y34290000D03*
X26350000Y24765000D03*
X24450000Y24765000D03*
D14*
X26416000Y36830000D03*
X23114000Y36830000D03*
X26416000Y22225000D03*
X23114000Y22225000D03*
D13*
X47945000Y30480000D03*
X49845000Y30480000D03*
X49845000Y28575000D03*
X47945000Y28575000D03*
X49845000Y34290000D03*
X47945000Y34290000D03*
X49845000Y24765000D03*
X47945000Y24765000D03*
D14*
X38862000Y36830000D03*
X35560000Y36830000D03*
X49911000Y22225000D03*
X46609000Y22225000D03*
D15*
X25400000Y47074000D03*
X25400000Y44874000D03*
X61595000Y23030000D03*
X61595000Y25230000D03*
X61595000Y27475000D03*
X61595000Y29675000D03*
D16*
X37508000Y17145000D03*
X39708000Y17145000D03*
D15*
X42545000Y22182000D03*
X42545000Y19982000D03*
D16*
X37000000Y26670000D03*
X39200000Y26670000D03*
X37000000Y32385000D03*
X39200000Y32385000D03*
D15*
X29718000Y19642000D03*
X29718000Y17442000D03*
X24638000Y19642000D03*
X24638000Y17442000D03*
D16*
X26500000Y32385000D03*
X24300000Y32385000D03*
X26500000Y26670000D03*
X24300000Y26670000D03*
D15*
X62103000Y2329000D03*
X62103000Y4529000D03*
X44577000Y22182000D03*
X44577000Y19982000D03*
D16*
X47922000Y19685000D03*
X50122000Y19685000D03*
X49995000Y32385000D03*
X47795000Y32385000D03*
X49995000Y26670000D03*
X47795000Y26670000D03*
D17*
X28351500Y45974000D03*
X33751500Y45974000D03*
D18*
X65913000Y2634000D03*
X65913000Y8034000D03*
D19*
X34450000Y25400000D03*
X34450000Y26670000D03*
X34450000Y27940000D03*
X34450000Y29210000D03*
X34450000Y30480000D03*
X34450000Y31750000D03*
X34450000Y33020000D03*
X29050000Y33020000D03*
X29050000Y31750000D03*
X29050000Y30480000D03*
X29050000Y29210000D03*
X29050000Y27940000D03*
X29050000Y26670000D03*
X29050000Y25400000D03*
X53180000Y33655000D03*
X53180000Y32385000D03*
X53180000Y31115000D03*
X53180000Y29845000D03*
X53180000Y28575000D03*
X53180000Y27305000D03*
X53180000Y26035000D03*
X58580000Y26035000D03*
X58580000Y27305000D03*
X58580000Y28575000D03*
X58580000Y29845000D03*
X58580000Y31115000D03*
X58580000Y32385000D03*
X58580000Y33655000D03*
D13*
X54930000Y23495000D03*
X56830000Y23495000D03*
D20*
X43434000Y45847000D03*
X39878000Y45847000D03*
D21*
X43307000Y38862000D03*
X43307000Y42418000D03*
D13*
X48702000Y47879000D03*
X46802000Y47879000D03*
X40066000Y42037000D03*
X38166000Y42037000D03*
D12*
X10250000Y24075000D03*
X13450000Y28075000D03*
X10250000Y32075000D03*
X3500000Y23575000D03*
X3500000Y32575000D03*
X10250000Y9375000D03*
X13450000Y13375000D03*
X10250000Y17375000D03*
X3500000Y8875000D03*
X3500000Y17875000D03*
D16*
X18689500Y35750500D03*
X16489500Y35750500D03*
D15*
X42481500Y14435000D03*
X42481500Y12235000D03*
D16*
X16489500Y37846000D03*
X18689500Y37846000D03*
D15*
X39941500Y14435000D03*
X39941500Y12235000D03*
D16*
X37508000Y19621500D03*
X39708000Y19621500D03*
D15*
X37465000Y14435000D03*
X37465000Y12235000D03*
X22161500Y17292500D03*
X22161500Y15092500D03*
X14325000Y33535800D03*
X14325000Y31335800D03*
X14351000Y38016000D03*
X14351000Y40216000D03*
X20701000Y24214000D03*
X20701000Y22014000D03*
X34798000Y14435000D03*
X34798000Y12235000D03*
D16*
X43667500Y17145000D03*
X45867500Y17145000D03*
D15*
X45148500Y14435000D03*
X45148500Y12235000D03*
X17335500Y42883000D03*
X17335500Y40683000D03*
X47815500Y14435000D03*
X47815500Y12235000D03*
X14351000Y22903000D03*
X14351000Y25103000D03*
X22161500Y10203000D03*
X22161500Y12403000D03*
D16*
X16657500Y45212000D03*
X14457500Y45212000D03*
D15*
X58420000Y12489000D03*
X58420000Y14689000D03*
D16*
X59225000Y20955000D03*
X61425000Y20955000D03*
X11727000Y35433000D03*
X13927000Y35433000D03*
X7028000Y35433000D03*
X9228000Y35433000D03*
D15*
X14351000Y18689500D03*
X14351000Y16489500D03*
D16*
X9695000Y20764500D03*
X11895000Y20764500D03*
X14457500Y47307500D03*
X16657500Y47307500D03*
D15*
X14287500Y8425000D03*
X14287500Y10625000D03*
M02*
