M48
;DRILL file {KiCad 4.0.2+dfsg1-stable} date Thu 20 Oct 2016 16:32:55 CEST
;FORMAT={-:-/ absolute / metric / decimal}
FMAT,2
METRIC,TZ
T1C0.400
T2C0.600
T3C1.016
T4C1.097
T5C1.100
%
G90
G05
M71
T1
X12.7Y40.767
X12.954Y32.893
X12.954Y28.829
X13.081Y21.209
X15.621Y14.478
X16.637Y35.433
X20.447Y22.733
X20.701Y18.542
X21.209Y35.306
X21.463Y20.828
X22.479Y25.527
X22.86Y28.575
X26.924Y17.399
X29.21Y24.384
X29.972Y35.433
X30.861Y12.7
X31.369Y17.526
X32.385Y29.21
X33.401Y35.306
X40.259Y20.447
X40.64Y28.575
X40.64Y18.288
X42.418Y35.433
X44.577Y35.433
X46.228Y20.32
X46.355Y28.575
X48.26Y18.288
X53.213Y48.387
X53.594Y17.399
X55.245Y29.845
X59.69Y24.765
X62.865Y7.62
T2
X31.369Y24.257
X36.449Y44.958
X39.751Y44.958
X56.261Y24.638
X60.325Y30.988
T3
X2.54Y10.16
X2.54Y7.62
X5.08Y10.16
X5.08Y7.62
X7.62Y10.16
X7.62Y7.62
X10.16Y10.16
X10.16Y7.62
X17.78Y32.385
X17.78Y29.845
X17.78Y27.305
X17.78Y24.765
X17.78Y22.225
X17.78Y19.685
X17.78Y17.145
X17.78Y14.605
X17.78Y12.065
X17.78Y9.525
X35.56Y9.525
X38.1Y9.525
X40.64Y9.525
X43.18Y9.525
X45.72Y9.525
X48.26Y9.525
X50.8Y9.525
X53.34Y9.525
X55.88Y9.525
X58.42Y9.525
X63.881Y43.942
X63.881Y41.402
X63.881Y38.862
T4
X67.056Y51.689
X67.056Y49.149
X67.183Y33.782
X67.183Y31.242
T5
X2.54Y52.705
X2.54Y50.165
X2.54Y4.445
X2.54Y1.905
X5.08Y52.705
X5.08Y50.165
X5.08Y4.445
X5.08Y1.905
X7.62Y52.705
X7.62Y50.165
X7.62Y4.445
X7.62Y1.905
X10.16Y52.705
X10.16Y50.165
X10.16Y4.445
X10.16Y1.905
X12.7Y52.705
X12.7Y50.165
X12.7Y4.445
X12.7Y1.905
X15.24Y52.705
X15.24Y50.165
X15.24Y4.445
X15.24Y1.905
X17.78Y52.705
X17.78Y50.165
X17.78Y4.445
X17.78Y1.905
X20.32Y52.705
X20.32Y50.165
X20.32Y4.445
X20.32Y1.905
X22.86Y52.705
X22.86Y50.165
X22.86Y4.445
X22.86Y1.905
X25.4Y52.705
X25.4Y50.165
X25.4Y4.445
X25.4Y1.905
X27.94Y52.705
X27.94Y50.165
X27.94Y4.445
X27.94Y1.905
X30.48Y52.705
X30.48Y50.165
X30.48Y4.445
X30.48Y1.905
X33.02Y52.705
X33.02Y50.165
X33.02Y4.445
X33.02Y1.905
X35.56Y52.705
X35.56Y50.165
X35.56Y4.445
X35.56Y1.905
X38.1Y52.705
X38.1Y50.165
X38.1Y4.445
X38.1Y1.905
X40.64Y52.705
X40.64Y50.165
X40.64Y4.445
X40.64Y1.905
X43.18Y52.705
X43.18Y50.165
X43.18Y4.445
X43.18Y1.905
X45.72Y52.705
X45.72Y50.165
X45.72Y4.445
X45.72Y1.905
X48.26Y52.705
X48.26Y50.165
X48.26Y4.445
X48.26Y1.905
X50.8Y52.705
X50.8Y50.165
X50.8Y4.445
X50.8Y1.905
X53.34Y52.705
X53.34Y50.165
X53.34Y4.445
X53.34Y1.905
X55.88Y52.705
X55.88Y50.165
X55.88Y4.445
X55.88Y1.905
X58.42Y52.705
X58.42Y50.165
X58.42Y4.445
X58.42Y1.905
T0
M30
