G04 #@! TF.FileFunction,Copper,L1,Top,Signal*
%FSLAX46Y46*%
G04 Gerber Fmt 4.6, Leading zero omitted, Abs format (unit mm)*
G04 Created by KiCad (PCBNEW 4.0.2+dfsg1-stable) date Wed 19 Oct 2016 21:43:22 CEST*
%MOMM*%
G01*
G04 APERTURE LIST*
%ADD10C,0.100000*%
%ADD11C,0.150000*%
%ADD12R,1.800000X1.800000*%
%ADD13C,1.800000*%
%ADD14R,1.200000X0.750000*%
%ADD15R,1.524000X2.032000*%
%ADD16R,2.032000X1.727200*%
%ADD17O,2.032000X1.727200*%
%ADD18R,1.727200X2.032000*%
%ADD19O,1.727200X2.032000*%
%ADD20R,0.900000X1.200000*%
%ADD21R,1.200000X0.900000*%
%ADD22R,2.000000X1.600000*%
%ADD23R,1.600000X2.000000*%
%ADD24R,1.500000X0.600000*%
%ADD25R,1.727200X1.727200*%
%ADD26O,1.727200X1.727200*%
%ADD27O,1.998980X1.998980*%
%ADD28R,1.998980X1.998980*%
%ADD29R,1.778000X2.794000*%
%ADD30R,2.794000X1.778000*%
%ADD31C,0.600000*%
%ADD32C,0.250000*%
%ADD33C,0.500000*%
%ADD34C,0.254000*%
G04 APERTURE END LIST*
D10*
D11*
X70485000Y0D02*
X0Y0D01*
X70485000Y54610000D02*
X70485000Y0D01*
X0Y54610000D02*
X70485000Y54610000D01*
X0Y0D02*
X0Y54610000D01*
D12*
X58420000Y52705000D03*
D13*
X58420000Y50165000D03*
X55880000Y52705000D03*
X55880000Y50165000D03*
X53340000Y52705000D03*
X53340000Y50165000D03*
X50800000Y52705000D03*
X50800000Y50165000D03*
X48260000Y52705000D03*
X48260000Y50165000D03*
X45720000Y52705000D03*
X45720000Y50165000D03*
X43180000Y52705000D03*
X43180000Y50165000D03*
X40640000Y52705000D03*
X40640000Y50165000D03*
X38100000Y52705000D03*
X38100000Y50165000D03*
X35560000Y52705000D03*
X35560000Y50165000D03*
X33020000Y52705000D03*
X33020000Y50165000D03*
X30480000Y52705000D03*
X30480000Y50165000D03*
X27940000Y52705000D03*
X27940000Y50165000D03*
X25400000Y52705000D03*
X25400000Y50165000D03*
X22860000Y52705000D03*
X22860000Y50165000D03*
X20320000Y52705000D03*
X20320000Y50165000D03*
X17780000Y52705000D03*
X17780000Y50165000D03*
X15240000Y52705000D03*
X15240000Y50165000D03*
X12700000Y52705000D03*
X12700000Y50165000D03*
X10160000Y52705000D03*
X10160000Y50165000D03*
X7620000Y52705000D03*
X7620000Y50165000D03*
X5080000Y52705000D03*
X5080000Y50165000D03*
X2540000Y52705000D03*
X2540000Y50165000D03*
D12*
X58420000Y4445000D03*
D13*
X58420000Y1905000D03*
X55880000Y4445000D03*
X55880000Y1905000D03*
X53340000Y4445000D03*
X53340000Y1905000D03*
X50800000Y4445000D03*
X50800000Y1905000D03*
X48260000Y4445000D03*
X48260000Y1905000D03*
X45720000Y4445000D03*
X45720000Y1905000D03*
X43180000Y4445000D03*
X43180000Y1905000D03*
X40640000Y4445000D03*
X40640000Y1905000D03*
X38100000Y4445000D03*
X38100000Y1905000D03*
X35560000Y4445000D03*
X35560000Y1905000D03*
X33020000Y4445000D03*
X33020000Y1905000D03*
X30480000Y4445000D03*
X30480000Y1905000D03*
X27940000Y4445000D03*
X27940000Y1905000D03*
X25400000Y4445000D03*
X25400000Y1905000D03*
X22860000Y4445000D03*
X22860000Y1905000D03*
X20320000Y4445000D03*
X20320000Y1905000D03*
X17780000Y4445000D03*
X17780000Y1905000D03*
X15240000Y4445000D03*
X15240000Y1905000D03*
X12700000Y4445000D03*
X12700000Y1905000D03*
X10160000Y4445000D03*
X10160000Y1905000D03*
X7620000Y4445000D03*
X7620000Y1905000D03*
X5080000Y4445000D03*
X5080000Y1905000D03*
X2540000Y4445000D03*
X2540000Y1905000D03*
D14*
X37150000Y28575000D03*
X39050000Y28575000D03*
X37150000Y30480000D03*
X39050000Y30480000D03*
X37150000Y24765000D03*
X39050000Y24765000D03*
X37150000Y34290000D03*
X39050000Y34290000D03*
X32700000Y22860000D03*
X30800000Y22860000D03*
D15*
X37084000Y22225000D03*
X40386000Y22225000D03*
X37084000Y36830000D03*
X40386000Y36830000D03*
D14*
X26350000Y30480000D03*
X24450000Y30480000D03*
X26350000Y28575000D03*
X24450000Y28575000D03*
X26350000Y34290000D03*
X24450000Y34290000D03*
X26350000Y24765000D03*
X24450000Y24765000D03*
D15*
X26416000Y36830000D03*
X23114000Y36830000D03*
X26416000Y22225000D03*
X23114000Y22225000D03*
D14*
X47945000Y30480000D03*
X49845000Y30480000D03*
X49845000Y28575000D03*
X47945000Y28575000D03*
X49845000Y34290000D03*
X47945000Y34290000D03*
X49845000Y24765000D03*
X47945000Y24765000D03*
D15*
X49911000Y36830000D03*
X46609000Y36830000D03*
X49911000Y22225000D03*
X46609000Y22225000D03*
D16*
X17780000Y32385000D03*
D17*
X17780000Y29845000D03*
X17780000Y27305000D03*
X17780000Y24765000D03*
X17780000Y22225000D03*
X17780000Y19685000D03*
X17780000Y17145000D03*
X17780000Y14605000D03*
X17780000Y12065000D03*
X17780000Y9525000D03*
D18*
X35560000Y9525000D03*
D19*
X38100000Y9525000D03*
X40640000Y9525000D03*
X43180000Y9525000D03*
X45720000Y9525000D03*
X48260000Y9525000D03*
X50800000Y9525000D03*
X53340000Y9525000D03*
X55880000Y9525000D03*
X58420000Y9525000D03*
D16*
X10160000Y34290000D03*
D17*
X10160000Y31750000D03*
X10160000Y29210000D03*
X10160000Y26670000D03*
D16*
X10160000Y22225000D03*
D17*
X10160000Y19685000D03*
X10160000Y17145000D03*
X10160000Y14605000D03*
D16*
X10160000Y46355000D03*
D17*
X10160000Y43815000D03*
X10160000Y41275000D03*
X10160000Y38735000D03*
D20*
X49149000Y45423000D03*
X49149000Y43223000D03*
X61595000Y23030000D03*
X61595000Y25230000D03*
X61595000Y27475000D03*
X61595000Y29675000D03*
X40640000Y15705000D03*
X40640000Y13505000D03*
X43180000Y15705000D03*
X43180000Y13505000D03*
D21*
X37000000Y26670000D03*
X39200000Y26670000D03*
X37000000Y32385000D03*
X39200000Y32385000D03*
D20*
X38100000Y15705000D03*
X38100000Y13505000D03*
X35560000Y15705000D03*
X35560000Y13505000D03*
D21*
X26500000Y32385000D03*
X24300000Y32385000D03*
X26500000Y26670000D03*
X24300000Y26670000D03*
X64600000Y4445000D03*
X62400000Y4445000D03*
D20*
X45720000Y15705000D03*
X45720000Y13505000D03*
X48260000Y15705000D03*
X48260000Y13505000D03*
D21*
X49995000Y32385000D03*
X47795000Y32385000D03*
X49995000Y26670000D03*
X47795000Y26670000D03*
D22*
X51910000Y44069000D03*
X57310000Y44069000D03*
D23*
X66040000Y8095000D03*
X66040000Y13495000D03*
D24*
X34450000Y25400000D03*
X34450000Y26670000D03*
X34450000Y27940000D03*
X34450000Y29210000D03*
X34450000Y30480000D03*
X34450000Y31750000D03*
X34450000Y33020000D03*
X29050000Y33020000D03*
X29050000Y31750000D03*
X29050000Y30480000D03*
X29050000Y29210000D03*
X29050000Y27940000D03*
X29050000Y26670000D03*
X29050000Y25400000D03*
X53180000Y33655000D03*
X53180000Y32385000D03*
X53180000Y31115000D03*
X53180000Y29845000D03*
X53180000Y28575000D03*
X53180000Y27305000D03*
X53180000Y26035000D03*
X58580000Y26035000D03*
X58580000Y27305000D03*
X58580000Y28575000D03*
X58580000Y29845000D03*
X58580000Y31115000D03*
X58580000Y32385000D03*
X58580000Y33655000D03*
D25*
X2540000Y10160000D03*
D26*
X2540000Y7620000D03*
X5080000Y10160000D03*
X5080000Y7620000D03*
X7620000Y10160000D03*
X7620000Y7620000D03*
X10160000Y10160000D03*
X10160000Y7620000D03*
D27*
X65405000Y49530000D03*
D28*
X67945000Y49530000D03*
D16*
X65405000Y37465000D03*
D17*
X65405000Y40005000D03*
X65405000Y42545000D03*
D14*
X54930000Y23495000D03*
X56830000Y23495000D03*
D29*
X61214000Y38227000D03*
X57658000Y38227000D03*
D30*
X61214000Y45593000D03*
X61214000Y42037000D03*
D31*
X22860000Y28575000D03*
X40640000Y28575000D03*
X46355000Y28575000D03*
X59690000Y24765000D03*
X55245000Y29845000D03*
X32385000Y29210000D03*
X55880000Y22225000D03*
X60325000Y22225000D03*
X62865000Y7620000D03*
X40640000Y24130000D03*
X22225000Y24130000D03*
X27940000Y19685000D03*
X43180000Y25400000D03*
X45720000Y24765000D03*
X13335000Y46990000D03*
X52705000Y46990000D03*
X20955000Y34925000D03*
X30480000Y34925000D03*
X36830000Y16510000D03*
X46355000Y20320000D03*
X52705000Y21590000D03*
X43180000Y21590000D03*
X57150000Y20955000D03*
X31750000Y21590000D03*
D32*
X37150000Y28575000D02*
X36195000Y28575000D01*
X35560000Y27940000D02*
X34450000Y27940000D01*
X36195000Y28575000D02*
X35560000Y27940000D01*
X37000000Y26670000D02*
X37000000Y28425000D01*
X37000000Y28425000D02*
X37150000Y28575000D01*
X22860000Y28575000D02*
X24450000Y28575000D01*
X40640000Y28575000D02*
X39050000Y28575000D01*
X58580000Y26035000D02*
X58580000Y25875000D01*
X58580000Y25875000D02*
X59690000Y24765000D01*
X46355000Y28575000D02*
X47945000Y28575000D01*
X58580000Y26035000D02*
X58580000Y27305000D01*
X47945000Y28575000D02*
X47945000Y28895000D01*
X47945000Y28895000D02*
X49530000Y30480000D01*
X49530000Y30480000D02*
X49845000Y30480000D01*
X39050000Y28575000D02*
X39050000Y30480000D01*
X24450000Y30480000D02*
X24450000Y28575000D01*
X37150000Y30480000D02*
X37150000Y32235000D01*
X37150000Y32235000D02*
X37000000Y32385000D01*
X37150000Y30480000D02*
X34450000Y30480000D01*
X34450000Y25400000D02*
X34450000Y26670000D01*
X37150000Y24765000D02*
X35085000Y24765000D01*
X35085000Y24765000D02*
X34450000Y25400000D01*
X37084000Y22225000D02*
X37084000Y24699000D01*
X37084000Y24699000D02*
X37150000Y24765000D01*
X40640000Y15705000D02*
X40640000Y18415000D01*
X39050000Y20005000D02*
X39050000Y24765000D01*
X40640000Y18415000D02*
X39050000Y20005000D01*
X39050000Y24765000D02*
X39050000Y26520000D01*
X39050000Y26520000D02*
X39200000Y26670000D01*
X37150000Y34290000D02*
X37150000Y36764000D01*
X37150000Y36764000D02*
X37084000Y36830000D01*
X34450000Y33020000D02*
X34925000Y33020000D01*
X34925000Y33020000D02*
X36195000Y34290000D01*
X36195000Y34290000D02*
X37150000Y34290000D01*
X34450000Y31750000D02*
X34450000Y33020000D01*
X43180000Y15705000D02*
X43180000Y16510000D01*
X41910000Y29675000D02*
X39200000Y32385000D01*
X41910000Y17780000D02*
X41910000Y29675000D01*
X43180000Y16510000D02*
X41910000Y17780000D01*
X39050000Y34290000D02*
X39050000Y32535000D01*
X39050000Y32535000D02*
X39200000Y32385000D01*
X34450000Y29210000D02*
X32385000Y29210000D01*
X55245000Y29845000D02*
X53180000Y29845000D01*
X61595000Y23030000D02*
X61130000Y23030000D01*
X55880000Y22225000D02*
X54930000Y22225000D01*
X61130000Y23030000D02*
X60325000Y22225000D01*
X55880000Y9525000D02*
X55880000Y20320000D01*
X54930000Y21270000D02*
X54930000Y22225000D01*
X54930000Y22225000D02*
X54930000Y23495000D01*
X55880000Y20320000D02*
X54930000Y21270000D01*
X54930000Y23495000D02*
X54930000Y28890000D01*
X54930000Y28890000D02*
X53975000Y29845000D01*
X53975000Y29845000D02*
X53180000Y29845000D01*
X32700000Y22860000D02*
X32700000Y28255000D01*
X33655000Y29210000D02*
X34450000Y29210000D01*
X32700000Y28255000D02*
X33655000Y29210000D01*
D33*
X61214000Y42037000D02*
X59342000Y42037000D01*
X59342000Y42037000D02*
X57310000Y44069000D01*
X57658000Y38227000D02*
X57658000Y38481000D01*
X57658000Y38481000D02*
X61214000Y42037000D01*
X65405000Y40005000D02*
X63246000Y40005000D01*
X63246000Y40005000D02*
X61214000Y42037000D01*
D32*
X2540000Y52705000D02*
X5080000Y52705000D01*
X2540000Y52705000D02*
X2540000Y50165000D01*
X5080000Y50165000D02*
X2540000Y50165000D01*
X5080000Y52705000D02*
X5080000Y50165000D01*
D33*
X62400000Y4445000D02*
X58420000Y4445000D01*
D32*
X58420000Y4445000D02*
X58420000Y5080000D01*
D33*
X67945000Y49530000D02*
X67945000Y42545000D01*
X67945000Y42545000D02*
X65405000Y40005000D01*
D32*
X67945000Y49530000D02*
X67945000Y50165000D01*
X62865000Y7620000D02*
X62865000Y7620000D01*
X40386000Y22225000D02*
X40386000Y23876000D01*
X40386000Y23876000D02*
X40640000Y24130000D01*
X40386000Y36830000D02*
X40386000Y37719000D01*
X40386000Y37719000D02*
X39370000Y38735000D01*
X14605000Y38735000D02*
X10160000Y34290000D01*
X39370000Y38735000D02*
X14605000Y38735000D01*
X40386000Y36830000D02*
X40005000Y36830000D01*
X26350000Y30480000D02*
X29050000Y30480000D01*
X26350000Y30480000D02*
X26350000Y32235000D01*
X26350000Y32235000D02*
X26500000Y32385000D01*
X26500000Y26670000D02*
X26500000Y28425000D01*
X26500000Y28425000D02*
X26350000Y28575000D01*
X26350000Y28575000D02*
X27305000Y28575000D01*
X27940000Y27940000D02*
X29050000Y27940000D01*
X27305000Y28575000D02*
X27940000Y27940000D01*
X29050000Y31750000D02*
X29050000Y33020000D01*
X26350000Y34290000D02*
X27780000Y34290000D01*
X27780000Y34290000D02*
X29050000Y33020000D01*
X26416000Y36830000D02*
X26416000Y34356000D01*
X26416000Y34356000D02*
X26350000Y34290000D01*
X38100000Y15705000D02*
X38100000Y16510000D01*
X23495000Y32385000D02*
X24300000Y32385000D01*
X22225000Y31115000D02*
X23495000Y32385000D01*
X22225000Y24130000D02*
X22225000Y31115000D01*
X29845000Y17780000D02*
X27940000Y19685000D01*
X36830000Y17780000D02*
X29845000Y17780000D01*
X38100000Y16510000D02*
X36830000Y17780000D01*
X24450000Y34290000D02*
X24450000Y32535000D01*
X24450000Y32535000D02*
X24300000Y32385000D01*
X26416000Y22225000D02*
X26416000Y24699000D01*
X26416000Y24699000D02*
X26350000Y24765000D01*
X29050000Y25400000D02*
X29050000Y26670000D01*
X26350000Y24765000D02*
X28415000Y24765000D01*
X28415000Y24765000D02*
X29050000Y25400000D01*
X35560000Y15705000D02*
X35560000Y16510000D01*
X24450000Y21270000D02*
X24450000Y24765000D01*
X28575000Y17145000D02*
X24450000Y21270000D01*
X34925000Y17145000D02*
X28575000Y17145000D01*
X35560000Y16510000D02*
X34925000Y17145000D01*
X24300000Y26670000D02*
X24300000Y24915000D01*
X24300000Y24915000D02*
X24450000Y24765000D01*
X23114000Y36830000D02*
X17780000Y36830000D01*
X14605000Y26670000D02*
X10160000Y22225000D01*
X14605000Y33655000D02*
X14605000Y26670000D01*
X17780000Y36830000D02*
X14605000Y33655000D01*
X23114000Y22225000D02*
X21590000Y22225000D01*
X12065000Y19685000D02*
X10160000Y19685000D01*
X13335000Y20955000D02*
X12065000Y19685000D01*
X20320000Y20955000D02*
X13335000Y20955000D01*
X21590000Y22225000D02*
X20320000Y20955000D01*
X53180000Y31115000D02*
X52705000Y31115000D01*
X52705000Y31115000D02*
X51435000Y32385000D01*
X51435000Y32385000D02*
X49995000Y32385000D01*
X47945000Y30480000D02*
X48090000Y30480000D01*
X48090000Y30480000D02*
X49995000Y32385000D01*
X49845000Y28575000D02*
X53180000Y28575000D01*
X49995000Y26670000D02*
X49995000Y28425000D01*
X49995000Y28425000D02*
X49845000Y28575000D01*
X49845000Y34290000D02*
X49845000Y36764000D01*
X49845000Y36764000D02*
X49911000Y36830000D01*
X53180000Y33655000D02*
X50480000Y33655000D01*
X50480000Y33655000D02*
X49845000Y34290000D01*
X53180000Y32385000D02*
X53180000Y33655000D01*
X45720000Y15705000D02*
X45720000Y16510000D01*
X44450000Y29040000D02*
X47795000Y32385000D01*
X44450000Y17780000D02*
X44450000Y29040000D01*
X45720000Y16510000D02*
X44450000Y17780000D01*
X47795000Y32385000D02*
X47795000Y34140000D01*
X47795000Y34140000D02*
X47945000Y34290000D01*
X53180000Y26035000D02*
X53180000Y27305000D01*
X49845000Y24765000D02*
X51910000Y24765000D01*
X51910000Y24765000D02*
X53180000Y26035000D01*
X49911000Y22225000D02*
X49911000Y24699000D01*
X49911000Y24699000D02*
X49845000Y24765000D01*
X47945000Y24765000D02*
X47945000Y26520000D01*
X47945000Y26520000D02*
X47795000Y26670000D01*
X48260000Y15705000D02*
X48260000Y24450000D01*
X48260000Y24450000D02*
X47945000Y24765000D01*
X46609000Y36830000D02*
X46355000Y36830000D01*
X46355000Y36830000D02*
X43180000Y40005000D01*
X13335000Y43180000D02*
X10160000Y46355000D01*
X13335000Y41910000D02*
X13335000Y43180000D01*
X15240000Y40005000D02*
X13335000Y41910000D01*
X43180000Y40005000D02*
X15240000Y40005000D01*
X46609000Y36830000D02*
X46609000Y37211000D01*
X10160000Y43815000D02*
X10795000Y43815000D01*
X10795000Y43815000D02*
X12065000Y42545000D01*
X12065000Y42545000D02*
X12065000Y41910000D01*
X12065000Y41910000D02*
X14605000Y39370000D01*
X14605000Y39370000D02*
X41910000Y39370000D01*
X41910000Y39370000D02*
X43180000Y38100000D01*
X43180000Y38100000D02*
X43180000Y25400000D01*
X45720000Y24765000D02*
X46609000Y23876000D01*
X46609000Y23876000D02*
X46609000Y22225000D01*
X35560000Y13505000D02*
X35560000Y9525000D01*
X38100000Y9525000D02*
X38100000Y13505000D01*
X40640000Y9525000D02*
X40640000Y13505000D01*
X43180000Y9525000D02*
X43180000Y13505000D01*
X45720000Y9525000D02*
X45720000Y13505000D01*
X48260000Y9525000D02*
X48260000Y13505000D01*
D33*
X65405000Y37465000D02*
X61976000Y37465000D01*
X61976000Y37465000D02*
X61214000Y38227000D01*
X10160000Y17145000D02*
X9525000Y17145000D01*
X9525000Y17145000D02*
X8255000Y18415000D01*
X8255000Y18415000D02*
X8255000Y27305000D01*
X8255000Y27305000D02*
X10160000Y29210000D01*
X10160000Y41275000D02*
X8255000Y39370000D01*
X8255000Y31115000D02*
X10160000Y29210000D01*
X8255000Y39370000D02*
X8255000Y31115000D01*
D32*
X49149000Y45423000D02*
X49149000Y46863000D01*
X26670000Y51435000D02*
X25400000Y52705000D01*
X26670000Y49403000D02*
X26670000Y51435000D01*
X27686000Y48387000D02*
X26670000Y49403000D01*
X47625000Y48387000D02*
X27686000Y48387000D01*
X49149000Y46863000D02*
X47625000Y48387000D01*
X51910000Y44069000D02*
X51054000Y44069000D01*
X51054000Y44069000D02*
X50208000Y43223000D01*
X50208000Y43223000D02*
X49149000Y43223000D01*
X61595000Y25230000D02*
X61595000Y27475000D01*
X58580000Y28575000D02*
X59690000Y28575000D01*
X60790000Y27475000D02*
X61595000Y27475000D01*
X59690000Y28575000D02*
X60790000Y27475000D01*
X64600000Y4445000D02*
X64600000Y6655000D01*
X64600000Y6655000D02*
X66040000Y8095000D01*
X64600000Y4445000D02*
X64135000Y4445000D01*
X64135000Y4445000D02*
X62230000Y6350000D01*
X52705000Y6350000D02*
X50800000Y4445000D01*
X62230000Y6350000D02*
X52705000Y6350000D01*
X55880000Y50165000D02*
X55880000Y46482000D01*
X62865000Y16670000D02*
X66040000Y13495000D01*
X62865000Y30988000D02*
X62865000Y16670000D01*
X58674000Y35179000D02*
X62865000Y30988000D01*
X57150000Y35179000D02*
X58674000Y35179000D01*
X55753000Y36576000D02*
X57150000Y35179000D01*
X55753000Y46355000D02*
X55753000Y36576000D01*
X55880000Y46482000D02*
X55753000Y46355000D01*
X66040000Y13495000D02*
X66040000Y13970000D01*
X65405000Y42545000D02*
X65405000Y43307000D01*
X65405000Y43307000D02*
X63119000Y45593000D01*
X63119000Y45593000D02*
X61214000Y45593000D01*
X53340000Y50165000D02*
X53340000Y49530000D01*
X53340000Y49530000D02*
X52705000Y48895000D01*
X6350000Y14605000D02*
X2540000Y10795000D01*
X6350000Y46990000D02*
X6350000Y14605000D01*
X7620000Y48260000D02*
X6350000Y46990000D01*
X12065000Y48260000D02*
X7620000Y48260000D01*
X13335000Y46990000D02*
X12065000Y48260000D01*
X52705000Y48895000D02*
X52705000Y46990000D01*
X2540000Y10795000D02*
X2540000Y10160000D01*
X65405000Y42545000D02*
X65405000Y46990000D01*
X55245000Y54610000D02*
X53340000Y52705000D01*
X59055000Y54610000D02*
X55245000Y54610000D01*
X60325000Y53340000D02*
X59055000Y54610000D01*
X60325000Y52070000D02*
X60325000Y53340000D01*
X65405000Y46990000D02*
X60325000Y52070000D01*
X5080000Y10160000D02*
X5080000Y10795000D01*
X5080000Y10795000D02*
X6985000Y12700000D01*
X6985000Y12700000D02*
X12065000Y12700000D01*
X12065000Y12700000D02*
X13970000Y10795000D01*
X13970000Y10795000D02*
X13970000Y3175000D01*
X13970000Y3175000D02*
X12700000Y1905000D01*
X7620000Y10160000D02*
X7620000Y10795000D01*
X7620000Y10795000D02*
X8890000Y12065000D01*
X8890000Y12065000D02*
X11430000Y12065000D01*
X11430000Y12065000D02*
X12700000Y10795000D01*
X12700000Y10795000D02*
X12700000Y4445000D01*
X30480000Y28575000D02*
X30480000Y34925000D01*
X30800000Y22860000D02*
X30800000Y22540000D01*
X30800000Y22540000D02*
X31750000Y21590000D01*
X57150000Y20955000D02*
X56830000Y20955000D01*
X56830000Y23495000D02*
X56830000Y20955000D01*
X56830000Y20955000D02*
X56830000Y11115000D01*
X56830000Y11115000D02*
X58420000Y9525000D01*
X56830000Y23495000D02*
X56830000Y28890000D01*
X57785000Y29845000D02*
X58580000Y29845000D01*
X56830000Y28890000D02*
X57785000Y29845000D01*
X58580000Y29845000D02*
X61425000Y29845000D01*
X61425000Y29845000D02*
X61595000Y29675000D01*
X30800000Y22860000D02*
X30800000Y28255000D01*
X29845000Y29210000D02*
X29050000Y29210000D01*
X30800000Y28255000D02*
X30480000Y28575000D01*
X30480000Y28575000D02*
X29845000Y29210000D01*
D34*
G36*
X51943000Y35052000D02*
X51953006Y35002590D01*
X51981447Y34960965D01*
X52023841Y34933685D01*
X52070000Y34925000D01*
X56329198Y34925000D01*
X56612599Y34641599D01*
X56859160Y34476852D01*
X57150000Y34419000D01*
X57378498Y34419000D01*
X57233569Y34206890D01*
X57182560Y33955000D01*
X57182560Y33355000D01*
X57226838Y33119683D01*
X57290678Y33020472D01*
X57233569Y32936890D01*
X57182560Y32685000D01*
X57182560Y32085000D01*
X57226838Y31849683D01*
X57290678Y31750472D01*
X57233569Y31666890D01*
X57182560Y31415000D01*
X57182560Y30815000D01*
X57226838Y30579683D01*
X57285178Y30489020D01*
X57195000Y30271310D01*
X57195000Y30130750D01*
X57353750Y29972000D01*
X58453000Y29972000D01*
X58453000Y29992000D01*
X58707000Y29992000D01*
X58707000Y29972000D01*
X59806250Y29972000D01*
X59965000Y30130750D01*
X59965000Y30271310D01*
X59911153Y30401309D01*
X60510000Y30401309D01*
X60510000Y29960750D01*
X60668750Y29802000D01*
X61468000Y29802000D01*
X61468000Y30751250D01*
X61309250Y30910000D01*
X61018690Y30910000D01*
X60785301Y30813327D01*
X60606673Y30634698D01*
X60510000Y30401309D01*
X59911153Y30401309D01*
X59875194Y30488122D01*
X59926431Y30563110D01*
X59977440Y30815000D01*
X59977440Y31415000D01*
X59933162Y31650317D01*
X59869322Y31749528D01*
X59926431Y31833110D01*
X59977440Y32085000D01*
X59977440Y32685000D01*
X59950610Y32827588D01*
X61874474Y30903724D01*
X61722000Y30751250D01*
X61722000Y29802000D01*
X61742000Y29802000D01*
X61742000Y29548000D01*
X61722000Y29548000D01*
X61722000Y29528000D01*
X61468000Y29528000D01*
X61468000Y29548000D01*
X60668750Y29548000D01*
X60510000Y29389250D01*
X60510000Y28948691D01*
X60594067Y28745735D01*
X60227401Y29112401D01*
X59980839Y29277148D01*
X59912040Y29290833D01*
X59965000Y29418690D01*
X59965000Y29559250D01*
X59806250Y29718000D01*
X58707000Y29718000D01*
X58707000Y29698000D01*
X58453000Y29698000D01*
X58453000Y29718000D01*
X57353750Y29718000D01*
X57195000Y29559250D01*
X57195000Y29418690D01*
X57284806Y29201878D01*
X57233569Y29126890D01*
X57182560Y28875000D01*
X57182560Y28275000D01*
X57226838Y28039683D01*
X57290678Y27940472D01*
X57233569Y27856890D01*
X57182560Y27605000D01*
X57182560Y27005000D01*
X57226838Y26769683D01*
X57290678Y26670472D01*
X57233569Y26586890D01*
X57182560Y26335000D01*
X57182560Y25735000D01*
X57226838Y25499683D01*
X57365910Y25283559D01*
X57578110Y25138569D01*
X57830000Y25087560D01*
X58292638Y25087560D01*
X58754878Y24625320D01*
X58754838Y24579833D01*
X58896883Y24236057D01*
X59159673Y23972808D01*
X59503201Y23830162D01*
X59875167Y23829838D01*
X60218943Y23971883D01*
X60482192Y24234673D01*
X60545969Y24388264D01*
X60680910Y24178559D01*
X60750711Y24130866D01*
X60693559Y24094090D01*
X60548569Y23881890D01*
X60497560Y23630000D01*
X60497560Y23472362D01*
X60185320Y23160122D01*
X60139833Y23160162D01*
X59796057Y23018117D01*
X59532808Y22755327D01*
X59390162Y22411799D01*
X59389838Y22039833D01*
X59531883Y21696057D01*
X59794673Y21432808D01*
X60138201Y21290162D01*
X60510167Y21289838D01*
X60853943Y21431883D01*
X61117192Y21694673D01*
X61153686Y21782560D01*
X62045000Y21782560D01*
X62103000Y21793474D01*
X62103000Y8180466D01*
X62072808Y8150327D01*
X61930162Y7806799D01*
X61930110Y7747000D01*
X15367000Y7747000D01*
X15367000Y20195000D01*
X16198100Y20195000D01*
X16096655Y19685000D01*
X16210729Y19111511D01*
X16535585Y18625330D01*
X16850366Y18415000D01*
X16535585Y18204670D01*
X16210729Y17718489D01*
X16096655Y17145000D01*
X16210729Y16571511D01*
X16535585Y16085330D01*
X16850366Y15875000D01*
X16535585Y15664670D01*
X16210729Y15178489D01*
X16096655Y14605000D01*
X16210729Y14031511D01*
X16535585Y13545330D01*
X16850366Y13335000D01*
X16535585Y13124670D01*
X16210729Y12638489D01*
X16096655Y12065000D01*
X16210729Y11491511D01*
X16535585Y11005330D01*
X16850366Y10795000D01*
X16535585Y10584670D01*
X16210729Y10098489D01*
X16096655Y9525000D01*
X16210729Y8951511D01*
X16535585Y8465330D01*
X17021766Y8140474D01*
X17595255Y8026400D01*
X17964745Y8026400D01*
X18538234Y8140474D01*
X19024415Y8465330D01*
X19349271Y8951511D01*
X19463345Y9525000D01*
X19349271Y10098489D01*
X19024415Y10584670D01*
X18709634Y10795000D01*
X19024415Y11005330D01*
X19349271Y11491511D01*
X19463345Y12065000D01*
X19349271Y12638489D01*
X19024415Y13124670D01*
X18709634Y13335000D01*
X19024415Y13545330D01*
X19349271Y14031511D01*
X19463345Y14605000D01*
X19349271Y15178489D01*
X19024415Y15664670D01*
X18709634Y15875000D01*
X19024415Y16085330D01*
X19349271Y16571511D01*
X19463345Y17145000D01*
X19349271Y17718489D01*
X19024415Y18204670D01*
X18709634Y18415000D01*
X19024415Y18625330D01*
X19349271Y19111511D01*
X19463345Y19685000D01*
X19361900Y20195000D01*
X20320000Y20195000D01*
X20610839Y20252852D01*
X20857401Y20417599D01*
X21704560Y21264758D01*
X21704560Y21209000D01*
X21748838Y20973683D01*
X21887910Y20757559D01*
X22100110Y20612569D01*
X22352000Y20561560D01*
X23876000Y20561560D01*
X24050755Y20594443D01*
X28037599Y16607599D01*
X28284161Y16442852D01*
X28575000Y16385000D01*
X34478760Y16385000D01*
X34462560Y16305000D01*
X34462560Y15105000D01*
X34506838Y14869683D01*
X34645910Y14653559D01*
X34715711Y14605866D01*
X34658559Y14569090D01*
X34513569Y14356890D01*
X34462560Y14105000D01*
X34462560Y12905000D01*
X34506838Y12669683D01*
X34645910Y12453559D01*
X34800000Y12348274D01*
X34800000Y11188440D01*
X34696400Y11188440D01*
X34461083Y11144162D01*
X34244959Y11005090D01*
X34099969Y10792890D01*
X34048960Y10541000D01*
X34048960Y8509000D01*
X34093238Y8273683D01*
X34232310Y8057559D01*
X34444510Y7912569D01*
X34696400Y7861560D01*
X36423600Y7861560D01*
X36658917Y7905838D01*
X36875041Y8044910D01*
X37020031Y8257110D01*
X37028400Y8298439D01*
X37040330Y8280585D01*
X37526511Y7955729D01*
X38100000Y7841655D01*
X38673489Y7955729D01*
X39159670Y8280585D01*
X39370000Y8595366D01*
X39580330Y8280585D01*
X40066511Y7955729D01*
X40640000Y7841655D01*
X41213489Y7955729D01*
X41699670Y8280585D01*
X41910000Y8595366D01*
X42120330Y8280585D01*
X42606511Y7955729D01*
X43180000Y7841655D01*
X43753489Y7955729D01*
X44239670Y8280585D01*
X44450000Y8595366D01*
X44660330Y8280585D01*
X45146511Y7955729D01*
X45720000Y7841655D01*
X46293489Y7955729D01*
X46779670Y8280585D01*
X46990000Y8595366D01*
X47200330Y8280585D01*
X47686511Y7955729D01*
X48260000Y7841655D01*
X48833489Y7955729D01*
X49319670Y8280585D01*
X49530000Y8595366D01*
X49740330Y8280585D01*
X50226511Y7955729D01*
X50800000Y7841655D01*
X51373489Y7955729D01*
X51859670Y8280585D01*
X52070000Y8595366D01*
X52280330Y8280585D01*
X52766511Y7955729D01*
X53340000Y7841655D01*
X53913489Y7955729D01*
X54399670Y8280585D01*
X54610000Y8595366D01*
X54820330Y8280585D01*
X55306511Y7955729D01*
X55880000Y7841655D01*
X56453489Y7955729D01*
X56939670Y8280585D01*
X57146461Y8590069D01*
X57517964Y8174268D01*
X58045209Y7920291D01*
X58060974Y7917642D01*
X58293000Y8038783D01*
X58293000Y9398000D01*
X58547000Y9398000D01*
X58547000Y8038783D01*
X58779026Y7917642D01*
X58794791Y7920291D01*
X59322036Y8174268D01*
X59711954Y8610680D01*
X59905184Y9163087D01*
X59760924Y9398000D01*
X58547000Y9398000D01*
X58293000Y9398000D01*
X58273000Y9398000D01*
X58273000Y9652000D01*
X58293000Y9652000D01*
X58293000Y11011217D01*
X58547000Y11011217D01*
X58547000Y9652000D01*
X59760924Y9652000D01*
X59905184Y9886913D01*
X59711954Y10439320D01*
X59322036Y10875732D01*
X58794791Y11129709D01*
X58779026Y11132358D01*
X58547000Y11011217D01*
X58293000Y11011217D01*
X58060974Y11132358D01*
X58045209Y11129709D01*
X57517964Y10875732D01*
X57146461Y10459931D01*
X56939670Y10769415D01*
X56640000Y10969648D01*
X56640000Y20320000D01*
X56582148Y20610839D01*
X56417401Y20857401D01*
X55984894Y21289908D01*
X56065167Y21289838D01*
X56408943Y21431883D01*
X56672192Y21694673D01*
X56814838Y22038201D01*
X56815162Y22410167D01*
X56703000Y22681620D01*
X56703000Y23368000D01*
X56957000Y23368000D01*
X56957000Y22643750D01*
X57115750Y22485000D01*
X57556309Y22485000D01*
X57789698Y22581673D01*
X57968327Y22760301D01*
X58065000Y22993690D01*
X58065000Y23209250D01*
X57906250Y23368000D01*
X56957000Y23368000D01*
X56703000Y23368000D01*
X56683000Y23368000D01*
X56683000Y23622000D01*
X56703000Y23622000D01*
X56703000Y24346250D01*
X56957000Y24346250D01*
X56957000Y23622000D01*
X57906250Y23622000D01*
X58065000Y23780750D01*
X58065000Y23996310D01*
X57968327Y24229699D01*
X57789698Y24408327D01*
X57556309Y24505000D01*
X57115750Y24505000D01*
X56957000Y24346250D01*
X56703000Y24346250D01*
X56544250Y24505000D01*
X56103691Y24505000D01*
X55870302Y24408327D01*
X55868932Y24406957D01*
X55781890Y24466431D01*
X55690000Y24485039D01*
X55690000Y28890000D01*
X55666620Y29007538D01*
X55773943Y29051883D01*
X56037192Y29314673D01*
X56179838Y29658201D01*
X56180162Y30030167D01*
X56038117Y30373943D01*
X55775327Y30637192D01*
X55431799Y30779838D01*
X55059833Y30780162D01*
X54716057Y30638117D01*
X54682882Y30605000D01*
X54534914Y30605000D01*
X54577440Y30815000D01*
X54577440Y31415000D01*
X54533162Y31650317D01*
X54469322Y31749528D01*
X54526431Y31833110D01*
X54577440Y32085000D01*
X54577440Y32685000D01*
X54533162Y32920317D01*
X54469322Y33019528D01*
X54526431Y33103110D01*
X54577440Y33355000D01*
X54577440Y33955000D01*
X54533162Y34190317D01*
X54394090Y34406441D01*
X54181890Y34551431D01*
X53930000Y34602440D01*
X52430000Y34602440D01*
X52194683Y34558162D01*
X51978559Y34419090D01*
X51975764Y34415000D01*
X51092440Y34415000D01*
X51092440Y34665000D01*
X51048162Y34900317D01*
X50909090Y35116441D01*
X50800599Y35190569D01*
X50908317Y35210838D01*
X51124441Y35349910D01*
X51269431Y35562110D01*
X51320440Y35814000D01*
X51320440Y37846000D01*
X51296543Y37973000D01*
X51943000Y37973000D01*
X51943000Y35052000D01*
X51943000Y35052000D01*
G37*
X51943000Y35052000D02*
X51953006Y35002590D01*
X51981447Y34960965D01*
X52023841Y34933685D01*
X52070000Y34925000D01*
X56329198Y34925000D01*
X56612599Y34641599D01*
X56859160Y34476852D01*
X57150000Y34419000D01*
X57378498Y34419000D01*
X57233569Y34206890D01*
X57182560Y33955000D01*
X57182560Y33355000D01*
X57226838Y33119683D01*
X57290678Y33020472D01*
X57233569Y32936890D01*
X57182560Y32685000D01*
X57182560Y32085000D01*
X57226838Y31849683D01*
X57290678Y31750472D01*
X57233569Y31666890D01*
X57182560Y31415000D01*
X57182560Y30815000D01*
X57226838Y30579683D01*
X57285178Y30489020D01*
X57195000Y30271310D01*
X57195000Y30130750D01*
X57353750Y29972000D01*
X58453000Y29972000D01*
X58453000Y29992000D01*
X58707000Y29992000D01*
X58707000Y29972000D01*
X59806250Y29972000D01*
X59965000Y30130750D01*
X59965000Y30271310D01*
X59911153Y30401309D01*
X60510000Y30401309D01*
X60510000Y29960750D01*
X60668750Y29802000D01*
X61468000Y29802000D01*
X61468000Y30751250D01*
X61309250Y30910000D01*
X61018690Y30910000D01*
X60785301Y30813327D01*
X60606673Y30634698D01*
X60510000Y30401309D01*
X59911153Y30401309D01*
X59875194Y30488122D01*
X59926431Y30563110D01*
X59977440Y30815000D01*
X59977440Y31415000D01*
X59933162Y31650317D01*
X59869322Y31749528D01*
X59926431Y31833110D01*
X59977440Y32085000D01*
X59977440Y32685000D01*
X59950610Y32827588D01*
X61874474Y30903724D01*
X61722000Y30751250D01*
X61722000Y29802000D01*
X61742000Y29802000D01*
X61742000Y29548000D01*
X61722000Y29548000D01*
X61722000Y29528000D01*
X61468000Y29528000D01*
X61468000Y29548000D01*
X60668750Y29548000D01*
X60510000Y29389250D01*
X60510000Y28948691D01*
X60594067Y28745735D01*
X60227401Y29112401D01*
X59980839Y29277148D01*
X59912040Y29290833D01*
X59965000Y29418690D01*
X59965000Y29559250D01*
X59806250Y29718000D01*
X58707000Y29718000D01*
X58707000Y29698000D01*
X58453000Y29698000D01*
X58453000Y29718000D01*
X57353750Y29718000D01*
X57195000Y29559250D01*
X57195000Y29418690D01*
X57284806Y29201878D01*
X57233569Y29126890D01*
X57182560Y28875000D01*
X57182560Y28275000D01*
X57226838Y28039683D01*
X57290678Y27940472D01*
X57233569Y27856890D01*
X57182560Y27605000D01*
X57182560Y27005000D01*
X57226838Y26769683D01*
X57290678Y26670472D01*
X57233569Y26586890D01*
X57182560Y26335000D01*
X57182560Y25735000D01*
X57226838Y25499683D01*
X57365910Y25283559D01*
X57578110Y25138569D01*
X57830000Y25087560D01*
X58292638Y25087560D01*
X58754878Y24625320D01*
X58754838Y24579833D01*
X58896883Y24236057D01*
X59159673Y23972808D01*
X59503201Y23830162D01*
X59875167Y23829838D01*
X60218943Y23971883D01*
X60482192Y24234673D01*
X60545969Y24388264D01*
X60680910Y24178559D01*
X60750711Y24130866D01*
X60693559Y24094090D01*
X60548569Y23881890D01*
X60497560Y23630000D01*
X60497560Y23472362D01*
X60185320Y23160122D01*
X60139833Y23160162D01*
X59796057Y23018117D01*
X59532808Y22755327D01*
X59390162Y22411799D01*
X59389838Y22039833D01*
X59531883Y21696057D01*
X59794673Y21432808D01*
X60138201Y21290162D01*
X60510167Y21289838D01*
X60853943Y21431883D01*
X61117192Y21694673D01*
X61153686Y21782560D01*
X62045000Y21782560D01*
X62103000Y21793474D01*
X62103000Y8180466D01*
X62072808Y8150327D01*
X61930162Y7806799D01*
X61930110Y7747000D01*
X15367000Y7747000D01*
X15367000Y20195000D01*
X16198100Y20195000D01*
X16096655Y19685000D01*
X16210729Y19111511D01*
X16535585Y18625330D01*
X16850366Y18415000D01*
X16535585Y18204670D01*
X16210729Y17718489D01*
X16096655Y17145000D01*
X16210729Y16571511D01*
X16535585Y16085330D01*
X16850366Y15875000D01*
X16535585Y15664670D01*
X16210729Y15178489D01*
X16096655Y14605000D01*
X16210729Y14031511D01*
X16535585Y13545330D01*
X16850366Y13335000D01*
X16535585Y13124670D01*
X16210729Y12638489D01*
X16096655Y12065000D01*
X16210729Y11491511D01*
X16535585Y11005330D01*
X16850366Y10795000D01*
X16535585Y10584670D01*
X16210729Y10098489D01*
X16096655Y9525000D01*
X16210729Y8951511D01*
X16535585Y8465330D01*
X17021766Y8140474D01*
X17595255Y8026400D01*
X17964745Y8026400D01*
X18538234Y8140474D01*
X19024415Y8465330D01*
X19349271Y8951511D01*
X19463345Y9525000D01*
X19349271Y10098489D01*
X19024415Y10584670D01*
X18709634Y10795000D01*
X19024415Y11005330D01*
X19349271Y11491511D01*
X19463345Y12065000D01*
X19349271Y12638489D01*
X19024415Y13124670D01*
X18709634Y13335000D01*
X19024415Y13545330D01*
X19349271Y14031511D01*
X19463345Y14605000D01*
X19349271Y15178489D01*
X19024415Y15664670D01*
X18709634Y15875000D01*
X19024415Y16085330D01*
X19349271Y16571511D01*
X19463345Y17145000D01*
X19349271Y17718489D01*
X19024415Y18204670D01*
X18709634Y18415000D01*
X19024415Y18625330D01*
X19349271Y19111511D01*
X19463345Y19685000D01*
X19361900Y20195000D01*
X20320000Y20195000D01*
X20610839Y20252852D01*
X20857401Y20417599D01*
X21704560Y21264758D01*
X21704560Y21209000D01*
X21748838Y20973683D01*
X21887910Y20757559D01*
X22100110Y20612569D01*
X22352000Y20561560D01*
X23876000Y20561560D01*
X24050755Y20594443D01*
X28037599Y16607599D01*
X28284161Y16442852D01*
X28575000Y16385000D01*
X34478760Y16385000D01*
X34462560Y16305000D01*
X34462560Y15105000D01*
X34506838Y14869683D01*
X34645910Y14653559D01*
X34715711Y14605866D01*
X34658559Y14569090D01*
X34513569Y14356890D01*
X34462560Y14105000D01*
X34462560Y12905000D01*
X34506838Y12669683D01*
X34645910Y12453559D01*
X34800000Y12348274D01*
X34800000Y11188440D01*
X34696400Y11188440D01*
X34461083Y11144162D01*
X34244959Y11005090D01*
X34099969Y10792890D01*
X34048960Y10541000D01*
X34048960Y8509000D01*
X34093238Y8273683D01*
X34232310Y8057559D01*
X34444510Y7912569D01*
X34696400Y7861560D01*
X36423600Y7861560D01*
X36658917Y7905838D01*
X36875041Y8044910D01*
X37020031Y8257110D01*
X37028400Y8298439D01*
X37040330Y8280585D01*
X37526511Y7955729D01*
X38100000Y7841655D01*
X38673489Y7955729D01*
X39159670Y8280585D01*
X39370000Y8595366D01*
X39580330Y8280585D01*
X40066511Y7955729D01*
X40640000Y7841655D01*
X41213489Y7955729D01*
X41699670Y8280585D01*
X41910000Y8595366D01*
X42120330Y8280585D01*
X42606511Y7955729D01*
X43180000Y7841655D01*
X43753489Y7955729D01*
X44239670Y8280585D01*
X44450000Y8595366D01*
X44660330Y8280585D01*
X45146511Y7955729D01*
X45720000Y7841655D01*
X46293489Y7955729D01*
X46779670Y8280585D01*
X46990000Y8595366D01*
X47200330Y8280585D01*
X47686511Y7955729D01*
X48260000Y7841655D01*
X48833489Y7955729D01*
X49319670Y8280585D01*
X49530000Y8595366D01*
X49740330Y8280585D01*
X50226511Y7955729D01*
X50800000Y7841655D01*
X51373489Y7955729D01*
X51859670Y8280585D01*
X52070000Y8595366D01*
X52280330Y8280585D01*
X52766511Y7955729D01*
X53340000Y7841655D01*
X53913489Y7955729D01*
X54399670Y8280585D01*
X54610000Y8595366D01*
X54820330Y8280585D01*
X55306511Y7955729D01*
X55880000Y7841655D01*
X56453489Y7955729D01*
X56939670Y8280585D01*
X57146461Y8590069D01*
X57517964Y8174268D01*
X58045209Y7920291D01*
X58060974Y7917642D01*
X58293000Y8038783D01*
X58293000Y9398000D01*
X58547000Y9398000D01*
X58547000Y8038783D01*
X58779026Y7917642D01*
X58794791Y7920291D01*
X59322036Y8174268D01*
X59711954Y8610680D01*
X59905184Y9163087D01*
X59760924Y9398000D01*
X58547000Y9398000D01*
X58293000Y9398000D01*
X58273000Y9398000D01*
X58273000Y9652000D01*
X58293000Y9652000D01*
X58293000Y11011217D01*
X58547000Y11011217D01*
X58547000Y9652000D01*
X59760924Y9652000D01*
X59905184Y9886913D01*
X59711954Y10439320D01*
X59322036Y10875732D01*
X58794791Y11129709D01*
X58779026Y11132358D01*
X58547000Y11011217D01*
X58293000Y11011217D01*
X58060974Y11132358D01*
X58045209Y11129709D01*
X57517964Y10875732D01*
X57146461Y10459931D01*
X56939670Y10769415D01*
X56640000Y10969648D01*
X56640000Y20320000D01*
X56582148Y20610839D01*
X56417401Y20857401D01*
X55984894Y21289908D01*
X56065167Y21289838D01*
X56408943Y21431883D01*
X56672192Y21694673D01*
X56814838Y22038201D01*
X56815162Y22410167D01*
X56703000Y22681620D01*
X56703000Y23368000D01*
X56957000Y23368000D01*
X56957000Y22643750D01*
X57115750Y22485000D01*
X57556309Y22485000D01*
X57789698Y22581673D01*
X57968327Y22760301D01*
X58065000Y22993690D01*
X58065000Y23209250D01*
X57906250Y23368000D01*
X56957000Y23368000D01*
X56703000Y23368000D01*
X56683000Y23368000D01*
X56683000Y23622000D01*
X56703000Y23622000D01*
X56703000Y24346250D01*
X56957000Y24346250D01*
X56957000Y23622000D01*
X57906250Y23622000D01*
X58065000Y23780750D01*
X58065000Y23996310D01*
X57968327Y24229699D01*
X57789698Y24408327D01*
X57556309Y24505000D01*
X57115750Y24505000D01*
X56957000Y24346250D01*
X56703000Y24346250D01*
X56544250Y24505000D01*
X56103691Y24505000D01*
X55870302Y24408327D01*
X55868932Y24406957D01*
X55781890Y24466431D01*
X55690000Y24485039D01*
X55690000Y28890000D01*
X55666620Y29007538D01*
X55773943Y29051883D01*
X56037192Y29314673D01*
X56179838Y29658201D01*
X56180162Y30030167D01*
X56038117Y30373943D01*
X55775327Y30637192D01*
X55431799Y30779838D01*
X55059833Y30780162D01*
X54716057Y30638117D01*
X54682882Y30605000D01*
X54534914Y30605000D01*
X54577440Y30815000D01*
X54577440Y31415000D01*
X54533162Y31650317D01*
X54469322Y31749528D01*
X54526431Y31833110D01*
X54577440Y32085000D01*
X54577440Y32685000D01*
X54533162Y32920317D01*
X54469322Y33019528D01*
X54526431Y33103110D01*
X54577440Y33355000D01*
X54577440Y33955000D01*
X54533162Y34190317D01*
X54394090Y34406441D01*
X54181890Y34551431D01*
X53930000Y34602440D01*
X52430000Y34602440D01*
X52194683Y34558162D01*
X51978559Y34419090D01*
X51975764Y34415000D01*
X51092440Y34415000D01*
X51092440Y34665000D01*
X51048162Y34900317D01*
X50909090Y35116441D01*
X50800599Y35190569D01*
X50908317Y35210838D01*
X51124441Y35349910D01*
X51269431Y35562110D01*
X51320440Y35814000D01*
X51320440Y37846000D01*
X51296543Y37973000D01*
X51943000Y37973000D01*
X51943000Y35052000D01*
G36*
X42993201Y24465162D02*
X43365167Y24464838D01*
X43690000Y24599056D01*
X43690000Y17780000D01*
X43747852Y17489161D01*
X43912599Y17242599D01*
X44660895Y16494303D01*
X44622560Y16305000D01*
X44622560Y15105000D01*
X44666838Y14869683D01*
X44805910Y14653559D01*
X44875711Y14605866D01*
X44818559Y14569090D01*
X44673569Y14356890D01*
X44622560Y14105000D01*
X44622560Y12905000D01*
X44666838Y12669683D01*
X44805910Y12453559D01*
X44960000Y12348274D01*
X44960000Y10969648D01*
X44660330Y10769415D01*
X44450000Y10454634D01*
X44239670Y10769415D01*
X43940000Y10969648D01*
X43940000Y12349895D01*
X44081441Y12440910D01*
X44226431Y12653110D01*
X44277440Y12905000D01*
X44277440Y14105000D01*
X44233162Y14340317D01*
X44094090Y14556441D01*
X44024289Y14604134D01*
X44081441Y14640910D01*
X44226431Y14853110D01*
X44277440Y15105000D01*
X44277440Y16305000D01*
X44233162Y16540317D01*
X44094090Y16756441D01*
X43881890Y16901431D01*
X43804458Y16917111D01*
X43717401Y17047401D01*
X42670000Y18094802D01*
X42670000Y24599367D01*
X42993201Y24465162D01*
X42993201Y24465162D01*
G37*
X42993201Y24465162D02*
X43365167Y24464838D01*
X43690000Y24599056D01*
X43690000Y17780000D01*
X43747852Y17489161D01*
X43912599Y17242599D01*
X44660895Y16494303D01*
X44622560Y16305000D01*
X44622560Y15105000D01*
X44666838Y14869683D01*
X44805910Y14653559D01*
X44875711Y14605866D01*
X44818559Y14569090D01*
X44673569Y14356890D01*
X44622560Y14105000D01*
X44622560Y12905000D01*
X44666838Y12669683D01*
X44805910Y12453559D01*
X44960000Y12348274D01*
X44960000Y10969648D01*
X44660330Y10769415D01*
X44450000Y10454634D01*
X44239670Y10769415D01*
X43940000Y10969648D01*
X43940000Y12349895D01*
X44081441Y12440910D01*
X44226431Y12653110D01*
X44277440Y12905000D01*
X44277440Y14105000D01*
X44233162Y14340317D01*
X44094090Y14556441D01*
X44024289Y14604134D01*
X44081441Y14640910D01*
X44226431Y14853110D01*
X44277440Y15105000D01*
X44277440Y16305000D01*
X44233162Y16540317D01*
X44094090Y16756441D01*
X43881890Y16901431D01*
X43804458Y16917111D01*
X43717401Y17047401D01*
X42670000Y18094802D01*
X42670000Y24599367D01*
X42993201Y24465162D01*
G36*
X54170000Y24487334D02*
X54094683Y24473162D01*
X53878559Y24334090D01*
X53733569Y24121890D01*
X53682560Y23870000D01*
X53682560Y23120000D01*
X53726838Y22884683D01*
X53865910Y22668559D01*
X54078110Y22523569D01*
X54170000Y22504961D01*
X54170000Y21270000D01*
X54227852Y20979161D01*
X54392599Y20732599D01*
X55120000Y20005198D01*
X55120000Y10969648D01*
X54820330Y10769415D01*
X54610000Y10454634D01*
X54399670Y10769415D01*
X53913489Y11094271D01*
X53340000Y11208345D01*
X52766511Y11094271D01*
X52280330Y10769415D01*
X52070000Y10454634D01*
X51859670Y10769415D01*
X51373489Y11094271D01*
X50800000Y11208345D01*
X50226511Y11094271D01*
X49740330Y10769415D01*
X49530000Y10454634D01*
X49319670Y10769415D01*
X49020000Y10969648D01*
X49020000Y12349895D01*
X49161441Y12440910D01*
X49306431Y12653110D01*
X49357440Y12905000D01*
X49357440Y14105000D01*
X49313162Y14340317D01*
X49174090Y14556441D01*
X49104289Y14604134D01*
X49161441Y14640910D01*
X49306431Y14853110D01*
X49357440Y15105000D01*
X49357440Y16305000D01*
X49313162Y16540317D01*
X49174090Y16756441D01*
X49020000Y16861726D01*
X49020000Y20587683D01*
X49149000Y20561560D01*
X50673000Y20561560D01*
X50908317Y20605838D01*
X51124441Y20744910D01*
X51269431Y20957110D01*
X51320440Y21209000D01*
X51320440Y23241000D01*
X51276162Y23476317D01*
X51137090Y23692441D01*
X50924890Y23837431D01*
X50798664Y23862992D01*
X50896441Y23925910D01*
X50950481Y24005000D01*
X51910000Y24005000D01*
X52200839Y24062852D01*
X52447401Y24227599D01*
X53307362Y25087560D01*
X53930000Y25087560D01*
X54165317Y25131838D01*
X54170000Y25134851D01*
X54170000Y24487334D01*
X54170000Y24487334D01*
G37*
X54170000Y24487334D02*
X54094683Y24473162D01*
X53878559Y24334090D01*
X53733569Y24121890D01*
X53682560Y23870000D01*
X53682560Y23120000D01*
X53726838Y22884683D01*
X53865910Y22668559D01*
X54078110Y22523569D01*
X54170000Y22504961D01*
X54170000Y21270000D01*
X54227852Y20979161D01*
X54392599Y20732599D01*
X55120000Y20005198D01*
X55120000Y10969648D01*
X54820330Y10769415D01*
X54610000Y10454634D01*
X54399670Y10769415D01*
X53913489Y11094271D01*
X53340000Y11208345D01*
X52766511Y11094271D01*
X52280330Y10769415D01*
X52070000Y10454634D01*
X51859670Y10769415D01*
X51373489Y11094271D01*
X50800000Y11208345D01*
X50226511Y11094271D01*
X49740330Y10769415D01*
X49530000Y10454634D01*
X49319670Y10769415D01*
X49020000Y10969648D01*
X49020000Y12349895D01*
X49161441Y12440910D01*
X49306431Y12653110D01*
X49357440Y12905000D01*
X49357440Y14105000D01*
X49313162Y14340317D01*
X49174090Y14556441D01*
X49104289Y14604134D01*
X49161441Y14640910D01*
X49306431Y14853110D01*
X49357440Y15105000D01*
X49357440Y16305000D01*
X49313162Y16540317D01*
X49174090Y16756441D01*
X49020000Y16861726D01*
X49020000Y20587683D01*
X49149000Y20561560D01*
X50673000Y20561560D01*
X50908317Y20605838D01*
X51124441Y20744910D01*
X51269431Y20957110D01*
X51320440Y21209000D01*
X51320440Y23241000D01*
X51276162Y23476317D01*
X51137090Y23692441D01*
X50924890Y23837431D01*
X50798664Y23862992D01*
X50896441Y23925910D01*
X50950481Y24005000D01*
X51910000Y24005000D01*
X52200839Y24062852D01*
X52447401Y24227599D01*
X53307362Y25087560D01*
X53930000Y25087560D01*
X54165317Y25131838D01*
X54170000Y25134851D01*
X54170000Y24487334D01*
G36*
X35674560Y37846000D02*
X35674560Y35814000D01*
X35718838Y35578683D01*
X35857910Y35362559D01*
X36070110Y35217569D01*
X36196336Y35192008D01*
X36098559Y35129090D01*
X36020850Y35015359D01*
X35904160Y34992148D01*
X35657599Y34827401D01*
X34797638Y33967440D01*
X33700000Y33967440D01*
X33464683Y33923162D01*
X33248559Y33784090D01*
X33103569Y33571890D01*
X33052560Y33320000D01*
X33052560Y32720000D01*
X33096838Y32484683D01*
X33160678Y32385472D01*
X33103569Y32301890D01*
X33052560Y32050000D01*
X33052560Y31450000D01*
X33096838Y31214683D01*
X33160678Y31115472D01*
X33103569Y31031890D01*
X33052560Y30780000D01*
X33052560Y30180000D01*
X33092074Y29970000D01*
X32947463Y29970000D01*
X32915327Y30002192D01*
X32571799Y30144838D01*
X32199833Y30145162D01*
X31856057Y30003117D01*
X31592808Y29740327D01*
X31450162Y29396799D01*
X31449838Y29024833D01*
X31591883Y28681057D01*
X31854673Y28417808D01*
X31963404Y28372659D01*
X31940000Y28255000D01*
X31940000Y23852334D01*
X31864683Y23838162D01*
X31761354Y23771671D01*
X31759698Y23773327D01*
X31526309Y23870000D01*
X31085750Y23870000D01*
X30927000Y23711250D01*
X30927000Y22987000D01*
X30947000Y22987000D01*
X30947000Y22733000D01*
X30927000Y22733000D01*
X30927000Y22008750D01*
X31085750Y21850000D01*
X31526309Y21850000D01*
X31759698Y21946673D01*
X31761068Y21948043D01*
X31848110Y21888569D01*
X32100000Y21837560D01*
X33300000Y21837560D01*
X33535317Y21881838D01*
X33751441Y22020910D01*
X33896431Y22233110D01*
X33947440Y22485000D01*
X33947440Y23235000D01*
X33903162Y23470317D01*
X33764090Y23686441D01*
X33551890Y23831431D01*
X33460000Y23850039D01*
X33460000Y24501161D01*
X33700000Y24452560D01*
X34322638Y24452560D01*
X34547599Y24227599D01*
X34794161Y24062852D01*
X35085000Y24005000D01*
X36043156Y24005000D01*
X36085910Y23938559D01*
X36194401Y23864431D01*
X36086683Y23844162D01*
X35870559Y23705090D01*
X35725569Y23492890D01*
X35674560Y23241000D01*
X35674560Y21209000D01*
X35718838Y20973683D01*
X35857910Y20757559D01*
X36070110Y20612569D01*
X36322000Y20561560D01*
X37846000Y20561560D01*
X38081317Y20605838D01*
X38290000Y20740122D01*
X38290000Y20005000D01*
X38347852Y19714161D01*
X38512599Y19467599D01*
X39880000Y18100198D01*
X39880000Y16860105D01*
X39738559Y16769090D01*
X39593569Y16556890D01*
X39542560Y16305000D01*
X39542560Y15105000D01*
X39586838Y14869683D01*
X39725910Y14653559D01*
X39795711Y14605866D01*
X39738559Y14569090D01*
X39593569Y14356890D01*
X39542560Y14105000D01*
X39542560Y12905000D01*
X39586838Y12669683D01*
X39725910Y12453559D01*
X39880000Y12348274D01*
X39880000Y10969648D01*
X39580330Y10769415D01*
X39370000Y10454634D01*
X39159670Y10769415D01*
X38860000Y10969648D01*
X38860000Y12349895D01*
X39001441Y12440910D01*
X39146431Y12653110D01*
X39197440Y12905000D01*
X39197440Y14105000D01*
X39153162Y14340317D01*
X39014090Y14556441D01*
X38944289Y14604134D01*
X39001441Y14640910D01*
X39146431Y14853110D01*
X39197440Y15105000D01*
X39197440Y16305000D01*
X39153162Y16540317D01*
X39014090Y16756441D01*
X38801890Y16901431D01*
X38724458Y16917111D01*
X38637401Y17047401D01*
X37367401Y18317401D01*
X37120839Y18482148D01*
X36830000Y18540000D01*
X30159802Y18540000D01*
X28875122Y19824680D01*
X28875162Y19870167D01*
X28733117Y20213943D01*
X28470327Y20477192D01*
X28126799Y20619838D01*
X27754833Y20620162D01*
X27411057Y20478117D01*
X27147808Y20215327D01*
X27005162Y19871799D01*
X27005090Y19789712D01*
X26233242Y20561560D01*
X27178000Y20561560D01*
X27413317Y20605838D01*
X27629441Y20744910D01*
X27774431Y20957110D01*
X27825440Y21209000D01*
X27825440Y22574250D01*
X29565000Y22574250D01*
X29565000Y22358690D01*
X29661673Y22125301D01*
X29840302Y21946673D01*
X30073691Y21850000D01*
X30514250Y21850000D01*
X30673000Y22008750D01*
X30673000Y22733000D01*
X29723750Y22733000D01*
X29565000Y22574250D01*
X27825440Y22574250D01*
X27825440Y23241000D01*
X27802803Y23361310D01*
X29565000Y23361310D01*
X29565000Y23145750D01*
X29723750Y22987000D01*
X30673000Y22987000D01*
X30673000Y23711250D01*
X30514250Y23870000D01*
X30073691Y23870000D01*
X29840302Y23773327D01*
X29661673Y23594699D01*
X29565000Y23361310D01*
X27802803Y23361310D01*
X27781162Y23476317D01*
X27642090Y23692441D01*
X27429890Y23837431D01*
X27303664Y23862992D01*
X27401441Y23925910D01*
X27455481Y24005000D01*
X28415000Y24005000D01*
X28705839Y24062852D01*
X28952401Y24227599D01*
X29177362Y24452560D01*
X29800000Y24452560D01*
X30035317Y24496838D01*
X30251441Y24635910D01*
X30396431Y24848110D01*
X30447440Y25100000D01*
X30447440Y25700000D01*
X30403162Y25935317D01*
X30339322Y26034528D01*
X30396431Y26118110D01*
X30447440Y26370000D01*
X30447440Y26970000D01*
X30403162Y27205317D01*
X30339322Y27304528D01*
X30396431Y27388110D01*
X30447440Y27640000D01*
X30447440Y28240000D01*
X30403162Y28475317D01*
X30344822Y28565980D01*
X30435000Y28783690D01*
X30435000Y28924250D01*
X30276250Y29083000D01*
X29177000Y29083000D01*
X29177000Y29063000D01*
X28923000Y29063000D01*
X28923000Y29083000D01*
X28903000Y29083000D01*
X28903000Y29337000D01*
X28923000Y29337000D01*
X28923000Y29357000D01*
X29177000Y29357000D01*
X29177000Y29337000D01*
X30276250Y29337000D01*
X30435000Y29495750D01*
X30435000Y29636310D01*
X30345194Y29853122D01*
X30396431Y29928110D01*
X30447440Y30180000D01*
X30447440Y30780000D01*
X30403162Y31015317D01*
X30339322Y31114528D01*
X30396431Y31198110D01*
X30447440Y31450000D01*
X30447440Y32050000D01*
X30403162Y32285317D01*
X30339322Y32384528D01*
X30396431Y32468110D01*
X30447440Y32720000D01*
X30447440Y33320000D01*
X30403162Y33555317D01*
X30264090Y33771441D01*
X30051890Y33916431D01*
X29800000Y33967440D01*
X29177362Y33967440D01*
X28317401Y34827401D01*
X28070839Y34992148D01*
X27780000Y35050000D01*
X27456844Y35050000D01*
X27414090Y35116441D01*
X27305599Y35190569D01*
X27413317Y35210838D01*
X27629441Y35349910D01*
X27774431Y35562110D01*
X27825440Y35814000D01*
X27825440Y37846000D01*
X27801543Y37973000D01*
X35700278Y37973000D01*
X35674560Y37846000D01*
X35674560Y37846000D01*
G37*
X35674560Y37846000D02*
X35674560Y35814000D01*
X35718838Y35578683D01*
X35857910Y35362559D01*
X36070110Y35217569D01*
X36196336Y35192008D01*
X36098559Y35129090D01*
X36020850Y35015359D01*
X35904160Y34992148D01*
X35657599Y34827401D01*
X34797638Y33967440D01*
X33700000Y33967440D01*
X33464683Y33923162D01*
X33248559Y33784090D01*
X33103569Y33571890D01*
X33052560Y33320000D01*
X33052560Y32720000D01*
X33096838Y32484683D01*
X33160678Y32385472D01*
X33103569Y32301890D01*
X33052560Y32050000D01*
X33052560Y31450000D01*
X33096838Y31214683D01*
X33160678Y31115472D01*
X33103569Y31031890D01*
X33052560Y30780000D01*
X33052560Y30180000D01*
X33092074Y29970000D01*
X32947463Y29970000D01*
X32915327Y30002192D01*
X32571799Y30144838D01*
X32199833Y30145162D01*
X31856057Y30003117D01*
X31592808Y29740327D01*
X31450162Y29396799D01*
X31449838Y29024833D01*
X31591883Y28681057D01*
X31854673Y28417808D01*
X31963404Y28372659D01*
X31940000Y28255000D01*
X31940000Y23852334D01*
X31864683Y23838162D01*
X31761354Y23771671D01*
X31759698Y23773327D01*
X31526309Y23870000D01*
X31085750Y23870000D01*
X30927000Y23711250D01*
X30927000Y22987000D01*
X30947000Y22987000D01*
X30947000Y22733000D01*
X30927000Y22733000D01*
X30927000Y22008750D01*
X31085750Y21850000D01*
X31526309Y21850000D01*
X31759698Y21946673D01*
X31761068Y21948043D01*
X31848110Y21888569D01*
X32100000Y21837560D01*
X33300000Y21837560D01*
X33535317Y21881838D01*
X33751441Y22020910D01*
X33896431Y22233110D01*
X33947440Y22485000D01*
X33947440Y23235000D01*
X33903162Y23470317D01*
X33764090Y23686441D01*
X33551890Y23831431D01*
X33460000Y23850039D01*
X33460000Y24501161D01*
X33700000Y24452560D01*
X34322638Y24452560D01*
X34547599Y24227599D01*
X34794161Y24062852D01*
X35085000Y24005000D01*
X36043156Y24005000D01*
X36085910Y23938559D01*
X36194401Y23864431D01*
X36086683Y23844162D01*
X35870559Y23705090D01*
X35725569Y23492890D01*
X35674560Y23241000D01*
X35674560Y21209000D01*
X35718838Y20973683D01*
X35857910Y20757559D01*
X36070110Y20612569D01*
X36322000Y20561560D01*
X37846000Y20561560D01*
X38081317Y20605838D01*
X38290000Y20740122D01*
X38290000Y20005000D01*
X38347852Y19714161D01*
X38512599Y19467599D01*
X39880000Y18100198D01*
X39880000Y16860105D01*
X39738559Y16769090D01*
X39593569Y16556890D01*
X39542560Y16305000D01*
X39542560Y15105000D01*
X39586838Y14869683D01*
X39725910Y14653559D01*
X39795711Y14605866D01*
X39738559Y14569090D01*
X39593569Y14356890D01*
X39542560Y14105000D01*
X39542560Y12905000D01*
X39586838Y12669683D01*
X39725910Y12453559D01*
X39880000Y12348274D01*
X39880000Y10969648D01*
X39580330Y10769415D01*
X39370000Y10454634D01*
X39159670Y10769415D01*
X38860000Y10969648D01*
X38860000Y12349895D01*
X39001441Y12440910D01*
X39146431Y12653110D01*
X39197440Y12905000D01*
X39197440Y14105000D01*
X39153162Y14340317D01*
X39014090Y14556441D01*
X38944289Y14604134D01*
X39001441Y14640910D01*
X39146431Y14853110D01*
X39197440Y15105000D01*
X39197440Y16305000D01*
X39153162Y16540317D01*
X39014090Y16756441D01*
X38801890Y16901431D01*
X38724458Y16917111D01*
X38637401Y17047401D01*
X37367401Y18317401D01*
X37120839Y18482148D01*
X36830000Y18540000D01*
X30159802Y18540000D01*
X28875122Y19824680D01*
X28875162Y19870167D01*
X28733117Y20213943D01*
X28470327Y20477192D01*
X28126799Y20619838D01*
X27754833Y20620162D01*
X27411057Y20478117D01*
X27147808Y20215327D01*
X27005162Y19871799D01*
X27005090Y19789712D01*
X26233242Y20561560D01*
X27178000Y20561560D01*
X27413317Y20605838D01*
X27629441Y20744910D01*
X27774431Y20957110D01*
X27825440Y21209000D01*
X27825440Y22574250D01*
X29565000Y22574250D01*
X29565000Y22358690D01*
X29661673Y22125301D01*
X29840302Y21946673D01*
X30073691Y21850000D01*
X30514250Y21850000D01*
X30673000Y22008750D01*
X30673000Y22733000D01*
X29723750Y22733000D01*
X29565000Y22574250D01*
X27825440Y22574250D01*
X27825440Y23241000D01*
X27802803Y23361310D01*
X29565000Y23361310D01*
X29565000Y23145750D01*
X29723750Y22987000D01*
X30673000Y22987000D01*
X30673000Y23711250D01*
X30514250Y23870000D01*
X30073691Y23870000D01*
X29840302Y23773327D01*
X29661673Y23594699D01*
X29565000Y23361310D01*
X27802803Y23361310D01*
X27781162Y23476317D01*
X27642090Y23692441D01*
X27429890Y23837431D01*
X27303664Y23862992D01*
X27401441Y23925910D01*
X27455481Y24005000D01*
X28415000Y24005000D01*
X28705839Y24062852D01*
X28952401Y24227599D01*
X29177362Y24452560D01*
X29800000Y24452560D01*
X30035317Y24496838D01*
X30251441Y24635910D01*
X30396431Y24848110D01*
X30447440Y25100000D01*
X30447440Y25700000D01*
X30403162Y25935317D01*
X30339322Y26034528D01*
X30396431Y26118110D01*
X30447440Y26370000D01*
X30447440Y26970000D01*
X30403162Y27205317D01*
X30339322Y27304528D01*
X30396431Y27388110D01*
X30447440Y27640000D01*
X30447440Y28240000D01*
X30403162Y28475317D01*
X30344822Y28565980D01*
X30435000Y28783690D01*
X30435000Y28924250D01*
X30276250Y29083000D01*
X29177000Y29083000D01*
X29177000Y29063000D01*
X28923000Y29063000D01*
X28923000Y29083000D01*
X28903000Y29083000D01*
X28903000Y29337000D01*
X28923000Y29337000D01*
X28923000Y29357000D01*
X29177000Y29357000D01*
X29177000Y29337000D01*
X30276250Y29337000D01*
X30435000Y29495750D01*
X30435000Y29636310D01*
X30345194Y29853122D01*
X30396431Y29928110D01*
X30447440Y30180000D01*
X30447440Y30780000D01*
X30403162Y31015317D01*
X30339322Y31114528D01*
X30396431Y31198110D01*
X30447440Y31450000D01*
X30447440Y32050000D01*
X30403162Y32285317D01*
X30339322Y32384528D01*
X30396431Y32468110D01*
X30447440Y32720000D01*
X30447440Y33320000D01*
X30403162Y33555317D01*
X30264090Y33771441D01*
X30051890Y33916431D01*
X29800000Y33967440D01*
X29177362Y33967440D01*
X28317401Y34827401D01*
X28070839Y34992148D01*
X27780000Y35050000D01*
X27456844Y35050000D01*
X27414090Y35116441D01*
X27305599Y35190569D01*
X27413317Y35210838D01*
X27629441Y35349910D01*
X27774431Y35562110D01*
X27825440Y35814000D01*
X27825440Y37846000D01*
X27801543Y37973000D01*
X35700278Y37973000D01*
X35674560Y37846000D01*
G36*
X45243838Y20973683D02*
X45382910Y20757559D01*
X45595110Y20612569D01*
X45847000Y20561560D01*
X47371000Y20561560D01*
X47500000Y20585833D01*
X47500000Y16860105D01*
X47358559Y16769090D01*
X47213569Y16556890D01*
X47162560Y16305000D01*
X47162560Y15105000D01*
X47206838Y14869683D01*
X47345910Y14653559D01*
X47415711Y14605866D01*
X47358559Y14569090D01*
X47213569Y14356890D01*
X47162560Y14105000D01*
X47162560Y12905000D01*
X47206838Y12669683D01*
X47345910Y12453559D01*
X47500000Y12348274D01*
X47500000Y10969648D01*
X47200330Y10769415D01*
X46990000Y10454634D01*
X46779670Y10769415D01*
X46480000Y10969648D01*
X46480000Y12349895D01*
X46621441Y12440910D01*
X46766431Y12653110D01*
X46817440Y12905000D01*
X46817440Y14105000D01*
X46773162Y14340317D01*
X46634090Y14556441D01*
X46564289Y14604134D01*
X46621441Y14640910D01*
X46766431Y14853110D01*
X46817440Y15105000D01*
X46817440Y16305000D01*
X46773162Y16540317D01*
X46634090Y16756441D01*
X46421890Y16901431D01*
X46344458Y16917111D01*
X46257401Y17047401D01*
X45210000Y18094802D01*
X45210000Y21153516D01*
X45243838Y20973683D01*
X45243838Y20973683D01*
G37*
X45243838Y20973683D02*
X45382910Y20757559D01*
X45595110Y20612569D01*
X45847000Y20561560D01*
X47371000Y20561560D01*
X47500000Y20585833D01*
X47500000Y16860105D01*
X47358559Y16769090D01*
X47213569Y16556890D01*
X47162560Y16305000D01*
X47162560Y15105000D01*
X47206838Y14869683D01*
X47345910Y14653559D01*
X47415711Y14605866D01*
X47358559Y14569090D01*
X47213569Y14356890D01*
X47162560Y14105000D01*
X47162560Y12905000D01*
X47206838Y12669683D01*
X47345910Y12453559D01*
X47500000Y12348274D01*
X47500000Y10969648D01*
X47200330Y10769415D01*
X46990000Y10454634D01*
X46779670Y10769415D01*
X46480000Y10969648D01*
X46480000Y12349895D01*
X46621441Y12440910D01*
X46766431Y12653110D01*
X46817440Y12905000D01*
X46817440Y14105000D01*
X46773162Y14340317D01*
X46634090Y14556441D01*
X46564289Y14604134D01*
X46621441Y14640910D01*
X46766431Y14853110D01*
X46817440Y15105000D01*
X46817440Y16305000D01*
X46773162Y16540317D01*
X46634090Y16756441D01*
X46421890Y16901431D01*
X46344458Y16917111D01*
X46257401Y17047401D01*
X45210000Y18094802D01*
X45210000Y21153516D01*
X45243838Y20973683D01*
G36*
X37040895Y16494303D02*
X37002560Y16305000D01*
X37002560Y15105000D01*
X37046838Y14869683D01*
X37185910Y14653559D01*
X37255711Y14605866D01*
X37198559Y14569090D01*
X37053569Y14356890D01*
X37002560Y14105000D01*
X37002560Y12905000D01*
X37046838Y12669683D01*
X37185910Y12453559D01*
X37340000Y12348274D01*
X37340000Y10969648D01*
X37040330Y10769415D01*
X37030757Y10755087D01*
X37026762Y10776317D01*
X36887690Y10992441D01*
X36675490Y11137431D01*
X36423600Y11188440D01*
X36320000Y11188440D01*
X36320000Y12349895D01*
X36461441Y12440910D01*
X36606431Y12653110D01*
X36657440Y12905000D01*
X36657440Y14105000D01*
X36613162Y14340317D01*
X36474090Y14556441D01*
X36404289Y14604134D01*
X36461441Y14640910D01*
X36606431Y14853110D01*
X36657440Y15105000D01*
X36657440Y16305000D01*
X36613162Y16540317D01*
X36474090Y16756441D01*
X36261890Y16901431D01*
X36184457Y16917111D01*
X36115710Y17020000D01*
X36515198Y17020000D01*
X37040895Y16494303D01*
X37040895Y16494303D01*
G37*
X37040895Y16494303D02*
X37002560Y16305000D01*
X37002560Y15105000D01*
X37046838Y14869683D01*
X37185910Y14653559D01*
X37255711Y14605866D01*
X37198559Y14569090D01*
X37053569Y14356890D01*
X37002560Y14105000D01*
X37002560Y12905000D01*
X37046838Y12669683D01*
X37185910Y12453559D01*
X37340000Y12348274D01*
X37340000Y10969648D01*
X37040330Y10769415D01*
X37030757Y10755087D01*
X37026762Y10776317D01*
X36887690Y10992441D01*
X36675490Y11137431D01*
X36423600Y11188440D01*
X36320000Y11188440D01*
X36320000Y12349895D01*
X36461441Y12440910D01*
X36606431Y12653110D01*
X36657440Y12905000D01*
X36657440Y14105000D01*
X36613162Y14340317D01*
X36474090Y14556441D01*
X36404289Y14604134D01*
X36461441Y14640910D01*
X36606431Y14853110D01*
X36657440Y15105000D01*
X36657440Y16305000D01*
X36613162Y16540317D01*
X36474090Y16756441D01*
X36261890Y16901431D01*
X36184457Y16917111D01*
X36115710Y17020000D01*
X36515198Y17020000D01*
X37040895Y16494303D01*
G36*
X21704560Y35814000D02*
X21748838Y35578683D01*
X21887910Y35362559D01*
X22100110Y35217569D01*
X22352000Y35166560D01*
X23456789Y35166560D01*
X23398559Y35129090D01*
X23253569Y34916890D01*
X23202560Y34665000D01*
X23202560Y33915000D01*
X23246838Y33679683D01*
X23385910Y33463559D01*
X23443258Y33424375D01*
X23248559Y33299090D01*
X23103569Y33086890D01*
X23087889Y33009458D01*
X22957599Y32922401D01*
X21687599Y31652401D01*
X21522852Y31405839D01*
X21465000Y31115000D01*
X21465000Y24692463D01*
X21432808Y24660327D01*
X21290162Y24316799D01*
X21289838Y23944833D01*
X21431883Y23601057D01*
X21694673Y23337808D01*
X21721877Y23326512D01*
X21704560Y23241000D01*
X21704560Y22985000D01*
X21590000Y22985000D01*
X21299160Y22927148D01*
X21052599Y22762401D01*
X20005198Y21715000D01*
X19361900Y21715000D01*
X19463345Y22225000D01*
X19349271Y22798489D01*
X19024415Y23284670D01*
X18709634Y23495000D01*
X19024415Y23705330D01*
X19349271Y24191511D01*
X19463345Y24765000D01*
X19349271Y25338489D01*
X19024415Y25824670D01*
X18709634Y26035000D01*
X19024415Y26245330D01*
X19349271Y26731511D01*
X19463345Y27305000D01*
X19349271Y27878489D01*
X19024415Y28364670D01*
X18709634Y28575000D01*
X19024415Y28785330D01*
X19349271Y29271511D01*
X19463345Y29845000D01*
X19349271Y30418489D01*
X19024415Y30904670D01*
X19010087Y30914243D01*
X19031317Y30918238D01*
X19247441Y31057310D01*
X19392431Y31269510D01*
X19443440Y31521400D01*
X19443440Y33248600D01*
X19399162Y33483917D01*
X19260090Y33700041D01*
X19047890Y33845031D01*
X18796000Y33896040D01*
X16764000Y33896040D01*
X16528683Y33851762D01*
X16312559Y33712690D01*
X16167569Y33500490D01*
X16116560Y33248600D01*
X16116560Y31521400D01*
X16160838Y31286083D01*
X16299910Y31069959D01*
X16512110Y30924969D01*
X16553439Y30916600D01*
X16535585Y30904670D01*
X16210729Y30418489D01*
X16096655Y29845000D01*
X16210729Y29271511D01*
X16535585Y28785330D01*
X16850366Y28575000D01*
X16535585Y28364670D01*
X16210729Y27878489D01*
X16096655Y27305000D01*
X16210729Y26731511D01*
X16535585Y26245330D01*
X16850366Y26035000D01*
X16535585Y25824670D01*
X16210729Y25338489D01*
X16096655Y24765000D01*
X16210729Y24191511D01*
X16535585Y23705330D01*
X16850366Y23495000D01*
X16535585Y23284670D01*
X16210729Y22798489D01*
X16096655Y22225000D01*
X16198100Y21715000D01*
X15367000Y21715000D01*
X15367000Y33342198D01*
X18094802Y36070000D01*
X21704560Y36070000D01*
X21704560Y35814000D01*
X21704560Y35814000D01*
G37*
X21704560Y35814000D02*
X21748838Y35578683D01*
X21887910Y35362559D01*
X22100110Y35217569D01*
X22352000Y35166560D01*
X23456789Y35166560D01*
X23398559Y35129090D01*
X23253569Y34916890D01*
X23202560Y34665000D01*
X23202560Y33915000D01*
X23246838Y33679683D01*
X23385910Y33463559D01*
X23443258Y33424375D01*
X23248559Y33299090D01*
X23103569Y33086890D01*
X23087889Y33009458D01*
X22957599Y32922401D01*
X21687599Y31652401D01*
X21522852Y31405839D01*
X21465000Y31115000D01*
X21465000Y24692463D01*
X21432808Y24660327D01*
X21290162Y24316799D01*
X21289838Y23944833D01*
X21431883Y23601057D01*
X21694673Y23337808D01*
X21721877Y23326512D01*
X21704560Y23241000D01*
X21704560Y22985000D01*
X21590000Y22985000D01*
X21299160Y22927148D01*
X21052599Y22762401D01*
X20005198Y21715000D01*
X19361900Y21715000D01*
X19463345Y22225000D01*
X19349271Y22798489D01*
X19024415Y23284670D01*
X18709634Y23495000D01*
X19024415Y23705330D01*
X19349271Y24191511D01*
X19463345Y24765000D01*
X19349271Y25338489D01*
X19024415Y25824670D01*
X18709634Y26035000D01*
X19024415Y26245330D01*
X19349271Y26731511D01*
X19463345Y27305000D01*
X19349271Y27878489D01*
X19024415Y28364670D01*
X18709634Y28575000D01*
X19024415Y28785330D01*
X19349271Y29271511D01*
X19463345Y29845000D01*
X19349271Y30418489D01*
X19024415Y30904670D01*
X19010087Y30914243D01*
X19031317Y30918238D01*
X19247441Y31057310D01*
X19392431Y31269510D01*
X19443440Y31521400D01*
X19443440Y33248600D01*
X19399162Y33483917D01*
X19260090Y33700041D01*
X19047890Y33845031D01*
X18796000Y33896040D01*
X16764000Y33896040D01*
X16528683Y33851762D01*
X16312559Y33712690D01*
X16167569Y33500490D01*
X16116560Y33248600D01*
X16116560Y31521400D01*
X16160838Y31286083D01*
X16299910Y31069959D01*
X16512110Y30924969D01*
X16553439Y30916600D01*
X16535585Y30904670D01*
X16210729Y30418489D01*
X16096655Y29845000D01*
X16210729Y29271511D01*
X16535585Y28785330D01*
X16850366Y28575000D01*
X16535585Y28364670D01*
X16210729Y27878489D01*
X16096655Y27305000D01*
X16210729Y26731511D01*
X16535585Y26245330D01*
X16850366Y26035000D01*
X16535585Y25824670D01*
X16210729Y25338489D01*
X16096655Y24765000D01*
X16210729Y24191511D01*
X16535585Y23705330D01*
X16850366Y23495000D01*
X16535585Y23284670D01*
X16210729Y22798489D01*
X16096655Y22225000D01*
X16198100Y21715000D01*
X15367000Y21715000D01*
X15367000Y33342198D01*
X18094802Y36070000D01*
X21704560Y36070000D01*
X21704560Y35814000D01*
G36*
X69775000Y710000D02*
X59281866Y710000D01*
X59320554Y824841D01*
X58420000Y1725395D01*
X57519446Y824841D01*
X57558134Y710000D01*
X56855626Y710000D01*
X57180551Y1034357D01*
X57189203Y1055194D01*
X57339841Y1004446D01*
X58240395Y1905000D01*
X58226253Y1919142D01*
X58405858Y2098747D01*
X58420000Y2084605D01*
X58434143Y2098747D01*
X58613748Y1919142D01*
X58599605Y1905000D01*
X59500159Y1004446D01*
X59756643Y1090852D01*
X59966458Y1664336D01*
X59940839Y2274460D01*
X59756643Y2719148D01*
X59500161Y2805553D01*
X59614718Y2920110D01*
X59572541Y2962287D01*
X59679698Y3006673D01*
X59858327Y3185301D01*
X59955000Y3418690D01*
X59955000Y4159250D01*
X61165000Y4159250D01*
X61165000Y3868690D01*
X61261673Y3635301D01*
X61440302Y3456673D01*
X61673691Y3360000D01*
X62114250Y3360000D01*
X62273000Y3518750D01*
X62273000Y4318000D01*
X61323750Y4318000D01*
X61165000Y4159250D01*
X59955000Y4159250D01*
X59796250Y4318000D01*
X58547000Y4318000D01*
X58547000Y4298000D01*
X58293000Y4298000D01*
X58293000Y4318000D01*
X58273000Y4318000D01*
X58273000Y4572000D01*
X58293000Y4572000D01*
X58293000Y4592000D01*
X58547000Y4592000D01*
X58547000Y4572000D01*
X59796250Y4572000D01*
X59955000Y4730750D01*
X59955000Y5471310D01*
X59905837Y5590000D01*
X61915198Y5590000D01*
X61975198Y5530000D01*
X61673691Y5530000D01*
X61440302Y5433327D01*
X61261673Y5254699D01*
X61165000Y5021310D01*
X61165000Y4730750D01*
X61323750Y4572000D01*
X62273000Y4572000D01*
X62273000Y4592000D01*
X62527000Y4592000D01*
X62527000Y4572000D01*
X62547000Y4572000D01*
X62547000Y4318000D01*
X62527000Y4318000D01*
X62527000Y3518750D01*
X62685750Y3360000D01*
X63126309Y3360000D01*
X63359698Y3456673D01*
X63500936Y3597910D01*
X63535910Y3543559D01*
X63748110Y3398569D01*
X64000000Y3347560D01*
X65200000Y3347560D01*
X65435317Y3391838D01*
X65651441Y3530910D01*
X65796431Y3743110D01*
X65847440Y3995000D01*
X65847440Y4895000D01*
X65803162Y5130317D01*
X65664090Y5346441D01*
X65451890Y5491431D01*
X65360000Y5510039D01*
X65360000Y6340198D01*
X65467362Y6447560D01*
X66840000Y6447560D01*
X67075317Y6491838D01*
X67291441Y6630910D01*
X67436431Y6843110D01*
X67487440Y7095000D01*
X67487440Y9095000D01*
X67443162Y9330317D01*
X67304090Y9546441D01*
X67091890Y9691431D01*
X66840000Y9742440D01*
X65240000Y9742440D01*
X65004683Y9698162D01*
X64788559Y9559090D01*
X64643569Y9346890D01*
X64592560Y9095000D01*
X64592560Y7722362D01*
X64062599Y7192401D01*
X63897852Y6945839D01*
X63840000Y6655000D01*
X63840000Y5814802D01*
X62990635Y6664167D01*
X62952184Y15508014D01*
X64592560Y13867638D01*
X64592560Y12495000D01*
X64636838Y12259683D01*
X64775910Y12043559D01*
X64988110Y11898569D01*
X65240000Y11847560D01*
X66840000Y11847560D01*
X67075317Y11891838D01*
X67291441Y12030910D01*
X67436431Y12243110D01*
X67487440Y12495000D01*
X67487440Y14495000D01*
X67443162Y14730317D01*
X67304090Y14946441D01*
X67091890Y15091431D01*
X66840000Y15142440D01*
X65467362Y15142440D01*
X63625000Y16984802D01*
X63625000Y30988000D01*
X63567148Y31278839D01*
X63402401Y31525401D01*
X62880273Y32047529D01*
X62864999Y35560552D01*
X62854778Y35609918D01*
X62826157Y35651419D01*
X62783644Y35678514D01*
X62738000Y35687000D01*
X59240802Y35687000D01*
X59211401Y35716401D01*
X58964839Y35881148D01*
X58674000Y35939000D01*
X57464802Y35939000D01*
X57208802Y36195000D01*
X57372250Y36195000D01*
X57531000Y36353750D01*
X57531000Y38100000D01*
X57785000Y38100000D01*
X57785000Y36353750D01*
X57943750Y36195000D01*
X58673309Y36195000D01*
X58906698Y36291673D01*
X59085327Y36470301D01*
X59182000Y36703690D01*
X59182000Y37941250D01*
X59023250Y38100000D01*
X57785000Y38100000D01*
X57531000Y38100000D01*
X57511000Y38100000D01*
X57511000Y38354000D01*
X57531000Y38354000D01*
X57531000Y40100250D01*
X57785000Y40100250D01*
X57785000Y38354000D01*
X59023250Y38354000D01*
X59182000Y38512750D01*
X59182000Y39624000D01*
X59677560Y39624000D01*
X59677560Y36830000D01*
X59721838Y36594683D01*
X59860910Y36378559D01*
X60073110Y36233569D01*
X60325000Y36182560D01*
X62103000Y36182560D01*
X62338317Y36226838D01*
X62554441Y36365910D01*
X62699431Y36578110D01*
X62699814Y36580000D01*
X63745587Y36580000D01*
X63785838Y36366083D01*
X63924910Y36149959D01*
X64137110Y36004969D01*
X64389000Y35953960D01*
X66421000Y35953960D01*
X66656317Y35998238D01*
X66872441Y36137310D01*
X67017431Y36349510D01*
X67068440Y36601400D01*
X67068440Y38328600D01*
X67024162Y38563917D01*
X66885090Y38780041D01*
X66672890Y38925031D01*
X66578073Y38944232D01*
X66755732Y39102964D01*
X67009709Y39630209D01*
X67012358Y39645974D01*
X66891217Y39878000D01*
X65532000Y39878000D01*
X65532000Y39858000D01*
X65278000Y39858000D01*
X65278000Y39878000D01*
X63918783Y39878000D01*
X63797642Y39645974D01*
X63800291Y39630209D01*
X64054268Y39102964D01*
X64229845Y38946093D01*
X64153683Y38931762D01*
X63937559Y38792690D01*
X63792569Y38580490D01*
X63745894Y38350000D01*
X62750440Y38350000D01*
X62750440Y39624000D01*
X62706162Y39859317D01*
X62567090Y40075441D01*
X62354890Y40220431D01*
X62103000Y40271440D01*
X60325000Y40271440D01*
X60089683Y40227162D01*
X59873559Y40088090D01*
X59728569Y39875890D01*
X59677560Y39624000D01*
X59182000Y39624000D01*
X59182000Y39750310D01*
X59085327Y39983699D01*
X58906698Y40162327D01*
X58673309Y40259000D01*
X57943750Y40259000D01*
X57785000Y40100250D01*
X57531000Y40100250D01*
X57372250Y40259000D01*
X56642691Y40259000D01*
X56513000Y40205280D01*
X56513000Y41751250D01*
X59182000Y41751250D01*
X59182000Y41021691D01*
X59278673Y40788302D01*
X59457301Y40609673D01*
X59690690Y40513000D01*
X60928250Y40513000D01*
X61087000Y40671750D01*
X61087000Y41910000D01*
X61341000Y41910000D01*
X61341000Y40671750D01*
X61499750Y40513000D01*
X62737310Y40513000D01*
X62970699Y40609673D01*
X63149327Y40788302D01*
X63246000Y41021691D01*
X63246000Y41751250D01*
X63087250Y41910000D01*
X61341000Y41910000D01*
X61087000Y41910000D01*
X59340750Y41910000D01*
X59182000Y41751250D01*
X56513000Y41751250D01*
X56513000Y42634000D01*
X57024250Y42634000D01*
X57183000Y42792750D01*
X57183000Y43942000D01*
X57437000Y43942000D01*
X57437000Y42792750D01*
X57595750Y42634000D01*
X58436309Y42634000D01*
X58669698Y42730673D01*
X58848327Y42909301D01*
X58907562Y43052309D01*
X59182000Y43052309D01*
X59182000Y42322750D01*
X59340750Y42164000D01*
X61087000Y42164000D01*
X61087000Y43402250D01*
X61341000Y43402250D01*
X61341000Y42164000D01*
X63087250Y42164000D01*
X63246000Y42322750D01*
X63246000Y43052309D01*
X63149327Y43285698D01*
X62970699Y43464327D01*
X62737310Y43561000D01*
X61499750Y43561000D01*
X61341000Y43402250D01*
X61087000Y43402250D01*
X60928250Y43561000D01*
X59690690Y43561000D01*
X59457301Y43464327D01*
X59278673Y43285698D01*
X59182000Y43052309D01*
X58907562Y43052309D01*
X58945000Y43142690D01*
X58945000Y43783250D01*
X58786250Y43942000D01*
X57437000Y43942000D01*
X57183000Y43942000D01*
X57163000Y43942000D01*
X57163000Y44196000D01*
X57183000Y44196000D01*
X57183000Y45345250D01*
X57437000Y45345250D01*
X57437000Y44196000D01*
X58786250Y44196000D01*
X58945000Y44354750D01*
X58945000Y44995310D01*
X58848327Y45228699D01*
X58669698Y45407327D01*
X58436309Y45504000D01*
X57595750Y45504000D01*
X57437000Y45345250D01*
X57183000Y45345250D01*
X57024250Y45504000D01*
X56513000Y45504000D01*
X56513000Y46087673D01*
X56582148Y46191161D01*
X56640000Y46482000D01*
X56640000Y48818154D01*
X56748371Y48862932D01*
X56970668Y49084841D01*
X57519446Y49084841D01*
X57605852Y48828357D01*
X58179336Y48618542D01*
X58789460Y48644161D01*
X59234148Y48828357D01*
X59320554Y49084841D01*
X58420000Y49985395D01*
X57519446Y49084841D01*
X56970668Y49084841D01*
X57180551Y49294357D01*
X57189203Y49315194D01*
X57339841Y49264446D01*
X58240395Y50165000D01*
X58226253Y50179142D01*
X58405858Y50358747D01*
X58420000Y50344605D01*
X58434143Y50358747D01*
X58613748Y50179142D01*
X58599605Y50165000D01*
X59500159Y49264446D01*
X59756643Y49350852D01*
X59966458Y49924336D01*
X59940839Y50534460D01*
X59756643Y50979148D01*
X59500161Y51065553D01*
X59614718Y51180110D01*
X59572541Y51222287D01*
X59679698Y51266673D01*
X59858327Y51445301D01*
X59863180Y51457018D01*
X64645000Y46675198D01*
X64645000Y45141802D01*
X63656401Y46130401D01*
X63409839Y46295148D01*
X63258440Y46325263D01*
X63258440Y46482000D01*
X63214162Y46717317D01*
X63075090Y46933441D01*
X62862890Y47078431D01*
X62611000Y47129440D01*
X59817000Y47129440D01*
X59581683Y47085162D01*
X59365559Y46946090D01*
X59220569Y46733890D01*
X59169560Y46482000D01*
X59169560Y44704000D01*
X59213838Y44468683D01*
X59352910Y44252559D01*
X59565110Y44107569D01*
X59817000Y44056560D01*
X62611000Y44056560D01*
X62846317Y44100838D01*
X63062441Y44239910D01*
X63198362Y44438836D01*
X64109293Y43527905D01*
X63835729Y43118489D01*
X63721655Y42545000D01*
X63835729Y41971511D01*
X64160585Y41485330D01*
X64470069Y41278539D01*
X64054268Y40907036D01*
X63800291Y40379791D01*
X63797642Y40364026D01*
X63918783Y40132000D01*
X65278000Y40132000D01*
X65278000Y40152000D01*
X65532000Y40152000D01*
X65532000Y40132000D01*
X66891217Y40132000D01*
X67012358Y40364026D01*
X67009709Y40379791D01*
X66755732Y40907036D01*
X66339931Y41278539D01*
X66649415Y41485330D01*
X66974271Y41971511D01*
X67088345Y42545000D01*
X66974271Y43118489D01*
X66649415Y43604670D01*
X66165000Y43928346D01*
X66165000Y46990000D01*
X66107148Y47280839D01*
X65942401Y47527401D01*
X65551517Y47918285D01*
X66062514Y48019928D01*
X66381418Y48233013D01*
X66407183Y48170811D01*
X66585812Y47992183D01*
X66819201Y47895510D01*
X67659250Y47895510D01*
X67818000Y48054260D01*
X67818000Y49403000D01*
X68072000Y49403000D01*
X68072000Y48054260D01*
X68230750Y47895510D01*
X69070799Y47895510D01*
X69304188Y47992183D01*
X69482817Y48170811D01*
X69579490Y48404200D01*
X69579490Y49244250D01*
X69420740Y49403000D01*
X68072000Y49403000D01*
X67818000Y49403000D01*
X67798000Y49403000D01*
X67798000Y49657000D01*
X67818000Y49657000D01*
X67818000Y51005740D01*
X68072000Y51005740D01*
X68072000Y49657000D01*
X69420740Y49657000D01*
X69579490Y49815750D01*
X69579490Y50655800D01*
X69482817Y50889189D01*
X69304188Y51067817D01*
X69070799Y51164490D01*
X68230750Y51164490D01*
X68072000Y51005740D01*
X67818000Y51005740D01*
X67659250Y51164490D01*
X66819201Y51164490D01*
X66585812Y51067817D01*
X66407183Y50889189D01*
X66381418Y50826987D01*
X66062514Y51040072D01*
X65437022Y51164490D01*
X65372978Y51164490D01*
X64747486Y51040072D01*
X64217219Y50685759D01*
X63862906Y50155492D01*
X63771888Y49697914D01*
X61085000Y52384802D01*
X61085000Y53340000D01*
X61027148Y53630839D01*
X61027148Y53630840D01*
X60882046Y53848000D01*
X69775000Y53848000D01*
X69775000Y710000D01*
X69775000Y710000D01*
G37*
X69775000Y710000D02*
X59281866Y710000D01*
X59320554Y824841D01*
X58420000Y1725395D01*
X57519446Y824841D01*
X57558134Y710000D01*
X56855626Y710000D01*
X57180551Y1034357D01*
X57189203Y1055194D01*
X57339841Y1004446D01*
X58240395Y1905000D01*
X58226253Y1919142D01*
X58405858Y2098747D01*
X58420000Y2084605D01*
X58434143Y2098747D01*
X58613748Y1919142D01*
X58599605Y1905000D01*
X59500159Y1004446D01*
X59756643Y1090852D01*
X59966458Y1664336D01*
X59940839Y2274460D01*
X59756643Y2719148D01*
X59500161Y2805553D01*
X59614718Y2920110D01*
X59572541Y2962287D01*
X59679698Y3006673D01*
X59858327Y3185301D01*
X59955000Y3418690D01*
X59955000Y4159250D01*
X61165000Y4159250D01*
X61165000Y3868690D01*
X61261673Y3635301D01*
X61440302Y3456673D01*
X61673691Y3360000D01*
X62114250Y3360000D01*
X62273000Y3518750D01*
X62273000Y4318000D01*
X61323750Y4318000D01*
X61165000Y4159250D01*
X59955000Y4159250D01*
X59796250Y4318000D01*
X58547000Y4318000D01*
X58547000Y4298000D01*
X58293000Y4298000D01*
X58293000Y4318000D01*
X58273000Y4318000D01*
X58273000Y4572000D01*
X58293000Y4572000D01*
X58293000Y4592000D01*
X58547000Y4592000D01*
X58547000Y4572000D01*
X59796250Y4572000D01*
X59955000Y4730750D01*
X59955000Y5471310D01*
X59905837Y5590000D01*
X61915198Y5590000D01*
X61975198Y5530000D01*
X61673691Y5530000D01*
X61440302Y5433327D01*
X61261673Y5254699D01*
X61165000Y5021310D01*
X61165000Y4730750D01*
X61323750Y4572000D01*
X62273000Y4572000D01*
X62273000Y4592000D01*
X62527000Y4592000D01*
X62527000Y4572000D01*
X62547000Y4572000D01*
X62547000Y4318000D01*
X62527000Y4318000D01*
X62527000Y3518750D01*
X62685750Y3360000D01*
X63126309Y3360000D01*
X63359698Y3456673D01*
X63500936Y3597910D01*
X63535910Y3543559D01*
X63748110Y3398569D01*
X64000000Y3347560D01*
X65200000Y3347560D01*
X65435317Y3391838D01*
X65651441Y3530910D01*
X65796431Y3743110D01*
X65847440Y3995000D01*
X65847440Y4895000D01*
X65803162Y5130317D01*
X65664090Y5346441D01*
X65451890Y5491431D01*
X65360000Y5510039D01*
X65360000Y6340198D01*
X65467362Y6447560D01*
X66840000Y6447560D01*
X67075317Y6491838D01*
X67291441Y6630910D01*
X67436431Y6843110D01*
X67487440Y7095000D01*
X67487440Y9095000D01*
X67443162Y9330317D01*
X67304090Y9546441D01*
X67091890Y9691431D01*
X66840000Y9742440D01*
X65240000Y9742440D01*
X65004683Y9698162D01*
X64788559Y9559090D01*
X64643569Y9346890D01*
X64592560Y9095000D01*
X64592560Y7722362D01*
X64062599Y7192401D01*
X63897852Y6945839D01*
X63840000Y6655000D01*
X63840000Y5814802D01*
X62990635Y6664167D01*
X62952184Y15508014D01*
X64592560Y13867638D01*
X64592560Y12495000D01*
X64636838Y12259683D01*
X64775910Y12043559D01*
X64988110Y11898569D01*
X65240000Y11847560D01*
X66840000Y11847560D01*
X67075317Y11891838D01*
X67291441Y12030910D01*
X67436431Y12243110D01*
X67487440Y12495000D01*
X67487440Y14495000D01*
X67443162Y14730317D01*
X67304090Y14946441D01*
X67091890Y15091431D01*
X66840000Y15142440D01*
X65467362Y15142440D01*
X63625000Y16984802D01*
X63625000Y30988000D01*
X63567148Y31278839D01*
X63402401Y31525401D01*
X62880273Y32047529D01*
X62864999Y35560552D01*
X62854778Y35609918D01*
X62826157Y35651419D01*
X62783644Y35678514D01*
X62738000Y35687000D01*
X59240802Y35687000D01*
X59211401Y35716401D01*
X58964839Y35881148D01*
X58674000Y35939000D01*
X57464802Y35939000D01*
X57208802Y36195000D01*
X57372250Y36195000D01*
X57531000Y36353750D01*
X57531000Y38100000D01*
X57785000Y38100000D01*
X57785000Y36353750D01*
X57943750Y36195000D01*
X58673309Y36195000D01*
X58906698Y36291673D01*
X59085327Y36470301D01*
X59182000Y36703690D01*
X59182000Y37941250D01*
X59023250Y38100000D01*
X57785000Y38100000D01*
X57531000Y38100000D01*
X57511000Y38100000D01*
X57511000Y38354000D01*
X57531000Y38354000D01*
X57531000Y40100250D01*
X57785000Y40100250D01*
X57785000Y38354000D01*
X59023250Y38354000D01*
X59182000Y38512750D01*
X59182000Y39624000D01*
X59677560Y39624000D01*
X59677560Y36830000D01*
X59721838Y36594683D01*
X59860910Y36378559D01*
X60073110Y36233569D01*
X60325000Y36182560D01*
X62103000Y36182560D01*
X62338317Y36226838D01*
X62554441Y36365910D01*
X62699431Y36578110D01*
X62699814Y36580000D01*
X63745587Y36580000D01*
X63785838Y36366083D01*
X63924910Y36149959D01*
X64137110Y36004969D01*
X64389000Y35953960D01*
X66421000Y35953960D01*
X66656317Y35998238D01*
X66872441Y36137310D01*
X67017431Y36349510D01*
X67068440Y36601400D01*
X67068440Y38328600D01*
X67024162Y38563917D01*
X66885090Y38780041D01*
X66672890Y38925031D01*
X66578073Y38944232D01*
X66755732Y39102964D01*
X67009709Y39630209D01*
X67012358Y39645974D01*
X66891217Y39878000D01*
X65532000Y39878000D01*
X65532000Y39858000D01*
X65278000Y39858000D01*
X65278000Y39878000D01*
X63918783Y39878000D01*
X63797642Y39645974D01*
X63800291Y39630209D01*
X64054268Y39102964D01*
X64229845Y38946093D01*
X64153683Y38931762D01*
X63937559Y38792690D01*
X63792569Y38580490D01*
X63745894Y38350000D01*
X62750440Y38350000D01*
X62750440Y39624000D01*
X62706162Y39859317D01*
X62567090Y40075441D01*
X62354890Y40220431D01*
X62103000Y40271440D01*
X60325000Y40271440D01*
X60089683Y40227162D01*
X59873559Y40088090D01*
X59728569Y39875890D01*
X59677560Y39624000D01*
X59182000Y39624000D01*
X59182000Y39750310D01*
X59085327Y39983699D01*
X58906698Y40162327D01*
X58673309Y40259000D01*
X57943750Y40259000D01*
X57785000Y40100250D01*
X57531000Y40100250D01*
X57372250Y40259000D01*
X56642691Y40259000D01*
X56513000Y40205280D01*
X56513000Y41751250D01*
X59182000Y41751250D01*
X59182000Y41021691D01*
X59278673Y40788302D01*
X59457301Y40609673D01*
X59690690Y40513000D01*
X60928250Y40513000D01*
X61087000Y40671750D01*
X61087000Y41910000D01*
X61341000Y41910000D01*
X61341000Y40671750D01*
X61499750Y40513000D01*
X62737310Y40513000D01*
X62970699Y40609673D01*
X63149327Y40788302D01*
X63246000Y41021691D01*
X63246000Y41751250D01*
X63087250Y41910000D01*
X61341000Y41910000D01*
X61087000Y41910000D01*
X59340750Y41910000D01*
X59182000Y41751250D01*
X56513000Y41751250D01*
X56513000Y42634000D01*
X57024250Y42634000D01*
X57183000Y42792750D01*
X57183000Y43942000D01*
X57437000Y43942000D01*
X57437000Y42792750D01*
X57595750Y42634000D01*
X58436309Y42634000D01*
X58669698Y42730673D01*
X58848327Y42909301D01*
X58907562Y43052309D01*
X59182000Y43052309D01*
X59182000Y42322750D01*
X59340750Y42164000D01*
X61087000Y42164000D01*
X61087000Y43402250D01*
X61341000Y43402250D01*
X61341000Y42164000D01*
X63087250Y42164000D01*
X63246000Y42322750D01*
X63246000Y43052309D01*
X63149327Y43285698D01*
X62970699Y43464327D01*
X62737310Y43561000D01*
X61499750Y43561000D01*
X61341000Y43402250D01*
X61087000Y43402250D01*
X60928250Y43561000D01*
X59690690Y43561000D01*
X59457301Y43464327D01*
X59278673Y43285698D01*
X59182000Y43052309D01*
X58907562Y43052309D01*
X58945000Y43142690D01*
X58945000Y43783250D01*
X58786250Y43942000D01*
X57437000Y43942000D01*
X57183000Y43942000D01*
X57163000Y43942000D01*
X57163000Y44196000D01*
X57183000Y44196000D01*
X57183000Y45345250D01*
X57437000Y45345250D01*
X57437000Y44196000D01*
X58786250Y44196000D01*
X58945000Y44354750D01*
X58945000Y44995310D01*
X58848327Y45228699D01*
X58669698Y45407327D01*
X58436309Y45504000D01*
X57595750Y45504000D01*
X57437000Y45345250D01*
X57183000Y45345250D01*
X57024250Y45504000D01*
X56513000Y45504000D01*
X56513000Y46087673D01*
X56582148Y46191161D01*
X56640000Y46482000D01*
X56640000Y48818154D01*
X56748371Y48862932D01*
X56970668Y49084841D01*
X57519446Y49084841D01*
X57605852Y48828357D01*
X58179336Y48618542D01*
X58789460Y48644161D01*
X59234148Y48828357D01*
X59320554Y49084841D01*
X58420000Y49985395D01*
X57519446Y49084841D01*
X56970668Y49084841D01*
X57180551Y49294357D01*
X57189203Y49315194D01*
X57339841Y49264446D01*
X58240395Y50165000D01*
X58226253Y50179142D01*
X58405858Y50358747D01*
X58420000Y50344605D01*
X58434143Y50358747D01*
X58613748Y50179142D01*
X58599605Y50165000D01*
X59500159Y49264446D01*
X59756643Y49350852D01*
X59966458Y49924336D01*
X59940839Y50534460D01*
X59756643Y50979148D01*
X59500161Y51065553D01*
X59614718Y51180110D01*
X59572541Y51222287D01*
X59679698Y51266673D01*
X59858327Y51445301D01*
X59863180Y51457018D01*
X64645000Y46675198D01*
X64645000Y45141802D01*
X63656401Y46130401D01*
X63409839Y46295148D01*
X63258440Y46325263D01*
X63258440Y46482000D01*
X63214162Y46717317D01*
X63075090Y46933441D01*
X62862890Y47078431D01*
X62611000Y47129440D01*
X59817000Y47129440D01*
X59581683Y47085162D01*
X59365559Y46946090D01*
X59220569Y46733890D01*
X59169560Y46482000D01*
X59169560Y44704000D01*
X59213838Y44468683D01*
X59352910Y44252559D01*
X59565110Y44107569D01*
X59817000Y44056560D01*
X62611000Y44056560D01*
X62846317Y44100838D01*
X63062441Y44239910D01*
X63198362Y44438836D01*
X64109293Y43527905D01*
X63835729Y43118489D01*
X63721655Y42545000D01*
X63835729Y41971511D01*
X64160585Y41485330D01*
X64470069Y41278539D01*
X64054268Y40907036D01*
X63800291Y40379791D01*
X63797642Y40364026D01*
X63918783Y40132000D01*
X65278000Y40132000D01*
X65278000Y40152000D01*
X65532000Y40152000D01*
X65532000Y40132000D01*
X66891217Y40132000D01*
X67012358Y40364026D01*
X67009709Y40379791D01*
X66755732Y40907036D01*
X66339931Y41278539D01*
X66649415Y41485330D01*
X66974271Y41971511D01*
X67088345Y42545000D01*
X66974271Y43118489D01*
X66649415Y43604670D01*
X66165000Y43928346D01*
X66165000Y46990000D01*
X66107148Y47280839D01*
X65942401Y47527401D01*
X65551517Y47918285D01*
X66062514Y48019928D01*
X66381418Y48233013D01*
X66407183Y48170811D01*
X66585812Y47992183D01*
X66819201Y47895510D01*
X67659250Y47895510D01*
X67818000Y48054260D01*
X67818000Y49403000D01*
X68072000Y49403000D01*
X68072000Y48054260D01*
X68230750Y47895510D01*
X69070799Y47895510D01*
X69304188Y47992183D01*
X69482817Y48170811D01*
X69579490Y48404200D01*
X69579490Y49244250D01*
X69420740Y49403000D01*
X68072000Y49403000D01*
X67818000Y49403000D01*
X67798000Y49403000D01*
X67798000Y49657000D01*
X67818000Y49657000D01*
X67818000Y51005740D01*
X68072000Y51005740D01*
X68072000Y49657000D01*
X69420740Y49657000D01*
X69579490Y49815750D01*
X69579490Y50655800D01*
X69482817Y50889189D01*
X69304188Y51067817D01*
X69070799Y51164490D01*
X68230750Y51164490D01*
X68072000Y51005740D01*
X67818000Y51005740D01*
X67659250Y51164490D01*
X66819201Y51164490D01*
X66585812Y51067817D01*
X66407183Y50889189D01*
X66381418Y50826987D01*
X66062514Y51040072D01*
X65437022Y51164490D01*
X65372978Y51164490D01*
X64747486Y51040072D01*
X64217219Y50685759D01*
X63862906Y50155492D01*
X63771888Y49697914D01*
X61085000Y52384802D01*
X61085000Y53340000D01*
X61027148Y53630839D01*
X61027148Y53630840D01*
X60882046Y53848000D01*
X69775000Y53848000D01*
X69775000Y710000D01*
G36*
X1639446Y53785159D02*
X2540000Y52884605D01*
X3440554Y53785159D01*
X3419384Y53848000D01*
X4200616Y53848000D01*
X4179446Y53785159D01*
X5080000Y52884605D01*
X5980554Y53785159D01*
X5959384Y53848000D01*
X6592283Y53848000D01*
X6319449Y53575643D01*
X6310797Y53554806D01*
X6160159Y53605554D01*
X5259605Y52705000D01*
X6160159Y51804446D01*
X6310327Y51855035D01*
X6317932Y51836629D01*
X6719182Y51434677D01*
X6319449Y51035643D01*
X6310797Y51014806D01*
X6160159Y51065554D01*
X5259605Y50165000D01*
X6160159Y49264446D01*
X6310327Y49315035D01*
X6317932Y49296629D01*
X6749357Y48864449D01*
X7032200Y48747002D01*
X5812599Y47527401D01*
X5647852Y47280839D01*
X5590000Y46990000D01*
X5590000Y14919802D01*
X2341238Y11671040D01*
X1676400Y11671040D01*
X1441083Y11626762D01*
X1224959Y11487690D01*
X1079969Y11275490D01*
X1028960Y11023600D01*
X1028960Y9296400D01*
X1073238Y9061083D01*
X1212310Y8844959D01*
X1424510Y8699969D01*
X1468131Y8691136D01*
X1450971Y8679670D01*
X1126115Y8193489D01*
X1012041Y7620000D01*
X1126115Y7046511D01*
X1450971Y6560330D01*
X1937152Y6235474D01*
X2510641Y6121400D01*
X2569359Y6121400D01*
X3142848Y6235474D01*
X3629029Y6560330D01*
X3810000Y6831172D01*
X3990971Y6560330D01*
X4477152Y6235474D01*
X5050641Y6121400D01*
X5109359Y6121400D01*
X5682848Y6235474D01*
X6169029Y6560330D01*
X6350000Y6831172D01*
X6530971Y6560330D01*
X7017152Y6235474D01*
X7590641Y6121400D01*
X7649359Y6121400D01*
X8222848Y6235474D01*
X8709029Y6560330D01*
X8890000Y6831172D01*
X9070971Y6560330D01*
X9557152Y6235474D01*
X10130641Y6121400D01*
X10189359Y6121400D01*
X10762848Y6235474D01*
X11249029Y6560330D01*
X11573885Y7046511D01*
X11687959Y7620000D01*
X11573885Y8193489D01*
X11249029Y8679670D01*
X10925772Y8895664D01*
X11048490Y8953179D01*
X11442688Y9385053D01*
X11614958Y9800974D01*
X11493817Y10033000D01*
X10287000Y10033000D01*
X10287000Y10013000D01*
X10033000Y10013000D01*
X10033000Y10033000D01*
X10013000Y10033000D01*
X10013000Y10287000D01*
X10033000Y10287000D01*
X10033000Y10307000D01*
X10287000Y10307000D01*
X10287000Y10287000D01*
X11493817Y10287000D01*
X11614958Y10519026D01*
X11442688Y10934947D01*
X11104918Y11305000D01*
X11115198Y11305000D01*
X11940000Y10480198D01*
X11940000Y5791846D01*
X11831629Y5747068D01*
X11429677Y5345818D01*
X11030643Y5745551D01*
X10466670Y5979733D01*
X9856009Y5980265D01*
X9291629Y5747068D01*
X8889677Y5345818D01*
X8490643Y5745551D01*
X7926670Y5979733D01*
X7316009Y5980265D01*
X6751629Y5747068D01*
X6349677Y5345818D01*
X5950643Y5745551D01*
X5386670Y5979733D01*
X4776009Y5980265D01*
X4211629Y5747068D01*
X3809677Y5345818D01*
X3410643Y5745551D01*
X2846670Y5979733D01*
X2236009Y5980265D01*
X1671629Y5747068D01*
X1239449Y5315643D01*
X1005267Y4751670D01*
X1004735Y4141009D01*
X1237932Y3576629D01*
X1639182Y3174677D01*
X1239449Y2775643D01*
X1005267Y2211670D01*
X1004735Y1601009D01*
X1237932Y1036629D01*
X1563990Y710000D01*
X710000Y710000D01*
X710000Y49084841D01*
X1639446Y49084841D01*
X1725852Y48828357D01*
X2299336Y48618542D01*
X2909460Y48644161D01*
X3354148Y48828357D01*
X3440554Y49084841D01*
X4179446Y49084841D01*
X4265852Y48828357D01*
X4839336Y48618542D01*
X5449460Y48644161D01*
X5894148Y48828357D01*
X5980554Y49084841D01*
X5080000Y49985395D01*
X4179446Y49084841D01*
X3440554Y49084841D01*
X2540000Y49985395D01*
X1639446Y49084841D01*
X710000Y49084841D01*
X710000Y50405664D01*
X993542Y50405664D01*
X1019161Y49795540D01*
X1203357Y49350852D01*
X1459841Y49264446D01*
X2360395Y50165000D01*
X2719605Y50165000D01*
X3620159Y49264446D01*
X3810000Y49328401D01*
X3999841Y49264446D01*
X4900395Y50165000D01*
X3999841Y51065554D01*
X3810000Y51001599D01*
X3620159Y51065554D01*
X2719605Y50165000D01*
X2360395Y50165000D01*
X1459841Y51065554D01*
X1203357Y50979148D01*
X993542Y50405664D01*
X710000Y50405664D01*
X710000Y51624841D01*
X1639446Y51624841D01*
X1703401Y51435000D01*
X1639446Y51245159D01*
X2540000Y50344605D01*
X3440554Y51245159D01*
X3376599Y51435000D01*
X3440554Y51624841D01*
X4179446Y51624841D01*
X4243401Y51435000D01*
X4179446Y51245159D01*
X5080000Y50344605D01*
X5980554Y51245159D01*
X5916599Y51435000D01*
X5980554Y51624841D01*
X5080000Y52525395D01*
X4179446Y51624841D01*
X3440554Y51624841D01*
X2540000Y52525395D01*
X1639446Y51624841D01*
X710000Y51624841D01*
X710000Y52945664D01*
X993542Y52945664D01*
X1019161Y52335540D01*
X1203357Y51890852D01*
X1459841Y51804446D01*
X2360395Y52705000D01*
X2719605Y52705000D01*
X3620159Y51804446D01*
X3810000Y51868401D01*
X3999841Y51804446D01*
X4900395Y52705000D01*
X3999841Y53605554D01*
X3810000Y53541599D01*
X3620159Y53605554D01*
X2719605Y52705000D01*
X2360395Y52705000D01*
X1459841Y53605554D01*
X1203357Y53519148D01*
X993542Y52945664D01*
X710000Y52945664D01*
X710000Y53848000D01*
X1660616Y53848000D01*
X1639446Y53785159D01*
X1639446Y53785159D01*
G37*
X1639446Y53785159D02*
X2540000Y52884605D01*
X3440554Y53785159D01*
X3419384Y53848000D01*
X4200616Y53848000D01*
X4179446Y53785159D01*
X5080000Y52884605D01*
X5980554Y53785159D01*
X5959384Y53848000D01*
X6592283Y53848000D01*
X6319449Y53575643D01*
X6310797Y53554806D01*
X6160159Y53605554D01*
X5259605Y52705000D01*
X6160159Y51804446D01*
X6310327Y51855035D01*
X6317932Y51836629D01*
X6719182Y51434677D01*
X6319449Y51035643D01*
X6310797Y51014806D01*
X6160159Y51065554D01*
X5259605Y50165000D01*
X6160159Y49264446D01*
X6310327Y49315035D01*
X6317932Y49296629D01*
X6749357Y48864449D01*
X7032200Y48747002D01*
X5812599Y47527401D01*
X5647852Y47280839D01*
X5590000Y46990000D01*
X5590000Y14919802D01*
X2341238Y11671040D01*
X1676400Y11671040D01*
X1441083Y11626762D01*
X1224959Y11487690D01*
X1079969Y11275490D01*
X1028960Y11023600D01*
X1028960Y9296400D01*
X1073238Y9061083D01*
X1212310Y8844959D01*
X1424510Y8699969D01*
X1468131Y8691136D01*
X1450971Y8679670D01*
X1126115Y8193489D01*
X1012041Y7620000D01*
X1126115Y7046511D01*
X1450971Y6560330D01*
X1937152Y6235474D01*
X2510641Y6121400D01*
X2569359Y6121400D01*
X3142848Y6235474D01*
X3629029Y6560330D01*
X3810000Y6831172D01*
X3990971Y6560330D01*
X4477152Y6235474D01*
X5050641Y6121400D01*
X5109359Y6121400D01*
X5682848Y6235474D01*
X6169029Y6560330D01*
X6350000Y6831172D01*
X6530971Y6560330D01*
X7017152Y6235474D01*
X7590641Y6121400D01*
X7649359Y6121400D01*
X8222848Y6235474D01*
X8709029Y6560330D01*
X8890000Y6831172D01*
X9070971Y6560330D01*
X9557152Y6235474D01*
X10130641Y6121400D01*
X10189359Y6121400D01*
X10762848Y6235474D01*
X11249029Y6560330D01*
X11573885Y7046511D01*
X11687959Y7620000D01*
X11573885Y8193489D01*
X11249029Y8679670D01*
X10925772Y8895664D01*
X11048490Y8953179D01*
X11442688Y9385053D01*
X11614958Y9800974D01*
X11493817Y10033000D01*
X10287000Y10033000D01*
X10287000Y10013000D01*
X10033000Y10013000D01*
X10033000Y10033000D01*
X10013000Y10033000D01*
X10013000Y10287000D01*
X10033000Y10287000D01*
X10033000Y10307000D01*
X10287000Y10307000D01*
X10287000Y10287000D01*
X11493817Y10287000D01*
X11614958Y10519026D01*
X11442688Y10934947D01*
X11104918Y11305000D01*
X11115198Y11305000D01*
X11940000Y10480198D01*
X11940000Y5791846D01*
X11831629Y5747068D01*
X11429677Y5345818D01*
X11030643Y5745551D01*
X10466670Y5979733D01*
X9856009Y5980265D01*
X9291629Y5747068D01*
X8889677Y5345818D01*
X8490643Y5745551D01*
X7926670Y5979733D01*
X7316009Y5980265D01*
X6751629Y5747068D01*
X6349677Y5345818D01*
X5950643Y5745551D01*
X5386670Y5979733D01*
X4776009Y5980265D01*
X4211629Y5747068D01*
X3809677Y5345818D01*
X3410643Y5745551D01*
X2846670Y5979733D01*
X2236009Y5980265D01*
X1671629Y5747068D01*
X1239449Y5315643D01*
X1005267Y4751670D01*
X1004735Y4141009D01*
X1237932Y3576629D01*
X1639182Y3174677D01*
X1239449Y2775643D01*
X1005267Y2211670D01*
X1004735Y1601009D01*
X1237932Y1036629D01*
X1563990Y710000D01*
X710000Y710000D01*
X710000Y49084841D01*
X1639446Y49084841D01*
X1725852Y48828357D01*
X2299336Y48618542D01*
X2909460Y48644161D01*
X3354148Y48828357D01*
X3440554Y49084841D01*
X4179446Y49084841D01*
X4265852Y48828357D01*
X4839336Y48618542D01*
X5449460Y48644161D01*
X5894148Y48828357D01*
X5980554Y49084841D01*
X5080000Y49985395D01*
X4179446Y49084841D01*
X3440554Y49084841D01*
X2540000Y49985395D01*
X1639446Y49084841D01*
X710000Y49084841D01*
X710000Y50405664D01*
X993542Y50405664D01*
X1019161Y49795540D01*
X1203357Y49350852D01*
X1459841Y49264446D01*
X2360395Y50165000D01*
X2719605Y50165000D01*
X3620159Y49264446D01*
X3810000Y49328401D01*
X3999841Y49264446D01*
X4900395Y50165000D01*
X3999841Y51065554D01*
X3810000Y51001599D01*
X3620159Y51065554D01*
X2719605Y50165000D01*
X2360395Y50165000D01*
X1459841Y51065554D01*
X1203357Y50979148D01*
X993542Y50405664D01*
X710000Y50405664D01*
X710000Y51624841D01*
X1639446Y51624841D01*
X1703401Y51435000D01*
X1639446Y51245159D01*
X2540000Y50344605D01*
X3440554Y51245159D01*
X3376599Y51435000D01*
X3440554Y51624841D01*
X4179446Y51624841D01*
X4243401Y51435000D01*
X4179446Y51245159D01*
X5080000Y50344605D01*
X5980554Y51245159D01*
X5916599Y51435000D01*
X5980554Y51624841D01*
X5080000Y52525395D01*
X4179446Y51624841D01*
X3440554Y51624841D01*
X2540000Y52525395D01*
X1639446Y51624841D01*
X710000Y51624841D01*
X710000Y52945664D01*
X993542Y52945664D01*
X1019161Y52335540D01*
X1203357Y51890852D01*
X1459841Y51804446D01*
X2360395Y52705000D01*
X2719605Y52705000D01*
X3620159Y51804446D01*
X3810000Y51868401D01*
X3999841Y51804446D01*
X4900395Y52705000D01*
X3999841Y53605554D01*
X3810000Y53541599D01*
X3620159Y53605554D01*
X2719605Y52705000D01*
X2360395Y52705000D01*
X1459841Y53605554D01*
X1203357Y53519148D01*
X993542Y52945664D01*
X710000Y52945664D01*
X710000Y53848000D01*
X1660616Y53848000D01*
X1639446Y53785159D01*
G36*
X8547569Y47470490D02*
X8496560Y47218600D01*
X8496560Y45491400D01*
X8540838Y45256083D01*
X8679910Y45039959D01*
X8892110Y44894969D01*
X8933439Y44886600D01*
X8915585Y44874670D01*
X8590729Y44388489D01*
X8476655Y43815000D01*
X8590729Y43241511D01*
X8915585Y42755330D01*
X9230366Y42545000D01*
X8915585Y42334670D01*
X8590729Y41848489D01*
X8476655Y41275000D01*
X8548289Y40914869D01*
X7629210Y39995790D01*
X7437367Y39708675D01*
X7437367Y39708674D01*
X7369999Y39370000D01*
X7370000Y39369995D01*
X7370000Y31115005D01*
X7369999Y31115000D01*
X7411837Y30904670D01*
X7437367Y30776325D01*
X7549109Y30609090D01*
X7629210Y30489210D01*
X8548289Y29570131D01*
X8476655Y29210000D01*
X8548289Y28849869D01*
X7629210Y27930790D01*
X7437367Y27643675D01*
X7427852Y27595839D01*
X7369999Y27305000D01*
X7370000Y27304995D01*
X7370000Y18415005D01*
X7369999Y18415000D01*
X7426190Y18132516D01*
X7437367Y18076325D01*
X7551842Y17905000D01*
X7629210Y17789210D01*
X8527119Y16891302D01*
X8590729Y16571511D01*
X8915585Y16085330D01*
X9225069Y15878539D01*
X8809268Y15507036D01*
X8555291Y14979791D01*
X8552642Y14964026D01*
X8673783Y14732000D01*
X10033000Y14732000D01*
X10033000Y14752000D01*
X10287000Y14752000D01*
X10287000Y14732000D01*
X11646217Y14732000D01*
X11767358Y14964026D01*
X11764709Y14979791D01*
X11510732Y15507036D01*
X11094931Y15878539D01*
X11404415Y16085330D01*
X11729271Y16571511D01*
X11843345Y17145000D01*
X11729271Y17718489D01*
X11404415Y18204670D01*
X11089634Y18415000D01*
X11404415Y18625330D01*
X11604648Y18925000D01*
X12065000Y18925000D01*
X12355839Y18982852D01*
X12602401Y19147599D01*
X13649802Y20195000D01*
X14478000Y20195000D01*
X14478000Y11361802D01*
X12602401Y13237401D01*
X12355839Y13402148D01*
X12065000Y13460000D01*
X11238797Y13460000D01*
X11510732Y13702964D01*
X11764709Y14230209D01*
X11767358Y14245974D01*
X11646217Y14478000D01*
X10287000Y14478000D01*
X10287000Y14458000D01*
X10033000Y14458000D01*
X10033000Y14478000D01*
X8673783Y14478000D01*
X8552642Y14245974D01*
X8555291Y14230209D01*
X8809268Y13702964D01*
X9081203Y13460000D01*
X6985000Y13460000D01*
X6694161Y13402148D01*
X6447599Y13237401D01*
X4823646Y11613448D01*
X4477152Y11544526D01*
X4137137Y11317335D01*
X6887401Y14067599D01*
X7052148Y14314161D01*
X7110000Y14605000D01*
X7110000Y46675198D01*
X7934802Y47500000D01*
X8567732Y47500000D01*
X8547569Y47470490D01*
X8547569Y47470490D01*
G37*
X8547569Y47470490D02*
X8496560Y47218600D01*
X8496560Y45491400D01*
X8540838Y45256083D01*
X8679910Y45039959D01*
X8892110Y44894969D01*
X8933439Y44886600D01*
X8915585Y44874670D01*
X8590729Y44388489D01*
X8476655Y43815000D01*
X8590729Y43241511D01*
X8915585Y42755330D01*
X9230366Y42545000D01*
X8915585Y42334670D01*
X8590729Y41848489D01*
X8476655Y41275000D01*
X8548289Y40914869D01*
X7629210Y39995790D01*
X7437367Y39708675D01*
X7437367Y39708674D01*
X7369999Y39370000D01*
X7370000Y39369995D01*
X7370000Y31115005D01*
X7369999Y31115000D01*
X7411837Y30904670D01*
X7437367Y30776325D01*
X7549109Y30609090D01*
X7629210Y30489210D01*
X8548289Y29570131D01*
X8476655Y29210000D01*
X8548289Y28849869D01*
X7629210Y27930790D01*
X7437367Y27643675D01*
X7427852Y27595839D01*
X7369999Y27305000D01*
X7370000Y27304995D01*
X7370000Y18415005D01*
X7369999Y18415000D01*
X7426190Y18132516D01*
X7437367Y18076325D01*
X7551842Y17905000D01*
X7629210Y17789210D01*
X8527119Y16891302D01*
X8590729Y16571511D01*
X8915585Y16085330D01*
X9225069Y15878539D01*
X8809268Y15507036D01*
X8555291Y14979791D01*
X8552642Y14964026D01*
X8673783Y14732000D01*
X10033000Y14732000D01*
X10033000Y14752000D01*
X10287000Y14752000D01*
X10287000Y14732000D01*
X11646217Y14732000D01*
X11767358Y14964026D01*
X11764709Y14979791D01*
X11510732Y15507036D01*
X11094931Y15878539D01*
X11404415Y16085330D01*
X11729271Y16571511D01*
X11843345Y17145000D01*
X11729271Y17718489D01*
X11404415Y18204670D01*
X11089634Y18415000D01*
X11404415Y18625330D01*
X11604648Y18925000D01*
X12065000Y18925000D01*
X12355839Y18982852D01*
X12602401Y19147599D01*
X13649802Y20195000D01*
X14478000Y20195000D01*
X14478000Y11361802D01*
X12602401Y13237401D01*
X12355839Y13402148D01*
X12065000Y13460000D01*
X11238797Y13460000D01*
X11510732Y13702964D01*
X11764709Y14230209D01*
X11767358Y14245974D01*
X11646217Y14478000D01*
X10287000Y14478000D01*
X10287000Y14458000D01*
X10033000Y14458000D01*
X10033000Y14478000D01*
X8673783Y14478000D01*
X8552642Y14245974D01*
X8555291Y14230209D01*
X8809268Y13702964D01*
X9081203Y13460000D01*
X6985000Y13460000D01*
X6694161Y13402148D01*
X6447599Y13237401D01*
X4823646Y11613448D01*
X4477152Y11544526D01*
X4137137Y11317335D01*
X6887401Y14067599D01*
X7052148Y14314161D01*
X7110000Y14605000D01*
X7110000Y46675198D01*
X7934802Y47500000D01*
X8567732Y47500000D01*
X8547569Y47470490D01*
G36*
X14478000Y34602802D02*
X14067599Y34192401D01*
X13902852Y33945839D01*
X13845000Y33655000D01*
X13845000Y26984802D01*
X10596238Y23736040D01*
X9144000Y23736040D01*
X9140000Y23735287D01*
X9140000Y25472467D01*
X9245680Y25378046D01*
X9798087Y25184816D01*
X10033000Y25329076D01*
X10033000Y26543000D01*
X10287000Y26543000D01*
X10287000Y25329076D01*
X10521913Y25184816D01*
X11074320Y25378046D01*
X11510732Y25767964D01*
X11764709Y26295209D01*
X11767358Y26310974D01*
X11646217Y26543000D01*
X10287000Y26543000D01*
X10033000Y26543000D01*
X10013000Y26543000D01*
X10013000Y26797000D01*
X10033000Y26797000D01*
X10033000Y26817000D01*
X10287000Y26817000D01*
X10287000Y26797000D01*
X11646217Y26797000D01*
X11767358Y27029026D01*
X11764709Y27044791D01*
X11510732Y27572036D01*
X11094931Y27943539D01*
X11404415Y28150330D01*
X11729271Y28636511D01*
X11843345Y29210000D01*
X11729271Y29783489D01*
X11404415Y30269670D01*
X11089634Y30480000D01*
X11404415Y30690330D01*
X11729271Y31176511D01*
X11843345Y31750000D01*
X11729271Y32323489D01*
X11404415Y32809670D01*
X11390087Y32819243D01*
X11411317Y32823238D01*
X11627441Y32962310D01*
X11772431Y33174510D01*
X11823440Y33426400D01*
X11823440Y34878638D01*
X14478000Y37533198D01*
X14478000Y34602802D01*
X14478000Y34602802D01*
G37*
X14478000Y34602802D02*
X14067599Y34192401D01*
X13902852Y33945839D01*
X13845000Y33655000D01*
X13845000Y26984802D01*
X10596238Y23736040D01*
X9144000Y23736040D01*
X9140000Y23735287D01*
X9140000Y25472467D01*
X9245680Y25378046D01*
X9798087Y25184816D01*
X10033000Y25329076D01*
X10033000Y26543000D01*
X10287000Y26543000D01*
X10287000Y25329076D01*
X10521913Y25184816D01*
X11074320Y25378046D01*
X11510732Y25767964D01*
X11764709Y26295209D01*
X11767358Y26310974D01*
X11646217Y26543000D01*
X10287000Y26543000D01*
X10033000Y26543000D01*
X10013000Y26543000D01*
X10013000Y26797000D01*
X10033000Y26797000D01*
X10033000Y26817000D01*
X10287000Y26817000D01*
X10287000Y26797000D01*
X11646217Y26797000D01*
X11767358Y27029026D01*
X11764709Y27044791D01*
X11510732Y27572036D01*
X11094931Y27943539D01*
X11404415Y28150330D01*
X11729271Y28636511D01*
X11843345Y29210000D01*
X11729271Y29783489D01*
X11404415Y30269670D01*
X11089634Y30480000D01*
X11404415Y30690330D01*
X11729271Y31176511D01*
X11843345Y31750000D01*
X11729271Y32323489D01*
X11404415Y32809670D01*
X11390087Y32819243D01*
X11411317Y32823238D01*
X11627441Y32962310D01*
X11772431Y33174510D01*
X11823440Y33426400D01*
X11823440Y34878638D01*
X14478000Y37533198D01*
X14478000Y34602802D01*
G36*
X13847698Y39052500D02*
X10596238Y35801040D01*
X9144000Y35801040D01*
X9140000Y35800287D01*
X9140000Y37537467D01*
X9245680Y37443046D01*
X9798087Y37249816D01*
X10033000Y37394076D01*
X10033000Y38608000D01*
X10287000Y38608000D01*
X10287000Y37394076D01*
X10521913Y37249816D01*
X11074320Y37443046D01*
X11510732Y37832964D01*
X11764709Y38360209D01*
X11767358Y38375974D01*
X11646217Y38608000D01*
X10287000Y38608000D01*
X10033000Y38608000D01*
X10013000Y38608000D01*
X10013000Y38862000D01*
X10033000Y38862000D01*
X10033000Y38882000D01*
X10287000Y38882000D01*
X10287000Y38862000D01*
X11646217Y38862000D01*
X11767358Y39094026D01*
X11764709Y39109791D01*
X11510732Y39637036D01*
X11094931Y40008539D01*
X11404415Y40215330D01*
X11729271Y40701511D01*
X11807152Y41093046D01*
X13847698Y39052500D01*
X13847698Y39052500D01*
G37*
X13847698Y39052500D02*
X10596238Y35801040D01*
X9144000Y35801040D01*
X9140000Y35800287D01*
X9140000Y37537467D01*
X9245680Y37443046D01*
X9798087Y37249816D01*
X10033000Y37394076D01*
X10033000Y38608000D01*
X10287000Y38608000D01*
X10287000Y37394076D01*
X10521913Y37249816D01*
X11074320Y37443046D01*
X11510732Y37832964D01*
X11764709Y38360209D01*
X11767358Y38375974D01*
X11646217Y38608000D01*
X10287000Y38608000D01*
X10033000Y38608000D01*
X10013000Y38608000D01*
X10013000Y38862000D01*
X10033000Y38862000D01*
X10033000Y38882000D01*
X10287000Y38882000D01*
X10287000Y38862000D01*
X11646217Y38862000D01*
X11767358Y39094026D01*
X11764709Y39109791D01*
X11510732Y39637036D01*
X11094931Y40008539D01*
X11404415Y40215330D01*
X11729271Y40701511D01*
X11807152Y41093046D01*
X13847698Y39052500D01*
G36*
X58547000Y52832000D02*
X58567000Y52832000D01*
X58567000Y52578000D01*
X58547000Y52578000D01*
X58547000Y52558000D01*
X58293000Y52558000D01*
X58293000Y52578000D01*
X58273000Y52578000D01*
X58273000Y52832000D01*
X58293000Y52832000D01*
X58293000Y52852000D01*
X58547000Y52852000D01*
X58547000Y52832000D01*
X58547000Y52832000D01*
G37*
X58547000Y52832000D02*
X58567000Y52832000D01*
X58567000Y52578000D01*
X58547000Y52578000D01*
X58547000Y52558000D01*
X58293000Y52558000D01*
X58293000Y52578000D01*
X58273000Y52578000D01*
X58273000Y52832000D01*
X58293000Y52832000D01*
X58293000Y52852000D01*
X58547000Y52852000D01*
X58547000Y52832000D01*
M02*
