G04 #@! TF.FileFunction,Legend,Top*
%FSLAX46Y46*%
G04 Gerber Fmt 4.6, Leading zero omitted, Abs format (unit mm)*
G04 Created by KiCad (PCBNEW 4.0.2+dfsg1-stable) date Wed 19 Oct 2016 21:43:22 CEST*
%MOMM*%
G01*
G04 APERTURE LIST*
%ADD10C,0.100000*%
%ADD11C,0.150000*%
%ADD12C,0.381000*%
%ADD13R,2.200000X2.200000*%
%ADD14C,2.200000*%
%ADD15R,1.600000X1.150000*%
%ADD16R,1.924000X2.432000*%
%ADD17R,2.432000X2.127200*%
%ADD18O,2.432000X2.127200*%
%ADD19R,2.127200X2.432000*%
%ADD20O,2.127200X2.432000*%
%ADD21R,1.300000X1.600000*%
%ADD22R,1.600000X1.300000*%
%ADD23R,2.400000X2.000000*%
%ADD24R,2.000000X2.400000*%
%ADD25R,1.900000X1.000000*%
%ADD26R,2.127200X2.127200*%
%ADD27O,2.127200X2.127200*%
%ADD28O,2.398980X2.398980*%
%ADD29R,2.398980X2.398980*%
%ADD30R,2.178000X3.194000*%
%ADD31R,3.194000X2.178000*%
G04 APERTURE END LIST*
D10*
D11*
X70485000Y0D02*
X0Y0D01*
X70485000Y54610000D02*
X70485000Y0D01*
X0Y54610000D02*
X70485000Y54610000D01*
X0Y0D02*
X0Y54610000D01*
D12*
X71755000Y0D02*
G75*
G03X78105000Y6350000I0J6350000D01*
G01*
X78105000Y15494000D02*
X78105000Y15875000D01*
X78105000Y15875000D02*
X57785000Y15875000D01*
X57785000Y15875000D02*
X57785000Y33655000D01*
X57785000Y33655000D02*
X78105000Y33655000D01*
X78105000Y33655000D02*
X78105000Y34036000D01*
X4445000Y0D02*
X71755000Y0D01*
X78105000Y6350000D02*
X78105000Y15494000D01*
X78105000Y34036000D02*
X78105000Y46990000D01*
X78105000Y48260000D02*
X78105000Y46990000D01*
X4445000Y54610000D02*
X71755000Y54610000D01*
X-8255000Y41910000D02*
X-8255000Y12700000D01*
X4445000Y54610000D02*
G75*
G03X-8255000Y41910000I0J-12700000D01*
G01*
X-8255000Y12700000D02*
G75*
G03X4445000Y0I12700000J0D01*
G01*
X78105000Y48260000D02*
G75*
G03X71755000Y54610000I-6350000J0D01*
G01*
D11*
X37750000Y29175000D02*
X38450000Y29175000D01*
X38450000Y27975000D02*
X37750000Y27975000D01*
X37750000Y31080000D02*
X38450000Y31080000D01*
X38450000Y29880000D02*
X37750000Y29880000D01*
X37750000Y25365000D02*
X38450000Y25365000D01*
X38450000Y24165000D02*
X37750000Y24165000D01*
X37750000Y34890000D02*
X38450000Y34890000D01*
X38450000Y33690000D02*
X37750000Y33690000D01*
X32100000Y22260000D02*
X31400000Y22260000D01*
X31400000Y23460000D02*
X32100000Y23460000D01*
X36195000Y23368000D02*
X35941000Y23368000D01*
X35941000Y23368000D02*
X35941000Y21082000D01*
X35941000Y21082000D02*
X36195000Y21082000D01*
X36195000Y23368000D02*
X36195000Y21082000D01*
X36195000Y21082000D02*
X37846000Y21082000D01*
X39624000Y23368000D02*
X41275000Y23368000D01*
X41275000Y23368000D02*
X41275000Y21082000D01*
X41275000Y21082000D02*
X39624000Y21082000D01*
X37846000Y23368000D02*
X36195000Y23368000D01*
X36195000Y37973000D02*
X35941000Y37973000D01*
X35941000Y37973000D02*
X35941000Y35687000D01*
X35941000Y35687000D02*
X36195000Y35687000D01*
X36195000Y37973000D02*
X36195000Y35687000D01*
X36195000Y35687000D02*
X37846000Y35687000D01*
X39624000Y37973000D02*
X41275000Y37973000D01*
X41275000Y37973000D02*
X41275000Y35687000D01*
X41275000Y35687000D02*
X39624000Y35687000D01*
X37846000Y37973000D02*
X36195000Y37973000D01*
X25750000Y29880000D02*
X25050000Y29880000D01*
X25050000Y31080000D02*
X25750000Y31080000D01*
X25750000Y27975000D02*
X25050000Y27975000D01*
X25050000Y29175000D02*
X25750000Y29175000D01*
X25750000Y33690000D02*
X25050000Y33690000D01*
X25050000Y34890000D02*
X25750000Y34890000D01*
X25750000Y24165000D02*
X25050000Y24165000D01*
X25050000Y25365000D02*
X25750000Y25365000D01*
X27305000Y35687000D02*
X27559000Y35687000D01*
X27559000Y35687000D02*
X27559000Y37973000D01*
X27559000Y37973000D02*
X27305000Y37973000D01*
X27305000Y35687000D02*
X27305000Y37973000D01*
X27305000Y37973000D02*
X25654000Y37973000D01*
X23876000Y35687000D02*
X22225000Y35687000D01*
X22225000Y35687000D02*
X22225000Y37973000D01*
X22225000Y37973000D02*
X23876000Y37973000D01*
X25654000Y35687000D02*
X27305000Y35687000D01*
X27305000Y21082000D02*
X27559000Y21082000D01*
X27559000Y21082000D02*
X27559000Y23368000D01*
X27559000Y23368000D02*
X27305000Y23368000D01*
X27305000Y21082000D02*
X27305000Y23368000D01*
X27305000Y23368000D02*
X25654000Y23368000D01*
X23876000Y21082000D02*
X22225000Y21082000D01*
X22225000Y21082000D02*
X22225000Y23368000D01*
X22225000Y23368000D02*
X23876000Y23368000D01*
X25654000Y21082000D02*
X27305000Y21082000D01*
X48545000Y31080000D02*
X49245000Y31080000D01*
X49245000Y29880000D02*
X48545000Y29880000D01*
X49245000Y27975000D02*
X48545000Y27975000D01*
X48545000Y29175000D02*
X49245000Y29175000D01*
X49245000Y33690000D02*
X48545000Y33690000D01*
X48545000Y34890000D02*
X49245000Y34890000D01*
X49245000Y24165000D02*
X48545000Y24165000D01*
X48545000Y25365000D02*
X49245000Y25365000D01*
X50800000Y35687000D02*
X51054000Y35687000D01*
X51054000Y35687000D02*
X51054000Y37973000D01*
X51054000Y37973000D02*
X50800000Y37973000D01*
X50800000Y35687000D02*
X50800000Y37973000D01*
X50800000Y37973000D02*
X49149000Y37973000D01*
X47371000Y35687000D02*
X45720000Y35687000D01*
X45720000Y35687000D02*
X45720000Y37973000D01*
X45720000Y37973000D02*
X47371000Y37973000D01*
X49149000Y35687000D02*
X50800000Y35687000D01*
X50800000Y21082000D02*
X51054000Y21082000D01*
X51054000Y21082000D02*
X51054000Y23368000D01*
X51054000Y23368000D02*
X50800000Y23368000D01*
X50800000Y21082000D02*
X50800000Y23368000D01*
X50800000Y23368000D02*
X49149000Y23368000D01*
X47371000Y21082000D02*
X45720000Y21082000D01*
X45720000Y21082000D02*
X45720000Y23368000D01*
X45720000Y23368000D02*
X47371000Y23368000D01*
X49149000Y21082000D02*
X50800000Y21082000D01*
X19050000Y31115000D02*
X19050000Y8255000D01*
X19050000Y8255000D02*
X16510000Y8255000D01*
X16510000Y8255000D02*
X16510000Y31115000D01*
X19330000Y33935000D02*
X19330000Y32385000D01*
X19050000Y31115000D02*
X16510000Y31115000D01*
X16230000Y32385000D02*
X16230000Y33935000D01*
X16230000Y33935000D02*
X19330000Y33935000D01*
X36830000Y10795000D02*
X59690000Y10795000D01*
X59690000Y10795000D02*
X59690000Y8255000D01*
X59690000Y8255000D02*
X36830000Y8255000D01*
X34010000Y11075000D02*
X35560000Y11075000D01*
X36830000Y10795000D02*
X36830000Y8255000D01*
X35560000Y7975000D02*
X34010000Y7975000D01*
X34010000Y7975000D02*
X34010000Y11075000D01*
X60000Y25400000D02*
X8890000Y25400000D01*
X60000Y27940000D02*
X60000Y25400000D01*
X8890000Y27940000D02*
X8890000Y25400000D01*
X8890000Y30480000D02*
X8890000Y27940000D01*
X60000Y30480000D02*
X60000Y27940000D01*
X60000Y27940000D02*
X8890000Y27940000D01*
X60000Y30480000D02*
X8890000Y30480000D01*
X60000Y33020000D02*
X60000Y30480000D01*
X8890000Y33020000D02*
X60000Y33020000D01*
X8890000Y33020000D02*
X8890000Y30480000D01*
X8890000Y35560000D02*
X8890000Y33020000D01*
X11560000Y34290000D02*
X11560000Y35840000D01*
X11560000Y35840000D02*
X10160000Y35840000D01*
X8890000Y35560000D02*
X60000Y35560000D01*
X60000Y35560000D02*
X60000Y33020000D01*
X60000Y33020000D02*
X8890000Y33020000D01*
X60000Y13335000D02*
X8890000Y13335000D01*
X60000Y15875000D02*
X60000Y13335000D01*
X8890000Y15875000D02*
X8890000Y13335000D01*
X8890000Y18415000D02*
X8890000Y15875000D01*
X60000Y18415000D02*
X60000Y15875000D01*
X60000Y15875000D02*
X8890000Y15875000D01*
X60000Y18415000D02*
X8890000Y18415000D01*
X60000Y20955000D02*
X60000Y18415000D01*
X8890000Y20955000D02*
X60000Y20955000D01*
X8890000Y20955000D02*
X8890000Y18415000D01*
X8890000Y23495000D02*
X8890000Y20955000D01*
X11560000Y22225000D02*
X11560000Y23775000D01*
X11560000Y23775000D02*
X10160000Y23775000D01*
X8890000Y23495000D02*
X60000Y23495000D01*
X60000Y23495000D02*
X60000Y20955000D01*
X60000Y20955000D02*
X8890000Y20955000D01*
X60000Y37465000D02*
X8890000Y37465000D01*
X60000Y40005000D02*
X60000Y37465000D01*
X8890000Y40005000D02*
X8890000Y37465000D01*
X8890000Y42545000D02*
X8890000Y40005000D01*
X60000Y42545000D02*
X60000Y40005000D01*
X60000Y40005000D02*
X8890000Y40005000D01*
X60000Y42545000D02*
X8890000Y42545000D01*
X60000Y45085000D02*
X60000Y42545000D01*
X8890000Y45085000D02*
X60000Y45085000D01*
X8890000Y45085000D02*
X8890000Y42545000D01*
X8890000Y47625000D02*
X8890000Y45085000D01*
X11560000Y46355000D02*
X11560000Y47905000D01*
X11560000Y47905000D02*
X10160000Y47905000D01*
X8890000Y47625000D02*
X60000Y47625000D01*
X60000Y47625000D02*
X60000Y45085000D01*
X60000Y45085000D02*
X8890000Y45085000D01*
X48474000Y43823000D02*
X48474000Y44823000D01*
X49824000Y44823000D02*
X49824000Y43823000D01*
X62270000Y24630000D02*
X62270000Y23630000D01*
X60920000Y23630000D02*
X60920000Y24630000D01*
X62270000Y29075000D02*
X62270000Y28075000D01*
X60920000Y28075000D02*
X60920000Y29075000D01*
X39965000Y14105000D02*
X39965000Y15105000D01*
X41315000Y15105000D02*
X41315000Y14105000D01*
X42505000Y14105000D02*
X42505000Y15105000D01*
X43855000Y15105000D02*
X43855000Y14105000D01*
X38600000Y25995000D02*
X37600000Y25995000D01*
X37600000Y27345000D02*
X38600000Y27345000D01*
X38600000Y31710000D02*
X37600000Y31710000D01*
X37600000Y33060000D02*
X38600000Y33060000D01*
X37425000Y14105000D02*
X37425000Y15105000D01*
X38775000Y15105000D02*
X38775000Y14105000D01*
X34885000Y14105000D02*
X34885000Y15105000D01*
X36235000Y15105000D02*
X36235000Y14105000D01*
X24900000Y33060000D02*
X25900000Y33060000D01*
X25900000Y31710000D02*
X24900000Y31710000D01*
X24900000Y27345000D02*
X25900000Y27345000D01*
X25900000Y25995000D02*
X24900000Y25995000D01*
X63000000Y5120000D02*
X64000000Y5120000D01*
X64000000Y3770000D02*
X63000000Y3770000D01*
X45045000Y14105000D02*
X45045000Y15105000D01*
X46395000Y15105000D02*
X46395000Y14105000D01*
X47585000Y14105000D02*
X47585000Y15105000D01*
X48935000Y15105000D02*
X48935000Y14105000D01*
X48395000Y33060000D02*
X49395000Y33060000D01*
X49395000Y31710000D02*
X48395000Y31710000D01*
X48395000Y27345000D02*
X49395000Y27345000D01*
X49395000Y25995000D02*
X48395000Y25995000D01*
X56010000Y43369000D02*
X53210000Y43369000D01*
X53210000Y43369000D02*
X53210000Y44769000D01*
X53210000Y44769000D02*
X56010000Y44769000D01*
X56010000Y44769000D02*
X56010000Y43369000D01*
X51610000Y42319000D02*
X51610000Y42969000D01*
X51610000Y45819000D02*
X51610000Y45169000D01*
X57610000Y45169000D02*
X57610000Y45819000D01*
X57610000Y42319000D02*
X57610000Y42969000D01*
X51610000Y42319000D02*
X57610000Y42319000D01*
X57610000Y45819000D02*
X51610000Y45819000D01*
X66740000Y12195000D02*
X66740000Y9395000D01*
X66740000Y9395000D02*
X65340000Y9395000D01*
X65340000Y9395000D02*
X65340000Y12195000D01*
X65340000Y12195000D02*
X66740000Y12195000D01*
X67790000Y7795000D02*
X67140000Y7795000D01*
X64290000Y7795000D02*
X64940000Y7795000D01*
X64940000Y13795000D02*
X64290000Y13795000D01*
X67790000Y13795000D02*
X67140000Y13795000D01*
X67790000Y7795000D02*
X67790000Y13795000D01*
X64290000Y13795000D02*
X64290000Y7795000D01*
X33825000Y24760000D02*
X33825000Y24875000D01*
X29675000Y24760000D02*
X29675000Y24875000D01*
X29675000Y33660000D02*
X29675000Y33545000D01*
X33825000Y33660000D02*
X33825000Y33545000D01*
X33825000Y24760000D02*
X29675000Y24760000D01*
X33825000Y33660000D02*
X29675000Y33660000D01*
X33825000Y24875000D02*
X35200000Y24875000D01*
X53805000Y34295000D02*
X53805000Y34180000D01*
X57955000Y34295000D02*
X57955000Y34180000D01*
X57955000Y25395000D02*
X57955000Y25510000D01*
X53805000Y25395000D02*
X53805000Y25510000D01*
X53805000Y34295000D02*
X57955000Y34295000D01*
X53805000Y25395000D02*
X57955000Y25395000D01*
X53805000Y34180000D02*
X52430000Y34180000D01*
X3810000Y11430000D02*
X11430000Y11430000D01*
X11430000Y11430000D02*
X11430000Y6350000D01*
X11430000Y6350000D02*
X1270000Y6350000D01*
X1270000Y6350000D02*
X1270000Y8890000D01*
X2540000Y11710000D02*
X990000Y11710000D01*
X1270000Y8890000D02*
X3810000Y8890000D01*
X3810000Y8890000D02*
X3810000Y11430000D01*
X990000Y11710000D02*
X990000Y10160000D01*
X63875920Y52130960D02*
X69474080Y52130960D01*
X69275960Y52628800D02*
X69275960Y52130960D01*
X64074040Y52130960D02*
X64074040Y52628800D01*
X66675000Y52628800D02*
X66675000Y52130960D01*
X69474080Y46829980D02*
X63875920Y46829980D01*
X69474080Y52628800D02*
X63875920Y52628800D01*
X63875920Y52628800D02*
X63875920Y46431200D01*
X63875920Y46431200D02*
X69474080Y46431200D01*
X69474080Y46431200D02*
X69474080Y52628800D01*
X66675000Y41275000D02*
X66675000Y43815000D01*
X75505000Y41275000D02*
X75505000Y43815000D01*
X75505000Y43815000D02*
X66675000Y43815000D01*
X75505000Y41275000D02*
X66675000Y41275000D01*
X75505000Y38735000D02*
X75505000Y41275000D01*
X66675000Y38735000D02*
X75505000Y38735000D01*
X66675000Y38735000D02*
X66675000Y41275000D01*
X66675000Y36195000D02*
X66675000Y38735000D01*
X64005000Y37465000D02*
X64005000Y35915000D01*
X64005000Y35915000D02*
X65405000Y35915000D01*
X66675000Y36195000D02*
X75505000Y36195000D01*
X75505000Y36195000D02*
X75505000Y38735000D01*
X75505000Y38735000D02*
X66675000Y38735000D01*
X55530000Y24095000D02*
X56230000Y24095000D01*
X56230000Y22895000D02*
X55530000Y22895000D01*
X62230000Y36703000D02*
X62230000Y39751000D01*
X58547000Y39751000D02*
X56642000Y39751000D01*
X56642000Y39751000D02*
X56642000Y36703000D01*
X56642000Y36703000D02*
X58547000Y36703000D01*
X60198000Y36703000D02*
X62230000Y36703000D01*
X62030000Y36703000D02*
X62030000Y39751000D01*
X62230000Y39751000D02*
X60198000Y39751000D01*
X62738000Y46609000D02*
X59690000Y46609000D01*
X59690000Y42926000D02*
X59690000Y41021000D01*
X59690000Y41021000D02*
X62738000Y41021000D01*
X62738000Y41021000D02*
X62738000Y42926000D01*
X62738000Y44577000D02*
X62738000Y46609000D01*
X62738000Y46409000D02*
X59690000Y46409000D01*
X59690000Y46609000D02*
X59690000Y44577000D01*
X41108334Y28217857D02*
X41060715Y28170238D01*
X40917858Y28122619D01*
X40822620Y28122619D01*
X40679762Y28170238D01*
X40584524Y28265476D01*
X40536905Y28360714D01*
X40489286Y28551190D01*
X40489286Y28694048D01*
X40536905Y28884524D01*
X40584524Y28979762D01*
X40679762Y29075000D01*
X40822620Y29122619D01*
X40917858Y29122619D01*
X41060715Y29075000D01*
X41108334Y29027381D01*
X42060715Y28122619D02*
X41489286Y28122619D01*
X41775000Y28122619D02*
X41775000Y29122619D01*
X41679762Y28979762D01*
X41584524Y28884524D01*
X41489286Y28836905D01*
X41108334Y30122857D02*
X41060715Y30075238D01*
X40917858Y30027619D01*
X40822620Y30027619D01*
X40679762Y30075238D01*
X40584524Y30170476D01*
X40536905Y30265714D01*
X40489286Y30456190D01*
X40489286Y30599048D01*
X40536905Y30789524D01*
X40584524Y30884762D01*
X40679762Y30980000D01*
X40822620Y31027619D01*
X40917858Y31027619D01*
X41060715Y30980000D01*
X41108334Y30932381D01*
X41489286Y30932381D02*
X41536905Y30980000D01*
X41632143Y31027619D01*
X41870239Y31027619D01*
X41965477Y30980000D01*
X42013096Y30932381D01*
X42060715Y30837143D01*
X42060715Y30741905D01*
X42013096Y30599048D01*
X41441667Y30027619D01*
X42060715Y30027619D01*
X41108334Y24407857D02*
X41060715Y24360238D01*
X40917858Y24312619D01*
X40822620Y24312619D01*
X40679762Y24360238D01*
X40584524Y24455476D01*
X40536905Y24550714D01*
X40489286Y24741190D01*
X40489286Y24884048D01*
X40536905Y25074524D01*
X40584524Y25169762D01*
X40679762Y25265000D01*
X40822620Y25312619D01*
X40917858Y25312619D01*
X41060715Y25265000D01*
X41108334Y25217381D01*
X41441667Y25312619D02*
X42060715Y25312619D01*
X41727381Y24931667D01*
X41870239Y24931667D01*
X41965477Y24884048D01*
X42013096Y24836429D01*
X42060715Y24741190D01*
X42060715Y24503095D01*
X42013096Y24407857D01*
X41965477Y24360238D01*
X41870239Y24312619D01*
X41584524Y24312619D01*
X41489286Y24360238D01*
X41441667Y24407857D01*
X41108334Y33932857D02*
X41060715Y33885238D01*
X40917858Y33837619D01*
X40822620Y33837619D01*
X40679762Y33885238D01*
X40584524Y33980476D01*
X40536905Y34075714D01*
X40489286Y34266190D01*
X40489286Y34409048D01*
X40536905Y34599524D01*
X40584524Y34694762D01*
X40679762Y34790000D01*
X40822620Y34837619D01*
X40917858Y34837619D01*
X41060715Y34790000D01*
X41108334Y34742381D01*
X41965477Y34504286D02*
X41965477Y33837619D01*
X41727381Y34885238D02*
X41489286Y34170952D01*
X42108334Y34170952D01*
X34758334Y22502857D02*
X34710715Y22455238D01*
X34567858Y22407619D01*
X34472620Y22407619D01*
X34329762Y22455238D01*
X34234524Y22550476D01*
X34186905Y22645714D01*
X34139286Y22836190D01*
X34139286Y22979048D01*
X34186905Y23169524D01*
X34234524Y23264762D01*
X34329762Y23360000D01*
X34472620Y23407619D01*
X34567858Y23407619D01*
X34710715Y23360000D01*
X34758334Y23312381D01*
X35663096Y23407619D02*
X35186905Y23407619D01*
X35139286Y22931429D01*
X35186905Y22979048D01*
X35282143Y23026667D01*
X35520239Y23026667D01*
X35615477Y22979048D01*
X35663096Y22931429D01*
X35710715Y22836190D01*
X35710715Y22598095D01*
X35663096Y22502857D01*
X35615477Y22455238D01*
X35520239Y22407619D01*
X35282143Y22407619D01*
X35186905Y22455238D01*
X35139286Y22502857D01*
X38568334Y21867857D02*
X38520715Y21820238D01*
X38377858Y21772619D01*
X38282620Y21772619D01*
X38139762Y21820238D01*
X38044524Y21915476D01*
X37996905Y22010714D01*
X37949286Y22201190D01*
X37949286Y22344048D01*
X37996905Y22534524D01*
X38044524Y22629762D01*
X38139762Y22725000D01*
X38282620Y22772619D01*
X38377858Y22772619D01*
X38520715Y22725000D01*
X38568334Y22677381D01*
X39425477Y22772619D02*
X39235000Y22772619D01*
X39139762Y22725000D01*
X39092143Y22677381D01*
X38996905Y22534524D01*
X38949286Y22344048D01*
X38949286Y21963095D01*
X38996905Y21867857D01*
X39044524Y21820238D01*
X39139762Y21772619D01*
X39330239Y21772619D01*
X39425477Y21820238D01*
X39473096Y21867857D01*
X39520715Y21963095D01*
X39520715Y22201190D01*
X39473096Y22296429D01*
X39425477Y22344048D01*
X39330239Y22391667D01*
X39139762Y22391667D01*
X39044524Y22344048D01*
X38996905Y22296429D01*
X38949286Y22201190D01*
X38568334Y36472857D02*
X38520715Y36425238D01*
X38377858Y36377619D01*
X38282620Y36377619D01*
X38139762Y36425238D01*
X38044524Y36520476D01*
X37996905Y36615714D01*
X37949286Y36806190D01*
X37949286Y36949048D01*
X37996905Y37139524D01*
X38044524Y37234762D01*
X38139762Y37330000D01*
X38282620Y37377619D01*
X38377858Y37377619D01*
X38520715Y37330000D01*
X38568334Y37282381D01*
X38901667Y37377619D02*
X39568334Y37377619D01*
X39139762Y36377619D01*
X22058334Y30122857D02*
X22010715Y30075238D01*
X21867858Y30027619D01*
X21772620Y30027619D01*
X21629762Y30075238D01*
X21534524Y30170476D01*
X21486905Y30265714D01*
X21439286Y30456190D01*
X21439286Y30599048D01*
X21486905Y30789524D01*
X21534524Y30884762D01*
X21629762Y30980000D01*
X21772620Y31027619D01*
X21867858Y31027619D01*
X22010715Y30980000D01*
X22058334Y30932381D01*
X22629762Y30599048D02*
X22534524Y30646667D01*
X22486905Y30694286D01*
X22439286Y30789524D01*
X22439286Y30837143D01*
X22486905Y30932381D01*
X22534524Y30980000D01*
X22629762Y31027619D01*
X22820239Y31027619D01*
X22915477Y30980000D01*
X22963096Y30932381D01*
X23010715Y30837143D01*
X23010715Y30789524D01*
X22963096Y30694286D01*
X22915477Y30646667D01*
X22820239Y30599048D01*
X22629762Y30599048D01*
X22534524Y30551429D01*
X22486905Y30503810D01*
X22439286Y30408571D01*
X22439286Y30218095D01*
X22486905Y30122857D01*
X22534524Y30075238D01*
X22629762Y30027619D01*
X22820239Y30027619D01*
X22915477Y30075238D01*
X22963096Y30122857D01*
X23010715Y30218095D01*
X23010715Y30408571D01*
X22963096Y30503810D01*
X22915477Y30551429D01*
X22820239Y30599048D01*
X22058334Y28217857D02*
X22010715Y28170238D01*
X21867858Y28122619D01*
X21772620Y28122619D01*
X21629762Y28170238D01*
X21534524Y28265476D01*
X21486905Y28360714D01*
X21439286Y28551190D01*
X21439286Y28694048D01*
X21486905Y28884524D01*
X21534524Y28979762D01*
X21629762Y29075000D01*
X21772620Y29122619D01*
X21867858Y29122619D01*
X22010715Y29075000D01*
X22058334Y29027381D01*
X22534524Y28122619D02*
X22725000Y28122619D01*
X22820239Y28170238D01*
X22867858Y28217857D01*
X22963096Y28360714D01*
X23010715Y28551190D01*
X23010715Y28932143D01*
X22963096Y29027381D01*
X22915477Y29075000D01*
X22820239Y29122619D01*
X22629762Y29122619D01*
X22534524Y29075000D01*
X22486905Y29027381D01*
X22439286Y28932143D01*
X22439286Y28694048D01*
X22486905Y28598810D01*
X22534524Y28551190D01*
X22629762Y28503571D01*
X22820239Y28503571D01*
X22915477Y28551190D01*
X22963096Y28598810D01*
X23010715Y28694048D01*
X21582143Y33932857D02*
X21534524Y33885238D01*
X21391667Y33837619D01*
X21296429Y33837619D01*
X21153571Y33885238D01*
X21058333Y33980476D01*
X21010714Y34075714D01*
X20963095Y34266190D01*
X20963095Y34409048D01*
X21010714Y34599524D01*
X21058333Y34694762D01*
X21153571Y34790000D01*
X21296429Y34837619D01*
X21391667Y34837619D01*
X21534524Y34790000D01*
X21582143Y34742381D01*
X22534524Y33837619D02*
X21963095Y33837619D01*
X22248809Y33837619D02*
X22248809Y34837619D01*
X22153571Y34694762D01*
X22058333Y34599524D01*
X21963095Y34551905D01*
X23153571Y34837619D02*
X23248810Y34837619D01*
X23344048Y34790000D01*
X23391667Y34742381D01*
X23439286Y34647143D01*
X23486905Y34456667D01*
X23486905Y34218571D01*
X23439286Y34028095D01*
X23391667Y33932857D01*
X23344048Y33885238D01*
X23248810Y33837619D01*
X23153571Y33837619D01*
X23058333Y33885238D01*
X23010714Y33932857D01*
X22963095Y34028095D01*
X22915476Y34218571D01*
X22915476Y34456667D01*
X22963095Y34647143D01*
X23010714Y34742381D01*
X23058333Y34790000D01*
X23153571Y34837619D01*
X21582143Y24407857D02*
X21534524Y24360238D01*
X21391667Y24312619D01*
X21296429Y24312619D01*
X21153571Y24360238D01*
X21058333Y24455476D01*
X21010714Y24550714D01*
X20963095Y24741190D01*
X20963095Y24884048D01*
X21010714Y25074524D01*
X21058333Y25169762D01*
X21153571Y25265000D01*
X21296429Y25312619D01*
X21391667Y25312619D01*
X21534524Y25265000D01*
X21582143Y25217381D01*
X22534524Y24312619D02*
X21963095Y24312619D01*
X22248809Y24312619D02*
X22248809Y25312619D01*
X22153571Y25169762D01*
X22058333Y25074524D01*
X21963095Y25026905D01*
X23486905Y24312619D02*
X22915476Y24312619D01*
X23201190Y24312619D02*
X23201190Y25312619D01*
X23105952Y25169762D01*
X23010714Y25074524D01*
X22915476Y25026905D01*
X24122143Y36472857D02*
X24074524Y36425238D01*
X23931667Y36377619D01*
X23836429Y36377619D01*
X23693571Y36425238D01*
X23598333Y36520476D01*
X23550714Y36615714D01*
X23503095Y36806190D01*
X23503095Y36949048D01*
X23550714Y37139524D01*
X23598333Y37234762D01*
X23693571Y37330000D01*
X23836429Y37377619D01*
X23931667Y37377619D01*
X24074524Y37330000D01*
X24122143Y37282381D01*
X25074524Y36377619D02*
X24503095Y36377619D01*
X24788809Y36377619D02*
X24788809Y37377619D01*
X24693571Y37234762D01*
X24598333Y37139524D01*
X24503095Y37091905D01*
X25455476Y37282381D02*
X25503095Y37330000D01*
X25598333Y37377619D01*
X25836429Y37377619D01*
X25931667Y37330000D01*
X25979286Y37282381D01*
X26026905Y37187143D01*
X26026905Y37091905D01*
X25979286Y36949048D01*
X25407857Y36377619D01*
X26026905Y36377619D01*
X24122143Y21867857D02*
X24074524Y21820238D01*
X23931667Y21772619D01*
X23836429Y21772619D01*
X23693571Y21820238D01*
X23598333Y21915476D01*
X23550714Y22010714D01*
X23503095Y22201190D01*
X23503095Y22344048D01*
X23550714Y22534524D01*
X23598333Y22629762D01*
X23693571Y22725000D01*
X23836429Y22772619D01*
X23931667Y22772619D01*
X24074524Y22725000D01*
X24122143Y22677381D01*
X25074524Y21772619D02*
X24503095Y21772619D01*
X24788809Y21772619D02*
X24788809Y22772619D01*
X24693571Y22629762D01*
X24598333Y22534524D01*
X24503095Y22486905D01*
X25407857Y22772619D02*
X26026905Y22772619D01*
X25693571Y22391667D01*
X25836429Y22391667D01*
X25931667Y22344048D01*
X25979286Y22296429D01*
X26026905Y22201190D01*
X26026905Y21963095D01*
X25979286Y21867857D01*
X25931667Y21820238D01*
X25836429Y21772619D01*
X25550714Y21772619D01*
X25455476Y21820238D01*
X25407857Y21867857D01*
X44442143Y30122857D02*
X44394524Y30075238D01*
X44251667Y30027619D01*
X44156429Y30027619D01*
X44013571Y30075238D01*
X43918333Y30170476D01*
X43870714Y30265714D01*
X43823095Y30456190D01*
X43823095Y30599048D01*
X43870714Y30789524D01*
X43918333Y30884762D01*
X44013571Y30980000D01*
X44156429Y31027619D01*
X44251667Y31027619D01*
X44394524Y30980000D01*
X44442143Y30932381D01*
X45394524Y30027619D02*
X44823095Y30027619D01*
X45108809Y30027619D02*
X45108809Y31027619D01*
X45013571Y30884762D01*
X44918333Y30789524D01*
X44823095Y30741905D01*
X46251667Y30694286D02*
X46251667Y30027619D01*
X46013571Y31075238D02*
X45775476Y30360952D01*
X46394524Y30360952D01*
X44442143Y28217857D02*
X44394524Y28170238D01*
X44251667Y28122619D01*
X44156429Y28122619D01*
X44013571Y28170238D01*
X43918333Y28265476D01*
X43870714Y28360714D01*
X43823095Y28551190D01*
X43823095Y28694048D01*
X43870714Y28884524D01*
X43918333Y28979762D01*
X44013571Y29075000D01*
X44156429Y29122619D01*
X44251667Y29122619D01*
X44394524Y29075000D01*
X44442143Y29027381D01*
X45394524Y28122619D02*
X44823095Y28122619D01*
X45108809Y28122619D02*
X45108809Y29122619D01*
X45013571Y28979762D01*
X44918333Y28884524D01*
X44823095Y28836905D01*
X46299286Y29122619D02*
X45823095Y29122619D01*
X45775476Y28646429D01*
X45823095Y28694048D01*
X45918333Y28741667D01*
X46156429Y28741667D01*
X46251667Y28694048D01*
X46299286Y28646429D01*
X46346905Y28551190D01*
X46346905Y28313095D01*
X46299286Y28217857D01*
X46251667Y28170238D01*
X46156429Y28122619D01*
X45918333Y28122619D01*
X45823095Y28170238D01*
X45775476Y28217857D01*
X44442143Y33932857D02*
X44394524Y33885238D01*
X44251667Y33837619D01*
X44156429Y33837619D01*
X44013571Y33885238D01*
X43918333Y33980476D01*
X43870714Y34075714D01*
X43823095Y34266190D01*
X43823095Y34409048D01*
X43870714Y34599524D01*
X43918333Y34694762D01*
X44013571Y34790000D01*
X44156429Y34837619D01*
X44251667Y34837619D01*
X44394524Y34790000D01*
X44442143Y34742381D01*
X45394524Y33837619D02*
X44823095Y33837619D01*
X45108809Y33837619D02*
X45108809Y34837619D01*
X45013571Y34694762D01*
X44918333Y34599524D01*
X44823095Y34551905D01*
X46251667Y34837619D02*
X46061190Y34837619D01*
X45965952Y34790000D01*
X45918333Y34742381D01*
X45823095Y34599524D01*
X45775476Y34409048D01*
X45775476Y34028095D01*
X45823095Y33932857D01*
X45870714Y33885238D01*
X45965952Y33837619D01*
X46156429Y33837619D01*
X46251667Y33885238D01*
X46299286Y33932857D01*
X46346905Y34028095D01*
X46346905Y34266190D01*
X46299286Y34361429D01*
X46251667Y34409048D01*
X46156429Y34456667D01*
X45965952Y34456667D01*
X45870714Y34409048D01*
X45823095Y34361429D01*
X45775476Y34266190D01*
X44442143Y24407857D02*
X44394524Y24360238D01*
X44251667Y24312619D01*
X44156429Y24312619D01*
X44013571Y24360238D01*
X43918333Y24455476D01*
X43870714Y24550714D01*
X43823095Y24741190D01*
X43823095Y24884048D01*
X43870714Y25074524D01*
X43918333Y25169762D01*
X44013571Y25265000D01*
X44156429Y25312619D01*
X44251667Y25312619D01*
X44394524Y25265000D01*
X44442143Y25217381D01*
X45394524Y24312619D02*
X44823095Y24312619D01*
X45108809Y24312619D02*
X45108809Y25312619D01*
X45013571Y25169762D01*
X44918333Y25074524D01*
X44823095Y25026905D01*
X45727857Y25312619D02*
X46394524Y25312619D01*
X45965952Y24312619D01*
X47617143Y36472857D02*
X47569524Y36425238D01*
X47426667Y36377619D01*
X47331429Y36377619D01*
X47188571Y36425238D01*
X47093333Y36520476D01*
X47045714Y36615714D01*
X46998095Y36806190D01*
X46998095Y36949048D01*
X47045714Y37139524D01*
X47093333Y37234762D01*
X47188571Y37330000D01*
X47331429Y37377619D01*
X47426667Y37377619D01*
X47569524Y37330000D01*
X47617143Y37282381D01*
X48569524Y36377619D02*
X47998095Y36377619D01*
X48283809Y36377619D02*
X48283809Y37377619D01*
X48188571Y37234762D01*
X48093333Y37139524D01*
X47998095Y37091905D01*
X49140952Y36949048D02*
X49045714Y36996667D01*
X48998095Y37044286D01*
X48950476Y37139524D01*
X48950476Y37187143D01*
X48998095Y37282381D01*
X49045714Y37330000D01*
X49140952Y37377619D01*
X49331429Y37377619D01*
X49426667Y37330000D01*
X49474286Y37282381D01*
X49521905Y37187143D01*
X49521905Y37139524D01*
X49474286Y37044286D01*
X49426667Y36996667D01*
X49331429Y36949048D01*
X49140952Y36949048D01*
X49045714Y36901429D01*
X48998095Y36853810D01*
X48950476Y36758571D01*
X48950476Y36568095D01*
X48998095Y36472857D01*
X49045714Y36425238D01*
X49140952Y36377619D01*
X49331429Y36377619D01*
X49426667Y36425238D01*
X49474286Y36472857D01*
X49521905Y36568095D01*
X49521905Y36758571D01*
X49474286Y36853810D01*
X49426667Y36901429D01*
X49331429Y36949048D01*
X47617143Y21867857D02*
X47569524Y21820238D01*
X47426667Y21772619D01*
X47331429Y21772619D01*
X47188571Y21820238D01*
X47093333Y21915476D01*
X47045714Y22010714D01*
X46998095Y22201190D01*
X46998095Y22344048D01*
X47045714Y22534524D01*
X47093333Y22629762D01*
X47188571Y22725000D01*
X47331429Y22772619D01*
X47426667Y22772619D01*
X47569524Y22725000D01*
X47617143Y22677381D01*
X48569524Y21772619D02*
X47998095Y21772619D01*
X48283809Y21772619D02*
X48283809Y22772619D01*
X48188571Y22629762D01*
X48093333Y22534524D01*
X47998095Y22486905D01*
X49045714Y21772619D02*
X49236190Y21772619D01*
X49331429Y21820238D01*
X49379048Y21867857D01*
X49474286Y22010714D01*
X49521905Y22201190D01*
X49521905Y22582143D01*
X49474286Y22677381D01*
X49426667Y22725000D01*
X49331429Y22772619D01*
X49140952Y22772619D01*
X49045714Y22725000D01*
X48998095Y22677381D01*
X48950476Y22582143D01*
X48950476Y22344048D01*
X48998095Y22248810D01*
X49045714Y22201190D01*
X49140952Y22153571D01*
X49331429Y22153571D01*
X49426667Y22201190D01*
X49474286Y22248810D01*
X49521905Y22344048D01*
X17041905Y34472619D02*
X17041905Y35472619D01*
X17422858Y35472619D01*
X17518096Y35425000D01*
X17565715Y35377381D01*
X17613334Y35282143D01*
X17613334Y35139286D01*
X17565715Y35044048D01*
X17518096Y34996429D01*
X17422858Y34948810D01*
X17041905Y34948810D01*
X18565715Y34472619D02*
X17994286Y34472619D01*
X18280000Y34472619D02*
X18280000Y35472619D01*
X18184762Y35329762D01*
X18089524Y35234524D01*
X17994286Y35186905D01*
X33472381Y8786905D02*
X32472381Y8786905D01*
X32472381Y9167858D01*
X32520000Y9263096D01*
X32567619Y9310715D01*
X32662857Y9358334D01*
X32805714Y9358334D01*
X32900952Y9310715D01*
X32948571Y9263096D01*
X32996190Y9167858D01*
X32996190Y8786905D01*
X32805714Y10215477D02*
X33472381Y10215477D01*
X32424762Y9977381D02*
X33139048Y9739286D01*
X33139048Y10358334D01*
X6802381Y25931905D02*
X5802381Y25931905D01*
X5802381Y26312858D01*
X5850000Y26408096D01*
X5897619Y26455715D01*
X5992857Y26503334D01*
X6135714Y26503334D01*
X6230952Y26455715D01*
X6278571Y26408096D01*
X6326190Y26312858D01*
X6326190Y25931905D01*
X5802381Y27408096D02*
X5802381Y26931905D01*
X6278571Y26884286D01*
X6230952Y26931905D01*
X6183333Y27027143D01*
X6183333Y27265239D01*
X6230952Y27360477D01*
X6278571Y27408096D01*
X6373810Y27455715D01*
X6611905Y27455715D01*
X6707143Y27408096D01*
X6754762Y27360477D01*
X6802381Y27265239D01*
X6802381Y27027143D01*
X6754762Y26931905D01*
X6707143Y26884286D01*
X7437381Y13866905D02*
X6437381Y13866905D01*
X6437381Y14247858D01*
X6485000Y14343096D01*
X6532619Y14390715D01*
X6627857Y14438334D01*
X6770714Y14438334D01*
X6865952Y14390715D01*
X6913571Y14343096D01*
X6961190Y14247858D01*
X6961190Y13866905D01*
X6437381Y15295477D02*
X6437381Y15105000D01*
X6485000Y15009762D01*
X6532619Y14962143D01*
X6675476Y14866905D01*
X6865952Y14819286D01*
X7246905Y14819286D01*
X7342143Y14866905D01*
X7389762Y14914524D01*
X7437381Y15009762D01*
X7437381Y15200239D01*
X7389762Y15295477D01*
X7342143Y15343096D01*
X7246905Y15390715D01*
X7008810Y15390715D01*
X6913571Y15343096D01*
X6865952Y15295477D01*
X6818333Y15200239D01*
X6818333Y15009762D01*
X6865952Y14914524D01*
X6913571Y14866905D01*
X7008810Y14819286D01*
X7437381Y37996905D02*
X6437381Y37996905D01*
X6437381Y38377858D01*
X6485000Y38473096D01*
X6532619Y38520715D01*
X6627857Y38568334D01*
X6770714Y38568334D01*
X6865952Y38520715D01*
X6913571Y38473096D01*
X6961190Y38377858D01*
X6961190Y37996905D01*
X6437381Y38901667D02*
X6437381Y39568334D01*
X7437381Y39139762D01*
X51501381Y44156334D02*
X51025190Y43823000D01*
X51501381Y43584905D02*
X50501381Y43584905D01*
X50501381Y43965858D01*
X50549000Y44061096D01*
X50596619Y44108715D01*
X50691857Y44156334D01*
X50834714Y44156334D01*
X50929952Y44108715D01*
X50977571Y44061096D01*
X51025190Y43965858D01*
X51025190Y43584905D01*
X51501381Y45108715D02*
X51501381Y44537286D01*
X51501381Y44823000D02*
X50501381Y44823000D01*
X50644238Y44727762D01*
X50739476Y44632524D01*
X50787095Y44537286D01*
X63952381Y23963334D02*
X63476190Y23630000D01*
X63952381Y23391905D02*
X62952381Y23391905D01*
X62952381Y23772858D01*
X63000000Y23868096D01*
X63047619Y23915715D01*
X63142857Y23963334D01*
X63285714Y23963334D01*
X63380952Y23915715D01*
X63428571Y23868096D01*
X63476190Y23772858D01*
X63476190Y23391905D01*
X63047619Y24344286D02*
X63000000Y24391905D01*
X62952381Y24487143D01*
X62952381Y24725239D01*
X63000000Y24820477D01*
X63047619Y24868096D01*
X63142857Y24915715D01*
X63238095Y24915715D01*
X63380952Y24868096D01*
X63952381Y24296667D01*
X63952381Y24915715D01*
X63952381Y28408334D02*
X63476190Y28075000D01*
X63952381Y27836905D02*
X62952381Y27836905D01*
X62952381Y28217858D01*
X63000000Y28313096D01*
X63047619Y28360715D01*
X63142857Y28408334D01*
X63285714Y28408334D01*
X63380952Y28360715D01*
X63428571Y28313096D01*
X63476190Y28217858D01*
X63476190Y27836905D01*
X62952381Y28741667D02*
X62952381Y29360715D01*
X63333333Y29027381D01*
X63333333Y29170239D01*
X63380952Y29265477D01*
X63428571Y29313096D01*
X63523810Y29360715D01*
X63761905Y29360715D01*
X63857143Y29313096D01*
X63904762Y29265477D01*
X63952381Y29170239D01*
X63952381Y28884524D01*
X63904762Y28789286D01*
X63857143Y28741667D01*
X41092381Y17613334D02*
X40616190Y17280000D01*
X41092381Y17041905D02*
X40092381Y17041905D01*
X40092381Y17422858D01*
X40140000Y17518096D01*
X40187619Y17565715D01*
X40282857Y17613334D01*
X40425714Y17613334D01*
X40520952Y17565715D01*
X40568571Y17518096D01*
X40616190Y17422858D01*
X40616190Y17041905D01*
X40425714Y18470477D02*
X41092381Y18470477D01*
X40044762Y18232381D02*
X40759048Y17994286D01*
X40759048Y18613334D01*
X43632381Y17613334D02*
X43156190Y17280000D01*
X43632381Y17041905D02*
X42632381Y17041905D01*
X42632381Y17422858D01*
X42680000Y17518096D01*
X42727619Y17565715D01*
X42822857Y17613334D01*
X42965714Y17613334D01*
X43060952Y17565715D01*
X43108571Y17518096D01*
X43156190Y17422858D01*
X43156190Y17041905D01*
X42632381Y18518096D02*
X42632381Y18041905D01*
X43108571Y17994286D01*
X43060952Y18041905D01*
X43013333Y18137143D01*
X43013333Y18375239D01*
X43060952Y18470477D01*
X43108571Y18518096D01*
X43203810Y18565715D01*
X43441905Y18565715D01*
X43537143Y18518096D01*
X43584762Y18470477D01*
X43632381Y18375239D01*
X43632381Y18137143D01*
X43584762Y18041905D01*
X43537143Y17994286D01*
X41108334Y26217619D02*
X40775000Y26693810D01*
X40536905Y26217619D02*
X40536905Y27217619D01*
X40917858Y27217619D01*
X41013096Y27170000D01*
X41060715Y27122381D01*
X41108334Y27027143D01*
X41108334Y26884286D01*
X41060715Y26789048D01*
X41013096Y26741429D01*
X40917858Y26693810D01*
X40536905Y26693810D01*
X41965477Y27217619D02*
X41775000Y27217619D01*
X41679762Y27170000D01*
X41632143Y27122381D01*
X41536905Y26979524D01*
X41489286Y26789048D01*
X41489286Y26408095D01*
X41536905Y26312857D01*
X41584524Y26265238D01*
X41679762Y26217619D01*
X41870239Y26217619D01*
X41965477Y26265238D01*
X42013096Y26312857D01*
X42060715Y26408095D01*
X42060715Y26646190D01*
X42013096Y26741429D01*
X41965477Y26789048D01*
X41870239Y26836667D01*
X41679762Y26836667D01*
X41584524Y26789048D01*
X41536905Y26741429D01*
X41489286Y26646190D01*
X41108334Y31932619D02*
X40775000Y32408810D01*
X40536905Y31932619D02*
X40536905Y32932619D01*
X40917858Y32932619D01*
X41013096Y32885000D01*
X41060715Y32837381D01*
X41108334Y32742143D01*
X41108334Y32599286D01*
X41060715Y32504048D01*
X41013096Y32456429D01*
X40917858Y32408810D01*
X40536905Y32408810D01*
X41441667Y32932619D02*
X42108334Y32932619D01*
X41679762Y31932619D01*
X38552381Y17613334D02*
X38076190Y17280000D01*
X38552381Y17041905D02*
X37552381Y17041905D01*
X37552381Y17422858D01*
X37600000Y17518096D01*
X37647619Y17565715D01*
X37742857Y17613334D01*
X37885714Y17613334D01*
X37980952Y17565715D01*
X38028571Y17518096D01*
X38076190Y17422858D01*
X38076190Y17041905D01*
X37980952Y18184762D02*
X37933333Y18089524D01*
X37885714Y18041905D01*
X37790476Y17994286D01*
X37742857Y17994286D01*
X37647619Y18041905D01*
X37600000Y18089524D01*
X37552381Y18184762D01*
X37552381Y18375239D01*
X37600000Y18470477D01*
X37647619Y18518096D01*
X37742857Y18565715D01*
X37790476Y18565715D01*
X37885714Y18518096D01*
X37933333Y18470477D01*
X37980952Y18375239D01*
X37980952Y18184762D01*
X38028571Y18089524D01*
X38076190Y18041905D01*
X38171429Y17994286D01*
X38361905Y17994286D01*
X38457143Y18041905D01*
X38504762Y18089524D01*
X38552381Y18184762D01*
X38552381Y18375239D01*
X38504762Y18470477D01*
X38457143Y18518096D01*
X38361905Y18565715D01*
X38171429Y18565715D01*
X38076190Y18518096D01*
X38028571Y18470477D01*
X37980952Y18375239D01*
X36012381Y17613334D02*
X35536190Y17280000D01*
X36012381Y17041905D02*
X35012381Y17041905D01*
X35012381Y17422858D01*
X35060000Y17518096D01*
X35107619Y17565715D01*
X35202857Y17613334D01*
X35345714Y17613334D01*
X35440952Y17565715D01*
X35488571Y17518096D01*
X35536190Y17422858D01*
X35536190Y17041905D01*
X36012381Y18089524D02*
X36012381Y18280000D01*
X35964762Y18375239D01*
X35917143Y18422858D01*
X35774286Y18518096D01*
X35583810Y18565715D01*
X35202857Y18565715D01*
X35107619Y18518096D01*
X35060000Y18470477D01*
X35012381Y18375239D01*
X35012381Y18184762D01*
X35060000Y18089524D01*
X35107619Y18041905D01*
X35202857Y17994286D01*
X35440952Y17994286D01*
X35536190Y18041905D01*
X35583810Y18089524D01*
X35631429Y18184762D01*
X35631429Y18375239D01*
X35583810Y18470477D01*
X35536190Y18518096D01*
X35440952Y18565715D01*
X21582143Y31932619D02*
X21248809Y32408810D01*
X21010714Y31932619D02*
X21010714Y32932619D01*
X21391667Y32932619D01*
X21486905Y32885000D01*
X21534524Y32837381D01*
X21582143Y32742143D01*
X21582143Y32599286D01*
X21534524Y32504048D01*
X21486905Y32456429D01*
X21391667Y32408810D01*
X21010714Y32408810D01*
X22534524Y31932619D02*
X21963095Y31932619D01*
X22248809Y31932619D02*
X22248809Y32932619D01*
X22153571Y32789762D01*
X22058333Y32694524D01*
X21963095Y32646905D01*
X23153571Y32932619D02*
X23248810Y32932619D01*
X23344048Y32885000D01*
X23391667Y32837381D01*
X23439286Y32742143D01*
X23486905Y32551667D01*
X23486905Y32313571D01*
X23439286Y32123095D01*
X23391667Y32027857D01*
X23344048Y31980238D01*
X23248810Y31932619D01*
X23153571Y31932619D01*
X23058333Y31980238D01*
X23010714Y32027857D01*
X22963095Y32123095D01*
X22915476Y32313571D01*
X22915476Y32551667D01*
X22963095Y32742143D01*
X23010714Y32837381D01*
X23058333Y32885000D01*
X23153571Y32932619D01*
X21582143Y26217619D02*
X21248809Y26693810D01*
X21010714Y26217619D02*
X21010714Y27217619D01*
X21391667Y27217619D01*
X21486905Y27170000D01*
X21534524Y27122381D01*
X21582143Y27027143D01*
X21582143Y26884286D01*
X21534524Y26789048D01*
X21486905Y26741429D01*
X21391667Y26693810D01*
X21010714Y26693810D01*
X22534524Y26217619D02*
X21963095Y26217619D01*
X22248809Y26217619D02*
X22248809Y27217619D01*
X22153571Y27074762D01*
X22058333Y26979524D01*
X21963095Y26931905D01*
X23486905Y26217619D02*
X22915476Y26217619D01*
X23201190Y26217619D02*
X23201190Y27217619D01*
X23105952Y27074762D01*
X23010714Y26979524D01*
X22915476Y26931905D01*
X62857143Y2092619D02*
X62523809Y2568810D01*
X62285714Y2092619D02*
X62285714Y3092619D01*
X62666667Y3092619D01*
X62761905Y3045000D01*
X62809524Y2997381D01*
X62857143Y2902143D01*
X62857143Y2759286D01*
X62809524Y2664048D01*
X62761905Y2616429D01*
X62666667Y2568810D01*
X62285714Y2568810D01*
X63809524Y2092619D02*
X63238095Y2092619D01*
X63523809Y2092619D02*
X63523809Y3092619D01*
X63428571Y2949762D01*
X63333333Y2854524D01*
X63238095Y2806905D01*
X64190476Y2997381D02*
X64238095Y3045000D01*
X64333333Y3092619D01*
X64571429Y3092619D01*
X64666667Y3045000D01*
X64714286Y2997381D01*
X64761905Y2902143D01*
X64761905Y2806905D01*
X64714286Y2664048D01*
X64142857Y2092619D01*
X64761905Y2092619D01*
X46172381Y17772143D02*
X45696190Y17438809D01*
X46172381Y17200714D02*
X45172381Y17200714D01*
X45172381Y17581667D01*
X45220000Y17676905D01*
X45267619Y17724524D01*
X45362857Y17772143D01*
X45505714Y17772143D01*
X45600952Y17724524D01*
X45648571Y17676905D01*
X45696190Y17581667D01*
X45696190Y17200714D01*
X46172381Y18724524D02*
X46172381Y18153095D01*
X46172381Y18438809D02*
X45172381Y18438809D01*
X45315238Y18343571D01*
X45410476Y18248333D01*
X45458095Y18153095D01*
X45172381Y19057857D02*
X45172381Y19676905D01*
X45553333Y19343571D01*
X45553333Y19486429D01*
X45600952Y19581667D01*
X45648571Y19629286D01*
X45743810Y19676905D01*
X45981905Y19676905D01*
X46077143Y19629286D01*
X46124762Y19581667D01*
X46172381Y19486429D01*
X46172381Y19200714D01*
X46124762Y19105476D01*
X46077143Y19057857D01*
X48712381Y17772143D02*
X48236190Y17438809D01*
X48712381Y17200714D02*
X47712381Y17200714D01*
X47712381Y17581667D01*
X47760000Y17676905D01*
X47807619Y17724524D01*
X47902857Y17772143D01*
X48045714Y17772143D01*
X48140952Y17724524D01*
X48188571Y17676905D01*
X48236190Y17581667D01*
X48236190Y17200714D01*
X48712381Y18724524D02*
X48712381Y18153095D01*
X48712381Y18438809D02*
X47712381Y18438809D01*
X47855238Y18343571D01*
X47950476Y18248333D01*
X47998095Y18153095D01*
X48045714Y19581667D02*
X48712381Y19581667D01*
X47664762Y19343571D02*
X48379048Y19105476D01*
X48379048Y19724524D01*
X44442143Y31932619D02*
X44108809Y32408810D01*
X43870714Y31932619D02*
X43870714Y32932619D01*
X44251667Y32932619D01*
X44346905Y32885000D01*
X44394524Y32837381D01*
X44442143Y32742143D01*
X44442143Y32599286D01*
X44394524Y32504048D01*
X44346905Y32456429D01*
X44251667Y32408810D01*
X43870714Y32408810D01*
X45394524Y31932619D02*
X44823095Y31932619D01*
X45108809Y31932619D02*
X45108809Y32932619D01*
X45013571Y32789762D01*
X44918333Y32694524D01*
X44823095Y32646905D01*
X46299286Y32932619D02*
X45823095Y32932619D01*
X45775476Y32456429D01*
X45823095Y32504048D01*
X45918333Y32551667D01*
X46156429Y32551667D01*
X46251667Y32504048D01*
X46299286Y32456429D01*
X46346905Y32361190D01*
X46346905Y32123095D01*
X46299286Y32027857D01*
X46251667Y31980238D01*
X46156429Y31932619D01*
X45918333Y31932619D01*
X45823095Y31980238D01*
X45775476Y32027857D01*
X44442143Y26217619D02*
X44108809Y26693810D01*
X43870714Y26217619D02*
X43870714Y27217619D01*
X44251667Y27217619D01*
X44346905Y27170000D01*
X44394524Y27122381D01*
X44442143Y27027143D01*
X44442143Y26884286D01*
X44394524Y26789048D01*
X44346905Y26741429D01*
X44251667Y26693810D01*
X43870714Y26693810D01*
X45394524Y26217619D02*
X44823095Y26217619D01*
X45108809Y26217619D02*
X45108809Y27217619D01*
X45013571Y27074762D01*
X44918333Y26979524D01*
X44823095Y26931905D01*
X46251667Y27217619D02*
X46061190Y27217619D01*
X45965952Y27170000D01*
X45918333Y27122381D01*
X45823095Y26979524D01*
X45775476Y26789048D01*
X45775476Y26408095D01*
X45823095Y26312857D01*
X45870714Y26265238D01*
X45965952Y26217619D01*
X46156429Y26217619D01*
X46251667Y26265238D01*
X46299286Y26312857D01*
X46346905Y26408095D01*
X46346905Y26646190D01*
X46299286Y26741429D01*
X46251667Y26789048D01*
X46156429Y26836667D01*
X45965952Y26836667D01*
X45870714Y26789048D01*
X45823095Y26741429D01*
X45775476Y26646190D01*
X54176667Y40964238D02*
X54319524Y40916619D01*
X54557620Y40916619D01*
X54652858Y40964238D01*
X54700477Y41011857D01*
X54748096Y41107095D01*
X54748096Y41202333D01*
X54700477Y41297571D01*
X54652858Y41345190D01*
X54557620Y41392810D01*
X54367143Y41440429D01*
X54271905Y41488048D01*
X54224286Y41535667D01*
X54176667Y41630905D01*
X54176667Y41726143D01*
X54224286Y41821381D01*
X54271905Y41869000D01*
X54367143Y41916619D01*
X54605239Y41916619D01*
X54748096Y41869000D01*
X55081429Y41916619D02*
X55319524Y40916619D01*
X55510001Y41630905D01*
X55700477Y40916619D01*
X55938572Y41916619D01*
X56843334Y40916619D02*
X56271905Y40916619D01*
X56557619Y40916619D02*
X56557619Y41916619D01*
X56462381Y41773762D01*
X56367143Y41678524D01*
X56271905Y41630905D01*
X69144762Y10361667D02*
X69192381Y10504524D01*
X69192381Y10742620D01*
X69144762Y10837858D01*
X69097143Y10885477D01*
X69001905Y10933096D01*
X68906667Y10933096D01*
X68811429Y10885477D01*
X68763810Y10837858D01*
X68716190Y10742620D01*
X68668571Y10552143D01*
X68620952Y10456905D01*
X68573333Y10409286D01*
X68478095Y10361667D01*
X68382857Y10361667D01*
X68287619Y10409286D01*
X68240000Y10456905D01*
X68192381Y10552143D01*
X68192381Y10790239D01*
X68240000Y10933096D01*
X68192381Y11266429D02*
X69192381Y11504524D01*
X68478095Y11695001D01*
X69192381Y11885477D01*
X68192381Y12123572D01*
X68287619Y12456905D02*
X68240000Y12504524D01*
X68192381Y12599762D01*
X68192381Y12837858D01*
X68240000Y12933096D01*
X68287619Y12980715D01*
X68382857Y13028334D01*
X68478095Y13028334D01*
X68620952Y12980715D01*
X69192381Y12409286D01*
X69192381Y13028334D01*
X30988095Y24382619D02*
X30988095Y23573095D01*
X31035714Y23477857D01*
X31083333Y23430238D01*
X31178571Y23382619D01*
X31369048Y23382619D01*
X31464286Y23430238D01*
X31511905Y23477857D01*
X31559524Y23573095D01*
X31559524Y24382619D01*
X32559524Y23382619D02*
X31988095Y23382619D01*
X32273809Y23382619D02*
X32273809Y24382619D01*
X32178571Y24239762D01*
X32083333Y24144524D01*
X31988095Y24096905D01*
X55118095Y35767619D02*
X55118095Y34958095D01*
X55165714Y34862857D01*
X55213333Y34815238D01*
X55308571Y34767619D01*
X55499048Y34767619D01*
X55594286Y34815238D01*
X55641905Y34862857D01*
X55689524Y34958095D01*
X55689524Y35767619D01*
X56118095Y35672381D02*
X56165714Y35720000D01*
X56260952Y35767619D01*
X56499048Y35767619D01*
X56594286Y35720000D01*
X56641905Y35672381D01*
X56689524Y35577143D01*
X56689524Y35481905D01*
X56641905Y35339048D01*
X56070476Y34767619D01*
X56689524Y34767619D01*
X3706905Y4627619D02*
X3706905Y5627619D01*
X4087858Y5627619D01*
X4183096Y5580000D01*
X4230715Y5532381D01*
X4278334Y5437143D01*
X4278334Y5294286D01*
X4230715Y5199048D01*
X4183096Y5151429D01*
X4087858Y5103810D01*
X3706905Y5103810D01*
X4659286Y5532381D02*
X4706905Y5580000D01*
X4802143Y5627619D01*
X5040239Y5627619D01*
X5135477Y5580000D01*
X5183096Y5532381D01*
X5230715Y5437143D01*
X5230715Y5341905D01*
X5183096Y5199048D01*
X4611667Y4627619D01*
X5230715Y4627619D01*
X65936905Y44576739D02*
X65936905Y45576739D01*
X66317858Y45576739D01*
X66413096Y45529120D01*
X66460715Y45481501D01*
X66508334Y45386263D01*
X66508334Y45243406D01*
X66460715Y45148168D01*
X66413096Y45100549D01*
X66317858Y45052930D01*
X65936905Y45052930D01*
X66841667Y45576739D02*
X67460715Y45576739D01*
X67127381Y45195787D01*
X67270239Y45195787D01*
X67365477Y45148168D01*
X67413096Y45100549D01*
X67460715Y45005310D01*
X67460715Y44767215D01*
X67413096Y44671977D01*
X67365477Y44624358D01*
X67270239Y44576739D01*
X66984524Y44576739D01*
X66889286Y44624358D01*
X66841667Y44671977D01*
X60107381Y36703095D02*
X60916905Y36703095D01*
X61012143Y36750714D01*
X61059762Y36798333D01*
X61107381Y36893571D01*
X61107381Y37084048D01*
X61059762Y37179286D01*
X61012143Y37226905D01*
X60916905Y37274524D01*
X60107381Y37274524D01*
X60440714Y38179286D02*
X61107381Y38179286D01*
X60059762Y37941190D02*
X60774048Y37703095D01*
X60774048Y38322143D01*
X55237143Y25037857D02*
X55189524Y24990238D01*
X55046667Y24942619D01*
X54951429Y24942619D01*
X54808571Y24990238D01*
X54713333Y25085476D01*
X54665714Y25180714D01*
X54618095Y25371190D01*
X54618095Y25514048D01*
X54665714Y25704524D01*
X54713333Y25799762D01*
X54808571Y25895000D01*
X54951429Y25942619D01*
X55046667Y25942619D01*
X55189524Y25895000D01*
X55237143Y25847381D01*
X55618095Y25847381D02*
X55665714Y25895000D01*
X55760952Y25942619D01*
X55999048Y25942619D01*
X56094286Y25895000D01*
X56141905Y25847381D01*
X56189524Y25752143D01*
X56189524Y25656905D01*
X56141905Y25514048D01*
X55570476Y24942619D01*
X56189524Y24942619D01*
X56808571Y25942619D02*
X56903810Y25942619D01*
X56999048Y25895000D01*
X57046667Y25847381D01*
X57094286Y25752143D01*
X57141905Y25561667D01*
X57141905Y25323571D01*
X57094286Y25133095D01*
X57046667Y25037857D01*
X56999048Y24990238D01*
X56903810Y24942619D01*
X56808571Y24942619D01*
X56713333Y24990238D01*
X56665714Y25037857D01*
X56618095Y25133095D01*
X56570476Y25323571D01*
X56570476Y25561667D01*
X56618095Y25752143D01*
X56665714Y25847381D01*
X56713333Y25895000D01*
X56808571Y25942619D01*
X58666143Y37107857D02*
X58618524Y37060238D01*
X58475667Y37012619D01*
X58380429Y37012619D01*
X58237571Y37060238D01*
X58142333Y37155476D01*
X58094714Y37250714D01*
X58047095Y37441190D01*
X58047095Y37584048D01*
X58094714Y37774524D01*
X58142333Y37869762D01*
X58237571Y37965000D01*
X58380429Y38012619D01*
X58475667Y38012619D01*
X58618524Y37965000D01*
X58666143Y37917381D01*
X59047095Y37917381D02*
X59094714Y37965000D01*
X59189952Y38012619D01*
X59428048Y38012619D01*
X59523286Y37965000D01*
X59570905Y37917381D01*
X59618524Y37822143D01*
X59618524Y37726905D01*
X59570905Y37584048D01*
X58999476Y37012619D01*
X59618524Y37012619D01*
X60570905Y37012619D02*
X59999476Y37012619D01*
X60285190Y37012619D02*
X60285190Y38012619D01*
X60189952Y37869762D01*
X60094714Y37774524D01*
X59999476Y37726905D01*
X62333143Y43045143D02*
X62380762Y42997524D01*
X62428381Y42854667D01*
X62428381Y42759429D01*
X62380762Y42616571D01*
X62285524Y42521333D01*
X62190286Y42473714D01*
X61999810Y42426095D01*
X61856952Y42426095D01*
X61666476Y42473714D01*
X61571238Y42521333D01*
X61476000Y42616571D01*
X61428381Y42759429D01*
X61428381Y42854667D01*
X61476000Y42997524D01*
X61523619Y43045143D01*
X61523619Y43426095D02*
X61476000Y43473714D01*
X61428381Y43568952D01*
X61428381Y43807048D01*
X61476000Y43902286D01*
X61523619Y43949905D01*
X61618857Y43997524D01*
X61714095Y43997524D01*
X61856952Y43949905D01*
X62428381Y43378476D01*
X62428381Y43997524D01*
X61523619Y44378476D02*
X61476000Y44426095D01*
X61428381Y44521333D01*
X61428381Y44759429D01*
X61476000Y44854667D01*
X61523619Y44902286D01*
X61618857Y44949905D01*
X61714095Y44949905D01*
X61856952Y44902286D01*
X62428381Y44330857D01*
X62428381Y44949905D01*
%LPC*%
D13*
X58420000Y52705000D03*
D14*
X58420000Y50165000D03*
X55880000Y52705000D03*
X55880000Y50165000D03*
X53340000Y52705000D03*
X53340000Y50165000D03*
X50800000Y52705000D03*
X50800000Y50165000D03*
X48260000Y52705000D03*
X48260000Y50165000D03*
X45720000Y52705000D03*
X45720000Y50165000D03*
X43180000Y52705000D03*
X43180000Y50165000D03*
X40640000Y52705000D03*
X40640000Y50165000D03*
X38100000Y52705000D03*
X38100000Y50165000D03*
X35560000Y52705000D03*
X35560000Y50165000D03*
X33020000Y52705000D03*
X33020000Y50165000D03*
X30480000Y52705000D03*
X30480000Y50165000D03*
X27940000Y52705000D03*
X27940000Y50165000D03*
X25400000Y52705000D03*
X25400000Y50165000D03*
X22860000Y52705000D03*
X22860000Y50165000D03*
X20320000Y52705000D03*
X20320000Y50165000D03*
X17780000Y52705000D03*
X17780000Y50165000D03*
X15240000Y52705000D03*
X15240000Y50165000D03*
X12700000Y52705000D03*
X12700000Y50165000D03*
X10160000Y52705000D03*
X10160000Y50165000D03*
X7620000Y52705000D03*
X7620000Y50165000D03*
X5080000Y52705000D03*
X5080000Y50165000D03*
X2540000Y52705000D03*
X2540000Y50165000D03*
D13*
X58420000Y4445000D03*
D14*
X58420000Y1905000D03*
X55880000Y4445000D03*
X55880000Y1905000D03*
X53340000Y4445000D03*
X53340000Y1905000D03*
X50800000Y4445000D03*
X50800000Y1905000D03*
X48260000Y4445000D03*
X48260000Y1905000D03*
X45720000Y4445000D03*
X45720000Y1905000D03*
X43180000Y4445000D03*
X43180000Y1905000D03*
X40640000Y4445000D03*
X40640000Y1905000D03*
X38100000Y4445000D03*
X38100000Y1905000D03*
X35560000Y4445000D03*
X35560000Y1905000D03*
X33020000Y4445000D03*
X33020000Y1905000D03*
X30480000Y4445000D03*
X30480000Y1905000D03*
X27940000Y4445000D03*
X27940000Y1905000D03*
X25400000Y4445000D03*
X25400000Y1905000D03*
X22860000Y4445000D03*
X22860000Y1905000D03*
X20320000Y4445000D03*
X20320000Y1905000D03*
X17780000Y4445000D03*
X17780000Y1905000D03*
X15240000Y4445000D03*
X15240000Y1905000D03*
X12700000Y4445000D03*
X12700000Y1905000D03*
X10160000Y4445000D03*
X10160000Y1905000D03*
X7620000Y4445000D03*
X7620000Y1905000D03*
X5080000Y4445000D03*
X5080000Y1905000D03*
X2540000Y4445000D03*
X2540000Y1905000D03*
D15*
X37150000Y28575000D03*
X39050000Y28575000D03*
X37150000Y30480000D03*
X39050000Y30480000D03*
X37150000Y24765000D03*
X39050000Y24765000D03*
X37150000Y34290000D03*
X39050000Y34290000D03*
X32700000Y22860000D03*
X30800000Y22860000D03*
D16*
X37084000Y22225000D03*
X40386000Y22225000D03*
X37084000Y36830000D03*
X40386000Y36830000D03*
D15*
X26350000Y30480000D03*
X24450000Y30480000D03*
X26350000Y28575000D03*
X24450000Y28575000D03*
X26350000Y34290000D03*
X24450000Y34290000D03*
X26350000Y24765000D03*
X24450000Y24765000D03*
D16*
X26416000Y36830000D03*
X23114000Y36830000D03*
X26416000Y22225000D03*
X23114000Y22225000D03*
D15*
X47945000Y30480000D03*
X49845000Y30480000D03*
X49845000Y28575000D03*
X47945000Y28575000D03*
X49845000Y34290000D03*
X47945000Y34290000D03*
X49845000Y24765000D03*
X47945000Y24765000D03*
D16*
X49911000Y36830000D03*
X46609000Y36830000D03*
X49911000Y22225000D03*
X46609000Y22225000D03*
D17*
X17780000Y32385000D03*
D18*
X17780000Y29845000D03*
X17780000Y27305000D03*
X17780000Y24765000D03*
X17780000Y22225000D03*
X17780000Y19685000D03*
X17780000Y17145000D03*
X17780000Y14605000D03*
X17780000Y12065000D03*
X17780000Y9525000D03*
D19*
X35560000Y9525000D03*
D20*
X38100000Y9525000D03*
X40640000Y9525000D03*
X43180000Y9525000D03*
X45720000Y9525000D03*
X48260000Y9525000D03*
X50800000Y9525000D03*
X53340000Y9525000D03*
X55880000Y9525000D03*
X58420000Y9525000D03*
D17*
X10160000Y34290000D03*
D18*
X10160000Y31750000D03*
X10160000Y29210000D03*
X10160000Y26670000D03*
D17*
X10160000Y22225000D03*
D18*
X10160000Y19685000D03*
X10160000Y17145000D03*
X10160000Y14605000D03*
D17*
X10160000Y46355000D03*
D18*
X10160000Y43815000D03*
X10160000Y41275000D03*
X10160000Y38735000D03*
D21*
X49149000Y45423000D03*
X49149000Y43223000D03*
X61595000Y23030000D03*
X61595000Y25230000D03*
X61595000Y27475000D03*
X61595000Y29675000D03*
X40640000Y15705000D03*
X40640000Y13505000D03*
X43180000Y15705000D03*
X43180000Y13505000D03*
D22*
X37000000Y26670000D03*
X39200000Y26670000D03*
X37000000Y32385000D03*
X39200000Y32385000D03*
D21*
X38100000Y15705000D03*
X38100000Y13505000D03*
X35560000Y15705000D03*
X35560000Y13505000D03*
D22*
X26500000Y32385000D03*
X24300000Y32385000D03*
X26500000Y26670000D03*
X24300000Y26670000D03*
X64600000Y4445000D03*
X62400000Y4445000D03*
D21*
X45720000Y15705000D03*
X45720000Y13505000D03*
X48260000Y15705000D03*
X48260000Y13505000D03*
D22*
X49995000Y32385000D03*
X47795000Y32385000D03*
X49995000Y26670000D03*
X47795000Y26670000D03*
D23*
X51910000Y44069000D03*
X57310000Y44069000D03*
D24*
X66040000Y8095000D03*
X66040000Y13495000D03*
D25*
X34450000Y25400000D03*
X34450000Y26670000D03*
X34450000Y27940000D03*
X34450000Y29210000D03*
X34450000Y30480000D03*
X34450000Y31750000D03*
X34450000Y33020000D03*
X29050000Y33020000D03*
X29050000Y31750000D03*
X29050000Y30480000D03*
X29050000Y29210000D03*
X29050000Y27940000D03*
X29050000Y26670000D03*
X29050000Y25400000D03*
X53180000Y33655000D03*
X53180000Y32385000D03*
X53180000Y31115000D03*
X53180000Y29845000D03*
X53180000Y28575000D03*
X53180000Y27305000D03*
X53180000Y26035000D03*
X58580000Y26035000D03*
X58580000Y27305000D03*
X58580000Y28575000D03*
X58580000Y29845000D03*
X58580000Y31115000D03*
X58580000Y32385000D03*
X58580000Y33655000D03*
D26*
X2540000Y10160000D03*
D27*
X2540000Y7620000D03*
X5080000Y10160000D03*
X5080000Y7620000D03*
X7620000Y10160000D03*
X7620000Y7620000D03*
X10160000Y10160000D03*
X10160000Y7620000D03*
D28*
X65405000Y49530000D03*
D29*
X67945000Y49530000D03*
D17*
X65405000Y37465000D03*
D18*
X65405000Y40005000D03*
X65405000Y42545000D03*
D15*
X54930000Y23495000D03*
X56830000Y23495000D03*
D30*
X61214000Y38227000D03*
X57658000Y38227000D03*
D31*
X61214000Y45593000D03*
X61214000Y42037000D03*
M02*
