G04 #@! TF.FileFunction,Soldermask,Bot*
%FSLAX46Y46*%
G04 Gerber Fmt 4.6, Leading zero omitted, Abs format (unit mm)*
G04 Created by KiCad (PCBNEW 4.0.2+dfsg1-stable) date Fri 21 Oct 2016 21:41:57 CEST*
%MOMM*%
G01*
G04 APERTURE LIST*
%ADD10C,0.100000*%
%ADD11C,0.150000*%
%ADD12R,2.127200X2.127200*%
%ADD13O,2.127200X2.127200*%
%ADD14R,2.200000X2.200000*%
%ADD15C,2.200000*%
%ADD16R,2.432000X2.127200*%
%ADD17O,2.432000X2.127200*%
%ADD18R,2.127200X2.432000*%
%ADD19O,2.127200X2.432000*%
%ADD20O,2.398980X2.398980*%
%ADD21R,2.398980X2.398980*%
%ADD22C,1.700000*%
%ADD23C,2.800000*%
%ADD24R,2.800000X2.800000*%
G04 APERTURE END LIST*
D10*
D11*
X72644000Y48196500D02*
X72644000Y54610000D01*
X72644000Y36068000D02*
X72644000Y0D01*
X54800500Y36068000D02*
X72644000Y36068000D01*
X54800500Y48196500D02*
X54800500Y36068000D01*
X72644000Y48196500D02*
X54800500Y48196500D01*
X72644000Y0D02*
X0Y0D01*
X0Y54610000D02*
X72644000Y54610000D01*
X0Y0D02*
X0Y54610000D01*
D12*
X69088000Y14986000D03*
D13*
X66548000Y14986000D03*
X69088000Y17526000D03*
X66548000Y17526000D03*
X69088000Y20066000D03*
X66548000Y20066000D03*
X69088000Y22606000D03*
X66548000Y22606000D03*
D14*
X58420000Y52705000D03*
D15*
X58420000Y50165000D03*
X55880000Y52705000D03*
X55880000Y50165000D03*
X53340000Y52705000D03*
X53340000Y50165000D03*
X50800000Y52705000D03*
X50800000Y50165000D03*
X48260000Y52705000D03*
X48260000Y50165000D03*
X45720000Y52705000D03*
X45720000Y50165000D03*
X43180000Y52705000D03*
X43180000Y50165000D03*
X40640000Y52705000D03*
X40640000Y50165000D03*
X38100000Y52705000D03*
X38100000Y50165000D03*
X35560000Y52705000D03*
X35560000Y50165000D03*
X33020000Y52705000D03*
X33020000Y50165000D03*
X30480000Y52705000D03*
X30480000Y50165000D03*
X27940000Y52705000D03*
X27940000Y50165000D03*
X25400000Y52705000D03*
X25400000Y50165000D03*
X22860000Y52705000D03*
X22860000Y50165000D03*
X20320000Y52705000D03*
X20320000Y50165000D03*
X17780000Y52705000D03*
X17780000Y50165000D03*
X15240000Y52705000D03*
X15240000Y50165000D03*
X12700000Y52705000D03*
X12700000Y50165000D03*
X10160000Y52705000D03*
X10160000Y50165000D03*
X7620000Y52705000D03*
X7620000Y50165000D03*
X5080000Y52705000D03*
X5080000Y50165000D03*
X2540000Y52705000D03*
X2540000Y50165000D03*
D14*
X58420000Y4445000D03*
D15*
X58420000Y1905000D03*
X55880000Y4445000D03*
X55880000Y1905000D03*
X53340000Y4445000D03*
X53340000Y1905000D03*
X50800000Y4445000D03*
X50800000Y1905000D03*
X48260000Y4445000D03*
X48260000Y1905000D03*
X45720000Y4445000D03*
X45720000Y1905000D03*
X43180000Y4445000D03*
X43180000Y1905000D03*
X40640000Y4445000D03*
X40640000Y1905000D03*
X38100000Y4445000D03*
X38100000Y1905000D03*
X35560000Y4445000D03*
X35560000Y1905000D03*
X33020000Y4445000D03*
X33020000Y1905000D03*
X30480000Y4445000D03*
X30480000Y1905000D03*
X27940000Y4445000D03*
X27940000Y1905000D03*
X25400000Y4445000D03*
X25400000Y1905000D03*
X22860000Y4445000D03*
X22860000Y1905000D03*
X20320000Y4445000D03*
X20320000Y1905000D03*
X17780000Y4445000D03*
X17780000Y1905000D03*
X15240000Y4445000D03*
X15240000Y1905000D03*
X12700000Y4445000D03*
X12700000Y1905000D03*
X10160000Y4445000D03*
X10160000Y1905000D03*
X7620000Y4445000D03*
X7620000Y1905000D03*
X5080000Y4445000D03*
X5080000Y1905000D03*
X2540000Y4445000D03*
X2540000Y1905000D03*
D16*
X17780000Y32385000D03*
D17*
X17780000Y29845000D03*
X17780000Y27305000D03*
X17780000Y24765000D03*
X17780000Y22225000D03*
X17780000Y19685000D03*
X17780000Y17145000D03*
X17780000Y14605000D03*
X17780000Y12065000D03*
X17780000Y9525000D03*
D18*
X35560000Y9525000D03*
D19*
X38100000Y9525000D03*
X40640000Y9525000D03*
X43180000Y9525000D03*
X45720000Y9525000D03*
X48260000Y9525000D03*
X50800000Y9525000D03*
X53340000Y9525000D03*
X55880000Y9525000D03*
X58420000Y9525000D03*
D16*
X46863000Y44831000D03*
D17*
X46863000Y42291000D03*
X46863000Y39751000D03*
D20*
X66548000Y52578000D03*
D21*
X66548000Y50038000D03*
D22*
X2500000Y42775000D03*
X8800000Y42775000D03*
X2500000Y28075000D03*
X8800000Y28075000D03*
X2500000Y13375000D03*
X8800000Y13375000D03*
D23*
X67818000Y33726000D03*
D24*
X67818000Y30226000D03*
M02*
