G04 #@! TF.FileFunction,Legend,Top*
%FSLAX46Y46*%
G04 Gerber Fmt 4.6, Leading zero omitted, Abs format (unit mm)*
G04 Created by KiCad (PCBNEW 4.0.2+dfsg1-stable) date Thu 20 Oct 2016 16:57:25 CEST*
%MOMM*%
G01*
G04 APERTURE LIST*
%ADD10C,0.100000*%
%ADD11C,0.150000*%
%ADD12C,0.381000*%
%ADD13C,0.200000*%
%ADD14R,2.200000X2.200000*%
%ADD15C,2.200000*%
%ADD16R,1.600000X1.150000*%
%ADD17R,1.924000X2.432000*%
%ADD18R,2.432000X2.127200*%
%ADD19O,2.432000X2.127200*%
%ADD20R,2.127200X2.432000*%
%ADD21O,2.127200X2.432000*%
%ADD22R,1.300000X1.600000*%
%ADD23R,1.600000X1.300000*%
%ADD24R,2.400000X2.000000*%
%ADD25R,2.000000X2.400000*%
%ADD26R,1.900000X1.000000*%
%ADD27R,2.127200X2.127200*%
%ADD28O,2.127200X2.127200*%
%ADD29O,2.398980X2.398980*%
%ADD30R,2.398980X2.398980*%
%ADD31R,3.194000X2.178000*%
%ADD32R,1.150000X1.600000*%
%ADD33R,2.400000X2.400000*%
%ADD34C,1.700000*%
G04 APERTURE END LIST*
D10*
D11*
X70485000Y0D02*
X0Y0D01*
X70485000Y54610000D02*
X70485000Y0D01*
X0Y54610000D02*
X70485000Y54610000D01*
X0Y0D02*
X0Y54610000D01*
D12*
X71755000Y0D02*
G75*
G03X78105000Y6350000I0J6350000D01*
G01*
X78105000Y15494000D02*
X78105000Y15875000D01*
X78105000Y15875000D02*
X57785000Y15875000D01*
X57785000Y15875000D02*
X57785000Y33655000D01*
X57785000Y33655000D02*
X78105000Y33655000D01*
X78105000Y33655000D02*
X78105000Y34036000D01*
X4445000Y0D02*
X71755000Y0D01*
X78105000Y6350000D02*
X78105000Y15494000D01*
X78105000Y34036000D02*
X78105000Y46990000D01*
X78105000Y48260000D02*
X78105000Y46990000D01*
X4445000Y54610000D02*
X71755000Y54610000D01*
X-8255000Y41910000D02*
X-8255000Y12700000D01*
X4445000Y54610000D02*
G75*
G03X-8255000Y41910000I0J-12700000D01*
G01*
X-8255000Y12700000D02*
G75*
G03X4445000Y0I12700000J0D01*
G01*
X78105000Y48260000D02*
G75*
G03X71755000Y54610000I-6350000J0D01*
G01*
D11*
X37750000Y29175000D02*
X38450000Y29175000D01*
X38450000Y27975000D02*
X37750000Y27975000D01*
X37750000Y31080000D02*
X38450000Y31080000D01*
X38450000Y29880000D02*
X37750000Y29880000D01*
X37750000Y25365000D02*
X38450000Y25365000D01*
X38450000Y24165000D02*
X37750000Y24165000D01*
X37750000Y34890000D02*
X38450000Y34890000D01*
X38450000Y33690000D02*
X37750000Y33690000D01*
X32100000Y22260000D02*
X31400000Y22260000D01*
X31400000Y23460000D02*
X32100000Y23460000D01*
X36195000Y23368000D02*
X35941000Y23368000D01*
X35941000Y23368000D02*
X35941000Y21082000D01*
X35941000Y21082000D02*
X36195000Y21082000D01*
X36195000Y23368000D02*
X36195000Y21082000D01*
X36195000Y21082000D02*
X37846000Y21082000D01*
X39624000Y23368000D02*
X41275000Y23368000D01*
X41275000Y23368000D02*
X41275000Y21082000D01*
X41275000Y21082000D02*
X39624000Y21082000D01*
X37846000Y23368000D02*
X36195000Y23368000D01*
X36195000Y37973000D02*
X35941000Y37973000D01*
X35941000Y37973000D02*
X35941000Y35687000D01*
X35941000Y35687000D02*
X36195000Y35687000D01*
X36195000Y37973000D02*
X36195000Y35687000D01*
X36195000Y35687000D02*
X37846000Y35687000D01*
X39624000Y37973000D02*
X41275000Y37973000D01*
X41275000Y37973000D02*
X41275000Y35687000D01*
X41275000Y35687000D02*
X39624000Y35687000D01*
X37846000Y37973000D02*
X36195000Y37973000D01*
X25750000Y29880000D02*
X25050000Y29880000D01*
X25050000Y31080000D02*
X25750000Y31080000D01*
X25750000Y27975000D02*
X25050000Y27975000D01*
X25050000Y29175000D02*
X25750000Y29175000D01*
X25750000Y33690000D02*
X25050000Y33690000D01*
X25050000Y34890000D02*
X25750000Y34890000D01*
X25750000Y24165000D02*
X25050000Y24165000D01*
X25050000Y25365000D02*
X25750000Y25365000D01*
X27305000Y35687000D02*
X27559000Y35687000D01*
X27559000Y35687000D02*
X27559000Y37973000D01*
X27559000Y37973000D02*
X27305000Y37973000D01*
X27305000Y35687000D02*
X27305000Y37973000D01*
X27305000Y37973000D02*
X25654000Y37973000D01*
X23876000Y35687000D02*
X22225000Y35687000D01*
X22225000Y35687000D02*
X22225000Y37973000D01*
X22225000Y37973000D02*
X23876000Y37973000D01*
X25654000Y35687000D02*
X27305000Y35687000D01*
X27305000Y21082000D02*
X27559000Y21082000D01*
X27559000Y21082000D02*
X27559000Y23368000D01*
X27559000Y23368000D02*
X27305000Y23368000D01*
X27305000Y21082000D02*
X27305000Y23368000D01*
X27305000Y23368000D02*
X25654000Y23368000D01*
X23876000Y21082000D02*
X22225000Y21082000D01*
X22225000Y21082000D02*
X22225000Y23368000D01*
X22225000Y23368000D02*
X23876000Y23368000D01*
X25654000Y21082000D02*
X27305000Y21082000D01*
X48545000Y31080000D02*
X49245000Y31080000D01*
X49245000Y29880000D02*
X48545000Y29880000D01*
X49245000Y27975000D02*
X48545000Y27975000D01*
X48545000Y29175000D02*
X49245000Y29175000D01*
X49245000Y33690000D02*
X48545000Y33690000D01*
X48545000Y34890000D02*
X49245000Y34890000D01*
X49245000Y24165000D02*
X48545000Y24165000D01*
X48545000Y25365000D02*
X49245000Y25365000D01*
X50800000Y35687000D02*
X51054000Y35687000D01*
X51054000Y35687000D02*
X51054000Y37973000D01*
X51054000Y37973000D02*
X50800000Y37973000D01*
X50800000Y35687000D02*
X50800000Y37973000D01*
X50800000Y37973000D02*
X49149000Y37973000D01*
X47371000Y35687000D02*
X45720000Y35687000D01*
X45720000Y35687000D02*
X45720000Y37973000D01*
X45720000Y37973000D02*
X47371000Y37973000D01*
X49149000Y35687000D02*
X50800000Y35687000D01*
X50800000Y21082000D02*
X51054000Y21082000D01*
X51054000Y21082000D02*
X51054000Y23368000D01*
X51054000Y23368000D02*
X50800000Y23368000D01*
X50800000Y21082000D02*
X50800000Y23368000D01*
X50800000Y23368000D02*
X49149000Y23368000D01*
X47371000Y21082000D02*
X45720000Y21082000D01*
X45720000Y21082000D02*
X45720000Y23368000D01*
X45720000Y23368000D02*
X47371000Y23368000D01*
X49149000Y21082000D02*
X50800000Y21082000D01*
X19050000Y31115000D02*
X19050000Y8255000D01*
X19050000Y8255000D02*
X16510000Y8255000D01*
X16510000Y8255000D02*
X16510000Y31115000D01*
X19330000Y33935000D02*
X19330000Y32385000D01*
X19050000Y31115000D02*
X16510000Y31115000D01*
X16230000Y32385000D02*
X16230000Y33935000D01*
X16230000Y33935000D02*
X19330000Y33935000D01*
X36830000Y10795000D02*
X59690000Y10795000D01*
X59690000Y10795000D02*
X59690000Y8255000D01*
X59690000Y8255000D02*
X36830000Y8255000D01*
X34010000Y11075000D02*
X35560000Y11075000D01*
X36830000Y10795000D02*
X36830000Y8255000D01*
X35560000Y7975000D02*
X34010000Y7975000D01*
X34010000Y7975000D02*
X34010000Y11075000D01*
X44918000Y44712000D02*
X44918000Y45712000D01*
X46268000Y45712000D02*
X46268000Y44712000D01*
X62270000Y24630000D02*
X62270000Y23630000D01*
X60920000Y23630000D02*
X60920000Y24630000D01*
X62270000Y29075000D02*
X62270000Y28075000D01*
X60920000Y28075000D02*
X60920000Y29075000D01*
X36663000Y17915000D02*
X36663000Y18915000D01*
X38013000Y18915000D02*
X38013000Y17915000D01*
X41870000Y20582000D02*
X41870000Y21582000D01*
X43220000Y21582000D02*
X43220000Y20582000D01*
X38600000Y25995000D02*
X37600000Y25995000D01*
X37600000Y27345000D02*
X38600000Y27345000D01*
X38600000Y31710000D02*
X37600000Y31710000D01*
X37600000Y33060000D02*
X38600000Y33060000D01*
X29043000Y18042000D02*
X29043000Y19042000D01*
X30393000Y19042000D02*
X30393000Y18042000D01*
X23963000Y18042000D02*
X23963000Y19042000D01*
X25313000Y19042000D02*
X25313000Y18042000D01*
X24900000Y33060000D02*
X25900000Y33060000D01*
X25900000Y31710000D02*
X24900000Y31710000D01*
X24900000Y27345000D02*
X25900000Y27345000D01*
X25900000Y25995000D02*
X24900000Y25995000D01*
X63000000Y5120000D02*
X64000000Y5120000D01*
X64000000Y3770000D02*
X63000000Y3770000D01*
X43902000Y20582000D02*
X43902000Y21582000D01*
X45252000Y21582000D02*
X45252000Y20582000D01*
X49522000Y19010000D02*
X48522000Y19010000D01*
X48522000Y20360000D02*
X49522000Y20360000D01*
X48395000Y33060000D02*
X49395000Y33060000D01*
X49395000Y31710000D02*
X48395000Y31710000D01*
X48395000Y27345000D02*
X49395000Y27345000D01*
X49395000Y25995000D02*
X48395000Y25995000D01*
X52708000Y44512000D02*
X49908000Y44512000D01*
X49908000Y44512000D02*
X49908000Y45912000D01*
X49908000Y45912000D02*
X52708000Y45912000D01*
X52708000Y45912000D02*
X52708000Y44512000D01*
X48308000Y43462000D02*
X48308000Y44112000D01*
X48308000Y46962000D02*
X48308000Y46312000D01*
X54308000Y46312000D02*
X54308000Y46962000D01*
X54308000Y43462000D02*
X54308000Y44112000D01*
X48308000Y43462000D02*
X54308000Y43462000D01*
X54308000Y46962000D02*
X48308000Y46962000D01*
X66740000Y12195000D02*
X66740000Y9395000D01*
X66740000Y9395000D02*
X65340000Y9395000D01*
X65340000Y9395000D02*
X65340000Y12195000D01*
X65340000Y12195000D02*
X66740000Y12195000D01*
X67790000Y7795000D02*
X67140000Y7795000D01*
X64290000Y7795000D02*
X64940000Y7795000D01*
X64940000Y13795000D02*
X64290000Y13795000D01*
X67790000Y13795000D02*
X67140000Y13795000D01*
X67790000Y7795000D02*
X67790000Y13795000D01*
X64290000Y13795000D02*
X64290000Y7795000D01*
X33825000Y24760000D02*
X33825000Y24875000D01*
X29675000Y24760000D02*
X29675000Y24875000D01*
X29675000Y33660000D02*
X29675000Y33545000D01*
X33825000Y33660000D02*
X33825000Y33545000D01*
X33825000Y24760000D02*
X29675000Y24760000D01*
X33825000Y33660000D02*
X29675000Y33660000D01*
X33825000Y24875000D02*
X35200000Y24875000D01*
X53805000Y34295000D02*
X53805000Y34180000D01*
X57955000Y34295000D02*
X57955000Y34180000D01*
X57955000Y25395000D02*
X57955000Y25510000D01*
X53805000Y25395000D02*
X53805000Y25510000D01*
X53805000Y34295000D02*
X57955000Y34295000D01*
X53805000Y25395000D02*
X57955000Y25395000D01*
X53805000Y34180000D02*
X52430000Y34180000D01*
X3810000Y11430000D02*
X11430000Y11430000D01*
X11430000Y11430000D02*
X11430000Y6350000D01*
X11430000Y6350000D02*
X1270000Y6350000D01*
X1270000Y6350000D02*
X1270000Y8890000D01*
X2540000Y11710000D02*
X990000Y11710000D01*
X1270000Y8890000D02*
X3810000Y8890000D01*
X3810000Y8890000D02*
X3810000Y11430000D01*
X990000Y11710000D02*
X990000Y10160000D01*
X69656960Y53218080D02*
X69656960Y47619920D01*
X70154800Y47818040D02*
X69656960Y47818040D01*
X69656960Y53019960D02*
X70154800Y53019960D01*
X70154800Y50419000D02*
X69656960Y50419000D01*
X64355980Y47619920D02*
X64355980Y53218080D01*
X70154800Y47619920D02*
X70154800Y53218080D01*
X70154800Y53218080D02*
X63957200Y53218080D01*
X63957200Y53218080D02*
X63957200Y47619920D01*
X63957200Y47619920D02*
X70154800Y47619920D01*
X65151000Y42672000D02*
X65151000Y45212000D01*
X73981000Y42672000D02*
X73981000Y45212000D01*
X73981000Y45212000D02*
X65151000Y45212000D01*
X73981000Y42672000D02*
X65151000Y42672000D01*
X73981000Y40132000D02*
X73981000Y42672000D01*
X65151000Y40132000D02*
X73981000Y40132000D01*
X65151000Y40132000D02*
X65151000Y42672000D01*
X65151000Y37592000D02*
X65151000Y40132000D01*
X62481000Y38862000D02*
X62481000Y37312000D01*
X62481000Y37312000D02*
X63881000Y37312000D01*
X65151000Y37592000D02*
X73981000Y37592000D01*
X73981000Y37592000D02*
X73981000Y40132000D01*
X73981000Y40132000D02*
X65151000Y40132000D01*
X55530000Y24095000D02*
X56230000Y24095000D01*
X56230000Y22895000D02*
X55530000Y22895000D01*
X58801000Y35814000D02*
X61849000Y35814000D01*
X61849000Y39497000D02*
X61849000Y41402000D01*
X61849000Y41402000D02*
X58801000Y41402000D01*
X58801000Y41402000D02*
X58801000Y39497000D01*
X58801000Y37846000D02*
X58801000Y35814000D01*
X58801000Y36014000D02*
X61849000Y36014000D01*
X61849000Y35814000D02*
X61849000Y37846000D01*
X61849000Y47879000D02*
X58801000Y47879000D01*
X58801000Y44196000D02*
X58801000Y42291000D01*
X58801000Y42291000D02*
X61849000Y42291000D01*
X61849000Y42291000D02*
X61849000Y44196000D01*
X61849000Y45847000D02*
X61849000Y47879000D01*
X61849000Y47679000D02*
X58801000Y47679000D01*
X58801000Y47879000D02*
X58801000Y45847000D01*
X69783960Y35311080D02*
X69783960Y29712920D01*
X70281800Y29911040D02*
X69783960Y29911040D01*
X69783960Y35112960D02*
X70281800Y35112960D01*
X70281800Y32512000D02*
X69783960Y32512000D01*
X64482980Y29712920D02*
X64482980Y35311080D01*
X70281800Y29712920D02*
X70281800Y35311080D01*
X70281800Y35311080D02*
X64084200Y35311080D01*
X64084200Y35311080D02*
X64084200Y29712920D01*
X64084200Y29712920D02*
X70281800Y29712920D01*
X56677000Y39274000D02*
X56677000Y39974000D01*
X57877000Y39974000D02*
X57877000Y39274000D01*
X57877000Y44546000D02*
X57877000Y43846000D01*
X56677000Y43846000D02*
X56677000Y44546000D01*
D13*
X504000Y45799000D02*
X-2196000Y45799000D01*
X-2296000Y45799000D02*
X-2296000Y39799000D01*
X-2296000Y39799000D02*
X504000Y39799000D01*
X504000Y46799000D02*
X12704000Y46799000D01*
X504000Y46799000D02*
X504000Y38799000D01*
X504000Y38799000D02*
X12704000Y38799000D01*
X12704000Y38799000D02*
X12704000Y46799000D01*
X504000Y33988000D02*
X-2196000Y33988000D01*
X-2296000Y33988000D02*
X-2296000Y27988000D01*
X-2296000Y27988000D02*
X504000Y27988000D01*
X504000Y34988000D02*
X12704000Y34988000D01*
X504000Y34988000D02*
X504000Y26988000D01*
X504000Y26988000D02*
X12704000Y26988000D01*
X12704000Y26988000D02*
X12704000Y34988000D01*
X504000Y22050000D02*
X-2196000Y22050000D01*
X-2296000Y22050000D02*
X-2296000Y16050000D01*
X-2296000Y16050000D02*
X504000Y16050000D01*
X504000Y23050000D02*
X12704000Y23050000D01*
X504000Y23050000D02*
X504000Y15050000D01*
X504000Y15050000D02*
X12704000Y15050000D01*
X12704000Y15050000D02*
X12704000Y23050000D01*
D11*
X43855000Y13962000D02*
X43855000Y12962000D01*
X42505000Y12962000D02*
X42505000Y13962000D01*
X40775000Y18074000D02*
X41775000Y18074000D01*
X41775000Y16724000D02*
X40775000Y16724000D01*
X41315000Y13962000D02*
X41315000Y12962000D01*
X39965000Y12962000D02*
X39965000Y13962000D01*
X33409000Y18074000D02*
X34409000Y18074000D01*
X34409000Y16724000D02*
X33409000Y16724000D01*
X38775000Y13962000D02*
X38775000Y12962000D01*
X37425000Y12962000D02*
X37425000Y13962000D01*
X29043000Y13470000D02*
X29043000Y14470000D01*
X30393000Y14470000D02*
X30393000Y13470000D01*
X13930000Y22233000D02*
X13930000Y23233000D01*
X15280000Y23233000D02*
X15280000Y22233000D01*
X13676000Y34171000D02*
X13676000Y35171000D01*
X15026000Y35171000D02*
X15026000Y34171000D01*
X15026000Y39616000D02*
X15026000Y38616000D01*
X13676000Y38616000D02*
X13676000Y39616000D01*
X36235000Y13962000D02*
X36235000Y12962000D01*
X34885000Y12962000D02*
X34885000Y13962000D01*
X23963000Y13470000D02*
X23963000Y14470000D01*
X25313000Y14470000D02*
X25313000Y13470000D01*
X46395000Y13962000D02*
X46395000Y12962000D01*
X45045000Y12962000D02*
X45045000Y13962000D01*
X46474000Y16724000D02*
X45474000Y16724000D01*
X45474000Y18074000D02*
X46474000Y18074000D01*
X48935000Y13962000D02*
X48935000Y12962000D01*
X47585000Y12962000D02*
X47585000Y13962000D01*
X51173000Y16724000D02*
X50173000Y16724000D01*
X50173000Y18074000D02*
X51173000Y18074000D01*
X13676000Y45982000D02*
X13676000Y46982000D01*
X15026000Y46982000D02*
X15026000Y45982000D01*
X15280000Y27678000D02*
X15280000Y26678000D01*
X13930000Y26678000D02*
X13930000Y27678000D01*
X15153000Y15867000D02*
X15153000Y14867000D01*
X13803000Y14867000D02*
X13803000Y15867000D01*
X41108334Y28217857D02*
X41060715Y28170238D01*
X40917858Y28122619D01*
X40822620Y28122619D01*
X40679762Y28170238D01*
X40584524Y28265476D01*
X40536905Y28360714D01*
X40489286Y28551190D01*
X40489286Y28694048D01*
X40536905Y28884524D01*
X40584524Y28979762D01*
X40679762Y29075000D01*
X40822620Y29122619D01*
X40917858Y29122619D01*
X41060715Y29075000D01*
X41108334Y29027381D01*
X42060715Y28122619D02*
X41489286Y28122619D01*
X41775000Y28122619D02*
X41775000Y29122619D01*
X41679762Y28979762D01*
X41584524Y28884524D01*
X41489286Y28836905D01*
X41108334Y30122857D02*
X41060715Y30075238D01*
X40917858Y30027619D01*
X40822620Y30027619D01*
X40679762Y30075238D01*
X40584524Y30170476D01*
X40536905Y30265714D01*
X40489286Y30456190D01*
X40489286Y30599048D01*
X40536905Y30789524D01*
X40584524Y30884762D01*
X40679762Y30980000D01*
X40822620Y31027619D01*
X40917858Y31027619D01*
X41060715Y30980000D01*
X41108334Y30932381D01*
X41489286Y30932381D02*
X41536905Y30980000D01*
X41632143Y31027619D01*
X41870239Y31027619D01*
X41965477Y30980000D01*
X42013096Y30932381D01*
X42060715Y30837143D01*
X42060715Y30741905D01*
X42013096Y30599048D01*
X41441667Y30027619D01*
X42060715Y30027619D01*
X41108334Y24407857D02*
X41060715Y24360238D01*
X40917858Y24312619D01*
X40822620Y24312619D01*
X40679762Y24360238D01*
X40584524Y24455476D01*
X40536905Y24550714D01*
X40489286Y24741190D01*
X40489286Y24884048D01*
X40536905Y25074524D01*
X40584524Y25169762D01*
X40679762Y25265000D01*
X40822620Y25312619D01*
X40917858Y25312619D01*
X41060715Y25265000D01*
X41108334Y25217381D01*
X41441667Y25312619D02*
X42060715Y25312619D01*
X41727381Y24931667D01*
X41870239Y24931667D01*
X41965477Y24884048D01*
X42013096Y24836429D01*
X42060715Y24741190D01*
X42060715Y24503095D01*
X42013096Y24407857D01*
X41965477Y24360238D01*
X41870239Y24312619D01*
X41584524Y24312619D01*
X41489286Y24360238D01*
X41441667Y24407857D01*
X41108334Y33932857D02*
X41060715Y33885238D01*
X40917858Y33837619D01*
X40822620Y33837619D01*
X40679762Y33885238D01*
X40584524Y33980476D01*
X40536905Y34075714D01*
X40489286Y34266190D01*
X40489286Y34409048D01*
X40536905Y34599524D01*
X40584524Y34694762D01*
X40679762Y34790000D01*
X40822620Y34837619D01*
X40917858Y34837619D01*
X41060715Y34790000D01*
X41108334Y34742381D01*
X41965477Y34504286D02*
X41965477Y33837619D01*
X41727381Y34885238D02*
X41489286Y34170952D01*
X42108334Y34170952D01*
X34758334Y22502857D02*
X34710715Y22455238D01*
X34567858Y22407619D01*
X34472620Y22407619D01*
X34329762Y22455238D01*
X34234524Y22550476D01*
X34186905Y22645714D01*
X34139286Y22836190D01*
X34139286Y22979048D01*
X34186905Y23169524D01*
X34234524Y23264762D01*
X34329762Y23360000D01*
X34472620Y23407619D01*
X34567858Y23407619D01*
X34710715Y23360000D01*
X34758334Y23312381D01*
X35663096Y23407619D02*
X35186905Y23407619D01*
X35139286Y22931429D01*
X35186905Y22979048D01*
X35282143Y23026667D01*
X35520239Y23026667D01*
X35615477Y22979048D01*
X35663096Y22931429D01*
X35710715Y22836190D01*
X35710715Y22598095D01*
X35663096Y22502857D01*
X35615477Y22455238D01*
X35520239Y22407619D01*
X35282143Y22407619D01*
X35186905Y22455238D01*
X35139286Y22502857D01*
X38568334Y21867857D02*
X38520715Y21820238D01*
X38377858Y21772619D01*
X38282620Y21772619D01*
X38139762Y21820238D01*
X38044524Y21915476D01*
X37996905Y22010714D01*
X37949286Y22201190D01*
X37949286Y22344048D01*
X37996905Y22534524D01*
X38044524Y22629762D01*
X38139762Y22725000D01*
X38282620Y22772619D01*
X38377858Y22772619D01*
X38520715Y22725000D01*
X38568334Y22677381D01*
X39425477Y22772619D02*
X39235000Y22772619D01*
X39139762Y22725000D01*
X39092143Y22677381D01*
X38996905Y22534524D01*
X38949286Y22344048D01*
X38949286Y21963095D01*
X38996905Y21867857D01*
X39044524Y21820238D01*
X39139762Y21772619D01*
X39330239Y21772619D01*
X39425477Y21820238D01*
X39473096Y21867857D01*
X39520715Y21963095D01*
X39520715Y22201190D01*
X39473096Y22296429D01*
X39425477Y22344048D01*
X39330239Y22391667D01*
X39139762Y22391667D01*
X39044524Y22344048D01*
X38996905Y22296429D01*
X38949286Y22201190D01*
X38568334Y36472857D02*
X38520715Y36425238D01*
X38377858Y36377619D01*
X38282620Y36377619D01*
X38139762Y36425238D01*
X38044524Y36520476D01*
X37996905Y36615714D01*
X37949286Y36806190D01*
X37949286Y36949048D01*
X37996905Y37139524D01*
X38044524Y37234762D01*
X38139762Y37330000D01*
X38282620Y37377619D01*
X38377858Y37377619D01*
X38520715Y37330000D01*
X38568334Y37282381D01*
X38901667Y37377619D02*
X39568334Y37377619D01*
X39139762Y36377619D01*
X22058334Y30122857D02*
X22010715Y30075238D01*
X21867858Y30027619D01*
X21772620Y30027619D01*
X21629762Y30075238D01*
X21534524Y30170476D01*
X21486905Y30265714D01*
X21439286Y30456190D01*
X21439286Y30599048D01*
X21486905Y30789524D01*
X21534524Y30884762D01*
X21629762Y30980000D01*
X21772620Y31027619D01*
X21867858Y31027619D01*
X22010715Y30980000D01*
X22058334Y30932381D01*
X22629762Y30599048D02*
X22534524Y30646667D01*
X22486905Y30694286D01*
X22439286Y30789524D01*
X22439286Y30837143D01*
X22486905Y30932381D01*
X22534524Y30980000D01*
X22629762Y31027619D01*
X22820239Y31027619D01*
X22915477Y30980000D01*
X22963096Y30932381D01*
X23010715Y30837143D01*
X23010715Y30789524D01*
X22963096Y30694286D01*
X22915477Y30646667D01*
X22820239Y30599048D01*
X22629762Y30599048D01*
X22534524Y30551429D01*
X22486905Y30503810D01*
X22439286Y30408571D01*
X22439286Y30218095D01*
X22486905Y30122857D01*
X22534524Y30075238D01*
X22629762Y30027619D01*
X22820239Y30027619D01*
X22915477Y30075238D01*
X22963096Y30122857D01*
X23010715Y30218095D01*
X23010715Y30408571D01*
X22963096Y30503810D01*
X22915477Y30551429D01*
X22820239Y30599048D01*
X22058334Y28217857D02*
X22010715Y28170238D01*
X21867858Y28122619D01*
X21772620Y28122619D01*
X21629762Y28170238D01*
X21534524Y28265476D01*
X21486905Y28360714D01*
X21439286Y28551190D01*
X21439286Y28694048D01*
X21486905Y28884524D01*
X21534524Y28979762D01*
X21629762Y29075000D01*
X21772620Y29122619D01*
X21867858Y29122619D01*
X22010715Y29075000D01*
X22058334Y29027381D01*
X22534524Y28122619D02*
X22725000Y28122619D01*
X22820239Y28170238D01*
X22867858Y28217857D01*
X22963096Y28360714D01*
X23010715Y28551190D01*
X23010715Y28932143D01*
X22963096Y29027381D01*
X22915477Y29075000D01*
X22820239Y29122619D01*
X22629762Y29122619D01*
X22534524Y29075000D01*
X22486905Y29027381D01*
X22439286Y28932143D01*
X22439286Y28694048D01*
X22486905Y28598810D01*
X22534524Y28551190D01*
X22629762Y28503571D01*
X22820239Y28503571D01*
X22915477Y28551190D01*
X22963096Y28598810D01*
X23010715Y28694048D01*
X21582143Y33932857D02*
X21534524Y33885238D01*
X21391667Y33837619D01*
X21296429Y33837619D01*
X21153571Y33885238D01*
X21058333Y33980476D01*
X21010714Y34075714D01*
X20963095Y34266190D01*
X20963095Y34409048D01*
X21010714Y34599524D01*
X21058333Y34694762D01*
X21153571Y34790000D01*
X21296429Y34837619D01*
X21391667Y34837619D01*
X21534524Y34790000D01*
X21582143Y34742381D01*
X22534524Y33837619D02*
X21963095Y33837619D01*
X22248809Y33837619D02*
X22248809Y34837619D01*
X22153571Y34694762D01*
X22058333Y34599524D01*
X21963095Y34551905D01*
X23153571Y34837619D02*
X23248810Y34837619D01*
X23344048Y34790000D01*
X23391667Y34742381D01*
X23439286Y34647143D01*
X23486905Y34456667D01*
X23486905Y34218571D01*
X23439286Y34028095D01*
X23391667Y33932857D01*
X23344048Y33885238D01*
X23248810Y33837619D01*
X23153571Y33837619D01*
X23058333Y33885238D01*
X23010714Y33932857D01*
X22963095Y34028095D01*
X22915476Y34218571D01*
X22915476Y34456667D01*
X22963095Y34647143D01*
X23010714Y34742381D01*
X23058333Y34790000D01*
X23153571Y34837619D01*
X21582143Y24407857D02*
X21534524Y24360238D01*
X21391667Y24312619D01*
X21296429Y24312619D01*
X21153571Y24360238D01*
X21058333Y24455476D01*
X21010714Y24550714D01*
X20963095Y24741190D01*
X20963095Y24884048D01*
X21010714Y25074524D01*
X21058333Y25169762D01*
X21153571Y25265000D01*
X21296429Y25312619D01*
X21391667Y25312619D01*
X21534524Y25265000D01*
X21582143Y25217381D01*
X22534524Y24312619D02*
X21963095Y24312619D01*
X22248809Y24312619D02*
X22248809Y25312619D01*
X22153571Y25169762D01*
X22058333Y25074524D01*
X21963095Y25026905D01*
X23486905Y24312619D02*
X22915476Y24312619D01*
X23201190Y24312619D02*
X23201190Y25312619D01*
X23105952Y25169762D01*
X23010714Y25074524D01*
X22915476Y25026905D01*
X24122143Y36472857D02*
X24074524Y36425238D01*
X23931667Y36377619D01*
X23836429Y36377619D01*
X23693571Y36425238D01*
X23598333Y36520476D01*
X23550714Y36615714D01*
X23503095Y36806190D01*
X23503095Y36949048D01*
X23550714Y37139524D01*
X23598333Y37234762D01*
X23693571Y37330000D01*
X23836429Y37377619D01*
X23931667Y37377619D01*
X24074524Y37330000D01*
X24122143Y37282381D01*
X25074524Y36377619D02*
X24503095Y36377619D01*
X24788809Y36377619D02*
X24788809Y37377619D01*
X24693571Y37234762D01*
X24598333Y37139524D01*
X24503095Y37091905D01*
X25455476Y37282381D02*
X25503095Y37330000D01*
X25598333Y37377619D01*
X25836429Y37377619D01*
X25931667Y37330000D01*
X25979286Y37282381D01*
X26026905Y37187143D01*
X26026905Y37091905D01*
X25979286Y36949048D01*
X25407857Y36377619D01*
X26026905Y36377619D01*
X24122143Y21867857D02*
X24074524Y21820238D01*
X23931667Y21772619D01*
X23836429Y21772619D01*
X23693571Y21820238D01*
X23598333Y21915476D01*
X23550714Y22010714D01*
X23503095Y22201190D01*
X23503095Y22344048D01*
X23550714Y22534524D01*
X23598333Y22629762D01*
X23693571Y22725000D01*
X23836429Y22772619D01*
X23931667Y22772619D01*
X24074524Y22725000D01*
X24122143Y22677381D01*
X25074524Y21772619D02*
X24503095Y21772619D01*
X24788809Y21772619D02*
X24788809Y22772619D01*
X24693571Y22629762D01*
X24598333Y22534524D01*
X24503095Y22486905D01*
X25407857Y22772619D02*
X26026905Y22772619D01*
X25693571Y22391667D01*
X25836429Y22391667D01*
X25931667Y22344048D01*
X25979286Y22296429D01*
X26026905Y22201190D01*
X26026905Y21963095D01*
X25979286Y21867857D01*
X25931667Y21820238D01*
X25836429Y21772619D01*
X25550714Y21772619D01*
X25455476Y21820238D01*
X25407857Y21867857D01*
X44442143Y30122857D02*
X44394524Y30075238D01*
X44251667Y30027619D01*
X44156429Y30027619D01*
X44013571Y30075238D01*
X43918333Y30170476D01*
X43870714Y30265714D01*
X43823095Y30456190D01*
X43823095Y30599048D01*
X43870714Y30789524D01*
X43918333Y30884762D01*
X44013571Y30980000D01*
X44156429Y31027619D01*
X44251667Y31027619D01*
X44394524Y30980000D01*
X44442143Y30932381D01*
X45394524Y30027619D02*
X44823095Y30027619D01*
X45108809Y30027619D02*
X45108809Y31027619D01*
X45013571Y30884762D01*
X44918333Y30789524D01*
X44823095Y30741905D01*
X46251667Y30694286D02*
X46251667Y30027619D01*
X46013571Y31075238D02*
X45775476Y30360952D01*
X46394524Y30360952D01*
X44442143Y28217857D02*
X44394524Y28170238D01*
X44251667Y28122619D01*
X44156429Y28122619D01*
X44013571Y28170238D01*
X43918333Y28265476D01*
X43870714Y28360714D01*
X43823095Y28551190D01*
X43823095Y28694048D01*
X43870714Y28884524D01*
X43918333Y28979762D01*
X44013571Y29075000D01*
X44156429Y29122619D01*
X44251667Y29122619D01*
X44394524Y29075000D01*
X44442143Y29027381D01*
X45394524Y28122619D02*
X44823095Y28122619D01*
X45108809Y28122619D02*
X45108809Y29122619D01*
X45013571Y28979762D01*
X44918333Y28884524D01*
X44823095Y28836905D01*
X46299286Y29122619D02*
X45823095Y29122619D01*
X45775476Y28646429D01*
X45823095Y28694048D01*
X45918333Y28741667D01*
X46156429Y28741667D01*
X46251667Y28694048D01*
X46299286Y28646429D01*
X46346905Y28551190D01*
X46346905Y28313095D01*
X46299286Y28217857D01*
X46251667Y28170238D01*
X46156429Y28122619D01*
X45918333Y28122619D01*
X45823095Y28170238D01*
X45775476Y28217857D01*
X44442143Y33932857D02*
X44394524Y33885238D01*
X44251667Y33837619D01*
X44156429Y33837619D01*
X44013571Y33885238D01*
X43918333Y33980476D01*
X43870714Y34075714D01*
X43823095Y34266190D01*
X43823095Y34409048D01*
X43870714Y34599524D01*
X43918333Y34694762D01*
X44013571Y34790000D01*
X44156429Y34837619D01*
X44251667Y34837619D01*
X44394524Y34790000D01*
X44442143Y34742381D01*
X45394524Y33837619D02*
X44823095Y33837619D01*
X45108809Y33837619D02*
X45108809Y34837619D01*
X45013571Y34694762D01*
X44918333Y34599524D01*
X44823095Y34551905D01*
X46251667Y34837619D02*
X46061190Y34837619D01*
X45965952Y34790000D01*
X45918333Y34742381D01*
X45823095Y34599524D01*
X45775476Y34409048D01*
X45775476Y34028095D01*
X45823095Y33932857D01*
X45870714Y33885238D01*
X45965952Y33837619D01*
X46156429Y33837619D01*
X46251667Y33885238D01*
X46299286Y33932857D01*
X46346905Y34028095D01*
X46346905Y34266190D01*
X46299286Y34361429D01*
X46251667Y34409048D01*
X46156429Y34456667D01*
X45965952Y34456667D01*
X45870714Y34409048D01*
X45823095Y34361429D01*
X45775476Y34266190D01*
X44442143Y24407857D02*
X44394524Y24360238D01*
X44251667Y24312619D01*
X44156429Y24312619D01*
X44013571Y24360238D01*
X43918333Y24455476D01*
X43870714Y24550714D01*
X43823095Y24741190D01*
X43823095Y24884048D01*
X43870714Y25074524D01*
X43918333Y25169762D01*
X44013571Y25265000D01*
X44156429Y25312619D01*
X44251667Y25312619D01*
X44394524Y25265000D01*
X44442143Y25217381D01*
X45394524Y24312619D02*
X44823095Y24312619D01*
X45108809Y24312619D02*
X45108809Y25312619D01*
X45013571Y25169762D01*
X44918333Y25074524D01*
X44823095Y25026905D01*
X45727857Y25312619D02*
X46394524Y25312619D01*
X45965952Y24312619D01*
X47617143Y36472857D02*
X47569524Y36425238D01*
X47426667Y36377619D01*
X47331429Y36377619D01*
X47188571Y36425238D01*
X47093333Y36520476D01*
X47045714Y36615714D01*
X46998095Y36806190D01*
X46998095Y36949048D01*
X47045714Y37139524D01*
X47093333Y37234762D01*
X47188571Y37330000D01*
X47331429Y37377619D01*
X47426667Y37377619D01*
X47569524Y37330000D01*
X47617143Y37282381D01*
X48569524Y36377619D02*
X47998095Y36377619D01*
X48283809Y36377619D02*
X48283809Y37377619D01*
X48188571Y37234762D01*
X48093333Y37139524D01*
X47998095Y37091905D01*
X49140952Y36949048D02*
X49045714Y36996667D01*
X48998095Y37044286D01*
X48950476Y37139524D01*
X48950476Y37187143D01*
X48998095Y37282381D01*
X49045714Y37330000D01*
X49140952Y37377619D01*
X49331429Y37377619D01*
X49426667Y37330000D01*
X49474286Y37282381D01*
X49521905Y37187143D01*
X49521905Y37139524D01*
X49474286Y37044286D01*
X49426667Y36996667D01*
X49331429Y36949048D01*
X49140952Y36949048D01*
X49045714Y36901429D01*
X48998095Y36853810D01*
X48950476Y36758571D01*
X48950476Y36568095D01*
X48998095Y36472857D01*
X49045714Y36425238D01*
X49140952Y36377619D01*
X49331429Y36377619D01*
X49426667Y36425238D01*
X49474286Y36472857D01*
X49521905Y36568095D01*
X49521905Y36758571D01*
X49474286Y36853810D01*
X49426667Y36901429D01*
X49331429Y36949048D01*
X47617143Y21867857D02*
X47569524Y21820238D01*
X47426667Y21772619D01*
X47331429Y21772619D01*
X47188571Y21820238D01*
X47093333Y21915476D01*
X47045714Y22010714D01*
X46998095Y22201190D01*
X46998095Y22344048D01*
X47045714Y22534524D01*
X47093333Y22629762D01*
X47188571Y22725000D01*
X47331429Y22772619D01*
X47426667Y22772619D01*
X47569524Y22725000D01*
X47617143Y22677381D01*
X48569524Y21772619D02*
X47998095Y21772619D01*
X48283809Y21772619D02*
X48283809Y22772619D01*
X48188571Y22629762D01*
X48093333Y22534524D01*
X47998095Y22486905D01*
X49045714Y21772619D02*
X49236190Y21772619D01*
X49331429Y21820238D01*
X49379048Y21867857D01*
X49474286Y22010714D01*
X49521905Y22201190D01*
X49521905Y22582143D01*
X49474286Y22677381D01*
X49426667Y22725000D01*
X49331429Y22772619D01*
X49140952Y22772619D01*
X49045714Y22725000D01*
X48998095Y22677381D01*
X48950476Y22582143D01*
X48950476Y22344048D01*
X48998095Y22248810D01*
X49045714Y22201190D01*
X49140952Y22153571D01*
X49331429Y22153571D01*
X49426667Y22201190D01*
X49474286Y22248810D01*
X49521905Y22344048D01*
X17041905Y34472619D02*
X17041905Y35472619D01*
X17422858Y35472619D01*
X17518096Y35425000D01*
X17565715Y35377381D01*
X17613334Y35282143D01*
X17613334Y35139286D01*
X17565715Y35044048D01*
X17518096Y34996429D01*
X17422858Y34948810D01*
X17041905Y34948810D01*
X18565715Y34472619D02*
X17994286Y34472619D01*
X18280000Y34472619D02*
X18280000Y35472619D01*
X18184762Y35329762D01*
X18089524Y35234524D01*
X17994286Y35186905D01*
X33472381Y8786905D02*
X32472381Y8786905D01*
X32472381Y9167858D01*
X32520000Y9263096D01*
X32567619Y9310715D01*
X32662857Y9358334D01*
X32805714Y9358334D01*
X32900952Y9310715D01*
X32948571Y9263096D01*
X32996190Y9167858D01*
X32996190Y8786905D01*
X32805714Y10215477D02*
X33472381Y10215477D01*
X32424762Y9977381D02*
X33139048Y9739286D01*
X33139048Y10358334D01*
X47945381Y45045334D02*
X47469190Y44712000D01*
X47945381Y44473905D02*
X46945381Y44473905D01*
X46945381Y44854858D01*
X46993000Y44950096D01*
X47040619Y44997715D01*
X47135857Y45045334D01*
X47278714Y45045334D01*
X47373952Y44997715D01*
X47421571Y44950096D01*
X47469190Y44854858D01*
X47469190Y44473905D01*
X47945381Y45997715D02*
X47945381Y45426286D01*
X47945381Y45712000D02*
X46945381Y45712000D01*
X47088238Y45616762D01*
X47183476Y45521524D01*
X47231095Y45426286D01*
X63952381Y23963334D02*
X63476190Y23630000D01*
X63952381Y23391905D02*
X62952381Y23391905D01*
X62952381Y23772858D01*
X63000000Y23868096D01*
X63047619Y23915715D01*
X63142857Y23963334D01*
X63285714Y23963334D01*
X63380952Y23915715D01*
X63428571Y23868096D01*
X63476190Y23772858D01*
X63476190Y23391905D01*
X63047619Y24344286D02*
X63000000Y24391905D01*
X62952381Y24487143D01*
X62952381Y24725239D01*
X63000000Y24820477D01*
X63047619Y24868096D01*
X63142857Y24915715D01*
X63238095Y24915715D01*
X63380952Y24868096D01*
X63952381Y24296667D01*
X63952381Y24915715D01*
X63952381Y28408334D02*
X63476190Y28075000D01*
X63952381Y27836905D02*
X62952381Y27836905D01*
X62952381Y28217858D01*
X63000000Y28313096D01*
X63047619Y28360715D01*
X63142857Y28408334D01*
X63285714Y28408334D01*
X63380952Y28360715D01*
X63428571Y28313096D01*
X63476190Y28217858D01*
X63476190Y27836905D01*
X62952381Y28741667D02*
X62952381Y29360715D01*
X63333333Y29027381D01*
X63333333Y29170239D01*
X63380952Y29265477D01*
X63428571Y29313096D01*
X63523810Y29360715D01*
X63761905Y29360715D01*
X63857143Y29313096D01*
X63904762Y29265477D01*
X63952381Y29170239D01*
X63952381Y28884524D01*
X63904762Y28789286D01*
X63857143Y28741667D01*
X37790381Y21423334D02*
X37314190Y21090000D01*
X37790381Y20851905D02*
X36790381Y20851905D01*
X36790381Y21232858D01*
X36838000Y21328096D01*
X36885619Y21375715D01*
X36980857Y21423334D01*
X37123714Y21423334D01*
X37218952Y21375715D01*
X37266571Y21328096D01*
X37314190Y21232858D01*
X37314190Y20851905D01*
X37123714Y22280477D02*
X37790381Y22280477D01*
X36742762Y22042381D02*
X37457048Y21804286D01*
X37457048Y22423334D01*
X42997381Y24090334D02*
X42521190Y23757000D01*
X42997381Y23518905D02*
X41997381Y23518905D01*
X41997381Y23899858D01*
X42045000Y23995096D01*
X42092619Y24042715D01*
X42187857Y24090334D01*
X42330714Y24090334D01*
X42425952Y24042715D01*
X42473571Y23995096D01*
X42521190Y23899858D01*
X42521190Y23518905D01*
X41997381Y24995096D02*
X41997381Y24518905D01*
X42473571Y24471286D01*
X42425952Y24518905D01*
X42378333Y24614143D01*
X42378333Y24852239D01*
X42425952Y24947477D01*
X42473571Y24995096D01*
X42568810Y25042715D01*
X42806905Y25042715D01*
X42902143Y24995096D01*
X42949762Y24947477D01*
X42997381Y24852239D01*
X42997381Y24614143D01*
X42949762Y24518905D01*
X42902143Y24471286D01*
X41108334Y26217619D02*
X40775000Y26693810D01*
X40536905Y26217619D02*
X40536905Y27217619D01*
X40917858Y27217619D01*
X41013096Y27170000D01*
X41060715Y27122381D01*
X41108334Y27027143D01*
X41108334Y26884286D01*
X41060715Y26789048D01*
X41013096Y26741429D01*
X40917858Y26693810D01*
X40536905Y26693810D01*
X41965477Y27217619D02*
X41775000Y27217619D01*
X41679762Y27170000D01*
X41632143Y27122381D01*
X41536905Y26979524D01*
X41489286Y26789048D01*
X41489286Y26408095D01*
X41536905Y26312857D01*
X41584524Y26265238D01*
X41679762Y26217619D01*
X41870239Y26217619D01*
X41965477Y26265238D01*
X42013096Y26312857D01*
X42060715Y26408095D01*
X42060715Y26646190D01*
X42013096Y26741429D01*
X41965477Y26789048D01*
X41870239Y26836667D01*
X41679762Y26836667D01*
X41584524Y26789048D01*
X41536905Y26741429D01*
X41489286Y26646190D01*
X41108334Y31932619D02*
X40775000Y32408810D01*
X40536905Y31932619D02*
X40536905Y32932619D01*
X40917858Y32932619D01*
X41013096Y32885000D01*
X41060715Y32837381D01*
X41108334Y32742143D01*
X41108334Y32599286D01*
X41060715Y32504048D01*
X41013096Y32456429D01*
X40917858Y32408810D01*
X40536905Y32408810D01*
X41441667Y32932619D02*
X42108334Y32932619D01*
X41679762Y31932619D01*
X30170381Y21550334D02*
X29694190Y21217000D01*
X30170381Y20978905D02*
X29170381Y20978905D01*
X29170381Y21359858D01*
X29218000Y21455096D01*
X29265619Y21502715D01*
X29360857Y21550334D01*
X29503714Y21550334D01*
X29598952Y21502715D01*
X29646571Y21455096D01*
X29694190Y21359858D01*
X29694190Y20978905D01*
X29598952Y22121762D02*
X29551333Y22026524D01*
X29503714Y21978905D01*
X29408476Y21931286D01*
X29360857Y21931286D01*
X29265619Y21978905D01*
X29218000Y22026524D01*
X29170381Y22121762D01*
X29170381Y22312239D01*
X29218000Y22407477D01*
X29265619Y22455096D01*
X29360857Y22502715D01*
X29408476Y22502715D01*
X29503714Y22455096D01*
X29551333Y22407477D01*
X29598952Y22312239D01*
X29598952Y22121762D01*
X29646571Y22026524D01*
X29694190Y21978905D01*
X29789429Y21931286D01*
X29979905Y21931286D01*
X30075143Y21978905D01*
X30122762Y22026524D01*
X30170381Y22121762D01*
X30170381Y22312239D01*
X30122762Y22407477D01*
X30075143Y22455096D01*
X29979905Y22502715D01*
X29789429Y22502715D01*
X29694190Y22455096D01*
X29646571Y22407477D01*
X29598952Y22312239D01*
X25090381Y21550334D02*
X24614190Y21217000D01*
X25090381Y20978905D02*
X24090381Y20978905D01*
X24090381Y21359858D01*
X24138000Y21455096D01*
X24185619Y21502715D01*
X24280857Y21550334D01*
X24423714Y21550334D01*
X24518952Y21502715D01*
X24566571Y21455096D01*
X24614190Y21359858D01*
X24614190Y20978905D01*
X25090381Y22026524D02*
X25090381Y22217000D01*
X25042762Y22312239D01*
X24995143Y22359858D01*
X24852286Y22455096D01*
X24661810Y22502715D01*
X24280857Y22502715D01*
X24185619Y22455096D01*
X24138000Y22407477D01*
X24090381Y22312239D01*
X24090381Y22121762D01*
X24138000Y22026524D01*
X24185619Y21978905D01*
X24280857Y21931286D01*
X24518952Y21931286D01*
X24614190Y21978905D01*
X24661810Y22026524D01*
X24709429Y22121762D01*
X24709429Y22312239D01*
X24661810Y22407477D01*
X24614190Y22455096D01*
X24518952Y22502715D01*
X21582143Y31932619D02*
X21248809Y32408810D01*
X21010714Y31932619D02*
X21010714Y32932619D01*
X21391667Y32932619D01*
X21486905Y32885000D01*
X21534524Y32837381D01*
X21582143Y32742143D01*
X21582143Y32599286D01*
X21534524Y32504048D01*
X21486905Y32456429D01*
X21391667Y32408810D01*
X21010714Y32408810D01*
X22534524Y31932619D02*
X21963095Y31932619D01*
X22248809Y31932619D02*
X22248809Y32932619D01*
X22153571Y32789762D01*
X22058333Y32694524D01*
X21963095Y32646905D01*
X23153571Y32932619D02*
X23248810Y32932619D01*
X23344048Y32885000D01*
X23391667Y32837381D01*
X23439286Y32742143D01*
X23486905Y32551667D01*
X23486905Y32313571D01*
X23439286Y32123095D01*
X23391667Y32027857D01*
X23344048Y31980238D01*
X23248810Y31932619D01*
X23153571Y31932619D01*
X23058333Y31980238D01*
X23010714Y32027857D01*
X22963095Y32123095D01*
X22915476Y32313571D01*
X22915476Y32551667D01*
X22963095Y32742143D01*
X23010714Y32837381D01*
X23058333Y32885000D01*
X23153571Y32932619D01*
X21582143Y26217619D02*
X21248809Y26693810D01*
X21010714Y26217619D02*
X21010714Y27217619D01*
X21391667Y27217619D01*
X21486905Y27170000D01*
X21534524Y27122381D01*
X21582143Y27027143D01*
X21582143Y26884286D01*
X21534524Y26789048D01*
X21486905Y26741429D01*
X21391667Y26693810D01*
X21010714Y26693810D01*
X22534524Y26217619D02*
X21963095Y26217619D01*
X22248809Y26217619D02*
X22248809Y27217619D01*
X22153571Y27074762D01*
X22058333Y26979524D01*
X21963095Y26931905D01*
X23486905Y26217619D02*
X22915476Y26217619D01*
X23201190Y26217619D02*
X23201190Y27217619D01*
X23105952Y27074762D01*
X23010714Y26979524D01*
X22915476Y26931905D01*
X62857143Y2092619D02*
X62523809Y2568810D01*
X62285714Y2092619D02*
X62285714Y3092619D01*
X62666667Y3092619D01*
X62761905Y3045000D01*
X62809524Y2997381D01*
X62857143Y2902143D01*
X62857143Y2759286D01*
X62809524Y2664048D01*
X62761905Y2616429D01*
X62666667Y2568810D01*
X62285714Y2568810D01*
X63809524Y2092619D02*
X63238095Y2092619D01*
X63523809Y2092619D02*
X63523809Y3092619D01*
X63428571Y2949762D01*
X63333333Y2854524D01*
X63238095Y2806905D01*
X64190476Y2997381D02*
X64238095Y3045000D01*
X64333333Y3092619D01*
X64571429Y3092619D01*
X64666667Y3045000D01*
X64714286Y2997381D01*
X64761905Y2902143D01*
X64761905Y2806905D01*
X64714286Y2664048D01*
X64142857Y2092619D01*
X64761905Y2092619D01*
X45029381Y24249143D02*
X44553190Y23915809D01*
X45029381Y23677714D02*
X44029381Y23677714D01*
X44029381Y24058667D01*
X44077000Y24153905D01*
X44124619Y24201524D01*
X44219857Y24249143D01*
X44362714Y24249143D01*
X44457952Y24201524D01*
X44505571Y24153905D01*
X44553190Y24058667D01*
X44553190Y23677714D01*
X45029381Y25201524D02*
X45029381Y24630095D01*
X45029381Y24915809D02*
X44029381Y24915809D01*
X44172238Y24820571D01*
X44267476Y24725333D01*
X44315095Y24630095D01*
X44029381Y25534857D02*
X44029381Y26153905D01*
X44410333Y25820571D01*
X44410333Y25963429D01*
X44457952Y26058667D01*
X44505571Y26106286D01*
X44600810Y26153905D01*
X44838905Y26153905D01*
X44934143Y26106286D01*
X44981762Y26058667D01*
X45029381Y25963429D01*
X45029381Y25677714D01*
X44981762Y25582476D01*
X44934143Y25534857D01*
X44569143Y19232619D02*
X44235809Y19708810D01*
X43997714Y19232619D02*
X43997714Y20232619D01*
X44378667Y20232619D01*
X44473905Y20185000D01*
X44521524Y20137381D01*
X44569143Y20042143D01*
X44569143Y19899286D01*
X44521524Y19804048D01*
X44473905Y19756429D01*
X44378667Y19708810D01*
X43997714Y19708810D01*
X45521524Y19232619D02*
X44950095Y19232619D01*
X45235809Y19232619D02*
X45235809Y20232619D01*
X45140571Y20089762D01*
X45045333Y19994524D01*
X44950095Y19946905D01*
X46378667Y19899286D02*
X46378667Y19232619D01*
X46140571Y20280238D02*
X45902476Y19565952D01*
X46521524Y19565952D01*
X44442143Y31932619D02*
X44108809Y32408810D01*
X43870714Y31932619D02*
X43870714Y32932619D01*
X44251667Y32932619D01*
X44346905Y32885000D01*
X44394524Y32837381D01*
X44442143Y32742143D01*
X44442143Y32599286D01*
X44394524Y32504048D01*
X44346905Y32456429D01*
X44251667Y32408810D01*
X43870714Y32408810D01*
X45394524Y31932619D02*
X44823095Y31932619D01*
X45108809Y31932619D02*
X45108809Y32932619D01*
X45013571Y32789762D01*
X44918333Y32694524D01*
X44823095Y32646905D01*
X46299286Y32932619D02*
X45823095Y32932619D01*
X45775476Y32456429D01*
X45823095Y32504048D01*
X45918333Y32551667D01*
X46156429Y32551667D01*
X46251667Y32504048D01*
X46299286Y32456429D01*
X46346905Y32361190D01*
X46346905Y32123095D01*
X46299286Y32027857D01*
X46251667Y31980238D01*
X46156429Y31932619D01*
X45918333Y31932619D01*
X45823095Y31980238D01*
X45775476Y32027857D01*
X44442143Y26217619D02*
X44108809Y26693810D01*
X43870714Y26217619D02*
X43870714Y27217619D01*
X44251667Y27217619D01*
X44346905Y27170000D01*
X44394524Y27122381D01*
X44442143Y27027143D01*
X44442143Y26884286D01*
X44394524Y26789048D01*
X44346905Y26741429D01*
X44251667Y26693810D01*
X43870714Y26693810D01*
X45394524Y26217619D02*
X44823095Y26217619D01*
X45108809Y26217619D02*
X45108809Y27217619D01*
X45013571Y27074762D01*
X44918333Y26979524D01*
X44823095Y26931905D01*
X46251667Y27217619D02*
X46061190Y27217619D01*
X45965952Y27170000D01*
X45918333Y27122381D01*
X45823095Y26979524D01*
X45775476Y26789048D01*
X45775476Y26408095D01*
X45823095Y26312857D01*
X45870714Y26265238D01*
X45965952Y26217619D01*
X46156429Y26217619D01*
X46251667Y26265238D01*
X46299286Y26312857D01*
X46346905Y26408095D01*
X46346905Y26646190D01*
X46299286Y26741429D01*
X46251667Y26789048D01*
X46156429Y26836667D01*
X45965952Y26836667D01*
X45870714Y26789048D01*
X45823095Y26741429D01*
X45775476Y26646190D01*
X50874667Y42107238D02*
X51017524Y42059619D01*
X51255620Y42059619D01*
X51350858Y42107238D01*
X51398477Y42154857D01*
X51446096Y42250095D01*
X51446096Y42345333D01*
X51398477Y42440571D01*
X51350858Y42488190D01*
X51255620Y42535810D01*
X51065143Y42583429D01*
X50969905Y42631048D01*
X50922286Y42678667D01*
X50874667Y42773905D01*
X50874667Y42869143D01*
X50922286Y42964381D01*
X50969905Y43012000D01*
X51065143Y43059619D01*
X51303239Y43059619D01*
X51446096Y43012000D01*
X51779429Y43059619D02*
X52017524Y42059619D01*
X52208001Y42773905D01*
X52398477Y42059619D01*
X52636572Y43059619D01*
X53541334Y42059619D02*
X52969905Y42059619D01*
X53255619Y42059619D02*
X53255619Y43059619D01*
X53160381Y42916762D01*
X53065143Y42821524D01*
X52969905Y42773905D01*
X69144762Y10361667D02*
X69192381Y10504524D01*
X69192381Y10742620D01*
X69144762Y10837858D01*
X69097143Y10885477D01*
X69001905Y10933096D01*
X68906667Y10933096D01*
X68811429Y10885477D01*
X68763810Y10837858D01*
X68716190Y10742620D01*
X68668571Y10552143D01*
X68620952Y10456905D01*
X68573333Y10409286D01*
X68478095Y10361667D01*
X68382857Y10361667D01*
X68287619Y10409286D01*
X68240000Y10456905D01*
X68192381Y10552143D01*
X68192381Y10790239D01*
X68240000Y10933096D01*
X68192381Y11266429D02*
X69192381Y11504524D01*
X68478095Y11695001D01*
X69192381Y11885477D01*
X68192381Y12123572D01*
X68287619Y12456905D02*
X68240000Y12504524D01*
X68192381Y12599762D01*
X68192381Y12837858D01*
X68240000Y12933096D01*
X68287619Y12980715D01*
X68382857Y13028334D01*
X68478095Y13028334D01*
X68620952Y12980715D01*
X69192381Y12409286D01*
X69192381Y13028334D01*
X30988095Y24382619D02*
X30988095Y23573095D01*
X31035714Y23477857D01*
X31083333Y23430238D01*
X31178571Y23382619D01*
X31369048Y23382619D01*
X31464286Y23430238D01*
X31511905Y23477857D01*
X31559524Y23573095D01*
X31559524Y24382619D01*
X32559524Y23382619D02*
X31988095Y23382619D01*
X32273809Y23382619D02*
X32273809Y24382619D01*
X32178571Y24239762D01*
X32083333Y24144524D01*
X31988095Y24096905D01*
X55118095Y35767619D02*
X55118095Y34958095D01*
X55165714Y34862857D01*
X55213333Y34815238D01*
X55308571Y34767619D01*
X55499048Y34767619D01*
X55594286Y34815238D01*
X55641905Y34862857D01*
X55689524Y34958095D01*
X55689524Y35767619D01*
X56118095Y35672381D02*
X56165714Y35720000D01*
X56260952Y35767619D01*
X56499048Y35767619D01*
X56594286Y35720000D01*
X56641905Y35672381D01*
X56689524Y35577143D01*
X56689524Y35481905D01*
X56641905Y35339048D01*
X56070476Y34767619D01*
X56689524Y34767619D01*
X3706905Y4627619D02*
X3706905Y5627619D01*
X4087858Y5627619D01*
X4183096Y5580000D01*
X4230715Y5532381D01*
X4278334Y5437143D01*
X4278334Y5294286D01*
X4230715Y5199048D01*
X4183096Y5151429D01*
X4087858Y5103810D01*
X3706905Y5103810D01*
X4659286Y5532381D02*
X4706905Y5580000D01*
X4802143Y5627619D01*
X5040239Y5627619D01*
X5135477Y5580000D01*
X5183096Y5532381D01*
X5230715Y5437143D01*
X5230715Y5341905D01*
X5183096Y5199048D01*
X4611667Y4627619D01*
X5230715Y4627619D01*
X65476381Y49680905D02*
X64476381Y49680905D01*
X64476381Y50061858D01*
X64524000Y50157096D01*
X64571619Y50204715D01*
X64666857Y50252334D01*
X64809714Y50252334D01*
X64904952Y50204715D01*
X64952571Y50157096D01*
X65000190Y50061858D01*
X65000190Y49680905D01*
X64476381Y50585667D02*
X64476381Y51204715D01*
X64857333Y50871381D01*
X64857333Y51014239D01*
X64904952Y51109477D01*
X64952571Y51157096D01*
X65047810Y51204715D01*
X65285905Y51204715D01*
X65381143Y51157096D01*
X65428762Y51109477D01*
X65476381Y51014239D01*
X65476381Y50728524D01*
X65428762Y50633286D01*
X65381143Y50585667D01*
X58583381Y38100095D02*
X59392905Y38100095D01*
X59488143Y38147714D01*
X59535762Y38195333D01*
X59583381Y38290571D01*
X59583381Y38481048D01*
X59535762Y38576286D01*
X59488143Y38623905D01*
X59392905Y38671524D01*
X58583381Y38671524D01*
X58916714Y39576286D02*
X59583381Y39576286D01*
X58535762Y39338190D02*
X59250048Y39100095D01*
X59250048Y39719143D01*
X55237143Y25037857D02*
X55189524Y24990238D01*
X55046667Y24942619D01*
X54951429Y24942619D01*
X54808571Y24990238D01*
X54713333Y25085476D01*
X54665714Y25180714D01*
X54618095Y25371190D01*
X54618095Y25514048D01*
X54665714Y25704524D01*
X54713333Y25799762D01*
X54808571Y25895000D01*
X54951429Y25942619D01*
X55046667Y25942619D01*
X55189524Y25895000D01*
X55237143Y25847381D01*
X55618095Y25847381D02*
X55665714Y25895000D01*
X55760952Y25942619D01*
X55999048Y25942619D01*
X56094286Y25895000D01*
X56141905Y25847381D01*
X56189524Y25752143D01*
X56189524Y25656905D01*
X56141905Y25514048D01*
X55570476Y24942619D01*
X56189524Y24942619D01*
X56808571Y25942619D02*
X56903810Y25942619D01*
X56999048Y25895000D01*
X57046667Y25847381D01*
X57094286Y25752143D01*
X57141905Y25561667D01*
X57141905Y25323571D01*
X57094286Y25133095D01*
X57046667Y25037857D01*
X56999048Y24990238D01*
X56903810Y24942619D01*
X56808571Y24942619D01*
X56713333Y24990238D01*
X56665714Y25037857D01*
X56618095Y25133095D01*
X56570476Y25323571D01*
X56570476Y25561667D01*
X56618095Y25752143D01*
X56665714Y25847381D01*
X56713333Y25895000D01*
X56808571Y25942619D01*
X59920143Y38092143D02*
X59967762Y38044524D01*
X60015381Y37901667D01*
X60015381Y37806429D01*
X59967762Y37663571D01*
X59872524Y37568333D01*
X59777286Y37520714D01*
X59586810Y37473095D01*
X59443952Y37473095D01*
X59253476Y37520714D01*
X59158238Y37568333D01*
X59063000Y37663571D01*
X59015381Y37806429D01*
X59015381Y37901667D01*
X59063000Y38044524D01*
X59110619Y38092143D01*
X59110619Y38473095D02*
X59063000Y38520714D01*
X59015381Y38615952D01*
X59015381Y38854048D01*
X59063000Y38949286D01*
X59110619Y38996905D01*
X59205857Y39044524D01*
X59301095Y39044524D01*
X59443952Y38996905D01*
X60015381Y38425476D01*
X60015381Y39044524D01*
X60015381Y39996905D02*
X60015381Y39425476D01*
X60015381Y39711190D02*
X59015381Y39711190D01*
X59158238Y39615952D01*
X59253476Y39520714D01*
X59301095Y39425476D01*
X61444143Y44315143D02*
X61491762Y44267524D01*
X61539381Y44124667D01*
X61539381Y44029429D01*
X61491762Y43886571D01*
X61396524Y43791333D01*
X61301286Y43743714D01*
X61110810Y43696095D01*
X60967952Y43696095D01*
X60777476Y43743714D01*
X60682238Y43791333D01*
X60587000Y43886571D01*
X60539381Y44029429D01*
X60539381Y44124667D01*
X60587000Y44267524D01*
X60634619Y44315143D01*
X60634619Y44696095D02*
X60587000Y44743714D01*
X60539381Y44838952D01*
X60539381Y45077048D01*
X60587000Y45172286D01*
X60634619Y45219905D01*
X60729857Y45267524D01*
X60825095Y45267524D01*
X60967952Y45219905D01*
X61539381Y44648476D01*
X61539381Y45267524D01*
X60634619Y45648476D02*
X60587000Y45696095D01*
X60539381Y45791333D01*
X60539381Y46029429D01*
X60587000Y46124667D01*
X60634619Y46172286D01*
X60729857Y46219905D01*
X60825095Y46219905D01*
X60967952Y46172286D01*
X61539381Y45600857D01*
X61539381Y46219905D01*
X65730381Y31773905D02*
X64730381Y31773905D01*
X64730381Y32154858D01*
X64778000Y32250096D01*
X64825619Y32297715D01*
X64920857Y32345334D01*
X65063714Y32345334D01*
X65158952Y32297715D01*
X65206571Y32250096D01*
X65254190Y32154858D01*
X65254190Y31773905D01*
X64730381Y33250096D02*
X64730381Y32773905D01*
X65206571Y32726286D01*
X65158952Y32773905D01*
X65111333Y32869143D01*
X65111333Y33107239D01*
X65158952Y33202477D01*
X65206571Y33250096D01*
X65301810Y33297715D01*
X65539905Y33297715D01*
X65635143Y33250096D01*
X65682762Y33202477D01*
X65730381Y33107239D01*
X65730381Y32869143D01*
X65682762Y32773905D01*
X65635143Y32726286D01*
X55734143Y38981143D02*
X55781762Y38933524D01*
X55829381Y38790667D01*
X55829381Y38695429D01*
X55781762Y38552571D01*
X55686524Y38457333D01*
X55591286Y38409714D01*
X55400810Y38362095D01*
X55257952Y38362095D01*
X55067476Y38409714D01*
X54972238Y38457333D01*
X54877000Y38552571D01*
X54829381Y38695429D01*
X54829381Y38790667D01*
X54877000Y38933524D01*
X54924619Y38981143D01*
X54924619Y39362095D02*
X54877000Y39409714D01*
X54829381Y39504952D01*
X54829381Y39743048D01*
X54877000Y39838286D01*
X54924619Y39885905D01*
X55019857Y39933524D01*
X55115095Y39933524D01*
X55257952Y39885905D01*
X55829381Y39314476D01*
X55829381Y39933524D01*
X54829381Y40266857D02*
X54829381Y40885905D01*
X55210333Y40552571D01*
X55210333Y40695429D01*
X55257952Y40790667D01*
X55305571Y40838286D01*
X55400810Y40885905D01*
X55638905Y40885905D01*
X55734143Y40838286D01*
X55781762Y40790667D01*
X55829381Y40695429D01*
X55829381Y40409714D01*
X55781762Y40314476D01*
X55734143Y40266857D01*
X59534143Y43553143D02*
X59581762Y43505524D01*
X59629381Y43362667D01*
X59629381Y43267429D01*
X59581762Y43124571D01*
X59486524Y43029333D01*
X59391286Y42981714D01*
X59200810Y42934095D01*
X59057952Y42934095D01*
X58867476Y42981714D01*
X58772238Y43029333D01*
X58677000Y43124571D01*
X58629381Y43267429D01*
X58629381Y43362667D01*
X58677000Y43505524D01*
X58724619Y43553143D01*
X58724619Y43934095D02*
X58677000Y43981714D01*
X58629381Y44076952D01*
X58629381Y44315048D01*
X58677000Y44410286D01*
X58724619Y44457905D01*
X58819857Y44505524D01*
X58915095Y44505524D01*
X59057952Y44457905D01*
X59629381Y43886476D01*
X59629381Y44505524D01*
X58962714Y45362667D02*
X59629381Y45362667D01*
X58581762Y45124571D02*
X59296048Y44886476D01*
X59296048Y45505524D01*
D13*
X3247572Y48574476D02*
X3247572Y47667333D01*
X3187096Y47485905D01*
X3066144Y47364952D01*
X2884715Y47304476D01*
X2763763Y47304476D01*
X3791858Y47667333D02*
X4396620Y47667333D01*
X3670905Y47304476D02*
X4094239Y48574476D01*
X4517572Y47304476D01*
X5666619Y47425429D02*
X5606143Y47364952D01*
X5424714Y47304476D01*
X5303762Y47304476D01*
X5122334Y47364952D01*
X5001381Y47485905D01*
X4940905Y47606857D01*
X4880429Y47848762D01*
X4880429Y48030190D01*
X4940905Y48272095D01*
X5001381Y48393048D01*
X5122334Y48514000D01*
X5303762Y48574476D01*
X5424714Y48574476D01*
X5606143Y48514000D01*
X5666619Y48453524D01*
X6210905Y47304476D02*
X6210905Y48574476D01*
X6936619Y47304476D02*
X6392334Y48030190D01*
X6936619Y48574476D02*
X6210905Y47848762D01*
X7178524Y47183524D02*
X8146143Y47183524D01*
X8327572Y48574476D02*
X9113762Y48574476D01*
X8690429Y48090667D01*
X8871857Y48090667D01*
X8992810Y48030190D01*
X9053286Y47969714D01*
X9113762Y47848762D01*
X9113762Y47546381D01*
X9053286Y47425429D01*
X8992810Y47364952D01*
X8871857Y47304476D01*
X8509000Y47304476D01*
X8388048Y47364952D01*
X8327572Y47425429D01*
X9658048Y47304476D02*
X9658048Y48574476D01*
X10141857Y48574476D01*
X10262810Y48514000D01*
X10323286Y48453524D01*
X10383762Y48332571D01*
X10383762Y48151143D01*
X10323286Y48030190D01*
X10262810Y47969714D01*
X10141857Y47909238D01*
X9658048Y47909238D01*
X3247572Y36763476D02*
X3247572Y35856333D01*
X3187096Y35674905D01*
X3066144Y35553952D01*
X2884715Y35493476D01*
X2763763Y35493476D01*
X3791858Y35856333D02*
X4396620Y35856333D01*
X3670905Y35493476D02*
X4094239Y36763476D01*
X4517572Y35493476D01*
X5666619Y35614429D02*
X5606143Y35553952D01*
X5424714Y35493476D01*
X5303762Y35493476D01*
X5122334Y35553952D01*
X5001381Y35674905D01*
X4940905Y35795857D01*
X4880429Y36037762D01*
X4880429Y36219190D01*
X4940905Y36461095D01*
X5001381Y36582048D01*
X5122334Y36703000D01*
X5303762Y36763476D01*
X5424714Y36763476D01*
X5606143Y36703000D01*
X5666619Y36642524D01*
X6210905Y35493476D02*
X6210905Y36763476D01*
X6936619Y35493476D02*
X6392334Y36219190D01*
X6936619Y36763476D02*
X6210905Y36037762D01*
X7178524Y35372524D02*
X8146143Y35372524D01*
X8327572Y36763476D02*
X9113762Y36763476D01*
X8690429Y36279667D01*
X8871857Y36279667D01*
X8992810Y36219190D01*
X9053286Y36158714D01*
X9113762Y36037762D01*
X9113762Y35735381D01*
X9053286Y35614429D01*
X8992810Y35553952D01*
X8871857Y35493476D01*
X8509000Y35493476D01*
X8388048Y35553952D01*
X8327572Y35614429D01*
X9658048Y35493476D02*
X9658048Y36763476D01*
X10141857Y36763476D01*
X10262810Y36703000D01*
X10323286Y36642524D01*
X10383762Y36521571D01*
X10383762Y36340143D01*
X10323286Y36219190D01*
X10262810Y36158714D01*
X10141857Y36098238D01*
X9658048Y36098238D01*
X3247572Y24825476D02*
X3247572Y23918333D01*
X3187096Y23736905D01*
X3066144Y23615952D01*
X2884715Y23555476D01*
X2763763Y23555476D01*
X3791858Y23918333D02*
X4396620Y23918333D01*
X3670905Y23555476D02*
X4094239Y24825476D01*
X4517572Y23555476D01*
X5666619Y23676429D02*
X5606143Y23615952D01*
X5424714Y23555476D01*
X5303762Y23555476D01*
X5122334Y23615952D01*
X5001381Y23736905D01*
X4940905Y23857857D01*
X4880429Y24099762D01*
X4880429Y24281190D01*
X4940905Y24523095D01*
X5001381Y24644048D01*
X5122334Y24765000D01*
X5303762Y24825476D01*
X5424714Y24825476D01*
X5606143Y24765000D01*
X5666619Y24704524D01*
X6210905Y23555476D02*
X6210905Y24825476D01*
X6936619Y23555476D02*
X6392334Y24281190D01*
X6936619Y24825476D02*
X6210905Y24099762D01*
X7178524Y23434524D02*
X8146143Y23434524D01*
X8327572Y24825476D02*
X9113762Y24825476D01*
X8690429Y24341667D01*
X8871857Y24341667D01*
X8992810Y24281190D01*
X9053286Y24220714D01*
X9113762Y24099762D01*
X9113762Y23797381D01*
X9053286Y23676429D01*
X8992810Y23615952D01*
X8871857Y23555476D01*
X8509000Y23555476D01*
X8388048Y23615952D01*
X8327572Y23676429D01*
X9658048Y23555476D02*
X9658048Y24825476D01*
X10141857Y24825476D01*
X10262810Y24765000D01*
X10323286Y24704524D01*
X10383762Y24583571D01*
X10383762Y24402143D01*
X10323286Y24281190D01*
X10262810Y24220714D01*
X10141857Y24160238D01*
X9658048Y24160238D01*
D11*
X41732381Y12819143D02*
X41256190Y12485809D01*
X41732381Y12247714D02*
X40732381Y12247714D01*
X40732381Y12628667D01*
X40780000Y12723905D01*
X40827619Y12771524D01*
X40922857Y12819143D01*
X41065714Y12819143D01*
X41160952Y12771524D01*
X41208571Y12723905D01*
X41256190Y12628667D01*
X41256190Y12247714D01*
X41732381Y13771524D02*
X41732381Y13200095D01*
X41732381Y13485809D02*
X40732381Y13485809D01*
X40875238Y13390571D01*
X40970476Y13295333D01*
X41018095Y13200095D01*
X40732381Y14104857D02*
X40732381Y14771524D01*
X41732381Y14342952D01*
X40632143Y15046619D02*
X40298809Y15522810D01*
X40060714Y15046619D02*
X40060714Y16046619D01*
X40441667Y16046619D01*
X40536905Y15999000D01*
X40584524Y15951381D01*
X40632143Y15856143D01*
X40632143Y15713286D01*
X40584524Y15618048D01*
X40536905Y15570429D01*
X40441667Y15522810D01*
X40060714Y15522810D01*
X41584524Y15046619D02*
X41013095Y15046619D01*
X41298809Y15046619D02*
X41298809Y16046619D01*
X41203571Y15903762D01*
X41108333Y15808524D01*
X41013095Y15760905D01*
X42155952Y15618048D02*
X42060714Y15665667D01*
X42013095Y15713286D01*
X41965476Y15808524D01*
X41965476Y15856143D01*
X42013095Y15951381D01*
X42060714Y15999000D01*
X42155952Y16046619D01*
X42346429Y16046619D01*
X42441667Y15999000D01*
X42489286Y15951381D01*
X42536905Y15856143D01*
X42536905Y15808524D01*
X42489286Y15713286D01*
X42441667Y15665667D01*
X42346429Y15618048D01*
X42155952Y15618048D01*
X42060714Y15570429D01*
X42013095Y15522810D01*
X41965476Y15427571D01*
X41965476Y15237095D01*
X42013095Y15141857D01*
X42060714Y15094238D01*
X42155952Y15046619D01*
X42346429Y15046619D01*
X42441667Y15094238D01*
X42489286Y15141857D01*
X42536905Y15237095D01*
X42536905Y15427571D01*
X42489286Y15522810D01*
X42441667Y15570429D01*
X42346429Y15618048D01*
X39192381Y12819143D02*
X38716190Y12485809D01*
X39192381Y12247714D02*
X38192381Y12247714D01*
X38192381Y12628667D01*
X38240000Y12723905D01*
X38287619Y12771524D01*
X38382857Y12819143D01*
X38525714Y12819143D01*
X38620952Y12771524D01*
X38668571Y12723905D01*
X38716190Y12628667D01*
X38716190Y12247714D01*
X39192381Y13771524D02*
X39192381Y13200095D01*
X39192381Y13485809D02*
X38192381Y13485809D01*
X38335238Y13390571D01*
X38430476Y13295333D01*
X38478095Y13200095D01*
X39192381Y14247714D02*
X39192381Y14438190D01*
X39144762Y14533429D01*
X39097143Y14581048D01*
X38954286Y14676286D01*
X38763810Y14723905D01*
X38382857Y14723905D01*
X38287619Y14676286D01*
X38240000Y14628667D01*
X38192381Y14533429D01*
X38192381Y14342952D01*
X38240000Y14247714D01*
X38287619Y14200095D01*
X38382857Y14152476D01*
X38620952Y14152476D01*
X38716190Y14200095D01*
X38763810Y14247714D01*
X38811429Y14342952D01*
X38811429Y14533429D01*
X38763810Y14628667D01*
X38716190Y14676286D01*
X38620952Y14723905D01*
X33266143Y15046619D02*
X32932809Y15522810D01*
X32694714Y15046619D02*
X32694714Y16046619D01*
X33075667Y16046619D01*
X33170905Y15999000D01*
X33218524Y15951381D01*
X33266143Y15856143D01*
X33266143Y15713286D01*
X33218524Y15618048D01*
X33170905Y15570429D01*
X33075667Y15522810D01*
X32694714Y15522810D01*
X33647095Y15951381D02*
X33694714Y15999000D01*
X33789952Y16046619D01*
X34028048Y16046619D01*
X34123286Y15999000D01*
X34170905Y15951381D01*
X34218524Y15856143D01*
X34218524Y15760905D01*
X34170905Y15618048D01*
X33599476Y15046619D01*
X34218524Y15046619D01*
X34837571Y16046619D02*
X34932810Y16046619D01*
X35028048Y15999000D01*
X35075667Y15951381D01*
X35123286Y15856143D01*
X35170905Y15665667D01*
X35170905Y15427571D01*
X35123286Y15237095D01*
X35075667Y15141857D01*
X35028048Y15094238D01*
X34932810Y15046619D01*
X34837571Y15046619D01*
X34742333Y15094238D01*
X34694714Y15141857D01*
X34647095Y15237095D01*
X34599476Y15427571D01*
X34599476Y15665667D01*
X34647095Y15856143D01*
X34694714Y15951381D01*
X34742333Y15999000D01*
X34837571Y16046619D01*
X36652381Y12819143D02*
X36176190Y12485809D01*
X36652381Y12247714D02*
X35652381Y12247714D01*
X35652381Y12628667D01*
X35700000Y12723905D01*
X35747619Y12771524D01*
X35842857Y12819143D01*
X35985714Y12819143D01*
X36080952Y12771524D01*
X36128571Y12723905D01*
X36176190Y12628667D01*
X36176190Y12247714D01*
X35747619Y13200095D02*
X35700000Y13247714D01*
X35652381Y13342952D01*
X35652381Y13581048D01*
X35700000Y13676286D01*
X35747619Y13723905D01*
X35842857Y13771524D01*
X35938095Y13771524D01*
X36080952Y13723905D01*
X36652381Y13152476D01*
X36652381Y13771524D01*
X36652381Y14723905D02*
X36652381Y14152476D01*
X36652381Y14438190D02*
X35652381Y14438190D01*
X35795238Y14342952D01*
X35890476Y14247714D01*
X35938095Y14152476D01*
X32070381Y13327143D02*
X31594190Y12993809D01*
X32070381Y12755714D02*
X31070381Y12755714D01*
X31070381Y13136667D01*
X31118000Y13231905D01*
X31165619Y13279524D01*
X31260857Y13327143D01*
X31403714Y13327143D01*
X31498952Y13279524D01*
X31546571Y13231905D01*
X31594190Y13136667D01*
X31594190Y12755714D01*
X31165619Y13708095D02*
X31118000Y13755714D01*
X31070381Y13850952D01*
X31070381Y14089048D01*
X31118000Y14184286D01*
X31165619Y14231905D01*
X31260857Y14279524D01*
X31356095Y14279524D01*
X31498952Y14231905D01*
X32070381Y13660476D01*
X32070381Y14279524D01*
X31165619Y14660476D02*
X31118000Y14708095D01*
X31070381Y14803333D01*
X31070381Y15041429D01*
X31118000Y15136667D01*
X31165619Y15184286D01*
X31260857Y15231905D01*
X31356095Y15231905D01*
X31498952Y15184286D01*
X32070381Y14612857D01*
X32070381Y15231905D01*
X16957381Y22090143D02*
X16481190Y21756809D01*
X16957381Y21518714D02*
X15957381Y21518714D01*
X15957381Y21899667D01*
X16005000Y21994905D01*
X16052619Y22042524D01*
X16147857Y22090143D01*
X16290714Y22090143D01*
X16385952Y22042524D01*
X16433571Y21994905D01*
X16481190Y21899667D01*
X16481190Y21518714D01*
X16052619Y22471095D02*
X16005000Y22518714D01*
X15957381Y22613952D01*
X15957381Y22852048D01*
X16005000Y22947286D01*
X16052619Y22994905D01*
X16147857Y23042524D01*
X16243095Y23042524D01*
X16385952Y22994905D01*
X16957381Y22423476D01*
X16957381Y23042524D01*
X15957381Y23375857D02*
X15957381Y23994905D01*
X16338333Y23661571D01*
X16338333Y23804429D01*
X16385952Y23899667D01*
X16433571Y23947286D01*
X16528810Y23994905D01*
X16766905Y23994905D01*
X16862143Y23947286D01*
X16909762Y23899667D01*
X16957381Y23804429D01*
X16957381Y23518714D01*
X16909762Y23423476D01*
X16862143Y23375857D01*
X13406381Y34028143D02*
X12930190Y33694809D01*
X13406381Y33456714D02*
X12406381Y33456714D01*
X12406381Y33837667D01*
X12454000Y33932905D01*
X12501619Y33980524D01*
X12596857Y34028143D01*
X12739714Y34028143D01*
X12834952Y33980524D01*
X12882571Y33932905D01*
X12930190Y33837667D01*
X12930190Y33456714D01*
X12501619Y34409095D02*
X12454000Y34456714D01*
X12406381Y34551952D01*
X12406381Y34790048D01*
X12454000Y34885286D01*
X12501619Y34932905D01*
X12596857Y34980524D01*
X12692095Y34980524D01*
X12834952Y34932905D01*
X13406381Y34361476D01*
X13406381Y34980524D01*
X12739714Y35837667D02*
X13406381Y35837667D01*
X12358762Y35599571D02*
X13073048Y35361476D01*
X13073048Y35980524D01*
X12903381Y38473143D02*
X12427190Y38139809D01*
X12903381Y37901714D02*
X11903381Y37901714D01*
X11903381Y38282667D01*
X11951000Y38377905D01*
X11998619Y38425524D01*
X12093857Y38473143D01*
X12236714Y38473143D01*
X12331952Y38425524D01*
X12379571Y38377905D01*
X12427190Y38282667D01*
X12427190Y37901714D01*
X11998619Y38854095D02*
X11951000Y38901714D01*
X11903381Y38996952D01*
X11903381Y39235048D01*
X11951000Y39330286D01*
X11998619Y39377905D01*
X12093857Y39425524D01*
X12189095Y39425524D01*
X12331952Y39377905D01*
X12903381Y38806476D01*
X12903381Y39425524D01*
X11903381Y40330286D02*
X11903381Y39854095D01*
X12379571Y39806476D01*
X12331952Y39854095D01*
X12284333Y39949333D01*
X12284333Y40187429D01*
X12331952Y40282667D01*
X12379571Y40330286D01*
X12474810Y40377905D01*
X12712905Y40377905D01*
X12808143Y40330286D01*
X12855762Y40282667D01*
X12903381Y40187429D01*
X12903381Y39949333D01*
X12855762Y39854095D01*
X12808143Y39806476D01*
X34112381Y12819143D02*
X33636190Y12485809D01*
X34112381Y12247714D02*
X33112381Y12247714D01*
X33112381Y12628667D01*
X33160000Y12723905D01*
X33207619Y12771524D01*
X33302857Y12819143D01*
X33445714Y12819143D01*
X33540952Y12771524D01*
X33588571Y12723905D01*
X33636190Y12628667D01*
X33636190Y12247714D01*
X33207619Y13200095D02*
X33160000Y13247714D01*
X33112381Y13342952D01*
X33112381Y13581048D01*
X33160000Y13676286D01*
X33207619Y13723905D01*
X33302857Y13771524D01*
X33398095Y13771524D01*
X33540952Y13723905D01*
X34112381Y13152476D01*
X34112381Y13771524D01*
X33112381Y14628667D02*
X33112381Y14438190D01*
X33160000Y14342952D01*
X33207619Y14295333D01*
X33350476Y14200095D01*
X33540952Y14152476D01*
X33921905Y14152476D01*
X34017143Y14200095D01*
X34064762Y14247714D01*
X34112381Y14342952D01*
X34112381Y14533429D01*
X34064762Y14628667D01*
X34017143Y14676286D01*
X33921905Y14723905D01*
X33683810Y14723905D01*
X33588571Y14676286D01*
X33540952Y14628667D01*
X33493333Y14533429D01*
X33493333Y14342952D01*
X33540952Y14247714D01*
X33588571Y14200095D01*
X33683810Y14152476D01*
X26990381Y13327143D02*
X26514190Y12993809D01*
X26990381Y12755714D02*
X25990381Y12755714D01*
X25990381Y13136667D01*
X26038000Y13231905D01*
X26085619Y13279524D01*
X26180857Y13327143D01*
X26323714Y13327143D01*
X26418952Y13279524D01*
X26466571Y13231905D01*
X26514190Y13136667D01*
X26514190Y12755714D01*
X26085619Y13708095D02*
X26038000Y13755714D01*
X25990381Y13850952D01*
X25990381Y14089048D01*
X26038000Y14184286D01*
X26085619Y14231905D01*
X26180857Y14279524D01*
X26276095Y14279524D01*
X26418952Y14231905D01*
X26990381Y13660476D01*
X26990381Y14279524D01*
X25990381Y14612857D02*
X25990381Y15279524D01*
X26990381Y14850952D01*
X44272381Y12819143D02*
X43796190Y12485809D01*
X44272381Y12247714D02*
X43272381Y12247714D01*
X43272381Y12628667D01*
X43320000Y12723905D01*
X43367619Y12771524D01*
X43462857Y12819143D01*
X43605714Y12819143D01*
X43700952Y12771524D01*
X43748571Y12723905D01*
X43796190Y12628667D01*
X43796190Y12247714D01*
X43367619Y13200095D02*
X43320000Y13247714D01*
X43272381Y13342952D01*
X43272381Y13581048D01*
X43320000Y13676286D01*
X43367619Y13723905D01*
X43462857Y13771524D01*
X43558095Y13771524D01*
X43700952Y13723905D01*
X44272381Y13152476D01*
X44272381Y13771524D01*
X43700952Y14342952D02*
X43653333Y14247714D01*
X43605714Y14200095D01*
X43510476Y14152476D01*
X43462857Y14152476D01*
X43367619Y14200095D01*
X43320000Y14247714D01*
X43272381Y14342952D01*
X43272381Y14533429D01*
X43320000Y14628667D01*
X43367619Y14676286D01*
X43462857Y14723905D01*
X43510476Y14723905D01*
X43605714Y14676286D01*
X43653333Y14628667D01*
X43700952Y14533429D01*
X43700952Y14342952D01*
X43748571Y14247714D01*
X43796190Y14200095D01*
X43891429Y14152476D01*
X44081905Y14152476D01*
X44177143Y14200095D01*
X44224762Y14247714D01*
X44272381Y14342952D01*
X44272381Y14533429D01*
X44224762Y14628667D01*
X44177143Y14676286D01*
X44081905Y14723905D01*
X43891429Y14723905D01*
X43796190Y14676286D01*
X43748571Y14628667D01*
X43700952Y14533429D01*
X45331143Y18846619D02*
X44997809Y19322810D01*
X44759714Y18846619D02*
X44759714Y19846619D01*
X45140667Y19846619D01*
X45235905Y19799000D01*
X45283524Y19751381D01*
X45331143Y19656143D01*
X45331143Y19513286D01*
X45283524Y19418048D01*
X45235905Y19370429D01*
X45140667Y19322810D01*
X44759714Y19322810D01*
X45712095Y19751381D02*
X45759714Y19799000D01*
X45854952Y19846619D01*
X46093048Y19846619D01*
X46188286Y19799000D01*
X46235905Y19751381D01*
X46283524Y19656143D01*
X46283524Y19560905D01*
X46235905Y19418048D01*
X45664476Y18846619D01*
X46283524Y18846619D01*
X46759714Y18846619D02*
X46950190Y18846619D01*
X47045429Y18894238D01*
X47093048Y18941857D01*
X47188286Y19084714D01*
X47235905Y19275190D01*
X47235905Y19656143D01*
X47188286Y19751381D01*
X47140667Y19799000D01*
X47045429Y19846619D01*
X46854952Y19846619D01*
X46759714Y19799000D01*
X46712095Y19751381D01*
X46664476Y19656143D01*
X46664476Y19418048D01*
X46712095Y19322810D01*
X46759714Y19275190D01*
X46854952Y19227571D01*
X47045429Y19227571D01*
X47140667Y19275190D01*
X47188286Y19322810D01*
X47235905Y19418048D01*
X46812381Y12819143D02*
X46336190Y12485809D01*
X46812381Y12247714D02*
X45812381Y12247714D01*
X45812381Y12628667D01*
X45860000Y12723905D01*
X45907619Y12771524D01*
X46002857Y12819143D01*
X46145714Y12819143D01*
X46240952Y12771524D01*
X46288571Y12723905D01*
X46336190Y12628667D01*
X46336190Y12247714D01*
X45812381Y13152476D02*
X45812381Y13771524D01*
X46193333Y13438190D01*
X46193333Y13581048D01*
X46240952Y13676286D01*
X46288571Y13723905D01*
X46383810Y13771524D01*
X46621905Y13771524D01*
X46717143Y13723905D01*
X46764762Y13676286D01*
X46812381Y13581048D01*
X46812381Y13295333D01*
X46764762Y13200095D01*
X46717143Y13152476D01*
X45812381Y14390571D02*
X45812381Y14485810D01*
X45860000Y14581048D01*
X45907619Y14628667D01*
X46002857Y14676286D01*
X46193333Y14723905D01*
X46431429Y14723905D01*
X46621905Y14676286D01*
X46717143Y14628667D01*
X46764762Y14581048D01*
X46812381Y14485810D01*
X46812381Y14390571D01*
X46764762Y14295333D01*
X46717143Y14247714D01*
X46621905Y14200095D01*
X46431429Y14152476D01*
X46193333Y14152476D01*
X46002857Y14200095D01*
X45907619Y14247714D01*
X45860000Y14295333D01*
X45812381Y14390571D01*
X50030143Y18846619D02*
X49696809Y19322810D01*
X49458714Y18846619D02*
X49458714Y19846619D01*
X49839667Y19846619D01*
X49934905Y19799000D01*
X49982524Y19751381D01*
X50030143Y19656143D01*
X50030143Y19513286D01*
X49982524Y19418048D01*
X49934905Y19370429D01*
X49839667Y19322810D01*
X49458714Y19322810D01*
X50363476Y19846619D02*
X50982524Y19846619D01*
X50649190Y19465667D01*
X50792048Y19465667D01*
X50887286Y19418048D01*
X50934905Y19370429D01*
X50982524Y19275190D01*
X50982524Y19037095D01*
X50934905Y18941857D01*
X50887286Y18894238D01*
X50792048Y18846619D01*
X50506333Y18846619D01*
X50411095Y18894238D01*
X50363476Y18941857D01*
X51934905Y18846619D02*
X51363476Y18846619D01*
X51649190Y18846619D02*
X51649190Y19846619D01*
X51553952Y19703762D01*
X51458714Y19608524D01*
X51363476Y19560905D01*
X16703381Y45839143D02*
X16227190Y45505809D01*
X16703381Y45267714D02*
X15703381Y45267714D01*
X15703381Y45648667D01*
X15751000Y45743905D01*
X15798619Y45791524D01*
X15893857Y45839143D01*
X16036714Y45839143D01*
X16131952Y45791524D01*
X16179571Y45743905D01*
X16227190Y45648667D01*
X16227190Y45267714D01*
X15703381Y46172476D02*
X15703381Y46791524D01*
X16084333Y46458190D01*
X16084333Y46601048D01*
X16131952Y46696286D01*
X16179571Y46743905D01*
X16274810Y46791524D01*
X16512905Y46791524D01*
X16608143Y46743905D01*
X16655762Y46696286D01*
X16703381Y46601048D01*
X16703381Y46315333D01*
X16655762Y46220095D01*
X16608143Y46172476D01*
X15798619Y47172476D02*
X15751000Y47220095D01*
X15703381Y47315333D01*
X15703381Y47553429D01*
X15751000Y47648667D01*
X15798619Y47696286D01*
X15893857Y47743905D01*
X15989095Y47743905D01*
X16131952Y47696286D01*
X16703381Y47124857D01*
X16703381Y47743905D01*
X13660381Y26535143D02*
X13184190Y26201809D01*
X13660381Y25963714D02*
X12660381Y25963714D01*
X12660381Y26344667D01*
X12708000Y26439905D01*
X12755619Y26487524D01*
X12850857Y26535143D01*
X12993714Y26535143D01*
X13088952Y26487524D01*
X13136571Y26439905D01*
X13184190Y26344667D01*
X13184190Y25963714D01*
X12660381Y26868476D02*
X12660381Y27487524D01*
X13041333Y27154190D01*
X13041333Y27297048D01*
X13088952Y27392286D01*
X13136571Y27439905D01*
X13231810Y27487524D01*
X13469905Y27487524D01*
X13565143Y27439905D01*
X13612762Y27392286D01*
X13660381Y27297048D01*
X13660381Y27011333D01*
X13612762Y26916095D01*
X13565143Y26868476D01*
X12660381Y27820857D02*
X12660381Y28439905D01*
X13041333Y28106571D01*
X13041333Y28249429D01*
X13088952Y28344667D01*
X13136571Y28392286D01*
X13231810Y28439905D01*
X13469905Y28439905D01*
X13565143Y28392286D01*
X13612762Y28344667D01*
X13660381Y28249429D01*
X13660381Y27963714D01*
X13612762Y27868476D01*
X13565143Y27820857D01*
X13660381Y14724143D02*
X13184190Y14390809D01*
X13660381Y14152714D02*
X12660381Y14152714D01*
X12660381Y14533667D01*
X12708000Y14628905D01*
X12755619Y14676524D01*
X12850857Y14724143D01*
X12993714Y14724143D01*
X13088952Y14676524D01*
X13136571Y14628905D01*
X13184190Y14533667D01*
X13184190Y14152714D01*
X12660381Y15057476D02*
X12660381Y15676524D01*
X13041333Y15343190D01*
X13041333Y15486048D01*
X13088952Y15581286D01*
X13136571Y15628905D01*
X13231810Y15676524D01*
X13469905Y15676524D01*
X13565143Y15628905D01*
X13612762Y15581286D01*
X13660381Y15486048D01*
X13660381Y15200333D01*
X13612762Y15105095D01*
X13565143Y15057476D01*
X12993714Y16533667D02*
X13660381Y16533667D01*
X12612762Y16295571D02*
X13327048Y16057476D01*
X13327048Y16676524D01*
%LPC*%
D14*
X58420000Y52705000D03*
D15*
X58420000Y50165000D03*
X55880000Y52705000D03*
X55880000Y50165000D03*
X53340000Y52705000D03*
X53340000Y50165000D03*
X50800000Y52705000D03*
X50800000Y50165000D03*
X48260000Y52705000D03*
X48260000Y50165000D03*
X45720000Y52705000D03*
X45720000Y50165000D03*
X43180000Y52705000D03*
X43180000Y50165000D03*
X40640000Y52705000D03*
X40640000Y50165000D03*
X38100000Y52705000D03*
X38100000Y50165000D03*
X35560000Y52705000D03*
X35560000Y50165000D03*
X33020000Y52705000D03*
X33020000Y50165000D03*
X30480000Y52705000D03*
X30480000Y50165000D03*
X27940000Y52705000D03*
X27940000Y50165000D03*
X25400000Y52705000D03*
X25400000Y50165000D03*
X22860000Y52705000D03*
X22860000Y50165000D03*
X20320000Y52705000D03*
X20320000Y50165000D03*
X17780000Y52705000D03*
X17780000Y50165000D03*
X15240000Y52705000D03*
X15240000Y50165000D03*
X12700000Y52705000D03*
X12700000Y50165000D03*
X10160000Y52705000D03*
X10160000Y50165000D03*
X7620000Y52705000D03*
X7620000Y50165000D03*
X5080000Y52705000D03*
X5080000Y50165000D03*
X2540000Y52705000D03*
X2540000Y50165000D03*
D14*
X58420000Y4445000D03*
D15*
X58420000Y1905000D03*
X55880000Y4445000D03*
X55880000Y1905000D03*
X53340000Y4445000D03*
X53340000Y1905000D03*
X50800000Y4445000D03*
X50800000Y1905000D03*
X48260000Y4445000D03*
X48260000Y1905000D03*
X45720000Y4445000D03*
X45720000Y1905000D03*
X43180000Y4445000D03*
X43180000Y1905000D03*
X40640000Y4445000D03*
X40640000Y1905000D03*
X38100000Y4445000D03*
X38100000Y1905000D03*
X35560000Y4445000D03*
X35560000Y1905000D03*
X33020000Y4445000D03*
X33020000Y1905000D03*
X30480000Y4445000D03*
X30480000Y1905000D03*
X27940000Y4445000D03*
X27940000Y1905000D03*
X25400000Y4445000D03*
X25400000Y1905000D03*
X22860000Y4445000D03*
X22860000Y1905000D03*
X20320000Y4445000D03*
X20320000Y1905000D03*
X17780000Y4445000D03*
X17780000Y1905000D03*
X15240000Y4445000D03*
X15240000Y1905000D03*
X12700000Y4445000D03*
X12700000Y1905000D03*
X10160000Y4445000D03*
X10160000Y1905000D03*
X7620000Y4445000D03*
X7620000Y1905000D03*
X5080000Y4445000D03*
X5080000Y1905000D03*
X2540000Y4445000D03*
X2540000Y1905000D03*
D16*
X37150000Y28575000D03*
X39050000Y28575000D03*
X37150000Y30480000D03*
X39050000Y30480000D03*
X37150000Y24765000D03*
X39050000Y24765000D03*
X37150000Y34290000D03*
X39050000Y34290000D03*
X32700000Y22860000D03*
X30800000Y22860000D03*
D17*
X37084000Y22225000D03*
X40386000Y22225000D03*
X37084000Y36830000D03*
X40386000Y36830000D03*
D16*
X26350000Y30480000D03*
X24450000Y30480000D03*
X26350000Y28575000D03*
X24450000Y28575000D03*
X26350000Y34290000D03*
X24450000Y34290000D03*
X26350000Y24765000D03*
X24450000Y24765000D03*
D17*
X26416000Y36830000D03*
X23114000Y36830000D03*
X26416000Y22225000D03*
X23114000Y22225000D03*
D16*
X47945000Y30480000D03*
X49845000Y30480000D03*
X49845000Y28575000D03*
X47945000Y28575000D03*
X49845000Y34290000D03*
X47945000Y34290000D03*
X49845000Y24765000D03*
X47945000Y24765000D03*
D17*
X49911000Y36830000D03*
X46609000Y36830000D03*
X49911000Y22225000D03*
X46609000Y22225000D03*
D18*
X17780000Y32385000D03*
D19*
X17780000Y29845000D03*
X17780000Y27305000D03*
X17780000Y24765000D03*
X17780000Y22225000D03*
X17780000Y19685000D03*
X17780000Y17145000D03*
X17780000Y14605000D03*
X17780000Y12065000D03*
X17780000Y9525000D03*
D20*
X35560000Y9525000D03*
D21*
X38100000Y9525000D03*
X40640000Y9525000D03*
X43180000Y9525000D03*
X45720000Y9525000D03*
X48260000Y9525000D03*
X50800000Y9525000D03*
X53340000Y9525000D03*
X55880000Y9525000D03*
X58420000Y9525000D03*
D22*
X45593000Y46312000D03*
X45593000Y44112000D03*
X61595000Y23030000D03*
X61595000Y25230000D03*
X61595000Y27475000D03*
X61595000Y29675000D03*
X37338000Y19515000D03*
X37338000Y17315000D03*
X42545000Y22182000D03*
X42545000Y19982000D03*
D23*
X37000000Y26670000D03*
X39200000Y26670000D03*
X37000000Y32385000D03*
X39200000Y32385000D03*
D22*
X29718000Y19642000D03*
X29718000Y17442000D03*
X24638000Y19642000D03*
X24638000Y17442000D03*
D23*
X26500000Y32385000D03*
X24300000Y32385000D03*
X26500000Y26670000D03*
X24300000Y26670000D03*
X64600000Y4445000D03*
X62400000Y4445000D03*
D22*
X44577000Y22182000D03*
X44577000Y19982000D03*
D23*
X47922000Y19685000D03*
X50122000Y19685000D03*
X49995000Y32385000D03*
X47795000Y32385000D03*
X49995000Y26670000D03*
X47795000Y26670000D03*
D24*
X48608000Y45212000D03*
X54008000Y45212000D03*
D25*
X66040000Y8095000D03*
X66040000Y13495000D03*
D26*
X34450000Y25400000D03*
X34450000Y26670000D03*
X34450000Y27940000D03*
X34450000Y29210000D03*
X34450000Y30480000D03*
X34450000Y31750000D03*
X34450000Y33020000D03*
X29050000Y33020000D03*
X29050000Y31750000D03*
X29050000Y30480000D03*
X29050000Y29210000D03*
X29050000Y27940000D03*
X29050000Y26670000D03*
X29050000Y25400000D03*
X53180000Y33655000D03*
X53180000Y32385000D03*
X53180000Y31115000D03*
X53180000Y29845000D03*
X53180000Y28575000D03*
X53180000Y27305000D03*
X53180000Y26035000D03*
X58580000Y26035000D03*
X58580000Y27305000D03*
X58580000Y28575000D03*
X58580000Y29845000D03*
X58580000Y31115000D03*
X58580000Y32385000D03*
X58580000Y33655000D03*
D27*
X2540000Y10160000D03*
D28*
X2540000Y7620000D03*
X5080000Y10160000D03*
X5080000Y7620000D03*
X7620000Y10160000D03*
X7620000Y7620000D03*
X10160000Y10160000D03*
X10160000Y7620000D03*
D29*
X67056000Y51689000D03*
D30*
X67056000Y49149000D03*
D18*
X63881000Y38862000D03*
D19*
X63881000Y41402000D03*
X63881000Y43942000D03*
D16*
X54930000Y23495000D03*
X56830000Y23495000D03*
D31*
X60325000Y36830000D03*
X60325000Y40386000D03*
X60325000Y46863000D03*
X60325000Y43307000D03*
D29*
X67183000Y33782000D03*
D30*
X67183000Y31242000D03*
D32*
X57277000Y38674000D03*
X57277000Y40574000D03*
X57277000Y45146000D03*
X57277000Y43246000D03*
D33*
X10254000Y38799000D03*
X13454000Y42799000D03*
X10254000Y46799000D03*
X3504000Y38299000D03*
X3504000Y47299000D03*
D34*
X2504000Y42799000D03*
X8804000Y42799000D03*
D33*
X10254000Y26988000D03*
X13454000Y30988000D03*
X10254000Y34988000D03*
X3504000Y26488000D03*
X3504000Y35488000D03*
D34*
X2504000Y30988000D03*
X8804000Y30988000D03*
D33*
X10254000Y15050000D03*
X13454000Y19050000D03*
X10254000Y23050000D03*
X3504000Y14550000D03*
X3504000Y23550000D03*
D34*
X2504000Y19050000D03*
X8804000Y19050000D03*
D22*
X43180000Y12362000D03*
X43180000Y14562000D03*
D23*
X42375000Y17399000D03*
X40175000Y17399000D03*
D22*
X40640000Y12362000D03*
X40640000Y14562000D03*
D23*
X35009000Y17399000D03*
X32809000Y17399000D03*
D22*
X38100000Y12362000D03*
X38100000Y14562000D03*
X29718000Y15070000D03*
X29718000Y12870000D03*
X14605000Y23833000D03*
X14605000Y21633000D03*
X14351000Y35771000D03*
X14351000Y33571000D03*
X14351000Y38016000D03*
X14351000Y40216000D03*
X35560000Y12362000D03*
X35560000Y14562000D03*
X24638000Y15070000D03*
X24638000Y12870000D03*
X45720000Y12362000D03*
X45720000Y14562000D03*
D23*
X44874000Y17399000D03*
X47074000Y17399000D03*
D22*
X48260000Y12362000D03*
X48260000Y14562000D03*
D23*
X49573000Y17399000D03*
X51773000Y17399000D03*
D22*
X14351000Y47582000D03*
X14351000Y45382000D03*
X14605000Y26078000D03*
X14605000Y28278000D03*
X14478000Y14267000D03*
X14478000Y16467000D03*
M02*
