G04 #@! TF.FileFunction,Paste,Top*
%FSLAX46Y46*%
G04 Gerber Fmt 4.6, Leading zero omitted, Abs format (unit mm)*
G04 Created by KiCad (PCBNEW 4.0.2+dfsg1-stable) date Thu 20 Oct 2016 16:32:52 CEST*
%MOMM*%
G01*
G04 APERTURE LIST*
%ADD10C,0.100000*%
%ADD11C,0.150000*%
%ADD12R,1.200000X0.750000*%
%ADD13R,1.524000X2.032000*%
%ADD14R,0.900000X1.200000*%
%ADD15R,1.200000X0.900000*%
%ADD16R,2.000000X1.600000*%
%ADD17R,1.600000X2.000000*%
%ADD18R,1.500000X0.600000*%
%ADD19R,2.794000X1.778000*%
%ADD20R,0.750000X1.200000*%
%ADD21R,2.000000X2.000000*%
G04 APERTURE END LIST*
D10*
D11*
X70485000Y0D02*
X0Y0D01*
X70485000Y54610000D02*
X70485000Y0D01*
X0Y54610000D02*
X70485000Y54610000D01*
X0Y0D02*
X0Y54610000D01*
D12*
X37150000Y28575000D03*
X39050000Y28575000D03*
X37150000Y30480000D03*
X39050000Y30480000D03*
X37150000Y24765000D03*
X39050000Y24765000D03*
X37150000Y34290000D03*
X39050000Y34290000D03*
X32700000Y22860000D03*
X30800000Y22860000D03*
D13*
X37084000Y22225000D03*
X40386000Y22225000D03*
X37084000Y36830000D03*
X40386000Y36830000D03*
D12*
X26350000Y30480000D03*
X24450000Y30480000D03*
X26350000Y28575000D03*
X24450000Y28575000D03*
X26350000Y34290000D03*
X24450000Y34290000D03*
X26350000Y24765000D03*
X24450000Y24765000D03*
D13*
X26416000Y36830000D03*
X23114000Y36830000D03*
X26416000Y22225000D03*
X23114000Y22225000D03*
D12*
X47945000Y30480000D03*
X49845000Y30480000D03*
X49845000Y28575000D03*
X47945000Y28575000D03*
X49845000Y34290000D03*
X47945000Y34290000D03*
X49845000Y24765000D03*
X47945000Y24765000D03*
D13*
X49911000Y36830000D03*
X46609000Y36830000D03*
X49911000Y22225000D03*
X46609000Y22225000D03*
D14*
X45593000Y46312000D03*
X45593000Y44112000D03*
X61595000Y23030000D03*
X61595000Y25230000D03*
X61595000Y27475000D03*
X61595000Y29675000D03*
X37338000Y19515000D03*
X37338000Y17315000D03*
X42545000Y22182000D03*
X42545000Y19982000D03*
D15*
X37000000Y26670000D03*
X39200000Y26670000D03*
X37000000Y32385000D03*
X39200000Y32385000D03*
D14*
X29718000Y19642000D03*
X29718000Y17442000D03*
X24638000Y19642000D03*
X24638000Y17442000D03*
D15*
X26500000Y32385000D03*
X24300000Y32385000D03*
X26500000Y26670000D03*
X24300000Y26670000D03*
X64600000Y4445000D03*
X62400000Y4445000D03*
D14*
X44577000Y22182000D03*
X44577000Y19982000D03*
D15*
X47922000Y19685000D03*
X50122000Y19685000D03*
X49995000Y32385000D03*
X47795000Y32385000D03*
X49995000Y26670000D03*
X47795000Y26670000D03*
D16*
X48608000Y45212000D03*
X54008000Y45212000D03*
D17*
X66040000Y8095000D03*
X66040000Y13495000D03*
D18*
X34450000Y25400000D03*
X34450000Y26670000D03*
X34450000Y27940000D03*
X34450000Y29210000D03*
X34450000Y30480000D03*
X34450000Y31750000D03*
X34450000Y33020000D03*
X29050000Y33020000D03*
X29050000Y31750000D03*
X29050000Y30480000D03*
X29050000Y29210000D03*
X29050000Y27940000D03*
X29050000Y26670000D03*
X29050000Y25400000D03*
X53180000Y33655000D03*
X53180000Y32385000D03*
X53180000Y31115000D03*
X53180000Y29845000D03*
X53180000Y28575000D03*
X53180000Y27305000D03*
X53180000Y26035000D03*
X58580000Y26035000D03*
X58580000Y27305000D03*
X58580000Y28575000D03*
X58580000Y29845000D03*
X58580000Y31115000D03*
X58580000Y32385000D03*
X58580000Y33655000D03*
D12*
X54930000Y23495000D03*
X56830000Y23495000D03*
D19*
X60325000Y36830000D03*
X60325000Y40386000D03*
X60325000Y46863000D03*
X60325000Y43307000D03*
D20*
X57277000Y38674000D03*
X57277000Y40574000D03*
X57277000Y45146000D03*
X57277000Y43246000D03*
D21*
X10254000Y38799000D03*
X13454000Y42799000D03*
X10254000Y46799000D03*
X3504000Y38299000D03*
X3504000Y47299000D03*
X10254000Y26988000D03*
X13454000Y30988000D03*
X10254000Y34988000D03*
X3504000Y26488000D03*
X3504000Y35488000D03*
X10254000Y15050000D03*
X13454000Y19050000D03*
X10254000Y23050000D03*
X3504000Y14550000D03*
X3504000Y23550000D03*
D14*
X43180000Y12362000D03*
X43180000Y14562000D03*
D15*
X42375000Y17399000D03*
X40175000Y17399000D03*
D14*
X40640000Y12362000D03*
X40640000Y14562000D03*
D15*
X35009000Y17399000D03*
X32809000Y17399000D03*
D14*
X38100000Y12362000D03*
X38100000Y14562000D03*
X29718000Y15070000D03*
X29718000Y12870000D03*
X14605000Y23833000D03*
X14605000Y21633000D03*
X14351000Y35771000D03*
X14351000Y33571000D03*
X14351000Y38016000D03*
X14351000Y40216000D03*
X35560000Y12362000D03*
X35560000Y14562000D03*
X24638000Y15070000D03*
X24638000Y12870000D03*
X45720000Y12362000D03*
X45720000Y14562000D03*
D15*
X44874000Y17399000D03*
X47074000Y17399000D03*
D14*
X48260000Y12362000D03*
X48260000Y14562000D03*
D15*
X49573000Y17399000D03*
X51773000Y17399000D03*
D14*
X14351000Y47582000D03*
X14351000Y45382000D03*
X14605000Y26078000D03*
X14605000Y28278000D03*
X14478000Y14267000D03*
X14478000Y16467000D03*
M02*
