G04 #@! TF.FileFunction,Copper,L2,Bot,Signal*
%FSLAX46Y46*%
G04 Gerber Fmt 4.6, Leading zero omitted, Abs format (unit mm)*
G04 Created by KiCad (PCBNEW 4.0.2+dfsg1-stable) date Wed 19 Oct 2016 21:54:12 CEST*
%MOMM*%
G01*
G04 APERTURE LIST*
%ADD10C,0.100000*%
%ADD11C,0.150000*%
%ADD12R,1.800000X1.800000*%
%ADD13C,1.800000*%
%ADD14R,2.032000X1.727200*%
%ADD15O,2.032000X1.727200*%
%ADD16R,1.727200X2.032000*%
%ADD17O,1.727200X2.032000*%
%ADD18R,1.727200X1.727200*%
%ADD19O,1.727200X1.727200*%
%ADD20O,1.998980X1.998980*%
%ADD21R,1.998980X1.998980*%
%ADD22C,0.600000*%
%ADD23C,1.000000*%
%ADD24C,0.250000*%
%ADD25C,0.500000*%
%ADD26C,0.254000*%
G04 APERTURE END LIST*
D10*
D11*
X70485000Y0D02*
X0Y0D01*
X70485000Y54610000D02*
X70485000Y0D01*
X0Y54610000D02*
X70485000Y54610000D01*
X0Y0D02*
X0Y54610000D01*
D12*
X58420000Y52705000D03*
D13*
X58420000Y50165000D03*
X55880000Y52705000D03*
X55880000Y50165000D03*
X53340000Y52705000D03*
X53340000Y50165000D03*
X50800000Y52705000D03*
X50800000Y50165000D03*
X48260000Y52705000D03*
X48260000Y50165000D03*
X45720000Y52705000D03*
X45720000Y50165000D03*
X43180000Y52705000D03*
X43180000Y50165000D03*
X40640000Y52705000D03*
X40640000Y50165000D03*
X38100000Y52705000D03*
X38100000Y50165000D03*
X35560000Y52705000D03*
X35560000Y50165000D03*
X33020000Y52705000D03*
X33020000Y50165000D03*
X30480000Y52705000D03*
X30480000Y50165000D03*
X27940000Y52705000D03*
X27940000Y50165000D03*
X25400000Y52705000D03*
X25400000Y50165000D03*
X22860000Y52705000D03*
X22860000Y50165000D03*
X20320000Y52705000D03*
X20320000Y50165000D03*
X17780000Y52705000D03*
X17780000Y50165000D03*
X15240000Y52705000D03*
X15240000Y50165000D03*
X12700000Y52705000D03*
X12700000Y50165000D03*
X10160000Y52705000D03*
X10160000Y50165000D03*
X7620000Y52705000D03*
X7620000Y50165000D03*
X5080000Y52705000D03*
X5080000Y50165000D03*
X2540000Y52705000D03*
X2540000Y50165000D03*
D12*
X58420000Y4445000D03*
D13*
X58420000Y1905000D03*
X55880000Y4445000D03*
X55880000Y1905000D03*
X53340000Y4445000D03*
X53340000Y1905000D03*
X50800000Y4445000D03*
X50800000Y1905000D03*
X48260000Y4445000D03*
X48260000Y1905000D03*
X45720000Y4445000D03*
X45720000Y1905000D03*
X43180000Y4445000D03*
X43180000Y1905000D03*
X40640000Y4445000D03*
X40640000Y1905000D03*
X38100000Y4445000D03*
X38100000Y1905000D03*
X35560000Y4445000D03*
X35560000Y1905000D03*
X33020000Y4445000D03*
X33020000Y1905000D03*
X30480000Y4445000D03*
X30480000Y1905000D03*
X27940000Y4445000D03*
X27940000Y1905000D03*
X25400000Y4445000D03*
X25400000Y1905000D03*
X22860000Y4445000D03*
X22860000Y1905000D03*
X20320000Y4445000D03*
X20320000Y1905000D03*
X17780000Y4445000D03*
X17780000Y1905000D03*
X15240000Y4445000D03*
X15240000Y1905000D03*
X12700000Y4445000D03*
X12700000Y1905000D03*
X10160000Y4445000D03*
X10160000Y1905000D03*
X7620000Y4445000D03*
X7620000Y1905000D03*
X5080000Y4445000D03*
X5080000Y1905000D03*
X2540000Y4445000D03*
X2540000Y1905000D03*
D14*
X17780000Y32385000D03*
D15*
X17780000Y29845000D03*
X17780000Y27305000D03*
X17780000Y24765000D03*
X17780000Y22225000D03*
X17780000Y19685000D03*
X17780000Y17145000D03*
X17780000Y14605000D03*
X17780000Y12065000D03*
X17780000Y9525000D03*
D16*
X35560000Y9525000D03*
D17*
X38100000Y9525000D03*
X40640000Y9525000D03*
X43180000Y9525000D03*
X45720000Y9525000D03*
X48260000Y9525000D03*
X50800000Y9525000D03*
X53340000Y9525000D03*
X55880000Y9525000D03*
X58420000Y9525000D03*
D14*
X10160000Y34290000D03*
D15*
X10160000Y31750000D03*
X10160000Y29210000D03*
X10160000Y26670000D03*
D14*
X10160000Y22225000D03*
D15*
X10160000Y19685000D03*
X10160000Y17145000D03*
X10160000Y14605000D03*
D14*
X10160000Y46355000D03*
D15*
X10160000Y43815000D03*
X10160000Y41275000D03*
X10160000Y38735000D03*
D18*
X2540000Y10160000D03*
D19*
X2540000Y7620000D03*
X5080000Y10160000D03*
X5080000Y7620000D03*
X7620000Y10160000D03*
X7620000Y7620000D03*
X10160000Y10160000D03*
X10160000Y7620000D03*
D20*
X65405000Y49530000D03*
D21*
X67945000Y49530000D03*
D14*
X65405000Y37465000D03*
D15*
X65405000Y40005000D03*
X65405000Y42545000D03*
D22*
X22860000Y28575000D03*
X40640000Y28575000D03*
X46355000Y28575000D03*
X59690000Y24765000D03*
X55245000Y29845000D03*
X32385000Y29210000D03*
X55880000Y22225000D03*
X60325000Y22225000D03*
D23*
X14478000Y48260000D03*
X47244000Y44831000D03*
X57531000Y46355000D03*
D22*
X62865000Y7620000D03*
X40640000Y24130000D03*
X22225000Y24130000D03*
X27940000Y19685000D03*
X43180000Y25400000D03*
X45720000Y24765000D03*
X13335000Y46990000D03*
X52705000Y46990000D03*
X43180000Y21590000D03*
X44450000Y32258000D03*
X41783000Y32258000D03*
X20955000Y34925000D03*
X30480000Y34925000D03*
X36830000Y16510000D03*
X46355000Y20320000D03*
X52705000Y21590000D03*
X57150000Y20955000D03*
X31750000Y21590000D03*
D24*
X40640000Y28575000D02*
X22860000Y28575000D01*
X46355000Y28575000D02*
X40640000Y28575000D01*
X55880000Y28575000D02*
X46355000Y28575000D01*
X59690000Y24765000D02*
X55880000Y28575000D01*
X33020000Y29845000D02*
X55245000Y29845000D01*
X32385000Y29210000D02*
X33020000Y29845000D01*
X60325000Y22225000D02*
X55880000Y22225000D01*
D25*
X56007000Y44831000D02*
X47244000Y44831000D01*
X57531000Y46355000D02*
X56007000Y44831000D01*
X58420000Y50165000D02*
X58420000Y48895000D01*
X8255000Y48260000D02*
X8255000Y46990000D01*
X57785000Y48260000D02*
X14478000Y48260000D01*
X14478000Y48260000D02*
X8255000Y48260000D01*
X58420000Y48895000D02*
X57785000Y48260000D01*
X10160000Y10160000D02*
X10160000Y14605000D01*
X10160000Y14605000D02*
X9525000Y14605000D01*
X9525000Y14605000D02*
X8255000Y15875000D01*
X8255000Y15875000D02*
X8255000Y24765000D01*
X8255000Y24765000D02*
X10160000Y26670000D01*
X10160000Y26670000D02*
X9525000Y26670000D01*
X9525000Y26670000D02*
X8255000Y27940000D01*
X8255000Y27940000D02*
X8255000Y36830000D01*
X8255000Y36830000D02*
X10160000Y38735000D01*
X5080000Y50165000D02*
X8255000Y46990000D01*
X8255000Y40005000D02*
X9525000Y38735000D01*
X8255000Y46990000D02*
X8255000Y41910000D01*
X8255000Y41910000D02*
X8255000Y40005000D01*
X9525000Y38735000D02*
X10160000Y38735000D01*
X62865000Y38100000D02*
X64770000Y40005000D01*
D24*
X58420000Y4445000D02*
X58420000Y1905000D01*
D25*
X59690000Y4445000D02*
X58420000Y4445000D01*
X58420000Y50165000D02*
X58420000Y52705000D01*
X67945000Y49530000D02*
X64770000Y52705000D01*
X64770000Y52705000D02*
X58420000Y52705000D01*
X62865000Y7620000D02*
X62865000Y38100000D01*
X62865000Y7620000D02*
X59690000Y4445000D01*
D24*
X13970000Y31750000D02*
X10160000Y31750000D01*
X17145000Y28575000D02*
X13970000Y31750000D01*
X20320000Y28575000D02*
X17145000Y28575000D01*
X21590000Y27305000D02*
X20320000Y28575000D01*
X37465000Y27305000D02*
X21590000Y27305000D01*
X40640000Y24130000D02*
X37465000Y27305000D01*
X23495000Y24130000D02*
X22225000Y24130000D01*
X27940000Y19685000D02*
X23495000Y24130000D01*
X43180000Y25400000D02*
X43815000Y24765000D01*
X43815000Y24765000D02*
X45720000Y24765000D01*
D25*
X10160000Y41275000D02*
X57150000Y41275000D01*
X57150000Y41275000D02*
X65405000Y49530000D01*
D24*
X65405000Y37465000D02*
X66040000Y37465000D01*
D25*
X66040000Y37465000D02*
X67310000Y38735000D01*
X65405000Y48260000D02*
X65405000Y49530000D01*
X67310000Y46355000D02*
X65405000Y48260000D01*
X67310000Y38735000D02*
X67310000Y46355000D01*
D24*
X10795000Y16510000D02*
X10160000Y16510000D01*
X53340000Y50165000D02*
X53340000Y52705000D01*
X52705000Y46990000D02*
X13335000Y46990000D01*
X25400000Y1905000D02*
X24130000Y3175000D01*
X8890000Y6350000D02*
X7620000Y7620000D01*
X24130000Y6350000D02*
X8890000Y6350000D01*
X24130000Y3175000D02*
X24130000Y6350000D01*
X22860000Y1905000D02*
X21590000Y3175000D01*
X3810000Y5715000D02*
X2540000Y6985000D01*
X3810000Y3175000D02*
X3810000Y5715000D01*
X21590000Y3175000D02*
X3810000Y3175000D01*
X2540000Y6985000D02*
X2540000Y7620000D01*
X10160000Y7620000D02*
X24130000Y7620000D01*
X25400000Y6350000D02*
X25400000Y4445000D01*
X24130000Y7620000D02*
X25400000Y6350000D01*
X22860000Y4445000D02*
X21590000Y5715000D01*
X6985000Y5715000D02*
X5080000Y7620000D01*
X21590000Y5715000D02*
X6985000Y5715000D01*
X43180000Y20955000D02*
X43180000Y21590000D01*
X41783000Y32258000D02*
X44450000Y32258000D01*
X30480000Y34925000D02*
X20955000Y34925000D01*
X36830000Y20955000D02*
X36830000Y16510000D01*
X46355000Y20955000D02*
X46355000Y20320000D01*
X52705000Y20955000D02*
X52705000Y21590000D01*
X32385000Y20955000D02*
X36830000Y20955000D01*
X36830000Y20955000D02*
X40640000Y20955000D01*
X40640000Y20955000D02*
X43180000Y20955000D01*
X43180000Y20955000D02*
X46355000Y20955000D01*
X46355000Y20955000D02*
X52705000Y20955000D01*
X52705000Y20955000D02*
X57150000Y20955000D01*
X31750000Y21590000D02*
X32385000Y20955000D01*
D26*
G36*
X51943000Y35052000D02*
X51953006Y35002590D01*
X51981447Y34960965D01*
X52023841Y34933685D01*
X52070000Y34925000D01*
X61980000Y34925000D01*
X61980000Y7986579D01*
X61740421Y7747000D01*
X25077802Y7747000D01*
X24667401Y8157401D01*
X24420839Y8322148D01*
X24130000Y8380000D01*
X18896710Y8380000D01*
X19024415Y8465330D01*
X19349271Y8951511D01*
X19463345Y9525000D01*
X19349271Y10098489D01*
X19053595Y10541000D01*
X34048960Y10541000D01*
X34048960Y8509000D01*
X34093238Y8273683D01*
X34232310Y8057559D01*
X34444510Y7912569D01*
X34696400Y7861560D01*
X36423600Y7861560D01*
X36658917Y7905838D01*
X36875041Y8044910D01*
X37020031Y8257110D01*
X37028400Y8298439D01*
X37040330Y8280585D01*
X37526511Y7955729D01*
X38100000Y7841655D01*
X38673489Y7955729D01*
X39159670Y8280585D01*
X39370000Y8595366D01*
X39580330Y8280585D01*
X40066511Y7955729D01*
X40640000Y7841655D01*
X41213489Y7955729D01*
X41699670Y8280585D01*
X41910000Y8595366D01*
X42120330Y8280585D01*
X42606511Y7955729D01*
X43180000Y7841655D01*
X43753489Y7955729D01*
X44239670Y8280585D01*
X44450000Y8595366D01*
X44660330Y8280585D01*
X45146511Y7955729D01*
X45720000Y7841655D01*
X46293489Y7955729D01*
X46779670Y8280585D01*
X46990000Y8595366D01*
X47200330Y8280585D01*
X47686511Y7955729D01*
X48260000Y7841655D01*
X48833489Y7955729D01*
X49319670Y8280585D01*
X49530000Y8595366D01*
X49740330Y8280585D01*
X50226511Y7955729D01*
X50800000Y7841655D01*
X51373489Y7955729D01*
X51859670Y8280585D01*
X52070000Y8595366D01*
X52280330Y8280585D01*
X52766511Y7955729D01*
X53340000Y7841655D01*
X53913489Y7955729D01*
X54399670Y8280585D01*
X54610000Y8595366D01*
X54820330Y8280585D01*
X55306511Y7955729D01*
X55880000Y7841655D01*
X56453489Y7955729D01*
X56939670Y8280585D01*
X57146461Y8590069D01*
X57517964Y8174268D01*
X58045209Y7920291D01*
X58060974Y7917642D01*
X58293000Y8038783D01*
X58293000Y9398000D01*
X58547000Y9398000D01*
X58547000Y8038783D01*
X58779026Y7917642D01*
X58794791Y7920291D01*
X59322036Y8174268D01*
X59711954Y8610680D01*
X59905184Y9163087D01*
X59760924Y9398000D01*
X58547000Y9398000D01*
X58293000Y9398000D01*
X58273000Y9398000D01*
X58273000Y9652000D01*
X58293000Y9652000D01*
X58293000Y11011217D01*
X58547000Y11011217D01*
X58547000Y9652000D01*
X59760924Y9652000D01*
X59905184Y9886913D01*
X59711954Y10439320D01*
X59322036Y10875732D01*
X58794791Y11129709D01*
X58779026Y11132358D01*
X58547000Y11011217D01*
X58293000Y11011217D01*
X58060974Y11132358D01*
X58045209Y11129709D01*
X57517964Y10875732D01*
X57146461Y10459931D01*
X56939670Y10769415D01*
X56453489Y11094271D01*
X55880000Y11208345D01*
X55306511Y11094271D01*
X54820330Y10769415D01*
X54610000Y10454634D01*
X54399670Y10769415D01*
X53913489Y11094271D01*
X53340000Y11208345D01*
X52766511Y11094271D01*
X52280330Y10769415D01*
X52070000Y10454634D01*
X51859670Y10769415D01*
X51373489Y11094271D01*
X50800000Y11208345D01*
X50226511Y11094271D01*
X49740330Y10769415D01*
X49530000Y10454634D01*
X49319670Y10769415D01*
X48833489Y11094271D01*
X48260000Y11208345D01*
X47686511Y11094271D01*
X47200330Y10769415D01*
X46990000Y10454634D01*
X46779670Y10769415D01*
X46293489Y11094271D01*
X45720000Y11208345D01*
X45146511Y11094271D01*
X44660330Y10769415D01*
X44450000Y10454634D01*
X44239670Y10769415D01*
X43753489Y11094271D01*
X43180000Y11208345D01*
X42606511Y11094271D01*
X42120330Y10769415D01*
X41910000Y10454634D01*
X41699670Y10769415D01*
X41213489Y11094271D01*
X40640000Y11208345D01*
X40066511Y11094271D01*
X39580330Y10769415D01*
X39370000Y10454634D01*
X39159670Y10769415D01*
X38673489Y11094271D01*
X38100000Y11208345D01*
X37526511Y11094271D01*
X37040330Y10769415D01*
X37030757Y10755087D01*
X37026762Y10776317D01*
X36887690Y10992441D01*
X36675490Y11137431D01*
X36423600Y11188440D01*
X34696400Y11188440D01*
X34461083Y11144162D01*
X34244959Y11005090D01*
X34099969Y10792890D01*
X34048960Y10541000D01*
X19053595Y10541000D01*
X19024415Y10584670D01*
X18709634Y10795000D01*
X19024415Y11005330D01*
X19349271Y11491511D01*
X19463345Y12065000D01*
X19349271Y12638489D01*
X19024415Y13124670D01*
X18709634Y13335000D01*
X19024415Y13545330D01*
X19349271Y14031511D01*
X19463345Y14605000D01*
X19349271Y15178489D01*
X19024415Y15664670D01*
X18709634Y15875000D01*
X19024415Y16085330D01*
X19349271Y16571511D01*
X19463345Y17145000D01*
X19349271Y17718489D01*
X19024415Y18204670D01*
X18709634Y18415000D01*
X19024415Y18625330D01*
X19349271Y19111511D01*
X19463345Y19685000D01*
X19349271Y20258489D01*
X19024415Y20744670D01*
X18709634Y20955000D01*
X19024415Y21165330D01*
X19349271Y21651511D01*
X19463345Y22225000D01*
X19349271Y22798489D01*
X19024415Y23284670D01*
X18709634Y23495000D01*
X19024415Y23705330D01*
X19184445Y23944833D01*
X21289838Y23944833D01*
X21431883Y23601057D01*
X21694673Y23337808D01*
X22038201Y23195162D01*
X22410167Y23194838D01*
X22753943Y23336883D01*
X22787118Y23370000D01*
X23180198Y23370000D01*
X27004878Y19545320D01*
X27004838Y19499833D01*
X27146883Y19156057D01*
X27409673Y18892808D01*
X27753201Y18750162D01*
X28125167Y18749838D01*
X28468943Y18891883D01*
X28732192Y19154673D01*
X28874838Y19498201D01*
X28875162Y19870167D01*
X28733117Y20213943D01*
X28470327Y20477192D01*
X28126799Y20619838D01*
X28079923Y20619879D01*
X26659969Y22039833D01*
X54944838Y22039833D01*
X55086883Y21696057D01*
X55349673Y21432808D01*
X55693201Y21290162D01*
X56065167Y21289838D01*
X56408943Y21431883D01*
X56442118Y21465000D01*
X59762537Y21465000D01*
X59794673Y21432808D01*
X60138201Y21290162D01*
X60510167Y21289838D01*
X60853943Y21431883D01*
X61117192Y21694673D01*
X61259838Y22038201D01*
X61260162Y22410167D01*
X61118117Y22753943D01*
X60855327Y23017192D01*
X60511799Y23159838D01*
X60139833Y23160162D01*
X59796057Y23018117D01*
X59762882Y22985000D01*
X56442463Y22985000D01*
X56410327Y23017192D01*
X56066799Y23159838D01*
X55694833Y23160162D01*
X55351057Y23018117D01*
X55087808Y22755327D01*
X54945162Y22411799D01*
X54944838Y22039833D01*
X26659969Y22039833D01*
X24032401Y24667401D01*
X23785839Y24832148D01*
X23495000Y24890000D01*
X22787463Y24890000D01*
X22755327Y24922192D01*
X22411799Y25064838D01*
X22039833Y25065162D01*
X21696057Y24923117D01*
X21432808Y24660327D01*
X21290162Y24316799D01*
X21289838Y23944833D01*
X19184445Y23944833D01*
X19349271Y24191511D01*
X19463345Y24765000D01*
X19349271Y25338489D01*
X19024415Y25824670D01*
X18709634Y26035000D01*
X19024415Y26245330D01*
X19349271Y26731511D01*
X19463345Y27305000D01*
X19361900Y27815000D01*
X20005198Y27815000D01*
X21052599Y26767599D01*
X21299160Y26602852D01*
X21590000Y26545000D01*
X37150198Y26545000D01*
X39704878Y23990320D01*
X39704838Y23944833D01*
X39846883Y23601057D01*
X40109673Y23337808D01*
X40453201Y23195162D01*
X40825167Y23194838D01*
X41168943Y23336883D01*
X41432192Y23599673D01*
X41574838Y23943201D01*
X41575162Y24315167D01*
X41433117Y24658943D01*
X41170327Y24922192D01*
X40826799Y25064838D01*
X40779923Y25064879D01*
X40629969Y25214833D01*
X42244838Y25214833D01*
X42386883Y24871057D01*
X42649673Y24607808D01*
X42993201Y24465162D01*
X43040077Y24465121D01*
X43277599Y24227599D01*
X43524161Y24062852D01*
X43815000Y24005000D01*
X45157537Y24005000D01*
X45189673Y23972808D01*
X45533201Y23830162D01*
X45905167Y23829838D01*
X46248943Y23971883D01*
X46512192Y24234673D01*
X46654838Y24578201D01*
X46655162Y24950167D01*
X46513117Y25293943D01*
X46250327Y25557192D01*
X45906799Y25699838D01*
X45534833Y25700162D01*
X45191057Y25558117D01*
X45157882Y25525000D01*
X44129802Y25525000D01*
X44115122Y25539680D01*
X44115162Y25585167D01*
X43973117Y25928943D01*
X43710327Y26192192D01*
X43366799Y26334838D01*
X42994833Y26335162D01*
X42651057Y26193117D01*
X42387808Y25930327D01*
X42245162Y25586799D01*
X42244838Y25214833D01*
X40629969Y25214833D01*
X38029802Y27815000D01*
X40077537Y27815000D01*
X40109673Y27782808D01*
X40453201Y27640162D01*
X40825167Y27639838D01*
X41168943Y27781883D01*
X41202118Y27815000D01*
X45792537Y27815000D01*
X45824673Y27782808D01*
X46168201Y27640162D01*
X46540167Y27639838D01*
X46883943Y27781883D01*
X46917118Y27815000D01*
X55565198Y27815000D01*
X58754878Y24625320D01*
X58754838Y24579833D01*
X58896883Y24236057D01*
X59159673Y23972808D01*
X59503201Y23830162D01*
X59875167Y23829838D01*
X60218943Y23971883D01*
X60482192Y24234673D01*
X60624838Y24578201D01*
X60625162Y24950167D01*
X60483117Y25293943D01*
X60220327Y25557192D01*
X59876799Y25699838D01*
X59829923Y25699879D01*
X56417401Y29112401D01*
X56170839Y29277148D01*
X56028053Y29305550D01*
X56037192Y29314673D01*
X56179838Y29658201D01*
X56180162Y30030167D01*
X56038117Y30373943D01*
X55775327Y30637192D01*
X55431799Y30779838D01*
X55059833Y30780162D01*
X54716057Y30638117D01*
X54682882Y30605000D01*
X33020000Y30605000D01*
X32729161Y30547148D01*
X32482599Y30382401D01*
X32245320Y30145122D01*
X32199833Y30145162D01*
X31856057Y30003117D01*
X31592808Y29740327D01*
X31450162Y29396799D01*
X31450108Y29335000D01*
X23422463Y29335000D01*
X23390327Y29367192D01*
X23046799Y29509838D01*
X22674833Y29510162D01*
X22331057Y29368117D01*
X22067808Y29105327D01*
X21925162Y28761799D01*
X21924838Y28389833D01*
X22059056Y28065000D01*
X21904802Y28065000D01*
X20857401Y29112401D01*
X20610839Y29277148D01*
X20320000Y29335000D01*
X19361900Y29335000D01*
X19463345Y29845000D01*
X19349271Y30418489D01*
X19024415Y30904670D01*
X19010087Y30914243D01*
X19031317Y30918238D01*
X19247441Y31057310D01*
X19392431Y31269510D01*
X19443440Y31521400D01*
X19443440Y33248600D01*
X19399162Y33483917D01*
X19260090Y33700041D01*
X19047890Y33845031D01*
X18796000Y33896040D01*
X16764000Y33896040D01*
X16528683Y33851762D01*
X16312559Y33712690D01*
X16167569Y33500490D01*
X16116560Y33248600D01*
X16116560Y31521400D01*
X16160838Y31286083D01*
X16299910Y31069959D01*
X16512110Y30924969D01*
X16553439Y30916600D01*
X16535585Y30904670D01*
X16277053Y30517749D01*
X15367000Y31427802D01*
X15367000Y37973000D01*
X51943000Y37973000D01*
X51943000Y35052000D01*
X51943000Y35052000D01*
G37*
X51943000Y35052000D02*
X51953006Y35002590D01*
X51981447Y34960965D01*
X52023841Y34933685D01*
X52070000Y34925000D01*
X61980000Y34925000D01*
X61980000Y7986579D01*
X61740421Y7747000D01*
X25077802Y7747000D01*
X24667401Y8157401D01*
X24420839Y8322148D01*
X24130000Y8380000D01*
X18896710Y8380000D01*
X19024415Y8465330D01*
X19349271Y8951511D01*
X19463345Y9525000D01*
X19349271Y10098489D01*
X19053595Y10541000D01*
X34048960Y10541000D01*
X34048960Y8509000D01*
X34093238Y8273683D01*
X34232310Y8057559D01*
X34444510Y7912569D01*
X34696400Y7861560D01*
X36423600Y7861560D01*
X36658917Y7905838D01*
X36875041Y8044910D01*
X37020031Y8257110D01*
X37028400Y8298439D01*
X37040330Y8280585D01*
X37526511Y7955729D01*
X38100000Y7841655D01*
X38673489Y7955729D01*
X39159670Y8280585D01*
X39370000Y8595366D01*
X39580330Y8280585D01*
X40066511Y7955729D01*
X40640000Y7841655D01*
X41213489Y7955729D01*
X41699670Y8280585D01*
X41910000Y8595366D01*
X42120330Y8280585D01*
X42606511Y7955729D01*
X43180000Y7841655D01*
X43753489Y7955729D01*
X44239670Y8280585D01*
X44450000Y8595366D01*
X44660330Y8280585D01*
X45146511Y7955729D01*
X45720000Y7841655D01*
X46293489Y7955729D01*
X46779670Y8280585D01*
X46990000Y8595366D01*
X47200330Y8280585D01*
X47686511Y7955729D01*
X48260000Y7841655D01*
X48833489Y7955729D01*
X49319670Y8280585D01*
X49530000Y8595366D01*
X49740330Y8280585D01*
X50226511Y7955729D01*
X50800000Y7841655D01*
X51373489Y7955729D01*
X51859670Y8280585D01*
X52070000Y8595366D01*
X52280330Y8280585D01*
X52766511Y7955729D01*
X53340000Y7841655D01*
X53913489Y7955729D01*
X54399670Y8280585D01*
X54610000Y8595366D01*
X54820330Y8280585D01*
X55306511Y7955729D01*
X55880000Y7841655D01*
X56453489Y7955729D01*
X56939670Y8280585D01*
X57146461Y8590069D01*
X57517964Y8174268D01*
X58045209Y7920291D01*
X58060974Y7917642D01*
X58293000Y8038783D01*
X58293000Y9398000D01*
X58547000Y9398000D01*
X58547000Y8038783D01*
X58779026Y7917642D01*
X58794791Y7920291D01*
X59322036Y8174268D01*
X59711954Y8610680D01*
X59905184Y9163087D01*
X59760924Y9398000D01*
X58547000Y9398000D01*
X58293000Y9398000D01*
X58273000Y9398000D01*
X58273000Y9652000D01*
X58293000Y9652000D01*
X58293000Y11011217D01*
X58547000Y11011217D01*
X58547000Y9652000D01*
X59760924Y9652000D01*
X59905184Y9886913D01*
X59711954Y10439320D01*
X59322036Y10875732D01*
X58794791Y11129709D01*
X58779026Y11132358D01*
X58547000Y11011217D01*
X58293000Y11011217D01*
X58060974Y11132358D01*
X58045209Y11129709D01*
X57517964Y10875732D01*
X57146461Y10459931D01*
X56939670Y10769415D01*
X56453489Y11094271D01*
X55880000Y11208345D01*
X55306511Y11094271D01*
X54820330Y10769415D01*
X54610000Y10454634D01*
X54399670Y10769415D01*
X53913489Y11094271D01*
X53340000Y11208345D01*
X52766511Y11094271D01*
X52280330Y10769415D01*
X52070000Y10454634D01*
X51859670Y10769415D01*
X51373489Y11094271D01*
X50800000Y11208345D01*
X50226511Y11094271D01*
X49740330Y10769415D01*
X49530000Y10454634D01*
X49319670Y10769415D01*
X48833489Y11094271D01*
X48260000Y11208345D01*
X47686511Y11094271D01*
X47200330Y10769415D01*
X46990000Y10454634D01*
X46779670Y10769415D01*
X46293489Y11094271D01*
X45720000Y11208345D01*
X45146511Y11094271D01*
X44660330Y10769415D01*
X44450000Y10454634D01*
X44239670Y10769415D01*
X43753489Y11094271D01*
X43180000Y11208345D01*
X42606511Y11094271D01*
X42120330Y10769415D01*
X41910000Y10454634D01*
X41699670Y10769415D01*
X41213489Y11094271D01*
X40640000Y11208345D01*
X40066511Y11094271D01*
X39580330Y10769415D01*
X39370000Y10454634D01*
X39159670Y10769415D01*
X38673489Y11094271D01*
X38100000Y11208345D01*
X37526511Y11094271D01*
X37040330Y10769415D01*
X37030757Y10755087D01*
X37026762Y10776317D01*
X36887690Y10992441D01*
X36675490Y11137431D01*
X36423600Y11188440D01*
X34696400Y11188440D01*
X34461083Y11144162D01*
X34244959Y11005090D01*
X34099969Y10792890D01*
X34048960Y10541000D01*
X19053595Y10541000D01*
X19024415Y10584670D01*
X18709634Y10795000D01*
X19024415Y11005330D01*
X19349271Y11491511D01*
X19463345Y12065000D01*
X19349271Y12638489D01*
X19024415Y13124670D01*
X18709634Y13335000D01*
X19024415Y13545330D01*
X19349271Y14031511D01*
X19463345Y14605000D01*
X19349271Y15178489D01*
X19024415Y15664670D01*
X18709634Y15875000D01*
X19024415Y16085330D01*
X19349271Y16571511D01*
X19463345Y17145000D01*
X19349271Y17718489D01*
X19024415Y18204670D01*
X18709634Y18415000D01*
X19024415Y18625330D01*
X19349271Y19111511D01*
X19463345Y19685000D01*
X19349271Y20258489D01*
X19024415Y20744670D01*
X18709634Y20955000D01*
X19024415Y21165330D01*
X19349271Y21651511D01*
X19463345Y22225000D01*
X19349271Y22798489D01*
X19024415Y23284670D01*
X18709634Y23495000D01*
X19024415Y23705330D01*
X19184445Y23944833D01*
X21289838Y23944833D01*
X21431883Y23601057D01*
X21694673Y23337808D01*
X22038201Y23195162D01*
X22410167Y23194838D01*
X22753943Y23336883D01*
X22787118Y23370000D01*
X23180198Y23370000D01*
X27004878Y19545320D01*
X27004838Y19499833D01*
X27146883Y19156057D01*
X27409673Y18892808D01*
X27753201Y18750162D01*
X28125167Y18749838D01*
X28468943Y18891883D01*
X28732192Y19154673D01*
X28874838Y19498201D01*
X28875162Y19870167D01*
X28733117Y20213943D01*
X28470327Y20477192D01*
X28126799Y20619838D01*
X28079923Y20619879D01*
X26659969Y22039833D01*
X54944838Y22039833D01*
X55086883Y21696057D01*
X55349673Y21432808D01*
X55693201Y21290162D01*
X56065167Y21289838D01*
X56408943Y21431883D01*
X56442118Y21465000D01*
X59762537Y21465000D01*
X59794673Y21432808D01*
X60138201Y21290162D01*
X60510167Y21289838D01*
X60853943Y21431883D01*
X61117192Y21694673D01*
X61259838Y22038201D01*
X61260162Y22410167D01*
X61118117Y22753943D01*
X60855327Y23017192D01*
X60511799Y23159838D01*
X60139833Y23160162D01*
X59796057Y23018117D01*
X59762882Y22985000D01*
X56442463Y22985000D01*
X56410327Y23017192D01*
X56066799Y23159838D01*
X55694833Y23160162D01*
X55351057Y23018117D01*
X55087808Y22755327D01*
X54945162Y22411799D01*
X54944838Y22039833D01*
X26659969Y22039833D01*
X24032401Y24667401D01*
X23785839Y24832148D01*
X23495000Y24890000D01*
X22787463Y24890000D01*
X22755327Y24922192D01*
X22411799Y25064838D01*
X22039833Y25065162D01*
X21696057Y24923117D01*
X21432808Y24660327D01*
X21290162Y24316799D01*
X21289838Y23944833D01*
X19184445Y23944833D01*
X19349271Y24191511D01*
X19463345Y24765000D01*
X19349271Y25338489D01*
X19024415Y25824670D01*
X18709634Y26035000D01*
X19024415Y26245330D01*
X19349271Y26731511D01*
X19463345Y27305000D01*
X19361900Y27815000D01*
X20005198Y27815000D01*
X21052599Y26767599D01*
X21299160Y26602852D01*
X21590000Y26545000D01*
X37150198Y26545000D01*
X39704878Y23990320D01*
X39704838Y23944833D01*
X39846883Y23601057D01*
X40109673Y23337808D01*
X40453201Y23195162D01*
X40825167Y23194838D01*
X41168943Y23336883D01*
X41432192Y23599673D01*
X41574838Y23943201D01*
X41575162Y24315167D01*
X41433117Y24658943D01*
X41170327Y24922192D01*
X40826799Y25064838D01*
X40779923Y25064879D01*
X40629969Y25214833D01*
X42244838Y25214833D01*
X42386883Y24871057D01*
X42649673Y24607808D01*
X42993201Y24465162D01*
X43040077Y24465121D01*
X43277599Y24227599D01*
X43524161Y24062852D01*
X43815000Y24005000D01*
X45157537Y24005000D01*
X45189673Y23972808D01*
X45533201Y23830162D01*
X45905167Y23829838D01*
X46248943Y23971883D01*
X46512192Y24234673D01*
X46654838Y24578201D01*
X46655162Y24950167D01*
X46513117Y25293943D01*
X46250327Y25557192D01*
X45906799Y25699838D01*
X45534833Y25700162D01*
X45191057Y25558117D01*
X45157882Y25525000D01*
X44129802Y25525000D01*
X44115122Y25539680D01*
X44115162Y25585167D01*
X43973117Y25928943D01*
X43710327Y26192192D01*
X43366799Y26334838D01*
X42994833Y26335162D01*
X42651057Y26193117D01*
X42387808Y25930327D01*
X42245162Y25586799D01*
X42244838Y25214833D01*
X40629969Y25214833D01*
X38029802Y27815000D01*
X40077537Y27815000D01*
X40109673Y27782808D01*
X40453201Y27640162D01*
X40825167Y27639838D01*
X41168943Y27781883D01*
X41202118Y27815000D01*
X45792537Y27815000D01*
X45824673Y27782808D01*
X46168201Y27640162D01*
X46540167Y27639838D01*
X46883943Y27781883D01*
X46917118Y27815000D01*
X55565198Y27815000D01*
X58754878Y24625320D01*
X58754838Y24579833D01*
X58896883Y24236057D01*
X59159673Y23972808D01*
X59503201Y23830162D01*
X59875167Y23829838D01*
X60218943Y23971883D01*
X60482192Y24234673D01*
X60624838Y24578201D01*
X60625162Y24950167D01*
X60483117Y25293943D01*
X60220327Y25557192D01*
X59876799Y25699838D01*
X59829923Y25699879D01*
X56417401Y29112401D01*
X56170839Y29277148D01*
X56028053Y29305550D01*
X56037192Y29314673D01*
X56179838Y29658201D01*
X56180162Y30030167D01*
X56038117Y30373943D01*
X55775327Y30637192D01*
X55431799Y30779838D01*
X55059833Y30780162D01*
X54716057Y30638117D01*
X54682882Y30605000D01*
X33020000Y30605000D01*
X32729161Y30547148D01*
X32482599Y30382401D01*
X32245320Y30145122D01*
X32199833Y30145162D01*
X31856057Y30003117D01*
X31592808Y29740327D01*
X31450162Y29396799D01*
X31450108Y29335000D01*
X23422463Y29335000D01*
X23390327Y29367192D01*
X23046799Y29509838D01*
X22674833Y29510162D01*
X22331057Y29368117D01*
X22067808Y29105327D01*
X21925162Y28761799D01*
X21924838Y28389833D01*
X22059056Y28065000D01*
X21904802Y28065000D01*
X20857401Y29112401D01*
X20610839Y29277148D01*
X20320000Y29335000D01*
X19361900Y29335000D01*
X19463345Y29845000D01*
X19349271Y30418489D01*
X19024415Y30904670D01*
X19010087Y30914243D01*
X19031317Y30918238D01*
X19247441Y31057310D01*
X19392431Y31269510D01*
X19443440Y31521400D01*
X19443440Y33248600D01*
X19399162Y33483917D01*
X19260090Y33700041D01*
X19047890Y33845031D01*
X18796000Y33896040D01*
X16764000Y33896040D01*
X16528683Y33851762D01*
X16312559Y33712690D01*
X16167569Y33500490D01*
X16116560Y33248600D01*
X16116560Y31521400D01*
X16160838Y31286083D01*
X16299910Y31069959D01*
X16512110Y30924969D01*
X16553439Y30916600D01*
X16535585Y30904670D01*
X16277053Y30517749D01*
X15367000Y31427802D01*
X15367000Y37973000D01*
X51943000Y37973000D01*
X51943000Y35052000D01*
G36*
X1639446Y53785159D02*
X2540000Y52884605D01*
X3440554Y53785159D01*
X3419384Y53848000D01*
X4200616Y53848000D01*
X4179446Y53785159D01*
X5080000Y52884605D01*
X5980554Y53785159D01*
X5959384Y53848000D01*
X6592283Y53848000D01*
X6319449Y53575643D01*
X6310797Y53554806D01*
X6160159Y53605554D01*
X5259605Y52705000D01*
X6160159Y51804446D01*
X6310327Y51855035D01*
X6317932Y51836629D01*
X6719182Y51434677D01*
X6319449Y51035643D01*
X6310797Y51014806D01*
X6160159Y51065554D01*
X5259605Y50165000D01*
X6160159Y49264446D01*
X6310327Y49315035D01*
X6317932Y49296629D01*
X6749357Y48864449D01*
X7313330Y48630267D01*
X7923991Y48629735D01*
X8488371Y48862932D01*
X8890323Y49264182D01*
X9289357Y48864449D01*
X9853330Y48630267D01*
X10463991Y48629735D01*
X11028371Y48862932D01*
X11430323Y49264182D01*
X11829357Y48864449D01*
X12393330Y48630267D01*
X13003991Y48629735D01*
X13568371Y48862932D01*
X13970323Y49264182D01*
X14369357Y48864449D01*
X14933330Y48630267D01*
X15543991Y48629735D01*
X16108371Y48862932D01*
X16510323Y49264182D01*
X16909357Y48864449D01*
X17473330Y48630267D01*
X18083991Y48629735D01*
X18648371Y48862932D01*
X19050323Y49264182D01*
X19449357Y48864449D01*
X20013330Y48630267D01*
X20623991Y48629735D01*
X21188371Y48862932D01*
X21590323Y49264182D01*
X21989357Y48864449D01*
X22553330Y48630267D01*
X23163991Y48629735D01*
X23728371Y48862932D01*
X24130323Y49264182D01*
X24529357Y48864449D01*
X25093330Y48630267D01*
X25703991Y48629735D01*
X26268371Y48862932D01*
X26670323Y49264182D01*
X27069357Y48864449D01*
X27633330Y48630267D01*
X28243991Y48629735D01*
X28808371Y48862932D01*
X29210323Y49264182D01*
X29609357Y48864449D01*
X30173330Y48630267D01*
X30783991Y48629735D01*
X31348371Y48862932D01*
X31750323Y49264182D01*
X32149357Y48864449D01*
X32713330Y48630267D01*
X33323991Y48629735D01*
X33888371Y48862932D01*
X34290323Y49264182D01*
X34689357Y48864449D01*
X35253330Y48630267D01*
X35863991Y48629735D01*
X36428371Y48862932D01*
X36830323Y49264182D01*
X37229357Y48864449D01*
X37793330Y48630267D01*
X38403991Y48629735D01*
X38968371Y48862932D01*
X39370323Y49264182D01*
X39769357Y48864449D01*
X40333330Y48630267D01*
X40943991Y48629735D01*
X41508371Y48862932D01*
X41910323Y49264182D01*
X42309357Y48864449D01*
X42873330Y48630267D01*
X43483991Y48629735D01*
X44048371Y48862932D01*
X44450323Y49264182D01*
X44849357Y48864449D01*
X45413330Y48630267D01*
X46023991Y48629735D01*
X46588371Y48862932D01*
X46990323Y49264182D01*
X47389357Y48864449D01*
X47953330Y48630267D01*
X48563991Y48629735D01*
X49128371Y48862932D01*
X49530323Y49264182D01*
X49929357Y48864449D01*
X50493330Y48630267D01*
X51103991Y48629735D01*
X51668371Y48862932D01*
X52070323Y49264182D01*
X52469357Y48864449D01*
X53033330Y48630267D01*
X53643991Y48629735D01*
X54208371Y48862932D01*
X54610323Y49264182D01*
X55009357Y48864449D01*
X55573330Y48630267D01*
X56183991Y48629735D01*
X56748371Y48862932D01*
X56970668Y49084841D01*
X57519446Y49084841D01*
X57605852Y48828357D01*
X58179336Y48618542D01*
X58789460Y48644161D01*
X59234148Y48828357D01*
X59320554Y49084841D01*
X58420000Y49985395D01*
X57519446Y49084841D01*
X56970668Y49084841D01*
X57180551Y49294357D01*
X57189203Y49315194D01*
X57339841Y49264446D01*
X58240395Y50165000D01*
X58226253Y50179142D01*
X58405858Y50358747D01*
X58420000Y50344605D01*
X58434143Y50358747D01*
X58613748Y50179142D01*
X58599605Y50165000D01*
X59500159Y49264446D01*
X59756643Y49350852D01*
X59966458Y49924336D01*
X59940839Y50534460D01*
X59756643Y50979148D01*
X59500161Y51065553D01*
X59614718Y51180110D01*
X59572541Y51222287D01*
X59679698Y51266673D01*
X59858327Y51445301D01*
X59955000Y51678690D01*
X59955000Y52419250D01*
X59796250Y52578000D01*
X58547000Y52578000D01*
X58547000Y52558000D01*
X58293000Y52558000D01*
X58293000Y52578000D01*
X58273000Y52578000D01*
X58273000Y52832000D01*
X58293000Y52832000D01*
X58293000Y52852000D01*
X58547000Y52852000D01*
X58547000Y52832000D01*
X59796250Y52832000D01*
X59955000Y52990750D01*
X59955000Y53731310D01*
X59906665Y53848000D01*
X69775000Y53848000D01*
X69775000Y710000D01*
X59281866Y710000D01*
X59320554Y824841D01*
X58420000Y1725395D01*
X57519446Y824841D01*
X57558134Y710000D01*
X56855626Y710000D01*
X57180551Y1034357D01*
X57189203Y1055194D01*
X57339841Y1004446D01*
X58240395Y1905000D01*
X58226253Y1919142D01*
X58405858Y2098747D01*
X58420000Y2084605D01*
X58434143Y2098747D01*
X58613748Y1919142D01*
X58599605Y1905000D01*
X59500159Y1004446D01*
X59756643Y1090852D01*
X59966458Y1664336D01*
X59940839Y2274460D01*
X59756643Y2719148D01*
X59500161Y2805553D01*
X59614718Y2920110D01*
X59572541Y2962287D01*
X59679698Y3006673D01*
X59858327Y3185301D01*
X59955000Y3418690D01*
X59955000Y4159250D01*
X59796250Y4318000D01*
X58547000Y4318000D01*
X58547000Y4298000D01*
X58293000Y4298000D01*
X58293000Y4318000D01*
X58273000Y4318000D01*
X58273000Y4572000D01*
X58293000Y4572000D01*
X58293000Y5821250D01*
X58547000Y5821250D01*
X58547000Y4572000D01*
X59796250Y4572000D01*
X59955000Y4730750D01*
X59955000Y5471310D01*
X59858327Y5704699D01*
X59679698Y5883327D01*
X59446309Y5980000D01*
X58705750Y5980000D01*
X58547000Y5821250D01*
X58293000Y5821250D01*
X58134250Y5980000D01*
X57393691Y5980000D01*
X57160302Y5883327D01*
X56981673Y5704699D01*
X56925881Y5570006D01*
X56750643Y5745551D01*
X56186670Y5979733D01*
X55576009Y5980265D01*
X55011629Y5747068D01*
X54609677Y5345818D01*
X54210643Y5745551D01*
X53646670Y5979733D01*
X53036009Y5980265D01*
X52471629Y5747068D01*
X52069677Y5345818D01*
X51670643Y5745551D01*
X51106670Y5979733D01*
X50496009Y5980265D01*
X49931629Y5747068D01*
X49529677Y5345818D01*
X49130643Y5745551D01*
X48566670Y5979733D01*
X47956009Y5980265D01*
X47391629Y5747068D01*
X46989677Y5345818D01*
X46590643Y5745551D01*
X46026670Y5979733D01*
X45416009Y5980265D01*
X44851629Y5747068D01*
X44449677Y5345818D01*
X44050643Y5745551D01*
X43486670Y5979733D01*
X42876009Y5980265D01*
X42311629Y5747068D01*
X41909677Y5345818D01*
X41510643Y5745551D01*
X40946670Y5979733D01*
X40336009Y5980265D01*
X39771629Y5747068D01*
X39369677Y5345818D01*
X38970643Y5745551D01*
X38406670Y5979733D01*
X37796009Y5980265D01*
X37231629Y5747068D01*
X36829677Y5345818D01*
X36430643Y5745551D01*
X35866670Y5979733D01*
X35256009Y5980265D01*
X34691629Y5747068D01*
X34289677Y5345818D01*
X33890643Y5745551D01*
X33326670Y5979733D01*
X32716009Y5980265D01*
X32151629Y5747068D01*
X31749677Y5345818D01*
X31350643Y5745551D01*
X30786670Y5979733D01*
X30176009Y5980265D01*
X29611629Y5747068D01*
X29209677Y5345818D01*
X28810643Y5745551D01*
X28246670Y5979733D01*
X27636009Y5980265D01*
X27071629Y5747068D01*
X26669677Y5345818D01*
X26270643Y5745551D01*
X26160000Y5791494D01*
X26160000Y6223000D01*
X62865000Y6223000D01*
X62914410Y6233006D01*
X62956035Y6261447D01*
X62983315Y6303841D01*
X62991999Y6350552D01*
X62864999Y35560552D01*
X62854778Y35609918D01*
X62826157Y35651419D01*
X62783644Y35678514D01*
X62738000Y35687000D01*
X52705000Y35687000D01*
X52705000Y38735000D01*
X52694994Y38784410D01*
X52666553Y38826035D01*
X52624159Y38853315D01*
X52578000Y38862000D01*
X14605000Y38862000D01*
X14555590Y38851994D01*
X14513965Y38823553D01*
X14486685Y38781159D01*
X14478000Y38735000D01*
X14478000Y32307046D01*
X14260839Y32452148D01*
X13970000Y32510000D01*
X11604648Y32510000D01*
X11404415Y32809670D01*
X11390087Y32819243D01*
X11411317Y32823238D01*
X11627441Y32962310D01*
X11772431Y33174510D01*
X11823440Y33426400D01*
X11823440Y35153600D01*
X11779162Y35388917D01*
X11640090Y35605041D01*
X11427890Y35750031D01*
X11176000Y35801040D01*
X9144000Y35801040D01*
X8908683Y35756762D01*
X8692559Y35617690D01*
X8547569Y35405490D01*
X8496560Y35153600D01*
X8496560Y33426400D01*
X8540838Y33191083D01*
X8679910Y32974959D01*
X8892110Y32829969D01*
X8933439Y32821600D01*
X8915585Y32809670D01*
X8590729Y32323489D01*
X8476655Y31750000D01*
X8590729Y31176511D01*
X8915585Y30690330D01*
X9230366Y30480000D01*
X8915585Y30269670D01*
X8590729Y29783489D01*
X8476655Y29210000D01*
X8590729Y28636511D01*
X8915585Y28150330D01*
X9225069Y27943539D01*
X8809268Y27572036D01*
X8555291Y27044791D01*
X8552642Y27029026D01*
X8673783Y26797000D01*
X10033000Y26797000D01*
X10033000Y26817000D01*
X10287000Y26817000D01*
X10287000Y26797000D01*
X11646217Y26797000D01*
X11767358Y27029026D01*
X11764709Y27044791D01*
X11510732Y27572036D01*
X11094931Y27943539D01*
X11404415Y28150330D01*
X11729271Y28636511D01*
X11843345Y29210000D01*
X11729271Y29783489D01*
X11404415Y30269670D01*
X11089634Y30480000D01*
X11404415Y30690330D01*
X11604648Y30990000D01*
X13655198Y30990000D01*
X14478000Y30167198D01*
X14478000Y8380000D01*
X11449262Y8380000D01*
X11249029Y8679670D01*
X10925772Y8895664D01*
X11048490Y8953179D01*
X11442688Y9385053D01*
X11614958Y9800974D01*
X11493817Y10033000D01*
X10287000Y10033000D01*
X10287000Y10013000D01*
X10033000Y10013000D01*
X10033000Y10033000D01*
X10013000Y10033000D01*
X10013000Y10287000D01*
X10033000Y10287000D01*
X10033000Y11494469D01*
X10287000Y11494469D01*
X10287000Y10287000D01*
X11493817Y10287000D01*
X11614958Y10519026D01*
X11442688Y10934947D01*
X11048490Y11366821D01*
X10519027Y11614968D01*
X10287000Y11494469D01*
X10033000Y11494469D01*
X9800973Y11614968D01*
X9271510Y11366821D01*
X8889992Y10948839D01*
X8709029Y11219670D01*
X8222848Y11544526D01*
X7649359Y11658600D01*
X7590641Y11658600D01*
X7017152Y11544526D01*
X6530971Y11219670D01*
X6350000Y10948828D01*
X6169029Y11219670D01*
X5682848Y11544526D01*
X5109359Y11658600D01*
X5050641Y11658600D01*
X4477152Y11544526D01*
X4011558Y11233426D01*
X4006762Y11258917D01*
X3867690Y11475041D01*
X3655490Y11620031D01*
X3403600Y11671040D01*
X1676400Y11671040D01*
X1441083Y11626762D01*
X1224959Y11487690D01*
X1079969Y11275490D01*
X1028960Y11023600D01*
X1028960Y9296400D01*
X1073238Y9061083D01*
X1212310Y8844959D01*
X1424510Y8699969D01*
X1468131Y8691136D01*
X1450971Y8679670D01*
X1126115Y8193489D01*
X1012041Y7620000D01*
X1126115Y7046511D01*
X1450971Y6560330D01*
X1937152Y6235474D01*
X2283646Y6166552D01*
X2470137Y5980061D01*
X2236009Y5980265D01*
X1671629Y5747068D01*
X1239449Y5315643D01*
X1005267Y4751670D01*
X1004735Y4141009D01*
X1237932Y3576629D01*
X1639182Y3174677D01*
X1239449Y2775643D01*
X1005267Y2211670D01*
X1004735Y1601009D01*
X1237932Y1036629D01*
X1563990Y710000D01*
X710000Y710000D01*
X710000Y14245974D01*
X8552642Y14245974D01*
X8555291Y14230209D01*
X8809268Y13702964D01*
X9245680Y13313046D01*
X9798087Y13119816D01*
X10033000Y13264076D01*
X10033000Y14478000D01*
X10287000Y14478000D01*
X10287000Y13264076D01*
X10521913Y13119816D01*
X11074320Y13313046D01*
X11510732Y13702964D01*
X11764709Y14230209D01*
X11767358Y14245974D01*
X11646217Y14478000D01*
X10287000Y14478000D01*
X10033000Y14478000D01*
X8673783Y14478000D01*
X8552642Y14245974D01*
X710000Y14245974D01*
X710000Y19685000D01*
X8476655Y19685000D01*
X8590729Y19111511D01*
X8915585Y18625330D01*
X9230366Y18415000D01*
X8915585Y18204670D01*
X8590729Y17718489D01*
X8476655Y17145000D01*
X8590729Y16571511D01*
X8915585Y16085330D01*
X9225069Y15878539D01*
X8809268Y15507036D01*
X8555291Y14979791D01*
X8552642Y14964026D01*
X8673783Y14732000D01*
X10033000Y14732000D01*
X10033000Y14752000D01*
X10287000Y14752000D01*
X10287000Y14732000D01*
X11646217Y14732000D01*
X11767358Y14964026D01*
X11764709Y14979791D01*
X11510732Y15507036D01*
X11136305Y15841572D01*
X11332401Y15972599D01*
X11497148Y16219161D01*
X11498551Y16226214D01*
X11729271Y16571511D01*
X11843345Y17145000D01*
X11729271Y17718489D01*
X11404415Y18204670D01*
X11089634Y18415000D01*
X11404415Y18625330D01*
X11729271Y19111511D01*
X11843345Y19685000D01*
X11729271Y20258489D01*
X11404415Y20744670D01*
X11390087Y20754243D01*
X11411317Y20758238D01*
X11627441Y20897310D01*
X11772431Y21109510D01*
X11823440Y21361400D01*
X11823440Y23088600D01*
X11779162Y23323917D01*
X11640090Y23540041D01*
X11427890Y23685031D01*
X11176000Y23736040D01*
X9144000Y23736040D01*
X8908683Y23691762D01*
X8692559Y23552690D01*
X8547569Y23340490D01*
X8496560Y23088600D01*
X8496560Y21361400D01*
X8540838Y21126083D01*
X8679910Y20909959D01*
X8892110Y20764969D01*
X8933439Y20756600D01*
X8915585Y20744670D01*
X8590729Y20258489D01*
X8476655Y19685000D01*
X710000Y19685000D01*
X710000Y26310974D01*
X8552642Y26310974D01*
X8555291Y26295209D01*
X8809268Y25767964D01*
X9245680Y25378046D01*
X9798087Y25184816D01*
X10033000Y25329076D01*
X10033000Y26543000D01*
X10287000Y26543000D01*
X10287000Y25329076D01*
X10521913Y25184816D01*
X11074320Y25378046D01*
X11510732Y25767964D01*
X11764709Y26295209D01*
X11767358Y26310974D01*
X11646217Y26543000D01*
X10287000Y26543000D01*
X10033000Y26543000D01*
X8673783Y26543000D01*
X8552642Y26310974D01*
X710000Y26310974D01*
X710000Y38375974D01*
X8552642Y38375974D01*
X8555291Y38360209D01*
X8809268Y37832964D01*
X9245680Y37443046D01*
X9798087Y37249816D01*
X10033000Y37394076D01*
X10033000Y38608000D01*
X10287000Y38608000D01*
X10287000Y37394076D01*
X10521913Y37249816D01*
X11074320Y37443046D01*
X11510732Y37832964D01*
X11764709Y38360209D01*
X11767358Y38375974D01*
X11646217Y38608000D01*
X10287000Y38608000D01*
X10033000Y38608000D01*
X8673783Y38608000D01*
X8552642Y38375974D01*
X710000Y38375974D01*
X710000Y43815000D01*
X8476655Y43815000D01*
X8590729Y43241511D01*
X8915585Y42755330D01*
X9230366Y42545000D01*
X8915585Y42334670D01*
X8590729Y41848489D01*
X8476655Y41275000D01*
X8590729Y40701511D01*
X8915585Y40215330D01*
X9225069Y40008539D01*
X8809268Y39637036D01*
X8555291Y39109791D01*
X8552642Y39094026D01*
X8673783Y38862000D01*
X10033000Y38862000D01*
X10033000Y38882000D01*
X10287000Y38882000D01*
X10287000Y38862000D01*
X11646217Y38862000D01*
X11767358Y39094026D01*
X11764709Y39109791D01*
X11510732Y39637036D01*
X11094931Y40008539D01*
X11404415Y40215330D01*
X11521126Y40390000D01*
X57149995Y40390000D01*
X57150000Y40389999D01*
X57432484Y40446190D01*
X57488675Y40457367D01*
X57775790Y40649210D01*
X64771832Y47645253D01*
X64779210Y47634210D01*
X66425000Y45988421D01*
X66425000Y43754619D01*
X66163234Y43929526D01*
X65589745Y44043600D01*
X65220255Y44043600D01*
X64646766Y43929526D01*
X64160585Y43604670D01*
X63835729Y43118489D01*
X63721655Y42545000D01*
X63835729Y41971511D01*
X64160585Y41485330D01*
X64470069Y41278539D01*
X64054268Y40907036D01*
X63800291Y40379791D01*
X63797642Y40364026D01*
X63918783Y40132000D01*
X65278000Y40132000D01*
X65278000Y40152000D01*
X65532000Y40152000D01*
X65532000Y40132000D01*
X65552000Y40132000D01*
X65552000Y39878000D01*
X65532000Y39878000D01*
X65532000Y39858000D01*
X65278000Y39858000D01*
X65278000Y39878000D01*
X63918783Y39878000D01*
X63797642Y39645974D01*
X63800291Y39630209D01*
X64054268Y39102964D01*
X64229845Y38946093D01*
X64153683Y38931762D01*
X63937559Y38792690D01*
X63792569Y38580490D01*
X63741560Y38328600D01*
X63741560Y36601400D01*
X63785838Y36366083D01*
X63924910Y36149959D01*
X64137110Y36004969D01*
X64389000Y35953960D01*
X66421000Y35953960D01*
X66656317Y35998238D01*
X66872441Y36137310D01*
X67017431Y36349510D01*
X67068440Y36601400D01*
X67068440Y37241860D01*
X67935787Y38109208D01*
X67935790Y38109210D01*
X68127633Y38396325D01*
X68152197Y38519816D01*
X68195001Y38735000D01*
X68195000Y38735005D01*
X68195000Y46354995D01*
X68195001Y46355000D01*
X68127633Y46693674D01*
X68127633Y46693675D01*
X67935790Y46980790D01*
X67935787Y46980792D01*
X67021069Y47895510D01*
X67659250Y47895510D01*
X67818000Y48054260D01*
X67818000Y49403000D01*
X68072000Y49403000D01*
X68072000Y48054260D01*
X68230750Y47895510D01*
X69070799Y47895510D01*
X69304188Y47992183D01*
X69482817Y48170811D01*
X69579490Y48404200D01*
X69579490Y49244250D01*
X69420740Y49403000D01*
X68072000Y49403000D01*
X67818000Y49403000D01*
X67798000Y49403000D01*
X67798000Y49657000D01*
X67818000Y49657000D01*
X67818000Y51005740D01*
X68072000Y51005740D01*
X68072000Y49657000D01*
X69420740Y49657000D01*
X69579490Y49815750D01*
X69579490Y50655800D01*
X69482817Y50889189D01*
X69304188Y51067817D01*
X69070799Y51164490D01*
X68230750Y51164490D01*
X68072000Y51005740D01*
X67818000Y51005740D01*
X67659250Y51164490D01*
X66819201Y51164490D01*
X66585812Y51067817D01*
X66407183Y50889189D01*
X66381418Y50826987D01*
X66062514Y51040072D01*
X65437022Y51164490D01*
X65372978Y51164490D01*
X64747486Y51040072D01*
X64217219Y50685759D01*
X63862906Y50155492D01*
X63738488Y49530000D01*
X63807330Y49183909D01*
X56783420Y42160000D01*
X11521126Y42160000D01*
X11404415Y42334670D01*
X11089634Y42545000D01*
X11404415Y42755330D01*
X11729271Y43241511D01*
X11843345Y43815000D01*
X11729271Y44388489D01*
X11404415Y44874670D01*
X11390087Y44884243D01*
X11411317Y44888238D01*
X11627441Y45027310D01*
X11772431Y45239510D01*
X11823440Y45491400D01*
X11823440Y46804833D01*
X12399838Y46804833D01*
X12541883Y46461057D01*
X12804673Y46197808D01*
X13148201Y46055162D01*
X13520167Y46054838D01*
X13863943Y46196883D01*
X13897118Y46230000D01*
X52142537Y46230000D01*
X52174673Y46197808D01*
X52518201Y46055162D01*
X52890167Y46054838D01*
X53233943Y46196883D01*
X53497192Y46459673D01*
X53639838Y46803201D01*
X53640162Y47175167D01*
X53498117Y47518943D01*
X53235327Y47782192D01*
X52891799Y47924838D01*
X52519833Y47925162D01*
X52176057Y47783117D01*
X52142882Y47750000D01*
X13897463Y47750000D01*
X13865327Y47782192D01*
X13521799Y47924838D01*
X13149833Y47925162D01*
X12806057Y47783117D01*
X12542808Y47520327D01*
X12400162Y47176799D01*
X12399838Y46804833D01*
X11823440Y46804833D01*
X11823440Y47218600D01*
X11779162Y47453917D01*
X11640090Y47670041D01*
X11427890Y47815031D01*
X11176000Y47866040D01*
X9144000Y47866040D01*
X8908683Y47821762D01*
X8692559Y47682690D01*
X8547569Y47470490D01*
X8496560Y47218600D01*
X8496560Y45491400D01*
X8540838Y45256083D01*
X8679910Y45039959D01*
X8892110Y44894969D01*
X8933439Y44886600D01*
X8915585Y44874670D01*
X8590729Y44388489D01*
X8476655Y43815000D01*
X710000Y43815000D01*
X710000Y49084841D01*
X1639446Y49084841D01*
X1725852Y48828357D01*
X2299336Y48618542D01*
X2909460Y48644161D01*
X3354148Y48828357D01*
X3440554Y49084841D01*
X4179446Y49084841D01*
X4265852Y48828357D01*
X4839336Y48618542D01*
X5449460Y48644161D01*
X5894148Y48828357D01*
X5980554Y49084841D01*
X5080000Y49985395D01*
X4179446Y49084841D01*
X3440554Y49084841D01*
X2540000Y49985395D01*
X1639446Y49084841D01*
X710000Y49084841D01*
X710000Y50405664D01*
X993542Y50405664D01*
X1019161Y49795540D01*
X1203357Y49350852D01*
X1459841Y49264446D01*
X2360395Y50165000D01*
X2719605Y50165000D01*
X3620159Y49264446D01*
X3810000Y49328401D01*
X3999841Y49264446D01*
X4900395Y50165000D01*
X3999841Y51065554D01*
X3810000Y51001599D01*
X3620159Y51065554D01*
X2719605Y50165000D01*
X2360395Y50165000D01*
X1459841Y51065554D01*
X1203357Y50979148D01*
X993542Y50405664D01*
X710000Y50405664D01*
X710000Y51624841D01*
X1639446Y51624841D01*
X1703401Y51435000D01*
X1639446Y51245159D01*
X2540000Y50344605D01*
X3440554Y51245159D01*
X3376599Y51435000D01*
X3440554Y51624841D01*
X4179446Y51624841D01*
X4243401Y51435000D01*
X4179446Y51245159D01*
X5080000Y50344605D01*
X5980554Y51245159D01*
X5916599Y51435000D01*
X5980554Y51624841D01*
X5080000Y52525395D01*
X4179446Y51624841D01*
X3440554Y51624841D01*
X2540000Y52525395D01*
X1639446Y51624841D01*
X710000Y51624841D01*
X710000Y52945664D01*
X993542Y52945664D01*
X1019161Y52335540D01*
X1203357Y51890852D01*
X1459841Y51804446D01*
X2360395Y52705000D01*
X2719605Y52705000D01*
X3620159Y51804446D01*
X3810000Y51868401D01*
X3999841Y51804446D01*
X4900395Y52705000D01*
X3999841Y53605554D01*
X3810000Y53541599D01*
X3620159Y53605554D01*
X2719605Y52705000D01*
X2360395Y52705000D01*
X1459841Y53605554D01*
X1203357Y53519148D01*
X993542Y52945664D01*
X710000Y52945664D01*
X710000Y53848000D01*
X1660616Y53848000D01*
X1639446Y53785159D01*
X1639446Y53785159D01*
G37*
X1639446Y53785159D02*
X2540000Y52884605D01*
X3440554Y53785159D01*
X3419384Y53848000D01*
X4200616Y53848000D01*
X4179446Y53785159D01*
X5080000Y52884605D01*
X5980554Y53785159D01*
X5959384Y53848000D01*
X6592283Y53848000D01*
X6319449Y53575643D01*
X6310797Y53554806D01*
X6160159Y53605554D01*
X5259605Y52705000D01*
X6160159Y51804446D01*
X6310327Y51855035D01*
X6317932Y51836629D01*
X6719182Y51434677D01*
X6319449Y51035643D01*
X6310797Y51014806D01*
X6160159Y51065554D01*
X5259605Y50165000D01*
X6160159Y49264446D01*
X6310327Y49315035D01*
X6317932Y49296629D01*
X6749357Y48864449D01*
X7313330Y48630267D01*
X7923991Y48629735D01*
X8488371Y48862932D01*
X8890323Y49264182D01*
X9289357Y48864449D01*
X9853330Y48630267D01*
X10463991Y48629735D01*
X11028371Y48862932D01*
X11430323Y49264182D01*
X11829357Y48864449D01*
X12393330Y48630267D01*
X13003991Y48629735D01*
X13568371Y48862932D01*
X13970323Y49264182D01*
X14369357Y48864449D01*
X14933330Y48630267D01*
X15543991Y48629735D01*
X16108371Y48862932D01*
X16510323Y49264182D01*
X16909357Y48864449D01*
X17473330Y48630267D01*
X18083991Y48629735D01*
X18648371Y48862932D01*
X19050323Y49264182D01*
X19449357Y48864449D01*
X20013330Y48630267D01*
X20623991Y48629735D01*
X21188371Y48862932D01*
X21590323Y49264182D01*
X21989357Y48864449D01*
X22553330Y48630267D01*
X23163991Y48629735D01*
X23728371Y48862932D01*
X24130323Y49264182D01*
X24529357Y48864449D01*
X25093330Y48630267D01*
X25703991Y48629735D01*
X26268371Y48862932D01*
X26670323Y49264182D01*
X27069357Y48864449D01*
X27633330Y48630267D01*
X28243991Y48629735D01*
X28808371Y48862932D01*
X29210323Y49264182D01*
X29609357Y48864449D01*
X30173330Y48630267D01*
X30783991Y48629735D01*
X31348371Y48862932D01*
X31750323Y49264182D01*
X32149357Y48864449D01*
X32713330Y48630267D01*
X33323991Y48629735D01*
X33888371Y48862932D01*
X34290323Y49264182D01*
X34689357Y48864449D01*
X35253330Y48630267D01*
X35863991Y48629735D01*
X36428371Y48862932D01*
X36830323Y49264182D01*
X37229357Y48864449D01*
X37793330Y48630267D01*
X38403991Y48629735D01*
X38968371Y48862932D01*
X39370323Y49264182D01*
X39769357Y48864449D01*
X40333330Y48630267D01*
X40943991Y48629735D01*
X41508371Y48862932D01*
X41910323Y49264182D01*
X42309357Y48864449D01*
X42873330Y48630267D01*
X43483991Y48629735D01*
X44048371Y48862932D01*
X44450323Y49264182D01*
X44849357Y48864449D01*
X45413330Y48630267D01*
X46023991Y48629735D01*
X46588371Y48862932D01*
X46990323Y49264182D01*
X47389357Y48864449D01*
X47953330Y48630267D01*
X48563991Y48629735D01*
X49128371Y48862932D01*
X49530323Y49264182D01*
X49929357Y48864449D01*
X50493330Y48630267D01*
X51103991Y48629735D01*
X51668371Y48862932D01*
X52070323Y49264182D01*
X52469357Y48864449D01*
X53033330Y48630267D01*
X53643991Y48629735D01*
X54208371Y48862932D01*
X54610323Y49264182D01*
X55009357Y48864449D01*
X55573330Y48630267D01*
X56183991Y48629735D01*
X56748371Y48862932D01*
X56970668Y49084841D01*
X57519446Y49084841D01*
X57605852Y48828357D01*
X58179336Y48618542D01*
X58789460Y48644161D01*
X59234148Y48828357D01*
X59320554Y49084841D01*
X58420000Y49985395D01*
X57519446Y49084841D01*
X56970668Y49084841D01*
X57180551Y49294357D01*
X57189203Y49315194D01*
X57339841Y49264446D01*
X58240395Y50165000D01*
X58226253Y50179142D01*
X58405858Y50358747D01*
X58420000Y50344605D01*
X58434143Y50358747D01*
X58613748Y50179142D01*
X58599605Y50165000D01*
X59500159Y49264446D01*
X59756643Y49350852D01*
X59966458Y49924336D01*
X59940839Y50534460D01*
X59756643Y50979148D01*
X59500161Y51065553D01*
X59614718Y51180110D01*
X59572541Y51222287D01*
X59679698Y51266673D01*
X59858327Y51445301D01*
X59955000Y51678690D01*
X59955000Y52419250D01*
X59796250Y52578000D01*
X58547000Y52578000D01*
X58547000Y52558000D01*
X58293000Y52558000D01*
X58293000Y52578000D01*
X58273000Y52578000D01*
X58273000Y52832000D01*
X58293000Y52832000D01*
X58293000Y52852000D01*
X58547000Y52852000D01*
X58547000Y52832000D01*
X59796250Y52832000D01*
X59955000Y52990750D01*
X59955000Y53731310D01*
X59906665Y53848000D01*
X69775000Y53848000D01*
X69775000Y710000D01*
X59281866Y710000D01*
X59320554Y824841D01*
X58420000Y1725395D01*
X57519446Y824841D01*
X57558134Y710000D01*
X56855626Y710000D01*
X57180551Y1034357D01*
X57189203Y1055194D01*
X57339841Y1004446D01*
X58240395Y1905000D01*
X58226253Y1919142D01*
X58405858Y2098747D01*
X58420000Y2084605D01*
X58434143Y2098747D01*
X58613748Y1919142D01*
X58599605Y1905000D01*
X59500159Y1004446D01*
X59756643Y1090852D01*
X59966458Y1664336D01*
X59940839Y2274460D01*
X59756643Y2719148D01*
X59500161Y2805553D01*
X59614718Y2920110D01*
X59572541Y2962287D01*
X59679698Y3006673D01*
X59858327Y3185301D01*
X59955000Y3418690D01*
X59955000Y4159250D01*
X59796250Y4318000D01*
X58547000Y4318000D01*
X58547000Y4298000D01*
X58293000Y4298000D01*
X58293000Y4318000D01*
X58273000Y4318000D01*
X58273000Y4572000D01*
X58293000Y4572000D01*
X58293000Y5821250D01*
X58547000Y5821250D01*
X58547000Y4572000D01*
X59796250Y4572000D01*
X59955000Y4730750D01*
X59955000Y5471310D01*
X59858327Y5704699D01*
X59679698Y5883327D01*
X59446309Y5980000D01*
X58705750Y5980000D01*
X58547000Y5821250D01*
X58293000Y5821250D01*
X58134250Y5980000D01*
X57393691Y5980000D01*
X57160302Y5883327D01*
X56981673Y5704699D01*
X56925881Y5570006D01*
X56750643Y5745551D01*
X56186670Y5979733D01*
X55576009Y5980265D01*
X55011629Y5747068D01*
X54609677Y5345818D01*
X54210643Y5745551D01*
X53646670Y5979733D01*
X53036009Y5980265D01*
X52471629Y5747068D01*
X52069677Y5345818D01*
X51670643Y5745551D01*
X51106670Y5979733D01*
X50496009Y5980265D01*
X49931629Y5747068D01*
X49529677Y5345818D01*
X49130643Y5745551D01*
X48566670Y5979733D01*
X47956009Y5980265D01*
X47391629Y5747068D01*
X46989677Y5345818D01*
X46590643Y5745551D01*
X46026670Y5979733D01*
X45416009Y5980265D01*
X44851629Y5747068D01*
X44449677Y5345818D01*
X44050643Y5745551D01*
X43486670Y5979733D01*
X42876009Y5980265D01*
X42311629Y5747068D01*
X41909677Y5345818D01*
X41510643Y5745551D01*
X40946670Y5979733D01*
X40336009Y5980265D01*
X39771629Y5747068D01*
X39369677Y5345818D01*
X38970643Y5745551D01*
X38406670Y5979733D01*
X37796009Y5980265D01*
X37231629Y5747068D01*
X36829677Y5345818D01*
X36430643Y5745551D01*
X35866670Y5979733D01*
X35256009Y5980265D01*
X34691629Y5747068D01*
X34289677Y5345818D01*
X33890643Y5745551D01*
X33326670Y5979733D01*
X32716009Y5980265D01*
X32151629Y5747068D01*
X31749677Y5345818D01*
X31350643Y5745551D01*
X30786670Y5979733D01*
X30176009Y5980265D01*
X29611629Y5747068D01*
X29209677Y5345818D01*
X28810643Y5745551D01*
X28246670Y5979733D01*
X27636009Y5980265D01*
X27071629Y5747068D01*
X26669677Y5345818D01*
X26270643Y5745551D01*
X26160000Y5791494D01*
X26160000Y6223000D01*
X62865000Y6223000D01*
X62914410Y6233006D01*
X62956035Y6261447D01*
X62983315Y6303841D01*
X62991999Y6350552D01*
X62864999Y35560552D01*
X62854778Y35609918D01*
X62826157Y35651419D01*
X62783644Y35678514D01*
X62738000Y35687000D01*
X52705000Y35687000D01*
X52705000Y38735000D01*
X52694994Y38784410D01*
X52666553Y38826035D01*
X52624159Y38853315D01*
X52578000Y38862000D01*
X14605000Y38862000D01*
X14555590Y38851994D01*
X14513965Y38823553D01*
X14486685Y38781159D01*
X14478000Y38735000D01*
X14478000Y32307046D01*
X14260839Y32452148D01*
X13970000Y32510000D01*
X11604648Y32510000D01*
X11404415Y32809670D01*
X11390087Y32819243D01*
X11411317Y32823238D01*
X11627441Y32962310D01*
X11772431Y33174510D01*
X11823440Y33426400D01*
X11823440Y35153600D01*
X11779162Y35388917D01*
X11640090Y35605041D01*
X11427890Y35750031D01*
X11176000Y35801040D01*
X9144000Y35801040D01*
X8908683Y35756762D01*
X8692559Y35617690D01*
X8547569Y35405490D01*
X8496560Y35153600D01*
X8496560Y33426400D01*
X8540838Y33191083D01*
X8679910Y32974959D01*
X8892110Y32829969D01*
X8933439Y32821600D01*
X8915585Y32809670D01*
X8590729Y32323489D01*
X8476655Y31750000D01*
X8590729Y31176511D01*
X8915585Y30690330D01*
X9230366Y30480000D01*
X8915585Y30269670D01*
X8590729Y29783489D01*
X8476655Y29210000D01*
X8590729Y28636511D01*
X8915585Y28150330D01*
X9225069Y27943539D01*
X8809268Y27572036D01*
X8555291Y27044791D01*
X8552642Y27029026D01*
X8673783Y26797000D01*
X10033000Y26797000D01*
X10033000Y26817000D01*
X10287000Y26817000D01*
X10287000Y26797000D01*
X11646217Y26797000D01*
X11767358Y27029026D01*
X11764709Y27044791D01*
X11510732Y27572036D01*
X11094931Y27943539D01*
X11404415Y28150330D01*
X11729271Y28636511D01*
X11843345Y29210000D01*
X11729271Y29783489D01*
X11404415Y30269670D01*
X11089634Y30480000D01*
X11404415Y30690330D01*
X11604648Y30990000D01*
X13655198Y30990000D01*
X14478000Y30167198D01*
X14478000Y8380000D01*
X11449262Y8380000D01*
X11249029Y8679670D01*
X10925772Y8895664D01*
X11048490Y8953179D01*
X11442688Y9385053D01*
X11614958Y9800974D01*
X11493817Y10033000D01*
X10287000Y10033000D01*
X10287000Y10013000D01*
X10033000Y10013000D01*
X10033000Y10033000D01*
X10013000Y10033000D01*
X10013000Y10287000D01*
X10033000Y10287000D01*
X10033000Y11494469D01*
X10287000Y11494469D01*
X10287000Y10287000D01*
X11493817Y10287000D01*
X11614958Y10519026D01*
X11442688Y10934947D01*
X11048490Y11366821D01*
X10519027Y11614968D01*
X10287000Y11494469D01*
X10033000Y11494469D01*
X9800973Y11614968D01*
X9271510Y11366821D01*
X8889992Y10948839D01*
X8709029Y11219670D01*
X8222848Y11544526D01*
X7649359Y11658600D01*
X7590641Y11658600D01*
X7017152Y11544526D01*
X6530971Y11219670D01*
X6350000Y10948828D01*
X6169029Y11219670D01*
X5682848Y11544526D01*
X5109359Y11658600D01*
X5050641Y11658600D01*
X4477152Y11544526D01*
X4011558Y11233426D01*
X4006762Y11258917D01*
X3867690Y11475041D01*
X3655490Y11620031D01*
X3403600Y11671040D01*
X1676400Y11671040D01*
X1441083Y11626762D01*
X1224959Y11487690D01*
X1079969Y11275490D01*
X1028960Y11023600D01*
X1028960Y9296400D01*
X1073238Y9061083D01*
X1212310Y8844959D01*
X1424510Y8699969D01*
X1468131Y8691136D01*
X1450971Y8679670D01*
X1126115Y8193489D01*
X1012041Y7620000D01*
X1126115Y7046511D01*
X1450971Y6560330D01*
X1937152Y6235474D01*
X2283646Y6166552D01*
X2470137Y5980061D01*
X2236009Y5980265D01*
X1671629Y5747068D01*
X1239449Y5315643D01*
X1005267Y4751670D01*
X1004735Y4141009D01*
X1237932Y3576629D01*
X1639182Y3174677D01*
X1239449Y2775643D01*
X1005267Y2211670D01*
X1004735Y1601009D01*
X1237932Y1036629D01*
X1563990Y710000D01*
X710000Y710000D01*
X710000Y14245974D01*
X8552642Y14245974D01*
X8555291Y14230209D01*
X8809268Y13702964D01*
X9245680Y13313046D01*
X9798087Y13119816D01*
X10033000Y13264076D01*
X10033000Y14478000D01*
X10287000Y14478000D01*
X10287000Y13264076D01*
X10521913Y13119816D01*
X11074320Y13313046D01*
X11510732Y13702964D01*
X11764709Y14230209D01*
X11767358Y14245974D01*
X11646217Y14478000D01*
X10287000Y14478000D01*
X10033000Y14478000D01*
X8673783Y14478000D01*
X8552642Y14245974D01*
X710000Y14245974D01*
X710000Y19685000D01*
X8476655Y19685000D01*
X8590729Y19111511D01*
X8915585Y18625330D01*
X9230366Y18415000D01*
X8915585Y18204670D01*
X8590729Y17718489D01*
X8476655Y17145000D01*
X8590729Y16571511D01*
X8915585Y16085330D01*
X9225069Y15878539D01*
X8809268Y15507036D01*
X8555291Y14979791D01*
X8552642Y14964026D01*
X8673783Y14732000D01*
X10033000Y14732000D01*
X10033000Y14752000D01*
X10287000Y14752000D01*
X10287000Y14732000D01*
X11646217Y14732000D01*
X11767358Y14964026D01*
X11764709Y14979791D01*
X11510732Y15507036D01*
X11136305Y15841572D01*
X11332401Y15972599D01*
X11497148Y16219161D01*
X11498551Y16226214D01*
X11729271Y16571511D01*
X11843345Y17145000D01*
X11729271Y17718489D01*
X11404415Y18204670D01*
X11089634Y18415000D01*
X11404415Y18625330D01*
X11729271Y19111511D01*
X11843345Y19685000D01*
X11729271Y20258489D01*
X11404415Y20744670D01*
X11390087Y20754243D01*
X11411317Y20758238D01*
X11627441Y20897310D01*
X11772431Y21109510D01*
X11823440Y21361400D01*
X11823440Y23088600D01*
X11779162Y23323917D01*
X11640090Y23540041D01*
X11427890Y23685031D01*
X11176000Y23736040D01*
X9144000Y23736040D01*
X8908683Y23691762D01*
X8692559Y23552690D01*
X8547569Y23340490D01*
X8496560Y23088600D01*
X8496560Y21361400D01*
X8540838Y21126083D01*
X8679910Y20909959D01*
X8892110Y20764969D01*
X8933439Y20756600D01*
X8915585Y20744670D01*
X8590729Y20258489D01*
X8476655Y19685000D01*
X710000Y19685000D01*
X710000Y26310974D01*
X8552642Y26310974D01*
X8555291Y26295209D01*
X8809268Y25767964D01*
X9245680Y25378046D01*
X9798087Y25184816D01*
X10033000Y25329076D01*
X10033000Y26543000D01*
X10287000Y26543000D01*
X10287000Y25329076D01*
X10521913Y25184816D01*
X11074320Y25378046D01*
X11510732Y25767964D01*
X11764709Y26295209D01*
X11767358Y26310974D01*
X11646217Y26543000D01*
X10287000Y26543000D01*
X10033000Y26543000D01*
X8673783Y26543000D01*
X8552642Y26310974D01*
X710000Y26310974D01*
X710000Y38375974D01*
X8552642Y38375974D01*
X8555291Y38360209D01*
X8809268Y37832964D01*
X9245680Y37443046D01*
X9798087Y37249816D01*
X10033000Y37394076D01*
X10033000Y38608000D01*
X10287000Y38608000D01*
X10287000Y37394076D01*
X10521913Y37249816D01*
X11074320Y37443046D01*
X11510732Y37832964D01*
X11764709Y38360209D01*
X11767358Y38375974D01*
X11646217Y38608000D01*
X10287000Y38608000D01*
X10033000Y38608000D01*
X8673783Y38608000D01*
X8552642Y38375974D01*
X710000Y38375974D01*
X710000Y43815000D01*
X8476655Y43815000D01*
X8590729Y43241511D01*
X8915585Y42755330D01*
X9230366Y42545000D01*
X8915585Y42334670D01*
X8590729Y41848489D01*
X8476655Y41275000D01*
X8590729Y40701511D01*
X8915585Y40215330D01*
X9225069Y40008539D01*
X8809268Y39637036D01*
X8555291Y39109791D01*
X8552642Y39094026D01*
X8673783Y38862000D01*
X10033000Y38862000D01*
X10033000Y38882000D01*
X10287000Y38882000D01*
X10287000Y38862000D01*
X11646217Y38862000D01*
X11767358Y39094026D01*
X11764709Y39109791D01*
X11510732Y39637036D01*
X11094931Y40008539D01*
X11404415Y40215330D01*
X11521126Y40390000D01*
X57149995Y40390000D01*
X57150000Y40389999D01*
X57432484Y40446190D01*
X57488675Y40457367D01*
X57775790Y40649210D01*
X64771832Y47645253D01*
X64779210Y47634210D01*
X66425000Y45988421D01*
X66425000Y43754619D01*
X66163234Y43929526D01*
X65589745Y44043600D01*
X65220255Y44043600D01*
X64646766Y43929526D01*
X64160585Y43604670D01*
X63835729Y43118489D01*
X63721655Y42545000D01*
X63835729Y41971511D01*
X64160585Y41485330D01*
X64470069Y41278539D01*
X64054268Y40907036D01*
X63800291Y40379791D01*
X63797642Y40364026D01*
X63918783Y40132000D01*
X65278000Y40132000D01*
X65278000Y40152000D01*
X65532000Y40152000D01*
X65532000Y40132000D01*
X65552000Y40132000D01*
X65552000Y39878000D01*
X65532000Y39878000D01*
X65532000Y39858000D01*
X65278000Y39858000D01*
X65278000Y39878000D01*
X63918783Y39878000D01*
X63797642Y39645974D01*
X63800291Y39630209D01*
X64054268Y39102964D01*
X64229845Y38946093D01*
X64153683Y38931762D01*
X63937559Y38792690D01*
X63792569Y38580490D01*
X63741560Y38328600D01*
X63741560Y36601400D01*
X63785838Y36366083D01*
X63924910Y36149959D01*
X64137110Y36004969D01*
X64389000Y35953960D01*
X66421000Y35953960D01*
X66656317Y35998238D01*
X66872441Y36137310D01*
X67017431Y36349510D01*
X67068440Y36601400D01*
X67068440Y37241860D01*
X67935787Y38109208D01*
X67935790Y38109210D01*
X68127633Y38396325D01*
X68152197Y38519816D01*
X68195001Y38735000D01*
X68195000Y38735005D01*
X68195000Y46354995D01*
X68195001Y46355000D01*
X68127633Y46693674D01*
X68127633Y46693675D01*
X67935790Y46980790D01*
X67935787Y46980792D01*
X67021069Y47895510D01*
X67659250Y47895510D01*
X67818000Y48054260D01*
X67818000Y49403000D01*
X68072000Y49403000D01*
X68072000Y48054260D01*
X68230750Y47895510D01*
X69070799Y47895510D01*
X69304188Y47992183D01*
X69482817Y48170811D01*
X69579490Y48404200D01*
X69579490Y49244250D01*
X69420740Y49403000D01*
X68072000Y49403000D01*
X67818000Y49403000D01*
X67798000Y49403000D01*
X67798000Y49657000D01*
X67818000Y49657000D01*
X67818000Y51005740D01*
X68072000Y51005740D01*
X68072000Y49657000D01*
X69420740Y49657000D01*
X69579490Y49815750D01*
X69579490Y50655800D01*
X69482817Y50889189D01*
X69304188Y51067817D01*
X69070799Y51164490D01*
X68230750Y51164490D01*
X68072000Y51005740D01*
X67818000Y51005740D01*
X67659250Y51164490D01*
X66819201Y51164490D01*
X66585812Y51067817D01*
X66407183Y50889189D01*
X66381418Y50826987D01*
X66062514Y51040072D01*
X65437022Y51164490D01*
X65372978Y51164490D01*
X64747486Y51040072D01*
X64217219Y50685759D01*
X63862906Y50155492D01*
X63738488Y49530000D01*
X63807330Y49183909D01*
X56783420Y42160000D01*
X11521126Y42160000D01*
X11404415Y42334670D01*
X11089634Y42545000D01*
X11404415Y42755330D01*
X11729271Y43241511D01*
X11843345Y43815000D01*
X11729271Y44388489D01*
X11404415Y44874670D01*
X11390087Y44884243D01*
X11411317Y44888238D01*
X11627441Y45027310D01*
X11772431Y45239510D01*
X11823440Y45491400D01*
X11823440Y46804833D01*
X12399838Y46804833D01*
X12541883Y46461057D01*
X12804673Y46197808D01*
X13148201Y46055162D01*
X13520167Y46054838D01*
X13863943Y46196883D01*
X13897118Y46230000D01*
X52142537Y46230000D01*
X52174673Y46197808D01*
X52518201Y46055162D01*
X52890167Y46054838D01*
X53233943Y46196883D01*
X53497192Y46459673D01*
X53639838Y46803201D01*
X53640162Y47175167D01*
X53498117Y47518943D01*
X53235327Y47782192D01*
X52891799Y47924838D01*
X52519833Y47925162D01*
X52176057Y47783117D01*
X52142882Y47750000D01*
X13897463Y47750000D01*
X13865327Y47782192D01*
X13521799Y47924838D01*
X13149833Y47925162D01*
X12806057Y47783117D01*
X12542808Y47520327D01*
X12400162Y47176799D01*
X12399838Y46804833D01*
X11823440Y46804833D01*
X11823440Y47218600D01*
X11779162Y47453917D01*
X11640090Y47670041D01*
X11427890Y47815031D01*
X11176000Y47866040D01*
X9144000Y47866040D01*
X8908683Y47821762D01*
X8692559Y47682690D01*
X8547569Y47470490D01*
X8496560Y47218600D01*
X8496560Y45491400D01*
X8540838Y45256083D01*
X8679910Y45039959D01*
X8892110Y44894969D01*
X8933439Y44886600D01*
X8915585Y44874670D01*
X8590729Y44388489D01*
X8476655Y43815000D01*
X710000Y43815000D01*
X710000Y49084841D01*
X1639446Y49084841D01*
X1725852Y48828357D01*
X2299336Y48618542D01*
X2909460Y48644161D01*
X3354148Y48828357D01*
X3440554Y49084841D01*
X4179446Y49084841D01*
X4265852Y48828357D01*
X4839336Y48618542D01*
X5449460Y48644161D01*
X5894148Y48828357D01*
X5980554Y49084841D01*
X5080000Y49985395D01*
X4179446Y49084841D01*
X3440554Y49084841D01*
X2540000Y49985395D01*
X1639446Y49084841D01*
X710000Y49084841D01*
X710000Y50405664D01*
X993542Y50405664D01*
X1019161Y49795540D01*
X1203357Y49350852D01*
X1459841Y49264446D01*
X2360395Y50165000D01*
X2719605Y50165000D01*
X3620159Y49264446D01*
X3810000Y49328401D01*
X3999841Y49264446D01*
X4900395Y50165000D01*
X3999841Y51065554D01*
X3810000Y51001599D01*
X3620159Y51065554D01*
X2719605Y50165000D01*
X2360395Y50165000D01*
X1459841Y51065554D01*
X1203357Y50979148D01*
X993542Y50405664D01*
X710000Y50405664D01*
X710000Y51624841D01*
X1639446Y51624841D01*
X1703401Y51435000D01*
X1639446Y51245159D01*
X2540000Y50344605D01*
X3440554Y51245159D01*
X3376599Y51435000D01*
X3440554Y51624841D01*
X4179446Y51624841D01*
X4243401Y51435000D01*
X4179446Y51245159D01*
X5080000Y50344605D01*
X5980554Y51245159D01*
X5916599Y51435000D01*
X5980554Y51624841D01*
X5080000Y52525395D01*
X4179446Y51624841D01*
X3440554Y51624841D01*
X2540000Y52525395D01*
X1639446Y51624841D01*
X710000Y51624841D01*
X710000Y52945664D01*
X993542Y52945664D01*
X1019161Y52335540D01*
X1203357Y51890852D01*
X1459841Y51804446D01*
X2360395Y52705000D01*
X2719605Y52705000D01*
X3620159Y51804446D01*
X3810000Y51868401D01*
X3999841Y51804446D01*
X4900395Y52705000D01*
X3999841Y53605554D01*
X3810000Y53541599D01*
X3620159Y53605554D01*
X2719605Y52705000D01*
X2360395Y52705000D01*
X1459841Y53605554D01*
X1203357Y53519148D01*
X993542Y52945664D01*
X710000Y52945664D01*
X710000Y53848000D01*
X1660616Y53848000D01*
X1639446Y53785159D01*
M02*
