M48
;DRILL file {KiCad 4.0.2+dfsg1-stable} date Fri 21 Oct 2016 21:41:59 CEST
;FORMAT={-:-/ absolute / metric / decimal}
FMAT,2
METRIC,TZ
T1C0.400
T2C0.600
T3C1.016
T4C1.097
T5C1.100
T6C1.200
%
G90
G05
M71
T1
X12.598Y31.293
X12.675Y15.977
X12.878Y40.056
X12.903Y25.095
X15.418Y19.787
X15.875Y10.033
X20.828Y14.224
X21.336Y33.02
X21.59Y19.812
X22.403Y11.913
X22.479Y25.527
X22.86Y28.575
X27.178Y20.066
X27.178Y15.494
X29.21Y24.384
X30.861Y12.7
X31.369Y17.526
X31.75Y32.004
X32.385Y29.21
X32.766Y20.066
X39.7Y20.422
X40.64Y28.575
X40.64Y18.288
X43.18Y32.004
X46.355Y28.575
X46.355Y20.345
X48.26Y18.288
X50.355Y48.387
X50.8Y43.307
X51.435Y18.288
X51.689Y38.417
X55.245Y29.845
X56.134Y32.258
X56.744Y14.656
X59.69Y24.765
X60.261Y26.352
X60.325Y28.956
X61.976Y13.589
X62.459Y19.482
X62.713Y14.757
X62.865Y7.62
X63.119Y21.082
X64.846Y14.884
T2
X31.369Y24.257
X33.63Y48.285
X44.386Y48.578
X50.292Y38.481
X50.546Y40.069
X53.784Y44.958
X56.261Y24.638
X60.325Y30.988
X65.278Y32.512
T3
X17.78Y32.385
X17.78Y29.845
X17.78Y27.305
X17.78Y24.765
X17.78Y22.225
X17.78Y19.685
X17.78Y17.145
X17.78Y14.605
X17.78Y12.065
X17.78Y9.525
X35.56Y9.525
X38.1Y9.525
X40.64Y9.525
X43.18Y9.525
X45.72Y9.525
X46.863Y44.831
X46.863Y42.291
X46.863Y39.751
X48.26Y9.525
X50.8Y9.525
X53.34Y9.525
X55.88Y9.525
X58.42Y9.525
X66.548Y22.606
X66.548Y20.066
X66.548Y17.526
X66.548Y14.986
X69.088Y22.606
X69.088Y20.066
X69.088Y17.526
X69.088Y14.986
T4
X66.548Y52.578
X66.548Y50.038
T5
X2.54Y52.705
X2.54Y50.165
X2.54Y4.445
X2.54Y1.905
X5.08Y52.705
X5.08Y50.165
X5.08Y4.445
X5.08Y1.905
X7.62Y52.705
X7.62Y50.165
X7.62Y4.445
X7.62Y1.905
X10.16Y52.705
X10.16Y50.165
X10.16Y4.445
X10.16Y1.905
X12.7Y52.705
X12.7Y50.165
X12.7Y4.445
X12.7Y1.905
X15.24Y52.705
X15.24Y50.165
X15.24Y4.445
X15.24Y1.905
X17.78Y52.705
X17.78Y50.165
X17.78Y4.445
X17.78Y1.905
X20.32Y52.705
X20.32Y50.165
X20.32Y4.445
X20.32Y1.905
X22.86Y52.705
X22.86Y50.165
X22.86Y4.445
X22.86Y1.905
X25.4Y52.705
X25.4Y50.165
X25.4Y4.445
X25.4Y1.905
X27.94Y52.705
X27.94Y50.165
X27.94Y4.445
X27.94Y1.905
X30.48Y52.705
X30.48Y50.165
X30.48Y4.445
X30.48Y1.905
X33.02Y52.705
X33.02Y50.165
X33.02Y4.445
X33.02Y1.905
X35.56Y52.705
X35.56Y50.165
X35.56Y4.445
X35.56Y1.905
X38.1Y52.705
X38.1Y50.165
X38.1Y4.445
X38.1Y1.905
X40.64Y52.705
X40.64Y50.165
X40.64Y4.445
X40.64Y1.905
X43.18Y52.705
X43.18Y50.165
X43.18Y4.445
X43.18Y1.905
X45.72Y52.705
X45.72Y50.165
X45.72Y4.445
X45.72Y1.905
X48.26Y52.705
X48.26Y50.165
X48.26Y4.445
X48.26Y1.905
X50.8Y52.705
X50.8Y50.165
X50.8Y4.445
X50.8Y1.905
X53.34Y52.705
X53.34Y50.165
X53.34Y4.445
X53.34Y1.905
X55.88Y52.705
X55.88Y50.165
X55.88Y4.445
X55.88Y1.905
X58.42Y52.705
X58.42Y50.165
X58.42Y4.445
X58.42Y1.905
T6
X67.818Y33.726
X67.818Y30.226
T0
M30
